<?xml version="1.0"?>
<svg xmlns="http://www.w3.org/2000/svg" height="512px" viewBox="0 0 496 496.008" width="512px"><g><path d="m32.003906 320h16v64h-16zm0 0" data-original="#000000" class="active-path" data-old_color="#000000" fill="#0077FF"/><path d="m32.003906 288h16v16h-16zm0 0" data-original="#000000" class="active-path" data-old_color="#000000" fill="#0077FF"/><path d="m32.003906 400h16v16h-16zm0 0" data-original="#000000" class="active-path" data-old_color="#000000" fill="#0077FF"/><path d="m448.003906 328h16v48h-16zm0 0" data-original="#000000" class="active-path" data-old_color="#000000" fill="#0077FF"/><path d="m208.003906 324.945312 105.886719-52.945312-105.886719-52.945312zm16-80 54.113282 27.054688-54.113282 27.054688zm0 0" data-original="#000000" class="active-path" data-old_color="#000000" fill="#0077FF"/><path d="m416.003906 40c-22.054687 0-40 17.945312-40 40s17.945313 40 40 40c22.054688 0 40-17.945312 40-40s-17.945312-40-40-40zm0 64c-13.230468 0-24-10.769531-24-24s10.769532-24 24-24c13.230469 0 24 10.769531 24 24s-10.769531 24-24 24zm0 0" data-original="#000000" class="active-path" data-old_color="#000000" fill="#0077FF"/><path d="m496.003906 101.710938v-43.421876l-12.953125-4.449218c-.359375-.910156-.742187-1.832032-1.152343-2.75l6.027343-12.3125-30.714843-30.699219-12.304688 6.027344c-.910156-.410157-1.832031-.792969-2.75-1.152344l-4.441406-12.953125h-43.429688l-4.441406 12.953125c-.917969.359375-1.839844.742187-2.75 1.152344l-12.296875-6.027344-30.710937 30.707031 6.023437 12.3125c-.410156.910156-.792969 1.832032-1.152344 2.75l-12.953125 4.441406v43.421876l12.953125 4.449218c.359375.910156.742188 1.832032 1.152344 2.75l-6.023437 12.304688 9.703124 9.707031-52.097656 52.09375c-13.535156-8.191406-29.054687-13.40625-45.679687-14.679687v-72.335938h-16v72.320312c-16.519531 1.265626-32.097657 6.421876-45.726563 14.648438l-66.105468-66.105469c10.183593-12.726562 15.824218-28.511719 15.824218-44.863281 0-20.449219-8.742187-40-23.984375-53.648438-15.230469-13.640624-35.710937-20.183593-56.199219-17.894531-31.59375 3.496094-58.046874 28.75-62.921874 60.054688-3.285157 21.136719 2.753906 42.425781 16.5625 58.417969 2.152343 2.503906 4.039062 5.183593 5.765624 7.949218-4.445312 4.359375-7.222656 10.417969-7.222656 17.121094 0 10.664062 7.039063 19.625 16.679688 22.734375 3.222656 18.851563 19.578125 33.265625 39.320312 33.265625 19.742188 0 36.097656-14.414062 39.320313-33.265625 9.640625-3.109375 16.679687-12.070313 16.679687-22.734375 0-1.839844-.246094-3.609375-.640625-5.328125l53.722657 53.726563c-5.53125 4.640624-10.539063 9.890624-15.011719 15.609374h-126.070313c-22.054687 0-39.99999975 17.945313-39.99999975 40v208c0 22.054688 17.94531275 40 39.99999975 40h416c22.054688 0 40-17.945312 40-40v-208.007812c0-22.054688-17.945312-40-40-40h-126.175781c-4.457031-5.679688-9.457031-10.902344-14.96875-15.542969l50.234375-50.234375 9.703125 9.707032 12.304687-6.035157c.910157.410157 1.832032.792969 2.75 1.152344l4.441407 12.953125h43.429687l4.441406-12.953125c.921876-.359375 1.839844-.742187 2.75-1.152344l12.304688 6.035157 30.714844-30.722657-6.027344-12.304687c.410156-.917969.792969-1.832032 1.152344-2.75zm-466.433594 6.769531c-10.894531-12.617188-15.460937-28.785157-12.855468-45.503907 3.777344-24.289062 24.328125-43.886718 48.863281-46.609374 16.210937-1.832032 31.746094 3.152343 43.769531 13.90625 11.855469 10.605468 18.65625 25.824218 18.65625 41.726562 0 13.503906-4.894531 26.542969-13.777344 36.71875-3.09375 3.546875-5.71875 7.449219-8.117187 11.496094-.707031-.0625-1.386719-.214844-2.105469-.214844h-24v-25.472656c9.289063-3.3125 16-12.113282 16-22.527344 0-13.230469-10.769531-24-24-24-13.230468 0-24 10.769531-24 24 0 10.414062 6.710938 19.214844 16 22.527344v25.472656h-24c-.75 0-1.457031.152344-2.183594.222656-2.433593-4.109375-5.097656-8.09375-8.25-11.742187zm34.433594-36.480469c0-4.414062 3.59375-8 8-8s8 3.585938 8 8-3.59375 8-8 8-8-3.585938-8-8zm8 112c-10.414062 0-19.214844-6.710938-22.527344-16h45.046876c-3.304688 9.289062-12.101563 16-22.519532 16zm32-32h-64c-4.40625 0-8-3.585938-8-8s3.59375-8 8-8h64c4.40625 0 8 3.585938 8 8s-3.59375 8-8 8zm-88 304v-208c0-13.230469 10.769532-24 24-24h24v256h-24c-13.230468 0-24-10.769531-24-24zm464-208v208c0 13.230469-10.769531 24-24 24h-24v-256h24c13.230469 0 24 10.769531 24 24zm-64-24v256h-336v-256h75.71875c-2.636718 5.078125-4.894531 10.398438-6.695312 15.96875l-53.023438.039062v223.992188h304v-224h-53.03125c-1.800781-5.558594-4.089844-10.894531-6.761718-16zm-80 48c0 48.519531-39.480468 88-88 88-48.519531 0-88-39.480469-88-88h-16c0 57.34375 46.65625 104 104 104s104-46.65625 104-104c0-5.441406-.425781-10.785156-1.230468-16h33.230468v192h-272v-192.007812l49.230469-.023438 1.546875-6c10.015625-38.839844 45.054688-65.96875 85.222656-65.96875 48.519532 0 88 39.480469 88 88zm144-181.710938-9.535156 3.261719-1.234375 3.800781c-.855469 2.617188-1.980469 5.304688-3.335937 7.984376l-1.804688 3.558593 4.445312 9.082031-14.542968 14.542969-9.097656-4.457031-3.558594 1.824219c-2.648438 1.34375-5.328125 2.472656-7.984375 3.328125l-3.792969 1.242187-3.269531 9.542969h-20.570313l-3.269531-9.535156-3.792969-1.242188c-2.65625-.855468-5.335937-1.984375-7.984375-3.328125l-3.558593-1.824219-9.097657 4.457032-14.542969-14.542969 4.449219-9.082031-1.808593-3.558594c-1.359376-2.679688-2.488282-5.367188-3.335938-7.984375l-1.234375-3.800781-9.542969-3.269532v-20.578124l9.535156-3.261719 1.234376-3.800781c.855468-2.617188 1.984374-5.304688 3.335937-7.984376l1.804687-3.550781-4.445312-9.097656 14.542969-14.542969 9.097656 4.464844 3.558594-1.824219c2.648437-1.34375 5.328125-2.472656 7.984375-3.328125l3.792968-1.242187 3.269532-9.542969h20.570312l3.269532 9.535156 3.792968 1.242188c2.65625.855468 5.335938 1.984375 7.984375 3.328125l3.558594 1.824219 9.097656-4.464844 14.542969 14.542968-4.445312 9.105469 1.804687 3.550781c1.363281 2.679688 2.488281 5.367188 3.335937 7.984376l1.234376 3.800781 9.542968 3.261719zm0 0" data-original="#000000" class="active-path" data-old_color="#000000" fill="#0077FF"/><path d="m224.003906 56c0 13.230469 10.769532 24 24 24 13.230469 0 24-10.769531 24-24s-10.769531-24-24-24c-13.230468 0-24 10.769531-24 24zm32 0c0 4.414062-3.59375 8-8 8s-8-3.585938-8-8 3.59375-8 8-8 8 3.585938 8 8zm0 0" data-original="#000000" class="active-path" data-old_color="#000000" fill="#0077FF"/><path d="m248.003906 16c22.054688 0 40 17.945312 40 40h16c0-30.871094-25.121094-56-56-56s-56 25.128906-56 56h16c0-22.054688 17.945313-40 40-40zm0 0" data-original="#000000" class="active-path" data-old_color="#000000" fill="#0077FF"/></g> </svg>
