<?xml version="1.0"?>
<svg xmlns="http://www.w3.org/2000/svg" xmlns:xlink="http://www.w3.org/1999/xlink" version="1.1" id="Capa_1" x="0px" y="0px" viewBox="0 0 512.127 512.127" style="enable-background:new 0 0 512.127 512.127;" xml:space="preserve" width="512px" height="512px"><g><g>
	<g>
		<path d="M463.919,202.655L111.823,8.287c-20.608-11.36-45.024-11.04-65.28,0.96c-19.104,11.296-30.496,30.912-30.496,52.48    v388.672c0,21.6,11.424,41.216,30.528,52.512c10.4,6.144,21.888,9.216,33.408,9.216c10.912,0,21.824-2.752,31.872-8.32    l352.096-194.304c20.128-11.136,32.16-31.104,32.128-53.472C496.079,233.695,484.047,213.759,463.919,202.655z M448.431,281.503    L96.367,475.807c-10.592,5.824-23.136,5.664-33.536-0.48c-9.408-5.536-14.784-14.624-14.784-24.928V61.727    c0-10.304,5.376-19.392,14.72-24.928c5.376-3.168,11.296-4.736,17.216-4.736c5.6,0,11.2,1.408,16.352,4.224l352.128,194.4    c9.728,5.376,15.584,14.88,15.584,25.376S458.223,276.095,448.431,281.503z" data-original="#000000" class="active-path" data-old_color="#000000" fill="#0077FF"/>
	</g>
</g><g>
	<g>
		<path d="M391.855,325.279L57.775,17.087c-6.496-5.952-16.608-5.568-22.624,0.928c-5.984,6.496-5.6,16.608,0.896,22.592    l334.08,308.16c3.072,2.848,6.976,4.256,10.848,4.256c4.32,0,8.608-1.696,11.776-5.152    C398.767,341.375,398.351,331.263,391.855,325.279z" data-original="#000000" class="active-path" data-old_color="#000000" fill="#0077FF"/>
	</g>
</g><g>
	<g>
		<path d="M374.031,153.919c-6.24-6.24-16.384-6.24-22.624,0l-316.8,316.768c-6.24,6.24-6.24,16.384,0,22.624    c3.136,3.104,7.232,4.672,11.328,4.672c4.096,0,8.192-1.568,11.296-4.672l316.8-316.768    C380.271,170.303,380.271,160.159,374.031,153.919z" data-original="#000000" class="active-path" data-old_color="#000000" fill="#0077FF"/>
	</g>
</g></g> </svg>
