<?xml version="1.0" encoding="UTF-8"?>
<svg width="512px" height="512px" viewBox="0 0 512 512" version="1.1" xmlns="http://www.w3.org/2000/svg" xmlns:xlink="http://www.w3.org/1999/xlink">
    <!-- Generator: Sketch 53.2 (72643) - https://sketchapp.com -->
    <title>icon9</title>
    <desc>Created with Sketch.</desc>
    <g id="Page-1" stroke="none" stroke-width="1" fill="none" fill-rule="evenodd">
        <g id="icon9" fill="#0077FF" fill-rule="nonzero">
            <path d="M161.291,353 C159.431,351.14 156.851,350.069 154.221,350.069 C151.591,350.069 149.011,351.139 147.151,353 C145.291,354.859 144.221,357.439 144.221,360.069 C144.221,362.7 145.291,365.28 147.151,367.139 C149.011,368.999 151.591,370.069 154.221,370.069 C156.851,370.069 159.431,369 161.291,367.139 C163.151,365.28 164.221,362.7 164.221,360.069 C164.221,357.439 163.151,354.859 161.291,353 Z" id="Path"></path>
            <path d="M495.229,364.052 L422.934,291.757 C412.144,280.967 397.799,275.025 382.539,275.025 C367.279,275.025 352.935,280.967 342.145,291.757 L316.934,316.967 C316.933,316.968 316.932,316.969 316.931,316.97 C316.93,316.971 316.929,316.972 316.928,316.973 L306.857,327.043 L184.854,205.04 L220.141,169.754 C242.414,147.48 242.414,111.238 220.141,88.964 L147.908,16.732 C125.635,-5.539 89.393,-5.539 67.119,16.732 L48.066,35.784 C-15.971,99.822 -15.971,204.019 48.066,268.057 L118.318,338.309 C122.223,342.213 128.555,342.213 132.461,338.309 C136.366,334.404 136.366,328.072 132.461,324.166 L62.209,253.914 C10.453,202.159 6.33,120.534 49.835,64.015 L125.776,139.957 C127.729,141.909 130.288,142.886 132.847,142.886 C135.406,142.886 137.966,141.909 139.918,139.957 C143.823,136.052 143.824,129.72 139.918,125.814 L63.12,49.015 L81.261,30.874 C95.737,16.4 119.29,16.398 133.766,30.874 L205.998,103.106 C220.474,117.582 220.474,141.135 205.998,155.611 L163.64,197.968 C161.765,199.844 160.711,202.387 160.711,205.039 C160.711,207.691 161.765,210.234 163.64,212.11 L299.786,348.256 C303.692,352.162 310.024,352.161 313.928,348.256 L324.002,338.183 L447.952,462.133 C422.861,481.501 392.259,492 360.04,492 C321.512,492 285.29,476.996 258.046,449.752 L186.794,378.5 C182.89,374.596 176.557,374.596 172.652,378.5 C168.747,382.405 168.747,388.737 172.652,392.643 L243.904,463.895 C274.925,494.916 316.17,512 360.04,512 C403.911,512 445.156,494.916 476.177,463.895 L495.229,444.842 C506.019,434.053 511.961,419.707 511.961,404.447 C511.961,389.188 506.019,374.843 495.229,364.052 Z M481.087,430.699 L462.945,448.841 L338.145,324.041 L356.287,305.899 C363.299,298.886 372.622,295.024 382.539,295.024 C392.456,295.024 401.779,298.886 408.791,305.899 L481.086,378.195 C488.099,385.207 491.961,394.531 491.961,404.447 C491.961,414.364 488.1,423.688 481.087,430.699 Z" id="Shape"></path>
            <path d="M164.201,150.1 C162.341,148.23 159.761,147.17 157.131,147.17 C154.501,147.17 151.921,148.23 150.061,150.1 C148.201,151.96 147.131,154.531 147.131,157.17 C147.131,159.8 148.201,162.38 150.061,164.24 C151.921,166.1 154.501,167.17 157.131,167.17 C159.761,167.17 162.341,166.1 164.201,164.24 C166.061,162.38 167.131,159.8 167.131,157.17 C167.131,154.54 166.061,151.96 164.201,150.1 Z" id="Path"></path>
        </g>
    </g>
</svg>