<?xml version="1.0" encoding="UTF-8"?>
<svg width="434px" height="397px" viewBox="0 0 434 397" version="1.1" xmlns="http://www.w3.org/2000/svg" xmlns:xlink="http://www.w3.org/1999/xlink">
    <!-- Generator: Sketch 53.2 (72643) - https://sketchapp.com -->
    <title>illustration7</title>
    <desc>Created with Sketch.</desc>
    <defs>
        <linearGradient x1="32.9905089%" y1="18.0531728%" x2="99.1436197%" y2="87.6573922%" id="linearGradient-1">
            <stop stop-color="#3139EC" offset="0%"></stop>
            <stop stop-color="#FF0061" offset="100%"></stop>
        </linearGradient>
    </defs>
    <g id="FAQ" stroke="none" stroke-width="1" fill="none" fill-rule="evenodd">
        <g id="Landing-Page-Desktop-HD" transform="translate(-922.000000, -227.000000)">
            <g id="Section-1-:-Hero" transform="translate(1.000000, 0.000000)">
                <g id="illustration7" transform="translate(921.000000, 220.000000)">
                    <path d="M207.58863,381.976259 C195.921235,382.206817 184.305043,383.587838 172.908815,386.099259 C153.828889,390.262444 134.331037,397.552037 115.315407,393.236148 C102.319519,390.286556 90.9712222,382.153074 78.0235556,378.994519 C50.0466296,372.187148 7.70751852,378.383704 7.03240741,336.446444 C6.94846559,323.382451 13.3031487,311.114967 24.0227037,303.647296 C29.4557407,299.942222 36.5122593,296.679185 37.549037,290.193296 C38.6822593,283.112667 31.6498519,277.454593 24.9791111,274.818444 C18.3083704,272.182296 10.5767407,270.422185 6.49392593,264.506926 C0.51437037,255.778704 6.64662963,243.265037 15.5838148,237.606963 C24.521,231.948889 35.4594074,230.614741 45.3208519,226.813222 C55.1822963,223.011704 64.9955185,214.926444 64.874963,204.349704 C64.7785185,196.786852 59.4258519,190.092 52.8997778,186.274407 C38.6822593,177.956074 24.6897778,177.835519 12.5458148,164.992333 C-6.56625926,144.730963 -3.21481481,103.452741 28.7725926,98.0518519 C37.7338889,96.5408889 46.8880741,98.726963 55.977963,98.6707037 C65.0678519,98.6144444 75.2668519,95.3192593 78.9317407,86.9768148 C81.9134815,80.1292593 79.422,72.0600741 75.4758148,65.7188519 C72.486037,60.8966296 68.6523704,56.5405556 66.8681481,51.1798519 C65.0839259,45.8191481 66.1287407,38.8992593 71.0634815,36.1666667 C78.8272593,31.8347037 87.0009259,40.4825556 94.5959259,45.0958148 C105.847778,51.9112222 121.921852,49.1143333 130.183926,38.9796296 C135.094556,32.9679259 137.417259,24.963037 143.115519,19.6907407 C148.813778,14.4184444 157.276778,12.811037 165.120926,13.1646667 C186.330667,14.096963 204.864074,26.8838889 222.907222,38.0794815 C240.95037,49.2750741 261.862741,59.6187407 282.590259,55.0295926 C295.63437,52.1523333 306.70137,43.6893333 318.941778,38.4250741 C331.182185,33.1608148 347.224111,31.8507778 356.418481,41.5514815 C371.198593,57.1352963 356.201481,85.6185556 368.474037,103.219667 C378.118481,117.003185 400.66237,117.975667 405.830185,135.367815 C411.608815,154.849593 390.286556,171.968481 394.674778,191.924444 C397.085889,202.75837 408.289519,208.689704 417.58837,214.733556 C426.887222,220.777407 436.129815,231.514889 431.870185,241.754074 C428.108852,250.77163 415.739852,253.729259 411.94637,262.730741 C408.924444,269.899778 412.444667,277.912704 414.052074,285.523778 C416.533087,297.591707 414.078618,310.150602 407.236667,320.396481 C405.211333,323.386259 402.711815,326.785926 403.772704,330.233815 C404.576407,332.861926 407.244704,334.445222 409.808519,335.457889 C415.611259,337.756481 422.105185,338.487852 427.305148,341.935741 C432.505111,345.38363 435.663667,353.284037 431.420111,357.865148 C427.795407,361.795259 421.301481,360.879037 416.623926,363.491074 C412.468778,365.789667 410.371111,370.459185 407.839444,374.477704 C395.374,394.272926 369.350074,400.895444 345.954259,400.236407 C322.558444,399.57737 299.403741,393.404926 276.032037,394.915889 C258.173741,396.065185 239.993963,401.675037 222.714333,397.013556 C225.54337,392.448519 228.377765,387.894198 231.217519,383.350593 C223.387101,382.297776 215.488303,381.838356 207.58863,381.976259 Z" id="Path" fill="url(#linearGradient-1)" fill-rule="nonzero" opacity="0.04"></path>
                    <path d="M49.6367407,345.648852 C49.6367407,345.648852 48.5276296,366.488889 70.4848148,366.488889 C92.442,366.488889 90.5291852,345.632778 90.5291852,345.632778 L88.7690741,341.509778 L49.6367407,345.648852 Z" id="Path" fill="#BDCCD3" fill-rule="nonzero"></path>
                    <path d="M80.9731481,338.142259 C80.9731481,338.142259 81.5277037,331.198259 85.7471481,331.198259 C89.9665926,331.198259 90.5693704,338.142259 90.5693704,338.142259 C90.5693704,338.142259 85.0157778,342.120593 80.9731481,338.142259 Z" id="Path" fill="#A0B3BA" fill-rule="nonzero"></path>
                    <path d="M73.9407407,338.142259 C73.9407407,338.142259 74.7444444,331.198259 80.8927778,331.198259 C87.0411111,331.198259 87.9171481,338.142259 87.9171481,338.142259 C87.9171481,338.142259 79.7917037,342.120593 73.9407407,338.142259 Z" id="Path" fill="#BDCCD3" fill-rule="nonzero"></path>
                    <rect id="Rectangle" fill="#FF911E" fill-rule="nonzero" x="45.2244074" y="338.142259" width="49.5804815" height="7.50659259" rx="3.7532963"></rect>
                    <path d="M46.9362963,314.762519 L76.392037,311.081556 C76.392037,311.081556 77.4931111,301.011148 72.2449259,299.765407 C66.9967407,298.519667 65.1241111,292.411519 69.3194444,288.232259 C73.5147778,284.053 67.5111111,276.040074 61.0252222,276.224926 C54.5393333,276.409778 61.7565926,254.46063 54.2982222,253.986444 C46.8398519,253.512259 54.1374815,277.985037 49.1304074,277.293852 C44.1233333,276.602667 34.1493704,279.946074 39.928,287.235667 C45.7066296,294.525259 51.3566667,293.834074 48.0212963,299.074222 C44.6859259,304.31437 42.8213333,304.852852 46.9362963,314.762519 Z" id="Path" fill="#FF911E" fill-rule="nonzero"></path>
                    <polygon id="Path" fill="#0E2C77" fill-rule="nonzero" points="64.7945926 340.432815 59.0561481 299.532333 57.3281852 278.780704 65.959963 340.272074"></polygon>
                    <path d="M62.8335556,295.144111 L70.308,308.429333 C70.308,308.429333 78.345037,306.211111 76.7376296,297.836519 C75.1302222,289.461926 83.3601481,289.453889 86.8884074,293.014296 C90.4166667,296.574704 95.8577407,293.158963 93.9449259,287.862556 C92.0321111,282.566148 96.2274444,277.936815 96.2274444,277.936815 L62.8335556,295.144111 Z" id="Path" fill="#FFBC47" fill-rule="nonzero"></path>
                    <polygon id="Path" fill="#0E2C77" fill-rule="nonzero" points="67.8808148 340.416741 62.8335556 295.144111 83.6414444 284.366444 84.1799259 285.411259 64.0953704 295.819222 69.0542222 340.288148"></polygon>
                    <path d="M60.8403704,331.92963 C60.8403704,331.92963 52.9238889,335.385556 51.9112222,328.89163 C50.8985556,322.397704 45.0717037,331.391148 40.370037,329.92037 C35.6683704,328.449593 35.805,319.874074 35.805,319.874074 L58.6141111,322.719185 L60.8403704,331.92963 Z" id="Path" fill="#FFBC47" fill-rule="nonzero"></path>
                    <polygon id="Path" fill="#0E2C77" fill-rule="nonzero" points="62.9058889 340.529259 57.713963 323.828296 40.2896667 321.666333 40.4343333 320.492926 58.6141111 322.751333 64.023037 340.17563"></polygon>
                    <path d="M73.6915926,325.049926 C73.6915926,325.049926 83.1752963,329.872148 84.9434444,323.442519 C86.7115926,317.012889 88.6163704,315.791259 91.2685926,318.620296 C93.9208148,321.449333 98.6224815,313.468556 97.3767407,308.469519 L75.3793704,314.497296 L73.6915926,325.049926 Z" id="Path" fill="#FF911E" fill-rule="nonzero"></path>
                    <polygon id="Path" fill="#0E2C77" fill-rule="nonzero" points="72.2851111 340.432815 71.1197407 340.272074 74.856963 313.982926 94.6602222 309.176778 94.9415185 310.326074 75.9098148 314.939333"></polygon>
                    <rect id="Rectangle" fill="#FFFFFF" fill-rule="nonzero" x="99.3136667" y="32.0436667" width="256.172519" height="329.936444"></rect>
                    <rect id="Rectangle" fill="#D3D3D3" fill-rule="nonzero" x="114.22237" y="71.176" width="111.02363" height="61.202037" rx="14.42"></rect>
                    <path d="M147.174222,254.090926 L119.229444,254.090926 C114.462776,254.086504 110.598488,250.225811 110.58963,245.459148 L110.58963,169.26 L112.357778,169.26 L112.357778,245.459148 C112.362207,249.252429 115.436164,252.326386 119.229444,252.330815 L147.174222,252.330815 L147.174222,254.090926 Z" id="Path" fill="#FF911E" fill-rule="nonzero"></path>
                    <rect id="Rectangle" fill="#FF911E" fill-rule="nonzero" x="147.174222" y="232.415037" width="109.850222" height="63.5568889" rx="10.24"></rect>
                    <rect id="Rectangle" fill="#D3D3D3" fill-rule="nonzero" x="121.278889" y="158.610926" width="103.959074" height="18.887037" rx="9.44351852"></rect>
                    <path d="M355.486185,32.341037 L355.486185,72.269037 C343.752681,78.2308409 329.552667,76.2963461 319.841532,67.4130987 C310.130397,58.5298512 306.94159,44.557944 311.837037,32.341037 L355.486185,32.341037 Z" id="Path" fill="#D3D3D3" fill-rule="nonzero"></path>
                    <rect id="Rectangle" fill="#E1E1E1" fill-rule="nonzero" x="121.278889" y="182.738111" width="196.312667" height="37.7178148" rx="11.1"></rect>
                    <circle id="Oval" fill="#FFD648" fill-rule="nonzero" transform="translate(332.905519, 38.805797) rotate(-76.490000) translate(-332.905519, -38.805797) " cx="332.905519" cy="38.8057966" r="31.5775185"></circle>
                    <polygon id="Path" fill="#FFFFFF" fill-rule="nonzero" points="329.092556 57.6898519 310.832407 45.1118889 313.838259 40.7558148 327.75037 50.335963 347.818852 21.4187037 352.174926 24.4325926"></polygon>
                    <rect id="Rectangle" fill="#FFFFFF" fill-rule="nonzero" x="126.181481" y="83.8343333" width="86.8964444" height="1.76814815"></rect>
                    <rect id="Rectangle" fill="#FFFFFF" fill-rule="nonzero" x="126.181481" y="94.4271481" width="86.8964444" height="1.76814815"></rect>
                    <rect id="Rectangle" fill="#FFFFFF" fill-rule="nonzero" x="126.181481" y="105.606667" width="86.8964444" height="1.76814815"></rect>
                    <rect id="Rectangle" fill="#FFFFFF" fill-rule="nonzero" x="126.181481" y="116.786185" width="86.8964444" height="1.76814815"></rect>
                    <rect id="Rectangle" fill="#FFFFFF" fill-rule="nonzero" x="157.373222" y="242.131815" width="86.8964444" height="1.76814815"></rect>
                    <rect id="Rectangle" fill="#FFFFFF" fill-rule="nonzero" x="157.373222" y="252.716593" width="86.8964444" height="1.76814815"></rect>
                    <rect id="Rectangle" fill="#FFD648" fill-rule="nonzero" x="42.4275185" y="115.114481" width="91.799037" height="54.1374815" rx="13.36"></rect>
                    <rect id="Rectangle" fill="#FFFFFF" fill-rule="nonzero" x="157.373222" y="263.904148" width="86.8964444" height="1.76814815"></rect>
                    <rect id="Rectangle" fill="#FFFFFF" fill-rule="nonzero" x="157.373222" y="275.083667" width="86.8964444" height="1.76814815"></rect>
                    <rect id="Rectangle" fill="#FFFFFF" fill-rule="nonzero" x="157.373222" y="286.263185" width="86.8964444" height="1.76814815"></rect>
                    <rect id="Rectangle" fill="#FFFFFF" fill-rule="nonzero" x="52.0398148" y="130.907259" width="72.3815556" height="1.76814815"></rect>
                    <rect id="Rectangle" fill="#FFFFFF" fill-rule="nonzero" x="52.0398148" y="142.086778" width="72.3815556" height="1.76814815"></rect>
                    <rect id="Rectangle" fill="#FFFFFF" fill-rule="nonzero" x="52.0398148" y="153.274333" width="72.3815556" height="1.76814815"></rect>
                    <path d="M326.802,229.425259 L283.988704,229.425259 L283.988704,235.163704 L372.556852,235.163704 L372.556852,249.284778 L283.988704,249.284778 L283.988704,254.581185 L372.556852,254.581185 C372.556852,254.581185 381.823556,253.849815 381.823556,242.003222 C381.823556,230.15663 370.788704,229.425259 370.788704,229.425259 L326.802,229.425259 Z" id="Path" fill="#FF911E" fill-rule="nonzero"></path>
                    <rect id="Rectangle" fill="#E8E8E8" fill-rule="nonzero" x="287.22763" y="235.163704" width="85.3292222" height="14.1210741"></rect>
                    <polygon id="Path" fill="#B2B2B2" fill-rule="nonzero" points="287.22763 237.518556 314.883074 237.518556 287.22763 238.844667"></polygon>
                    <polygon id="Path" fill="#B2B2B2" fill-rule="nonzero" points="287.22763 240.460111 306.203074 240.460111 287.22763 241.199519"></polygon>
                    <polygon id="Path" fill="#052F5F" fill-rule="nonzero" points="314.103481 271.651852 314.103481 377.772889 389.619481 395.229333 389.619481 271.651852"></polygon>
                    <path d="M341.308852,254.581185 L289.871815,254.581185 L289.871815,260.31963 L396.282185,260.31963 L396.282185,274.448741 L289.871815,274.448741 L289.871815,279.737111 L396.282185,279.737111 C396.282185,279.737111 407.421519,279.005741 407.421519,267.159148 C407.421519,255.312556 394.160407,254.581185 394.160407,254.581185 L341.308852,254.581185 Z" id="Path" fill="#FFD648" fill-rule="nonzero"></path>
                    <polygon id="Path" fill="#B2B2B2" fill-rule="nonzero" points="287.22763 242.228259 321.208222 242.228259 287.22763 243.55437"></polygon>
                    <polygon id="Path" fill="#B2B2B2" fill-rule="nonzero" points="287.22763 244.872444 310.470741 244.872444 287.22763 246.343222"></polygon>
                    <rect id="Rectangle" fill="#E8E8E8" fill-rule="nonzero" x="293.761741" y="260.31963" width="102.520444" height="14.1210741"></rect>
                    <polygon id="Path" fill="#B2B2B2" fill-rule="nonzero" points="293.761741 262.674481 326.994889 262.674481 293.761741 264.000593"></polygon>
                    <polygon id="Path" fill="#B2B2B2" fill-rule="nonzero" points="293.761741 265.616037 316.562815 265.616037 293.761741 266.355444"></polygon>
                    <polygon id="Path" fill="#B2B2B2" fill-rule="nonzero" points="293.761741 267.384185 334.597926 267.384185 293.761741 268.710296"></polygon>
                    <polygon id="Path" fill="#B2B2B2" fill-rule="nonzero" points="293.761741 270.02837 321.690444 270.02837 293.761741 271.499148"></polygon>
                    <polygon id="Path" fill="#B2B2B2" fill-rule="nonzero" points="396.32237 262.746815 363.089222 262.746815 396.32237 264.072926"></polygon>
                    <polygon id="Path" fill="#B2B2B2" fill-rule="nonzero" points="396.32237 265.68837 373.521296 265.68837 396.32237 266.427778"></polygon>
                    <polygon id="Path" fill="#B2B2B2" fill-rule="nonzero" points="396.32237 267.456519 355.486185 267.456519 396.32237 268.78263"></polygon>
                    <polygon id="Path" fill="#B2B2B2" fill-rule="nonzero" points="396.32237 270.100704 368.393667 270.100704 396.32237 271.579519"></polygon>
                    <polygon id="Path" fill="#FFBC47" fill-rule="nonzero" points="233.532185 354.770889 198.370148 354.770889 198.370148 367.131852 232.792778 367.131852"></polygon>
                    <rect id="Rectangle" fill="#FFD648" fill-rule="nonzero" x="230.437926" y="353.002741" width="81.2062222" height="15.8892222"></rect>
                    <path d="M277.711778,346.187333 L297.523074,346.187333 C298.770358,346.187333 299.781481,347.198457 299.781481,348.445741 L299.781481,353.002741 L304.09737,353.002741 L304.09737,341.678556 L277.711778,341.678556 C277.114942,341.678556 276.542552,341.915647 276.120526,342.337674 C275.698499,342.7597 275.461407,343.332091 275.461407,343.928926 L275.461407,343.928926 C275.459271,344.527153 275.695419,345.10161 276.117677,345.525376 C276.539935,345.949142 277.113547,346.187337 277.711778,346.187333 L277.711778,346.187333 Z" id="Path" fill="#FF911E" fill-rule="nonzero"></path>
                    <polygon id="Path" fill="#052F5F" fill-rule="nonzero" points="357.254333 242.003222 368.289185 242.003222 368.289185 266.355444 362.767741 261.203704 357.439185 266.540296"></polygon>
                    <polygon id="Path" fill="#052F5F" fill-rule="nonzero" points="302.915926 279.737111 302.915926 385.986741 378.439963 403.467296 378.439963 279.737111"></polygon>
                    <polygon id="Path" fill="#052F5F" fill-rule="nonzero" points="378.439963 403.467296 380.794815 401.699148 380.794815 279.737111 378.439963 279.737111"></polygon>
                    <polygon id="Path" fill="#052F5F" fill-rule="nonzero" points="389.619481 395.229333 391.974333 393.461185 391.974333 279.737111 389.619481 279.737111"></polygon>
                    <polygon id="Path" fill="#FFFFFF" fill-rule="nonzero" points="380.794815 398.170889 389.619481 391.893963 389.619481 283.418074 380.794815 283.418074"></polygon>
                    <polygon id="Path" fill="#FFFFFF" fill-rule="nonzero" points="319.198963 300.68163 361.763111 300.68163 361.763111 331.672444 319.198963 325.789333"></polygon>
                    <polygon id="Rectangle" fill="#FF911E" fill-rule="nonzero" transform="translate(340.006507, 307.557562) rotate(-88.600000) translate(-340.006507, -307.557562) " points="339.122433 291.467414 340.890581 291.467414 340.890581 323.64771 339.122433 323.64771"></polygon>
                    <polygon id="Rectangle" fill="#FF911E" fill-rule="nonzero" transform="translate(339.995793, 314.266200) rotate(-87.730000) translate(-339.995793, -314.266200) " points="339.111718 298.168014 340.879867 298.168014 340.879867 330.364385 339.111718 330.364385"></polygon>
                    <polygon id="Rectangle" fill="#FF911E" fill-rule="nonzero" transform="translate(339.992419, 321.973405) rotate(-83.390000) translate(-339.992419, -321.973405) " points="339.108345 305.782793 340.876493 305.782793 340.876493 338.164016 339.108345 338.164016"></polygon>
                    <polygon id="Path" fill="#B2B2B2" fill-rule="nonzero" points="383.856926 395.984815 383.856926 363.844704 385.207148 395.028407"></polygon>
                    <polygon id="Path" fill="#B2B2B2" fill-rule="nonzero" points="386.083185 394.409556 386.870815 363.844704 387.409296 393.461185"></polygon>
                    <polygon id="Path" fill="#052F5F" fill-rule="nonzero" points="198.370148 354.770889 188.21937 358.009815 188.21937 363.965259 198.370148 367.131852"></polygon>
                    <polygon id="Path" fill="#8EBDC5" fill-rule="nonzero" points="188.21937 358.009815 175.19937 361.393407 188.21937 363.965259"></polygon>
                    <rect id="Rectangle" fill="#3066B3" fill-rule="nonzero" x="200.355296" y="356.571185" width="26.9964074" height="1.17340741"></rect>
                    <rect id="Rectangle" fill="#3066B3" fill-rule="nonzero" x="200.355296" y="360.694185" width="26.9964074" height="1.17340741"></rect>
                    <rect id="Rectangle" fill="#3066B3" fill-rule="nonzero" x="200.355296" y="364.222444" width="26.9964074" height="1.17340741"></rect>
                    <rect id="Rectangle" fill="#052F5F" fill-rule="nonzero" x="246.230704" y="353.002741" width="36.2872222" height="4.15514815"></rect>
                    <rect id="Rectangle" fill="#FF911E" fill-rule="nonzero" x="254.862481" y="350.897037" width="16.1865926" height="2.1057037"></rect>
                    <polygon id="Path" fill="#BDCCD3" fill-rule="nonzero" points="251.14937 170.361074 340.191704 212.217963 341.783037 198.916667 257.06463 158.610926 244.269667 169.26"></polygon>
                    <path d="M201.126852,78.2244815 C168.187014,78.2244815 141.484,104.927496 141.484,137.867333 C141.484,170.807171 168.187014,197.510185 201.126852,197.510185 C234.066689,197.510185 260.769704,170.807171 260.769704,137.867333 C260.765266,104.929334 234.064851,78.2289191 201.126852,78.2244815 L201.126852,78.2244815 Z M201.126852,187.889852 C173.500178,187.889852 151.104333,165.494007 151.104333,137.867333 C151.104333,110.240659 173.500178,87.8448148 201.126852,87.8448148 C228.753526,87.8448148 251.14937,110.240659 251.14937,137.867333 C251.151503,151.134784 245.881973,163.859446 236.500469,173.24095 C227.118964,182.622454 214.394302,187.891984 201.126852,187.889852 L201.126852,187.889852 Z" id="Shape" fill="#052F5F" fill-rule="nonzero"></path>
                    <circle id="Oval" fill="#FFD648" fill-rule="nonzero" opacity="0.52" cx="201.126852" cy="137.867333" r="50.0225185"></circle>
                    <path d="M391.259037,239.736778 L386.099259,237.325667 L324.889185,208.962963 L333.424519,190.718889 L341.357074,194.737407 L350.953296,199.55963 L395.036444,221.822222 L399.914926,224.281556 C401.241037,236.634481 391.259037,239.736778 391.259037,239.736778 Z" id="Path" fill="#8EBDC5" fill-rule="nonzero"></path>
                    <path d="M391.259037,239.736778 L386.099259,237.325667 C386.099259,237.325667 395.743704,234.046556 395.036444,221.798111 L399.914926,224.257444 C401.241037,236.634481 391.259037,239.736778 391.259037,239.736778 Z" id="Path" fill="#052F5F" fill-rule="nonzero"></path>
                    <path d="M143.445037,234.480556 C143.445037,234.480556 143.30037,228.155407 146.241926,226.732852 C149.183481,225.310296 150.89537,216.188259 150.067556,211.462481 C149.239741,206.736704 145.164963,195.131222 135.11063,195.621481 C125.056296,196.111741 122.797889,204.992667 122.846111,209.356778 C122.894333,213.720889 107.945444,223.180481 109.416222,233.974222 C110.887,244.767963 116.866556,239.760889 116.376296,256.63063 C115.886037,273.50037 123.931111,279.287037 123.931111,279.287037 C123.931111,279.287037 126.382407,270.944593 135.890222,261.822556 C145.398037,252.700519 135.890222,236.144222 143.445037,234.480556 Z" id="Path" fill="#133C55" fill-rule="nonzero"></path>
                    <polygon id="Path" fill="#FF911E" fill-rule="nonzero" points="165.120926 243.699037 179.041074 244.277704 182.971185 215.979296 182.432704 215.601556 167.765111 217.602778"></polygon>
                    <polygon id="Path" fill="#FFD648" fill-rule="nonzero" points="163.553704 245.660074 178.45437 244.277704 182.432704 215.601556 167.274852 216.823185"></polygon>
                    <path d="M159.63163,246.150333 C159.63163,246.150333 161.488185,242.027333 164.236852,241.328111 C166.985519,240.628889 164.486,242.654222 163.891259,243.433815 C163.533379,244.111615 163.414457,244.890275 163.553704,245.644 L169.734185,245.057296 C169.734185,245.057296 167.966037,250.152778 166.101444,251.334222 C164.354182,252.271643 162.514624,253.025781 160.612148,253.584593 L157.397333,248.095296 L159.63163,246.150333 Z" id="Path" fill="#007EA7" fill-rule="nonzero"></path>
                    <path d="M145.068519,221.878481 L145.068519,224.177074 C145.068519,224.177074 143.396815,223.935963 142.368074,228.14737 C142.289791,228.472283 142.190458,228.79176 142.070704,229.103778 C141.114296,231.514889 140.109667,227.616926 140.109667,227.616926 C140.109667,227.616926 140.583852,223.381407 139.965,221.235519 C139.772111,220.592556 140.165926,220.431815 140.768704,220.431815 C142.255556,220.520222 145.068519,221.878481 145.068519,221.878481 Z" id="Path" fill="#007EA7" fill-rule="nonzero"></path>
                    <path d="M145.068519,221.878481 L145.068519,224.177074 C145.068519,224.177074 143.396815,223.935963 142.368074,228.14737 C142.289791,228.472283 142.190458,228.79176 142.070704,229.103778 C141.813519,228.935 141.717074,228.533148 141.958185,227.761593 C142.761889,225.117407 140.495444,222.135667 140.495444,222.135667 L140.800852,220.439852 C142.255556,220.520222 145.068519,221.878481 145.068519,221.878481 Z" id="Path" fill="#13293D" fill-rule="nonzero"></path>
                    <path d="M148.813778,218.607407 L148.34763,218.961037 C148.34763,218.961037 147.270667,224.008296 146.145481,224.546778 C145.337152,224.850126 144.446255,224.850126 143.637926,224.546778 C143.637926,224.546778 140.214148,222.537519 139.965,221.25963 C139.906377,220.985679 139.825745,220.716906 139.723889,220.455926 L139.723889,220.455926 C139.225593,219.057481 138.502259,216.911593 141.484,214.733556 C145.068519,212.113481 147.174222,209.493407 147.174222,207.725259 L147.174222,207.669 C147.174222,207.669 148.741444,212.868963 148.395852,216.099852 L149.087037,217.29737 C149.342374,217.739996 149.224777,218.303772 148.813778,218.607407 Z" id="Path" fill="#007EA7" fill-rule="nonzero"></path>
                    <path d="M141.958185,215.601556 C139.796222,216.48563 139.699778,220.182667 139.723889,220.423778 C139.225593,219.025333 138.502259,216.879444 141.484,214.701407 C145.068519,212.081333 147.174222,209.461259 147.174222,207.693111 C147.190296,208.279815 145.671296,214.074519 141.958185,215.601556 Z" id="Path" fill="#13293D" fill-rule="nonzero"></path>
                    <path d="M167.274852,218.093037 L182.079074,216.91963 C182.079074,216.91963 176.638,241.320074 167.765111,241.199519 L155.709556,235.678074 C155.709556,235.678074 164.40563,235.613778 167.274852,218.093037 Z" id="Path" fill="#8EBDC5" fill-rule="nonzero"></path>
                    <path d="M140.173963,226.909667 C140.173963,226.909667 142.167148,226.909667 142.585074,227.424037 C143.003,227.938407 142.834222,232.664185 142.834222,232.664185 L137.827148,232.029259 C137.827148,232.029259 140.077519,228.902852 140.173963,226.909667 Z" id="Path" fill="#FFFFFF" fill-rule="nonzero"></path>
                    <polygon id="Path" fill="#01008A" fill-rule="nonzero" points="171.301407 216.501704 172.032778 218.639556 176.445111 218.342185 177.771222 215.979296"></polygon>
                    <path d="M152.615296,272.728815 C152.478667,273.154778 150.565852,273.532519 147.793074,273.829889 C140.511519,274.633593 127.387037,274.842556 126.390444,273.829889 C126.390444,273.829889 126.840519,263.381741 132.426259,257.948704 C132.718765,257.671564 132.987602,257.370467 133.229963,257.048556 C138.052185,250.562667 137.795,232.013185 137.795,232.013185 L148.444074,232.945481 C148.444074,232.945481 149.713926,233.339296 149.713926,235.782556 C149.713926,236.425519 149.922889,238.40263 150.228296,241.00663 C151.080222,248.360519 152.68763,260.689333 152.358111,261.774333 C151.916074,263.245111 150.252407,266.596556 150.991815,268.34863 C151.731222,270.100704 153.105556,271.161593 152.615296,272.728815 Z" id="Path" fill="#FFD648" fill-rule="nonzero"></path>
                    <path d="M173.166,246.005667 C173.166,246.005667 175.858407,244.237519 176.300444,243.007852 C176.742481,241.778185 176.597815,239.479593 177.481889,239.527815 C178.365963,239.576037 178.213259,240.998593 178.462407,242.670296 C178.599045,243.699977 178.463256,244.747488 178.068593,245.708296 C178.068593,245.708296 178.261481,244.382185 178.45437,244.285741 C178.829272,243.495419 179.138404,242.675546 179.37863,241.834444 L179.989444,237.462296 C180.336002,237.980148 180.566316,238.5669 180.664556,239.182222 C180.961926,240.460111 180.46363,246.311074 179.483111,247.781852 C178.759778,248.866852 174.829667,250.562667 174.829667,250.562667 L173.166,246.005667 Z" id="Path" fill="#007EA7" fill-rule="nonzero"></path>
                    <polygon id="Path" fill="#FFD648" fill-rule="nonzero" points="170.562 246.881704 173.503556 245.121593 175.368148 251.744111 172.032778 254.042704"></polygon>
                    <path d="M152.615296,272.728815 C152.478667,273.154778 150.565852,273.532519 147.793074,273.829889 L147.142074,273.154778 C150.356889,269.071963 145.671296,261.645741 142.802074,249.582148 C139.932852,237.518556 145.03637,234.110852 145.03637,234.110852 L150.204185,241.022704 C151.056111,248.376593 152.663519,260.705407 152.334,261.790407 C151.891963,263.261185 150.228296,266.61263 150.967704,268.364704 C151.707111,270.116778 153.105556,271.161593 152.615296,272.728815 Z" id="Path" fill="#FEBB46" fill-rule="nonzero"></path>
                    <path d="M170.562,246.881704 C170.562,246.881704 161.190815,253.142556 160.411222,252.50763 C159.286037,251.615519 151.932148,236.811296 151.827667,236.658593 C151.723185,236.505889 150.131852,232.937444 148.444074,232.937444 C145.655222,232.937444 142.118926,235.236037 143.348593,240.291333 C144.578259,245.34663 151.337407,265.053444 154.672778,265.591926 C158.008148,266.130407 172.032778,254.018593 172.032778,254.018593 L170.562,246.881704 Z" id="Path" fill="#FFFFFF" fill-rule="nonzero"></path>
                    <path d="M128.881926,273.829889 L126.422593,273.829889 C126.422593,273.829889 126.872667,263.381741 132.458407,257.948704 C132.750913,257.671564 133.01975,257.370467 133.262111,257.048556 C128.713148,264.651593 128.881926,273.829889 128.881926,273.829889 Z" id="Path" fill="#FEBB46" fill-rule="nonzero"></path>
                    <path d="M119.317852,370.12163 C119.317852,370.12163 117.654185,374.823296 117.453259,377.571963 C117.252333,380.32063 118.924037,381.590481 121.471778,381.590481 C124.019519,381.590481 125.450111,380.224185 128.16663,378.753407 C130.883148,377.28263 135.785741,377.146 135.689296,375.024222 C135.592852,372.902444 129.259667,372.998889 128.102333,369.695667 C126.945,366.392444 119.317852,370.12163 119.317852,370.12163 Z" id="Path" fill="#052F5F" fill-rule="nonzero"></path>
                    <path d="M146.876852,376.79237 C146.876852,376.79237 146.483037,380.119704 145.992778,383.069296 C145.502519,386.018889 146.683963,387.280704 149.328148,387.674519 C151.972333,388.068333 158.54663,382.185222 160.017407,381.590481 C161.488185,380.995741 160.612148,379.139185 160.017407,378.753407 C159.422667,378.36763 155.428259,376.052963 155.428259,376.052963 L146.876852,376.79237 Z" id="Path" fill="#052F5F" fill-rule="nonzero"></path>
                    <path d="M125.176852,336.800074 C125.176852,336.800074 121.158333,366.296 119.904556,367.766778 C118.650778,369.237556 118.634704,370.901222 119.221407,371.391481 C119.808111,371.881741 126.181481,373.802593 127.555815,371.881741 C128.930148,369.960889 127.322741,368.940185 128.174667,366.095074 C129.026593,363.249963 137.955741,337.555556 137.955741,337.555556 L125.176852,336.800074 Z" id="Path" fill="#007EA7" fill-rule="nonzero"></path>
                    <path d="M146.876852,376.79237 C146.876852,376.79237 145.799889,375.120667 146.290148,373.947259 C146.780407,372.773852 146.097259,347.071407 145.607,345.11037 C145.116741,343.149333 157.863481,342.56263 157.959926,342.851963 C158.05637,343.141296 154.15037,373.256074 154.383444,374.043704 C154.616519,374.831333 155.902444,376.004741 155.315741,376.79237 C154.729037,377.58 149.038815,377.965778 146.876852,376.79237 Z" id="Path" fill="#007EA7" fill-rule="nonzero"></path>
                    <path d="M161.882,324.021185 L165.096815,333.88263 C164.522781,335.057992 163.744489,336.122021 162.798222,337.025111 C162.373963,337.440558 161.911081,337.814631 161.415852,338.142259 L162.348148,342.377778 C144.256778,355.622815 136.083111,344.443296 136.083111,344.443296 L135.721444,341.493704 C134.725296,341.153167 133.686582,340.952998 132.635222,340.898963 C130.482833,340.760185 128.393209,341.655738 127.009296,343.310074 L127.202185,339.588926 C126.136193,339.744033 125.053363,339.744033 123.98737,339.588926 C122.036636,339.344977 120.250586,338.371551 118.988333,336.86437 L120.314444,327.814667 C119.382063,327.789235 118.459668,327.615607 117.581852,327.300296 C115.01,326.359963 114.648333,324.431074 114.648333,324.431074 C114.648333,324.431074 117.959593,310.22963 119.060667,306.042333 C120.161741,301.855037 122.52463,286.399815 122.886296,283.024259 C123.1764,280.824368 123.888666,278.701213 124.983963,276.771444 L141.291111,276.771444 L151.441889,277.575148 C154.086074,288.240296 165.104852,318.69263 165.104852,318.69263 C164.906995,320.03134 164.351687,321.291891 163.497444,322.341444 L163.497444,322.341444 C163.040949,322.974803 162.497069,323.54033 161.882,324.021185 Z" id="Path" fill="#3066B3" fill-rule="nonzero"></path>
                    <path d="M152.293815,272.994037 C152.771551,273.907438 152.921887,274.956957 152.719778,275.967741 C152.317926,277.46263 151.441889,277.575148 151.441889,277.575148 C151.441889,277.575148 133.551444,280.677444 124.919667,276.771444 C124.919667,276.771444 123.633741,273.950444 126.43063,273.813815 C129.227519,273.677185 152.293815,272.994037 152.293815,272.994037 Z" id="Path" fill="#FFFFFF" fill-rule="nonzero"></path>
                    <path d="M124.574074,304.812667 L120.218,327.846815 C119.285619,327.821383 118.363223,327.647755 117.485407,327.332444 C119.856333,325.250852 124.324926,306.010185 124.574074,304.812667 Z" id="Path" fill="#052F5F" fill-rule="nonzero"></path>
                    <path d="M123.923074,339.621074 C126.904815,335.956185 128.021963,315.035778 128.174667,311.796852 L127.162,339.621074 C126.088099,339.778529 124.996975,339.778529 123.923074,339.621074 Z" id="Path" fill="#052F5F" fill-rule="nonzero"></path>
                    <path d="M128.190741,311.370889 L128.190741,311.644148 C128.190741,311.467333 128.190741,311.370889 128.190741,311.370889 Z" id="Path" stroke="#FFED00" stroke-width="0.25"></path>
                    <path d="M132.611111,340.931111 C132.611111,334.758667 133.342481,299.451963 133.342481,299.451963 L135.697333,341.525852 C134.701185,341.185315 133.662471,340.985146 132.611111,340.931111 L132.611111,340.931111 Z" id="Path" fill="#052F5F" fill-rule="nonzero"></path>
                    <path d="M163.545667,336.261593 C162.741963,337.001 161.439963,338.142259 161.439963,338.142259 L154.383444,304.772481 C154.608481,305.712815 162.589259,334.871185 163.545667,336.261593 Z" id="Path" fill="#052F5F" fill-rule="nonzero"></path>
                    <path d="M163.545667,322.373593 L163.545667,322.373593 C163.069158,322.984693 162.509125,323.525788 161.882,323.981 C161.456037,322.373593 156.031037,301.830926 155.72563,300.673593 C156.079259,301.782704 161.74537,319.351667 163.545667,322.373593 Z" id="Path" fill="#052F5F" fill-rule="nonzero"></path>
                    <path d="M327.171704,161.086333 L317.093259,165.43437 L316.490481,164.092185 L316.490481,164.092185 L314.78663,160.28263 C315.035778,159.57537 316.064519,158.844 317.366519,158.176926 C319.698467,157.064581 322.11768,156.14528 324.599852,155.428259 L327.171704,161.086333 Z" id="Path" fill="#007EA7" fill-rule="nonzero"></path>
                    <path d="M316.458333,163.859111 C316.458333,163.939481 316.458333,164.011815 316.458333,164.092185 L314.754481,160.28263 C315.00363,159.57537 316.03237,158.844 317.33437,158.176926 L317.800519,159.253889 C316.589678,160.455256 316.082539,162.195321 316.458333,163.859111 Z" id="Path" fill="#13293D" fill-rule="nonzero"></path>
                    <path d="M308.413259,147.632333 C308.413259,147.632333 308.799037,156.183741 312.134407,161.36763 C312.497639,161.926042 313.24128,162.090501 313.806111,161.737333 L319.737444,158.072444 L321.505593,148.588741 L314.272259,143.806704 C314.272259,143.806704 307.947111,143.565593 308.413259,147.632333 Z" id="Path" fill="#007EA7" fill-rule="nonzero"></path>
                    <path d="M308.413259,147.632333 C308.413259,147.632333 309.096407,149.054889 311.057444,148.363704 C313.018481,147.672519 315.670704,147.56 316.209185,150.774815 L317.816593,142.560963 L310.157296,142.560963 L308.413259,147.632333 Z" id="Path" fill="#13293D" fill-rule="nonzero"></path>
                    <path d="M316.209185,150.790889 C316.209185,150.790889 317.270074,148.267259 319.150741,149.689815 C321.031407,151.11237 317.679963,154.616519 317.679963,154.616519 L319.737444,158.072444 L318.266667,158.988667 C318.266667,158.988667 324.165852,157.718815 325.85363,158.184963 C325.85363,158.184963 332.387741,149.537111 331.728704,146.442852 C331.069667,143.348593 329.888222,143.501296 329.317593,142.327889 C328.746963,141.154481 329.389926,134.45963 324.832926,133.792556 C320.275926,133.125481 308.823148,138.429926 308.405222,132.249444 C308.405222,132.249444 298.278556,139.153259 308.405222,147.624296 C309.632937,147.892467 310.916739,147.623424 311.933481,146.884889 C313.926667,145.647185 315.325111,147.077778 316.209185,150.790889 Z" id="Path" fill="#133C55" fill-rule="nonzero"></path>
                    <path d="M350.953296,199.575704 L341.357074,194.753481 L334.581852,161.80163 C334.943519,162.267778 346.484704,177.297037 347.545593,180.969963 C348.389481,183.863296 350.213889,194.970481 350.953296,199.575704 Z" id="Path" fill="#FEBB46" fill-rule="nonzero"></path>
                    <path d="M255.521519,213.39137 C255.521519,213.39137 250.964519,215.304185 249.566074,215.159519 C248.16763,215.014852 236.988111,211.944704 235.662,210.377481 C234.335889,208.810259 233.017815,207.580593 232.648111,208.392333 C232.278407,209.204074 233.749185,216.91963 233.749185,216.91963 C233.749185,216.91963 249.019556,229.867296 249.823259,229.425259 C250.626963,228.983222 259.242667,219.716519 259.242667,219.716519 L255.521519,213.39137 Z" id="Path" fill="#052F5F" fill-rule="nonzero"></path>
                    <path d="M317.045037,166.117519 L315.839481,163.666222 C315.839481,163.666222 324.398926,158.426074 327.895037,158.988667 L328.481741,162.533 L317.045037,166.117519 Z" id="Path" fill="#FF911E" fill-rule="nonzero"></path>
                    <path d="M313.122963,202.276148 C313.122963,202.276148 293.625111,195.3 289.140444,195.3 C284.655778,195.3 255.151815,212.217963 255.151815,212.217963 C255.151815,212.217963 253.833741,219.571852 259.130148,222.28837 C259.130148,222.28837 278.322593,214.251333 281.858889,213.688741 C285.395185,213.126148 317.599593,211.181185 317.599593,210.305148 C317.599593,209.429111 313.122963,202.276148 313.122963,202.276148 Z" id="Path" fill="#3066B3" fill-rule="nonzero"></path>
                    <path d="M345.190741,198.780037 C345.287185,199.760556 342.924296,201.134889 342.924296,201.134889 C335.072111,198.137074 316.611037,201.134889 312.680926,201.785889 L311.941519,201.914481 C311.941519,201.914481 308.855296,198.900593 310.832407,197.301222 C312.809519,195.701852 312.303185,192.864778 311.427148,189.336519 C310.977074,187.560333 311.957593,181.854037 313.034556,176.621926 C314.111519,171.389815 315.252778,166.79263 315.252778,166.79263 L323.346074,163.48137 C323.346074,163.48137 330.916963,161.496222 332.572593,161.31137 C334.228222,161.126519 334.742593,161.536407 335.602556,163.10363 C336.462519,164.670852 344.017333,190.148259 343.639593,193.162148 C343.261852,196.176037 345.094296,197.799519 345.190741,198.780037 Z" id="Path" fill="#FFD648" fill-rule="nonzero"></path>
                    <path d="M265.302593,265.326704 C264.868593,266.202741 253.166667,272.600222 253.166667,272.600222 C253.166667,272.600222 245.081407,272.463593 243.088222,271.876889 C241.095037,271.290185 240.371704,269.522037 240.588704,269.522037 C241.826404,269.141568 242.96143,268.484737 243.908,267.601185 C245.696104,265.530522 247.688675,263.645657 249.855407,261.975259 C251.695889,260.729519 258.318407,252.636222 258.318407,252.636222 C258.318407,252.636222 265.873222,253.10237 264.844481,254.18737 C263.815741,255.27237 265.74463,264.418519 265.302593,265.326704 Z" id="Path" fill="#052F5F" fill-rule="nonzero"></path>
                    <path d="M314.368704,204.269333 C314.368704,204.269333 314.51337,208.23963 312.897926,208.02263 C311.282481,207.80563 284.728111,205.611519 281.489185,206.640259 C278.250259,207.669 277.293852,209.421074 275.863259,212.66 C274.432667,215.898926 256.984259,253.038074 256.984259,253.038074 C258.800086,256.304232 262.662775,257.842589 266.226852,256.719037 C266.226852,256.719037 286.922222,221.187296 290.241519,221.25963 C293.560815,221.331963 321.650259,229.93963 326.802,229.425259 C331.953741,228.910889 332.468111,227.070407 334.155889,227.150778 C335.843667,227.231148 340.955222,224.281556 341.783037,216.557963 C342.610852,208.83437 341.783037,205.306111 341.783037,205.306111 C341.783037,205.306111 330.683889,202.364556 326.359963,203.03163 C322.036037,203.698704 314.368704,204.269333 314.368704,204.269333 Z" id="Path" fill="#052F5F" fill-rule="nonzero"></path>
                    <path d="M311.941519,201.914481 C311.941519,201.914481 309.659,203.385259 311.210148,205.370407 C312.761296,207.355556 313.854333,206.479519 314.738407,206.254481 C323.594687,204.101628 332.796804,203.776203 341.783037,205.298074 C342.982853,204.276739 343.435567,202.625286 342.924296,201.134889 C342.924296,201.134889 338.150296,196.208185 323.707741,198.530889 C313.725741,200.122222 311.941519,201.914481 311.941519,201.914481 Z" id="Path" fill="#FF911E" fill-rule="nonzero"></path>
                    <path d="M265.302593,265.326704 C264.868593,266.202741 253.166667,272.600222 253.166667,272.600222 C253.166667,272.600222 245.081407,272.463593 243.088222,271.876889 C243.088222,271.876889 246.182481,271.073185 247.95063,270.695444 C249.718778,270.317704 258.913148,261.573407 260.809889,261.645741 C262.70663,261.718074 265.302593,265.326704 265.302593,265.326704 Z" id="Path" fill="#13293D" fill-rule="nonzero"></path>
                    <path d="M265.455296,175.922704 C264.686907,175.096945 264.027829,174.175857 263.494259,173.182074 C262.907556,171.904185 260.174963,167.909778 260.174963,167.909778 C260.174963,167.909778 259.17837,168.175 260.062444,170.827222 C260.946519,173.479444 261.292111,175.127037 261.292111,175.127037 L255.007148,172.169407 C255.007148,172.169407 254.468667,174.749296 255.810852,176.412963 C257.153037,178.07663 261.396593,180.632407 261.396593,180.632407 L264.418519,180.632407 L265.455296,175.922704 Z" id="Path" fill="#007EA7" fill-rule="nonzero"></path>
                    <path d="M317.599593,189.264185 C314.432214,192.202309 313.095746,196.620334 314.103481,200.821444 L312.680926,201.785889 L311.941519,201.914481 C311.941519,201.914481 308.855296,198.900593 310.832407,197.301222 C312.809519,195.701852 312.303185,192.864778 311.427148,189.336519 C310.977074,187.560333 311.957593,181.854037 313.034556,176.621926 L318.660481,170.441444 C318.660481,170.441444 322.984407,184.289259 317.599593,189.264185 Z" id="Path" fill="#FEBB46" fill-rule="nonzero"></path>
                    <path d="M260.769704,183.477519 C260.769704,183.477519 258.985481,181.484333 262.023481,178.478481 C265.061481,175.47263 266.845704,174.459963 268.493296,175.536926 C270.140889,176.613889 269.08,179.16163 267.416333,180.632407 C265.752667,182.103185 263.446037,185.245667 260.769704,183.477519 Z" id="Path" fill="#FF911E" fill-rule="nonzero"></path>
                    <path d="M263.783593,183.66237 C263.783593,183.66237 280.749778,201.183111 285.065667,202.951259 C289.381556,204.719407 313.444444,188.589074 315.855556,186.571778 C318.266667,184.554481 322.044074,167.556148 315.268852,166.79263 C312.648778,166.495259 296.55863,189.36063 288.224222,189.36063 C279.889815,189.36063 271.708111,178.181111 269.345222,177.988222 C269.329148,177.988222 263.872,181.49237 263.783593,183.66237 Z" id="Path" fill="#FFD648" fill-rule="nonzero"></path>
                </g>
            </g>
        </g>
    </g>
</svg>