<?xml version="1.0" encoding="UTF-8"?>
<svg width="335px" height="334px" viewBox="0 0 335 334" version="1.1" xmlns="http://www.w3.org/2000/svg" xmlns:xlink="http://www.w3.org/1999/xlink">
    <!-- Generator: Sketch 53.2 (72643) - https://sketchapp.com -->
    <title>Business Achievement</title>
    <desc>Created with Sketch.</desc>
    <g id="Landing-Page" stroke="none" stroke-width="1" fill="none" fill-rule="evenodd">
        <g id="Landing-Page-Desktop-HD" transform="translate(-880.000000, -2293.000000)" fill-rule="nonzero">
            <g id="Section-4-:-Publisher" transform="translate(0.000000, 2150.000000)">
                <g id="Group-11" transform="translate(154.000000, 34.000000)">
                    <g id="Business-Achievement" transform="translate(725.000000, 109.000000)">
                        <path d="M225.322382,294.395277 C224.212116,295.030608 223.427223,296.111144 223.166324,297.36345 C222.93334,298.424807 222.839123,299.51192 222.886037,300.597536 L232.00616,315.287474 C232.539459,316.151039 233.44648,316.714935 234.456879,316.811088 C236.379601,316.983412 238.316574,316.72564 240.12731,316.056468 C240.931383,315.775124 241.71032,315.426526 242.455852,315.014374 C243.244455,314.569064 243.81193,313.815396 244.021942,312.934436 C244.231954,312.053477 244.065521,311.124852 243.562628,310.371663 C241.205339,306.835729 236.900411,300.310062 236.26078,298.592402 C235.885004,297.452717 235.342499,296.374972 234.650924,295.394251 L225.322382,294.395277 Z" id="Path" fill="#13293D"></path>
                        <path d="M164.435318,251.540041 C164.435318,251.540041 162.164271,251.475359 161.158111,252.589322 C160.402444,253.510304 159.715448,254.48555 159.102669,255.507187 C158.839937,255.939948 158.787097,256.468341 158.958932,256.944559 C160.008214,259.725873 163.752567,269.090349 166.792608,269.090349 L182.919918,269.090349 C183.195747,267.024911 182.052964,265.030931 180.131417,264.224846 C176.724846,262.550308 176.113963,262.068789 176.171458,260.710472 C176.228953,259.352156 175.855236,255.86653 175.100616,255.226899 C174.345996,254.587269 164.435318,251.540041 164.435318,251.540041 Z" id="Path" fill="#13293D"></path>
                        <path d="M225.322382,292.505133 L225.322382,295.379877 C225.322382,295.379877 226.673511,297.442505 230.13039,297.38501 C233.587269,297.327515 234.543121,296.12731 234.543121,296.12731 L234.967146,293.10883 L230.302875,291.441478 L225.322382,292.505133 Z" id="Path" fill="#007EA7"></path>
                        <path d="M165.534908,249.836756 L163.86037,252.38809 C163.86037,252.38809 164.349076,255.36345 168.89117,256.031828 C173.433265,256.700205 174.36037,256.182752 174.36037,256.182752 L176.667351,253.243326 C176.667351,253.243326 173.131417,249.649897 172.87269,249.4846 C172.613963,249.319302 165.534908,249.836756 165.534908,249.836756 Z" id="Path" fill="#007EA7"></path>
                        <path d="M211.293634,179.628337 C209.466177,184.962984 208.392163,190.52657 208.102669,196.158111 C207.657084,205.386037 208.821355,206.571869 204.50924,210.740246 C200.197125,214.908624 185.765914,226.386037 177.845996,233.191992 C172.697533,237.736931 168.056503,242.82616 164.004107,248.370637 C164.004107,248.370637 165.340862,250.713552 170.867556,252.107803 C176.394251,253.502053 178.737166,253.387064 178.737166,253.387064 C178.737166,253.387064 222.577002,221.470226 224.941478,213.212526 C227.305955,204.954825 232.020534,187.634497 232.020534,187.634497 L222.598563,171.694045 L211.775154,172.808008 L211.293634,179.628337 Z" id="Path" fill="#13293D"></path>
                        <path d="M232.020534,187.634497 C232.020534,187.634497 231.75462,204.286448 233.314168,212.544148 C234.873717,220.801848 229.720739,235.542094 227.061602,253.394251 C224.402464,271.246407 222.37577,290.442505 222.37577,290.442505 C222.37577,290.442505 223.044148,292.972279 230.187885,293.195072 C237.331622,293.417864 238.524641,292.152977 238.524641,292.152977 C238.524641,292.152977 251.396304,232.185832 253.401437,220.801848 C255.406571,209.417864 253.401437,191.033881 253.401437,191.033881 L238.309035,186.00308 L232.020534,187.634497 Z" id="Path" fill="#052F5F"></path>
                        <path d="M290.773101,57.724846 C290.773101,57.724846 295.473306,47.2176591 301.172485,41.3316222 C308.201232,34.0800821 318.916838,29.6170431 318.916838,29.6170431 C316.805517,34.0460026 315.160463,38.6825024 314.008214,43.4517454 C312.87269,48.0585216 314.906571,51.4435318 312.405544,55.0657084 C310.371663,58.0051335 309.652977,60.6427105 308.86961,63.7689938 C308.086242,66.8952772 307.647844,67.4486653 307.647844,67.4486653 L290.773101,57.724846 Z" id="Path" fill="#F9A935"></path>
                        <path d="M334.612936,81.7002053 C334.410921,81.7005085 334.21161,81.6537568 334.030801,81.563655 L289.63039,60.1396304 C289.019739,59.7884831 288.783831,59.0254183 289.089758,58.3909037 C289.395685,57.7563891 290.139627,57.4657519 290.794661,57.724846 L335.216632,79.1560575 C335.782588,79.4249374 336.085837,80.0508443 335.946079,80.6616389 C335.806321,81.2724335 335.261064,81.7041909 334.634497,81.7002053 L334.612936,81.7002053 Z" id="Path" fill="#FFBC48"></path>
                        <path d="M315.007187,82.3326489 C315.007187,82.3326489 317.084189,80.4784394 316.537988,78.5595483 C315.991786,76.6406571 314.877823,75.9938398 315.819302,72.8747433 C316.76078,69.7556468 317.522587,65.9394251 324.191992,68.0667351 C330.861396,70.1940452 331.465092,74.2402464 330.365503,77.1365503 C329.265914,80.0328542 327.49076,80.0112936 325.995893,81.7289528 C324.990541,83.0295164 324.237341,84.5066647 323.775154,86.0841889 C323.775154,86.0841889 321.511294,86.9250513 321.238193,86.8028747 C320.965092,86.6806982 315.007187,82.3326489 315.007187,82.3326489 Z" id="Path" fill="#007EA7"></path>
                        <path d="M325.054415,87.2915811 C323.951943,91.577867 322.573994,95.7885342 320.929158,99.8973306 C318.830595,105.186858 311.98152,120.286448 308.711499,127.430185 C307.590057,129.914377 305.576571,131.886823 303.069815,132.956879 C301.222793,133.740246 299.066735,134.645791 297.377823,135.306982 C294.710325,136.461346 292.145083,137.838931 289.709446,139.425051 L289.709446,139.425051 C285.620123,142.062628 281.430185,145.469199 280.36653,148.516427 L280.36653,148.516427 C278.505133,153.877823 272.705339,159.972279 268.2423,164.327515 C263.779261,168.682752 256.024641,190.811088 256.024641,190.811088 C256.024641,190.811088 247.695072,192.305955 233.184805,187.986653 C218.674538,183.667351 217.165298,178.104723 217.165298,178.104723 L220.040041,170.12731 L242.491786,140.812115 C242.491786,140.812115 240.853183,138.87885 233.191992,136.945585 C225.530801,135.01232 205.817248,133.747433 205.817248,133.747433 L202.460986,122.327515 L206.406571,119.833676 C206.406571,119.833676 235.154004,122.98152 246.365503,123.031828 C257.577002,123.082136 263.922998,124.814168 263.922998,124.814168 L273.9846,125.489733 C275.978511,125.419585 277.974088,125.569012 279.935318,125.935318 C282.321355,126.424025 289.148871,123.00308 293.734086,120.185832 C294.711499,119.574949 295.595483,118.992813 296.306982,118.489733 C297.01848,117.986653 297.88809,116.657084 298.922998,114.738193 C304.047228,105.287474 312.376797,82.1314168 312.376797,82.1314168 C314.753347,82.0964751 317.121966,82.4137441 319.405544,83.0728953 C322.689938,84.1365503 325.054415,87.2915811 325.054415,87.2915811 Z" id="Path" fill="#3066B3"></path>
                        <path d="M265.913758,139.180698 C265.913758,139.180698 265.345996,138.684805 263.25462,138.771047 C261.891419,138.867533 260.587865,139.367937 259.510267,140.208419 C259.510267,140.208419 259.459959,134.660164 260.516427,131.030801 C261.219027,128.750098 262.356287,126.626887 263.865503,124.778234 L264.814168,130.024641 L266.970226,138.117043 L265.913758,139.180698 Z" id="Path" fill="#052F5F"></path>
                        <path d="M268.249487,139.425051 C268.249487,139.425051 269.305955,138.835729 271.037988,139.849076 C272.770021,140.862423 273.071869,141.882957 273.071869,141.882957 C273.071869,141.882957 275.759754,135.86037 276.13347,133.740246 C276.360968,132.624645 276.421519,131.481441 276.313142,130.348049 L272.719713,130.800821 L268.249487,139.425051 Z" id="Path" fill="#052F5F"></path>
                        <path d="M265.913758,139.180698 C265.475707,139.502323 265.197975,139.997523 265.151951,140.539014 C265.192956,141.152761 265.429743,141.737171 265.827515,142.206366 C266.14136,142.630985 266.734281,142.732447 267.171458,142.436345 C267.726422,142.111274 268.150809,141.603026 268.371663,140.998973 C268.580211,140.478572 268.523973,139.889414 268.220739,139.417864 L265.913758,139.180698 Z" id="Path" fill="#8291F9"></path>
                        <path d="M265.195072,140.539014 C265.195072,140.539014 261.005133,143.787474 258.662218,150.485626 C256.319302,157.183778 259.222793,157.406571 255.98152,164.435318 C252.740246,171.464066 246.638604,178.701232 246.638604,178.701232 L246.976386,186.707392 L253.300821,183.674538 C253.300821,183.674538 261.49384,170.12731 262.327515,164.212526 C263.161191,158.297741 260.882957,156.673511 263.283368,151.082136 C264.616439,147.925779 266.145427,144.8558 267.861396,141.890144 L265.195072,140.539014 Z" id="Path" fill="#052F5F"></path>
                        <path d="M272.683778,97.6047228 C272.683778,97.6047228 268.26386,100.170431 264.670431,106.947639 C262.906859,110.253297 261.555229,113.762708 260.645791,117.397331 C260.364583,118.572491 261.043749,119.764174 262.198152,120.12115 C265.729065,121.244568 269.541121,121.102251 272.978439,119.718686 C276.995487,118.129429 280.49327,115.457581 283.083162,112 L282.889117,106.250513 L279.870637,100.062628 L272.683778,97.6047228 Z" id="Path" fill="#007EA7"></path>
                        <path d="M266.488706,120.135524 L263.894251,124.814168 C262.017677,127.627745 261.776858,131.226357 263.261807,134.264887 C264.062606,135.952401 264.957583,137.593591 265.942505,139.180698 C266.150053,139.517828 266.487462,139.754427 266.875136,139.834683 C267.262811,139.914938 267.666423,139.831743 267.99076,139.604723 C270.218686,138.117043 274.904517,134.73922 275.651951,132.259754 C276.601982,129.483846 277.759953,126.783516 279.116016,124.181725 L280.337782,121.393224 L268.508214,118.51848 L266.488706,120.135524 Z" id="Path" fill="#007EA7"></path>
                        <path d="M289.695072,139.425051 C285.605749,142.062628 281.415811,145.469199 280.352156,148.516427 C280.85757,146.296964 281.155906,144.035383 281.243326,141.76078 C281.243326,138.886037 280.352156,133.13655 281.243326,135.141684 C282.134497,137.146817 282.88193,142.457906 284.218686,141.609856 C285.988648,140.749517 287.818958,140.019315 289.695072,139.425051 L289.695072,139.425051 Z" id="Path" fill="#052F5F"></path>
                        <path d="M298.326489,121.695072 C296.972758,120.728306 295.354389,120.201395 293.690965,120.185832 C294.668378,119.574949 295.552361,118.992813 296.26386,118.489733 C296.975359,117.986653 297.844969,116.657084 298.879877,114.738193 L298.879877,114.738193 C298.879877,114.738193 298.764887,118.619097 299.37577,120.688912 C299.986653,122.758727 300.331622,123.25462 298.326489,121.695072 Z" id="Path" fill="#052F5F"></path>
                        <path d="M33.3901437,22.9117043 C33.3901437,22.9117043 37.9394251,24.4353183 43.3583162,20.3100616 C48.7772074,16.1848049 49.1078029,13.4250513 49.1078029,13.4250513 L54.4045175,18.7864476 C54.4045175,18.7864476 49.6827515,24.75154 43.9188912,27.036961 C40.3461171,28.3966418 36.4463091,28.6471111 32.7289528,27.7556468 L33.3901437,22.9117043 Z" id="Path" fill="#052F5F"></path>
                        <path d="M198.76694,53.5061602 C198.76694,53.5061602 201.339836,57.5379877 208.109856,57.8182752 C214.879877,58.0985626 216.892197,56.1293634 216.892197,56.1293634 L217.610883,63.6324435 C217.610883,63.6324435 210.186858,65.2422998 204.272074,63.3521561 C200.639449,62.1319075 197.462082,59.8390912 195.159138,56.7761807 L198.76694,53.5061602 Z" id="Path" fill="#3066B3"></path>
                        <path d="M107.637577,31.8449692 C107.637577,31.8449692 111.583162,29.1427105 111.626283,22.3511294 C111.669405,15.5595483 109.649897,13.6550308 109.649897,13.6550308 L117.12423,12.7207392 C117.12423,12.7207392 118.985626,20.087269 117.289528,26.0595483 C116.199292,29.731399 114.024844,32.9880602 111.051335,35.4024641 L107.637577,31.8449692 Z" id="Path" fill="#3066B3"></path>
                        <path d="M24.7874743,78.0708419 C24.7874743,78.0708419 25.2689938,82.8285421 31.2125257,86.1273101 C37.1560575,89.426078 39.8367556,88.563655 39.8367556,88.563655 L37.0626283,95.5852156 C37.0626283,95.5852156 29.6960986,93.687885 25.2689938,89.3398357 C22.5788126,86.627028 20.7702771,83.1652606 20.0800821,79.4075975 L24.7874743,78.0708419 Z" id="Path" fill="#3066B3"></path>
                        <path d="M67.664271,255.327515 C67.664271,255.327515 69.4537988,259.768994 76.0728953,261.278234 C82.6919918,262.787474 85.0205339,261.220739 85.0205339,261.220739 L84.301848,268.723819 C84.301848,268.723819 76.7053388,268.953799 71.2433265,266.007187 C67.9020075,264.149547 65.1992504,261.326556 63.4887064,257.907598 L67.664271,255.327515 Z" id="Path" fill="#052F5F"></path>
                        <path d="M167.489733,213.600616 C167.489733,213.600616 172.268994,213.456879 175.977413,207.764887 C179.685832,202.072895 179.017454,199.356263 179.017454,199.356263 L185.816222,202.604723 C185.816222,202.604723 183.401437,209.791581 178.75154,213.916838 C175.855287,216.409693 172.272624,217.968026 168.474333,218.387064 L167.489733,213.600616 Z" id="Path" fill="#FFBC48"></path>
                        <path d="M150.622177,238.675565 C150.622177,238.675565 153.295688,240.062628 157.090349,238.064682 C160.88501,236.066735 161.344969,234.370637 161.344969,234.370637 L164.090349,238.237166 C164.090349,238.237166 160.554415,241.464066 156.738193,242.304928 C154.376302,242.777378 151.926845,242.526923 149.709446,241.586242 L150.622177,238.675565 Z" id="Path" fill="#3066B3"></path>
                        <path d="M47.1529774,199.370637 C47.1529774,199.370637 47.9507187,202.24538 51.9825462,203.682752 C56.0143737,205.120123 57.5811088,204.300821 57.5811088,204.300821 L56.6036961,208.943532 C56.6036961,208.943532 51.8316222,208.533881 48.6262834,206.291581 C46.6713063,204.884811 45.1860352,202.921147 44.3644764,200.657084 L47.1529774,199.370637 Z" id="Path" fill="#3066B3"></path>
                        <path d="M78.8685832,234.291581 C78.8685832,234.291581 81.8726899,234.564682 84.6180698,231.287474 C87.3634497,228.010267 87.1622177,226.256674 87.1622177,226.256674 L91.1652977,228.800821 C91.1652977,228.800821 89.1098563,233.112936 85.8901437,235.348049 C83.889603,236.684622 81.5331695,237.388297 79.1273101,237.367556 L78.8685832,234.291581 Z" id="Path" fill="#FFBC48"></path>
                        <path d="M185.126283,25.7145791 C185.126283,25.7145791 187.799795,27.1016427 191.594456,25.1036961 C195.389117,23.1057495 195.841889,21.4096509 195.841889,21.4096509 L198.594456,25.2761807 C198.594456,25.2761807 195.051335,28.5102669 191.235113,29.3439425 C188.873222,29.8163928 186.423765,29.5659371 184.206366,28.6252567 L185.126283,25.7145791 Z" id="Path" fill="#FFBC48"></path>
                        <path d="M39.2905544,53.4055441 C39.2905544,53.4055441 40.5051335,56.1652977 44.7022587,56.9989733 C48.899384,57.8326489 50.3080082,56.7761807 50.3080082,56.7761807 L50.013347,61.5123203 C50.013347,61.5123203 45.2340862,61.8069815 41.7340862,60.0749487 C39.5979089,58.9670631 37.8448643,57.2415663 36.7032854,55.1232033 L39.2905544,53.4055441 Z" id="Path" fill="#FFBC48"></path>
                        <path d="M78.7535934,12.936345 C78.7535934,12.936345 81.4271047,14.3234086 85.2217659,12.325462 C89.0164271,10.3275154 89.4620123,8.62422998 89.4620123,8.62422998 L92.2145791,12.4979466 C92.2145791,12.4979466 88.6714579,15.724846 84.8552361,16.5585216 C82.497057,17.0445555 80.047041,16.8065682 77.8264887,15.87577 L78.7535934,12.936345 Z" id="Path" fill="#FFBC48"></path>
                        <path d="M150.205339,9.76694045 C150.205339,9.76694045 153.180698,9.32135524 155.078029,5.49075975 C156.975359,1.66016427 156.35729,0 156.35729,0 L160.849076,1.53080082 C160.849076,1.53080082 159.871663,6.21663244 157.255647,9.13449692 C155.624903,10.9058338 153.498831,12.1454163 151.154004,12.6919918 L150.205339,9.76694045 Z" id="Path" fill="#052F5F"></path>
                        <path d="M30.1273101,310.421971 C30.1273101,310.421971 30.9250513,313.296715 34.9568789,314.734086 C38.9887064,316.171458 40.5554415,315.352156 40.5554415,315.352156 L39.5780287,320.002053 C39.5780287,320.002053 34.8059548,319.585216 31.600616,317.342916 C29.6368521,315.947707 28.1411466,313.991013 27.3100616,311.729979 L30.1273101,310.421971 Z" id="Path" fill="#052F5F"></path>
                        <path d="M196.201232,323.343943 C196.201232,323.343943 198.874743,324.731006 202.669405,322.740246 C206.464066,320.749487 206.924025,319.046201 206.924025,319.046201 L209.669405,322.919918 C209.669405,322.919918 206.126283,326.146817 202.310062,326.980493 C199.948064,327.450698 197.499272,327.200311 195.281314,326.261807 L196.201232,323.343943 Z" id="Path" fill="#3066B3"></path>
                        <path d="M90.5975359,326.671458 C90.5975359,326.671458 93.2997947,329.510267 98.7977413,328.647844 C104.295688,327.785421 105.596509,325.902464 105.596509,325.902464 L107.335729,331.824435 C107.335729,331.824435 101.622177,334.296715 96.5554415,333.714579 C93.4538668,333.302619 90.5485346,331.965165 88.2186858,329.876797 L90.5975359,326.671458 Z" id="Path" fill="#3066B3"></path>
                        <path d="M148.422998,321.101643 C148.422998,321.101643 149.220739,323.976386 153.252567,325.413758 C157.284394,326.851129 158.851129,326.031828 158.851129,326.031828 L157.86653,330.681725 C157.86653,330.681725 153.094456,330.264887 149.896304,328.022587 C147.939745,326.617437 146.454066,324.653234 145.634497,322.38809 L148.422998,321.101643 Z" id="Path" fill="#FFBC48"></path>
                        <path d="M275.141684,88.6067762 C275.141684,88.6067762 270.046201,95.0749487 272.353183,97.8203285 C274.660164,100.565708 277.168378,100.342916 278.102669,103.454825 C279.036961,106.566735 278.821355,108.234086 276.945585,109.513347 C275.836747,110.228969 274.958268,111.249702 274.415811,112.452772 C274.415811,112.452772 277.132444,111.331622 277.578029,113.171458 C278.023614,115.011294 277.865503,116.64271 275.120123,117.483573 C272.374743,118.324435 270.994867,118.202259 271.577002,120.696099 C272.058522,122.780287 280.273101,128.306982 286.63347,122.550308 C292.99384,116.793634 290.715606,112.711499 290.715606,112.711499 C290.715606,112.711499 294.898357,104.942505 289.220739,99.775154 C281.681725,92.9476386 279.338809,95.3767967 277.261807,93.3069815 C276.022563,92.0395411 275.271565,90.3746173 275.141684,88.6067762 L275.141684,88.6067762 Z" id="Path" fill="#133C55"></path>
                        <path d="M139.166324,232.631417 C135.371663,247.953799 136.155031,269.083162 136.155031,269.083162 L113.753593,269.083162 C113.753593,269.083162 114.536961,247.953799 110.7423,232.631417 C106.638604,216.058522 93.0195072,198.235113 93.0195072,198.235113 L124.957906,196.201232 L133.11499,196.725873 L156.88193,198.26386 C156.88193,198.26386 143.270021,216.058522 139.166324,232.631417 Z" id="Path" fill="#F9A935"></path>
                        <path d="M139.166324,232.631417 C135.371663,247.953799 136.155031,269.083162 136.155031,269.083162 L130.082136,269.083162 C130.082136,269.083162 130.858316,247.953799 127.063655,232.631417 C122.967146,216.058522 109.348049,198.235113 109.348049,198.235113 L133.11499,196.697125 L156.88193,198.235113 C156.88193,198.235113 143.270021,216.058522 139.166324,232.631417 Z" id="Path" fill="#F7A037"></path>
                        <ellipse id="Oval" fill="#F9A935" cx="124.957906" cy="83.5616016" rx="76.6694045" ry="12.0523614"></ellipse>
                        <path d="M127.016391,45.7057938 L179.991463,45.7057938 C183.503994,45.7057938 186.351463,48.5532628 186.351463,52.0657938 L186.351463,105.040866 C186.351463,108.553397 183.503994,111.400866 179.991463,111.400866 L127.016391,111.400866 C123.50386,111.400866 120.656391,108.553397 120.656391,105.040866 L120.656391,52.0657938 C120.656391,48.5532628 123.50386,45.7057938 127.016391,45.7057938 Z" id="Rectangle" fill="#3066B3" transform="translate(153.503927, 78.553330) rotate(-12.930000) translate(-153.503927, -78.553330) "></path>
                        <polygon id="Rectangle" fill="#007EA7" transform="translate(152.904398, 78.697534) rotate(-12.930000) translate(-152.904398, -78.697534) " points="145.685198 45.8499981 160.123597 45.8499981 160.123597 111.54507 145.685198 111.54507"></polygon>
                        <path d="M118.719713,43.7032854 C116.73614,54.6201232 145.555441,46.7145791 145.555441,46.7145791 C145.555441,46.7145791 121.292608,29.5092402 118.719713,43.7032854 Z M127.868583,44.7022587 C129.147844,37.6088296 141.279261,46.1971253 141.279261,46.1971253 C141.279261,46.1971253 126.86961,50.1786448 127.868583,44.7022587 Z" id="Shape" fill="#052F5F"></path>
                        <path d="M168.402464,32.2977413 C159.900411,20.6478439 145.555441,46.6714579 145.555441,46.6714579 C145.555441,46.6714579 174.956879,41.2813142 168.402464,32.2977413 Z M149.572895,44.2926078 C149.572895,44.2926078 156.759754,31.2772074 160.992813,37.1057495 C164.270021,41.5903491 149.572895,44.2926078 149.572895,44.2926078 L149.572895,44.2926078 Z" id="Shape" fill="#052F5F"></path>
                        <path d="M145.555441,46.7145791 C145.555441,46.7145791 142.76694,42.7833676 140.675565,41.899384 C139.882265,41.5495191 139.053311,41.2868561 138.203285,41.1160164 C138.053725,41.0800584 137.930888,40.9738086 137.87376,40.8309886 C137.816632,40.6881687 137.832308,40.5265139 137.915811,40.3973306 L139.777207,37.9106776 C139.923811,37.7111097 140.199264,37.6578972 140.409651,37.788501 C141.748611,38.6343077 142.868999,39.7842448 143.679671,41.1447639 C144.554569,42.9077352 145.185609,44.7815148 145.555441,46.7145791 Z" id="Path" fill="#007EA7"></path>
                        <path d="M145.569815,46.7145791 C145.569815,46.7145791 146.36037,41.9568789 147.855236,40.2464066 C148.413688,39.5832065 149.045355,38.9852932 149.738193,38.4640657 C149.867322,38.364585 149.937355,38.2065293 149.924298,38.044048 C149.911241,37.8815666 149.816869,37.736722 149.673511,37.6591376 L146.906571,36.2217659 C146.687403,36.1062816 146.416198,36.1819668 146.288501,36.3942505 C145.450902,37.7369222 144.943532,39.2590321 144.808008,40.835729 C144.791333,42.8209973 145.047669,44.7991335 145.569815,46.7145791 Z" id="Path" fill="#007EA7"></path>
                        <path d="M69.8696138,60.3663065 L122.844686,60.3663065 C126.357217,60.3663065 129.204686,63.2137755 129.204686,66.7263065 L129.204686,119.701378 C129.204686,123.213909 126.357217,126.061378 122.844686,126.061378 L69.8696138,126.061378 C66.3570828,126.061378 63.5096138,123.213909 63.5096138,119.701378 L63.5096138,66.7263065 C63.5096138,63.2137755 66.3570828,60.3663065 69.8696138,60.3663065 Z" id="Rectangle" fill="#007EA7" transform="translate(96.357150, 93.213842) rotate(14.650000) translate(-96.357150, -93.213842) "></path>
                        <polygon id="Rectangle" fill="#235EE2" transform="translate(95.762527, 93.053744) rotate(14.650000) translate(-95.762527, -93.053744) " points="88.5433281 60.2062078 102.981726 60.2062078 102.981726 125.90128 88.5433281 125.90128"></polygon>
                        <path d="M81.6714579,46.2043121 C74.8439425,54.986653 104.072895,61.2607803 104.072895,61.2607803 C104.072895,61.2607803 90.5544148,34.8131417 81.6714579,46.2043121 Z M89.3110883,51.3285421 C93.738193,45.6293634 100.5154,58.8531828 100.5154,58.8531828 C100.5154,58.8531828 85.8973306,55.7197125 89.3110883,51.3285421 Z" id="Shape" fill="#007EA7"></path>
                        <path d="M130.98768,59.0903491 C128.831622,44.8316222 104.072895,61.2464066 104.072895,61.2464066 C104.072895,61.2464066 132.640657,70.0862423 130.98768,59.0903491 Z M108.744353,61.0092402 C108.744353,61.0092402 121.12731,52.7946612 122.176591,59.9240246 C123.024641,65.4004107 108.744353,61.0092402 108.744353,61.0092402 Z" id="Shape" fill="#007EA7"></path>
                        <path d="M104.072895,61.2607803 C104.072895,61.2607803 103.426078,56.4887064 101.988706,54.7351129 C101.440224,54.0626892 100.826329,53.4463874 100.156057,52.8952772 C100.02464,52.7962983 99.9549769,52.6354869 99.97266,52.4719181 C99.9903431,52.3083492 100.092765,52.1661416 100.2423,52.0975359 L103.045175,50.7535934 C103.268341,50.6443999 103.537952,50.7259102 103.663244,50.9404517 C104.461208,52.3103582 104.924163,53.8494396 105.014374,55.4322382 C104.969303,57.4090656 104.652507,59.3702967 104.072895,61.2607803 Z" id="Path" fill="#235EE2"></path>
                        <path d="M104.087269,61.2679671 C104.087269,61.2679671 106.962012,57.4229979 109.11807,56.5965092 C109.921076,56.2679346 110.757197,56.0269777 111.61191,55.8778234 C111.765317,55.8475041 111.893924,55.7435232 111.955697,55.5998665 C112.017469,55.4562097 112.004469,55.2913374 111.920945,55.1591376 L110.138604,52.6149897 C109.996366,52.4104423 109.720121,52.3507986 109.50616,52.4784394 C108.140537,53.2812687 106.985252,54.3971404 106.135524,55.7340862 C105.20599,57.4777474 104.516972,59.3393039 104.087269,61.2679671 L104.087269,61.2679671 Z" id="Path" fill="#235EE2"></path>
                        <path d="M194.720739,167.008214 C174.690965,195.920945 148.286448,202.482546 134.408624,203.833676 C132.367556,204.034908 130.599589,204.128337 129.155031,204.149897 C127.755327,204.194265 126.354249,204.163077 124.957906,204.056468 C124.957906,204.056468 86.7956879,207.772074 58.5657084,171.600616 C57.4253936,170.163244 56.2994524,168.632444 55.187885,167.008214 C53.6440913,164.770012 52.272259,162.417956 51.0841889,159.972279 C44.486653,146.446612 43.1211499,130.225873 43.6314168,116.218686 C43.8326489,110.99384 44.2997947,106.078029 44.8675565,101.715606 C45.6309602,95.5998104 46.7710461,89.5369533 48.2813142,83.5616016 L48.2813142,83.5616016 C48.2813142,87.1119097 58.0482546,90.3028747 73.5934292,92.5164271 C76.3963039,92.9117043 79.3932238,93.2782341 82.5554415,93.6088296 C85.2720739,93.8963039 88.1060917,94.1526352 91.0574949,94.3778234 C101.277207,95.1683778 112.776181,95.613963 124.950719,95.613963 C167.295688,95.613963 201.620123,90.2166324 201.620123,83.5616016 C202.912657,88.6553196 203.925126,93.816032 204.652977,99.0205339 C207.290554,116.98768 208.7423,146.762834 194.720739,167.008214 Z" id="Path" fill="#FFC74A"></path>
                        <polygon id="Path" fill="#FFBC48" points="62.6694045 269.090349 186.039014 269.090349 199.435318 315.222793 50.473306 315.222793"></polygon>
                        <polygon id="Path" fill="#F9A935" points="171.040041 307.001027 78.1786448 307.001027 84.8696099 277.312115 164.262834 277.312115 164.837782 279.841889"></polygon>
                        <polygon id="Path" fill="#F29B27" points="173.569815 309.530801 80.7084189 309.530801 81.2833676 307.001027 171.040041 307.001027 164.837782 279.841889 166.792608 279.841889"></polygon>
                        <path d="M58.5657084,171.600616 C56.3162218,177.005133 49.7043121,184.37885 30.4075975,177.271047 C2.3788501,166.936345 -1.73921971,121.019507 3.02566735,99.5667351 C7.79055441,78.113963 24.4353183,89.7710472 35.4671458,97.2166324 C39.6786448,100.055441 42.7186858,101.284394 44.8747433,101.715606 C44.3069815,106.078029 43.8326489,110.99384 43.6314168,116.218686 C42.3162218,116.276181 40.0379877,115.737166 36.3655031,113.250513 C29.4014374,108.543121 18.8726899,101.176591 15.8613963,114.738193 C12.8501027,128.299795 15.4373717,157.320329 33.1673511,163.86037 C45.7156057,168.488706 49.7761807,163.414784 51.0841889,159.979466 C52.2750651,162.423645 53.6467768,164.775494 55.187885,167.0154 C56.2946612,168.615674 57.4206023,170.144079 58.5657084,171.600616 Z" id="Path" fill="#F9A935"></path>
                        <path d="M191.393224,171.600616 C193.649897,177.005133 200.25462,184.37885 219.551335,177.271047 C247.580082,166.936345 251.698152,121.019507 246.940452,99.5667351 C242.182752,78.113963 225.50924,89.7710472 214.498973,97.2166324 C210.280287,100.055441 207.240246,101.284394 205.091376,101.715606 C205.659138,106.078029 206.126283,110.99384 206.327515,116.218686 C207.64271,116.276181 209.920945,115.737166 213.600616,113.250513 C220.557495,108.543121 231.093429,101.176591 234.104723,114.738193 C237.116016,128.299795 234.521561,157.320329 216.798768,163.853183 C204.243326,168.48152 200.182752,163.407598 198.874743,159.972279 C197.686673,162.417956 196.314841,164.770012 194.771047,167.008214 C193.664271,168.613279 192.53833,170.144079 191.393224,171.600616 Z" id="Path" fill="#F9A935"></path>
                        <path d="M142.170431,287.9846 L107.084189,287.9846 C106.592009,287.9846 106.193018,287.585609 106.193018,287.093429 C106.193018,286.601249 106.592009,286.202259 107.084189,286.202259 L142.206366,286.202259 C142.698545,286.202259 143.097536,286.601249 143.097536,287.093429 C143.097536,287.585609 142.698545,287.9846 142.206366,287.9846 L142.170431,287.9846 Z" id="Path" fill="#FFBC48"></path>
                        <path d="M154.927105,298.110883 L98.150924,298.110883 C97.6877418,298.06933 97.3328379,297.681161 97.3328379,297.216119 C97.3328379,296.751077 97.6877418,296.362908 98.150924,296.321355 L154.927105,296.321355 C155.390287,296.362908 155.745191,296.751077 155.745191,297.216119 C155.745191,297.681161 155.390287,298.06933 154.927105,298.110883 L154.927105,298.110883 Z" id="Path" fill="#FFBC48"></path>
                        <path d="M88.8367556,280.172485 C88.9435244,280.655001 88.7340473,281.152349 88.3142334,281.413075 C87.8944196,281.673801 87.3557494,281.641091 86.970568,281.331483 C86.5853866,281.021876 86.4376277,280.502835 86.6019964,280.036783 C86.7663651,279.570731 87.2070444,279.259223 87.701232,279.259754 C88.2648637,279.204929 88.7691175,279.610247 88.8367556,280.172485 L88.8367556,280.172485 Z" id="Path" fill="#FFBC48"></path>
                        <path d="M83.6694045,304.147844 C83.77301,304.630506 83.5609654,305.126037 83.1402863,305.38435 C82.7196072,305.642664 82.1817557,305.607598 81.7981769,305.296851 C81.414598,304.986103 81.2686878,304.467235 81.4340847,304.002111 C81.5994816,303.536987 82.0402259,303.226731 82.5338809,303.227926 C83.09881,303.177257 83.6017439,303.584697 83.6694045,304.147844 L83.6694045,304.147844 Z" id="Path" fill="#FFBC48"></path>
                        <path d="M160.26694,280.172485 C160.163475,280.654502 160.374813,281.149432 160.794533,281.408047 C161.214252,281.666662 161.751354,281.632892 162.135376,281.323742 C162.519397,281.014593 162.667079,280.49709 162.504055,280.031828 C162.34103,279.566566 161.902644,279.254416 161.409651,279.252567 C160.842062,279.197764 160.334603,279.606285 160.26694,280.172485 L160.26694,280.172485 Z" id="Path" fill="#FFBC48"></path>
                        <path d="M165.448665,304.140657 C165.3452,304.622674 165.556538,305.117605 165.976257,305.376219 C166.395977,305.634834 166.933079,305.601064 167.317101,305.291915 C167.701122,304.982766 167.848804,304.465262 167.68578,304 C167.522755,303.534738 167.084369,303.222589 166.591376,303.220739 C166.023787,303.165937 165.516328,303.574457 165.448665,304.140657 L165.448665,304.140657 Z" id="Path" fill="#FFBC48"></path>
                        <path d="M194.720739,167.008214 C174.690965,195.920945 148.286448,202.482546 134.408624,203.833676 C120.394251,199.061602 103.828542,189.661191 89.4907598,171.298768 C88.1755647,169.609856 86.8819302,167.856263 85.6098563,166.016427 C83.8427558,163.449108 82.269275,160.753772 80.9024641,157.952772 C73.3347023,142.436345 71.7392197,123.822382 72.3572895,107.752567 C72.5657084,102.312115 73.0256674,97.1591376 73.600616,92.5164271 C76.4034908,92.9117043 79.4004107,93.2782341 82.5626283,93.6088296 C85.2792608,93.8963039 88.1132786,94.1526352 91.0646817,94.3778234 C101.284394,95.1683778 112.783368,95.613963 124.957906,95.613963 C167.302875,95.613963 201.62731,90.2166324 201.62731,83.5616016 C202.919844,88.6553196 203.932313,93.816032 204.660164,99.0205339 C207.290554,116.98768 208.7423,146.762834 194.720739,167.008214 Z" id="Path" fill="#FFBC48"></path>
                        <path d="M140.237166,160.302875 L140.237166,171.952772 L112.833676,171.952772 L112.833676,160.302875 L121.457906,160.302875 L121.457906,136.780287 L112.833676,136.780287 L112.833676,128.005133 C115.624093,127.655534 118.314002,126.740965 120.73922,125.317248 C123.521487,123.831842 126.097138,121.988294 128.400411,119.833676 L131.943532,119.833676 L131.943532,160.302875 L140.237166,160.302875 Z" id="Path" fill="#F9A935"></path>
                    </g>
                </g>
            </g>
        </g>
    </g>
</svg>