<?xml version="1.0" encoding="UTF-8"?>
<svg width="359px" height="375px" viewBox="0 0 359 375" version="1.1" xmlns="http://www.w3.org/2000/svg" xmlns:xlink="http://www.w3.org/1999/xlink">
    <!-- Generator: Sketch 53.2 (72643) - https://sketchapp.com -->
    <title>Boost Business</title>
    <desc>Created with Sketch.</desc>
    <defs>
        <linearGradient x1="32.9905089%" y1="21.5766578%" x2="99.1436197%" y2="83.5040764%" id="linearGradient-1">
            <stop stop-color="#3139EC" offset="0%"></stop>
            <stop stop-color="#FF0061" offset="100%"></stop>
        </linearGradient>
    </defs>
    <g id="Landing-Page" stroke="none" stroke-width="1" fill="none" fill-rule="evenodd">
        <g id="Landing-Page-Desktop-HD" transform="translate(-500.000000, -3958.000000)" fill-rule="nonzero">
            <g id="Section-7-:-Our-Help" transform="translate(0.000000, 3800.000000)">
                <g id="Group-35" transform="translate(155.000000, 38.000000)">
                    <g id="Boost-Business" transform="translate(345.000000, 120.000000)">
                        <path d="M253.109985,6.57676461 C179.993873,-9.60540495 103.238702,5.95158561 42.7778237,50.1671441 C10.8048005,73.552463 -6.24989246,97.7985357 34.1961629,110.093723 C126.630064,138.181475 109.566319,168.08134 72.5963793,197.57348 C35.6264397,227.06562 -21.4216894,265.446175 56.781863,285.669356 C134.985415,305.892538 388.705657,289.828156 347.010373,232.212021 C305.315088,174.595887 198.152957,152.705561 226.677021,128.758487 C255.201086,104.811413 405.696983,78.0193217 343.452785,39.122315 C319.726485,24.3173514 285.88867,13.8252168 253.109985,6.57676461 Z" id="Path" fill="url(#linearGradient-1)" opacity="0.04"></path>
                        <path d="M101.364174,197.362798 C101.364174,197.362798 97.8728541,169.24391 83.4947002,157.864524 C69.1165463,146.485139 49.2551368,137.068716 58.4180409,133.215226 C67.580945,129.361736 64.4880122,124.682498 56.0929087,126.239829 C47.6978052,127.797161 47.7050487,119.380327 68.3415023,115.019799 C88.9779559,110.65927 117.060627,110.27537 117.430041,106.378419 C117.799454,102.481469 107.513823,100.149093 94.9320327,102.872613 C82.3502427,105.596132 83.6033513,92.2972451 107.687664,90.0228167 C131.771978,87.7483883 215.809933,88.516189 245.457179,98.613492 C275.104426,108.710795 228.666972,96.1000314 197.230606,94.9917908 C165.794239,93.8835502 113.931477,91.41355 113.12746,94.9917908 C112.323442,98.5700316 134.538957,96.4839317 134.930101,105.132554 C135.321245,113.781177 97.9308014,117.446338 89.7602434,118.134462 C81.5896854,118.822585 95.9098921,131.389888 86.9715334,132.99068 C78.0331748,134.591472 105.594321,144.580124 114.250187,155.141005 C122.906053,165.701886 139.01538,188.221624 139.01538,188.221624 L104.247048,196.080716 L101.364174,197.362798 Z" id="Path" fill-opacity="0.5" fill="#FFD648"></path>
                        <path d="M110.280803,285.90615 C110.260353,315.71653 86.4041322,340.037156 56.5996856,340.632268 C26.7952389,341.22738 1.98718909,317.878446 0.776768192,288.092643 C-0.433652709,258.306839 22.3980394,233.021944 52.1524978,231.196731 C53.2679817,231.124297 54.3907091,231.095323 55.5206799,231.095323 C70.0521665,231.097241 83.9871893,236.874171 94.2577461,247.154238 C104.528303,257.434304 110.292334,271.374667 110.280803,285.90615 Z" id="Path" fill="#EAEAEA"></path>
                        <path d="M62.8510032,320.109496 C58.4325277,321.413309 58.9250791,324.028177 60.562088,324.520728 C62.199097,325.01328 68.4066929,324.520728 66.284376,322.31149 C64.1620591,320.102253 62.8510032,320.109496 62.8510032,320.109496 Z" id="Path" fill="#FD495C"></path>
                        <path d="M45.7927904,271.049931 C43.2720863,278.851076 46.5171306,305.412632 35.3840211,303.580052 C24.2509115,301.747471 9.61923848,299.95835 12.8208224,307.129319 C14.7446483,311.248515 14.7153945,316.014228 12.7411449,320.109496 C3.29675513,308.314656 -0.855780265,293.142321 1.26593892,278.181937 C3.38765811,263.221554 11.5951461,249.802148 23.9466886,241.098462 C23.9466886,241.098462 38.3538161,246.110896 32.1172465,249.790545 C25.880677,253.470193 13.0381244,258.011807 19.9193568,263.053215 C26.8005891,268.094623 34.1164256,271.020958 24.9897385,275.272835 C15.8630514,279.524712 15.4863945,294.670667 25.84446,289.969698 C36.2025255,285.26873 35.7461912,269.818553 40.3312649,265.979549 C44.9163387,262.140546 48.3134945,263.25603 45.7927904,271.049931 Z" id="Path" fill="#FEBB46"></path>
                        <path d="M64.9515899,264.226646 C63.0607462,265.016077 61.359512,266.198793 59.9608856,267.696236 C57.3460173,270.593597 54.3762223,274.990342 56.7810319,277.836999 C60.6779825,282.487264 64.5242292,274.700606 66.7189801,279.28568 C68.9137311,283.870754 77.1639665,272.418934 78.5329696,268.297438 C79.9019726,264.175942 74.8243475,252.724123 66.7189801,255.020282 C58.6136128,257.31644 62.5105633,257.649637 65.2702996,261.025062 C66.7407103,262.879373 65.9729097,263.784799 64.9515899,264.226646 Z" id="Path" fill="#FEBB46"></path>
                        <path d="M91.3320617,244.430427 C91.1871937,245.806674 90.346959,248.892363 85.9357269,251.166791 C80.0975445,254.16556 77.9245237,249.920926 72.7310042,242.749958 C67.5374846,235.578989 58.3890673,246.567231 49.6824975,249.31248 C40.9759278,252.05773 46.3288022,244.242099 50.4502982,242.902069 C54.5717942,241.56204 52.1524978,231.196731 52.1524978,231.196731 C53.2679817,231.124297 54.3907091,231.095323 55.5206799,231.095323 C68.6747265,231.079687 81.3918993,235.815187 91.3320617,244.430427 L91.3320617,244.430427 Z" id="Path" fill="#FEBB46"></path>
                        <path d="M94.1642321,324.69457 C79.4326461,339.353734 57.67962,344.424578 37.9844025,337.790642 C38.7381576,335.842683 39.7517517,334.005543 40.997658,332.329116 C43.8099719,328.965349 46.0959025,325.19454 47.7774827,321.145303 C47.7774827,321.145303 56.3971316,317.523601 55.9118236,311.591255 C55.4265157,305.658908 61.3226453,298.55313 63.0683053,305.868967 C64.8139653,313.184803 81.1768115,328.410435 85.9502137,324.701813 C90.7236159,320.993191 94.1642321,324.69457 94.1642321,324.69457 Z" id="Path" fill="#FEBB46"></path>
                        <path d="M94.4105078,272.701427 C95.0189536,272.701427 104.022503,277.554507 101.125142,279.220489 C98.2277809,280.886472 88.3043195,280.589492 92.273704,286.695681 C96.2430886,292.801869 99.5967839,295.858585 88.9127653,298.451723 C78.2287466,301.044861 71.2678369,295.858585 68.1821474,298.451723 C65.096458,301.044861 67.3636429,290.976531 72.5788927,285.90615 C77.7941425,280.835768 94.4105078,272.701427 94.4105078,272.701427 Z" id="Path" fill="#FEBB46"></path>
                        <path d="M218.750755,48.076273 C218.75118,66.8683978 203.72044,82.2089795 184.932218,82.5919411 C166.143996,82.9749028 150.500624,68.2595537 149.735284,49.4830202 C148.969945,30.7064868 163.363805,14.7668075 182.120868,13.6194075 C182.845208,13.5759471 183.533332,13.5542169 184.243185,13.5542169 C193.397083,13.5561377 202.175297,17.1943517 208.646722,23.6684931 C215.118147,30.1426345 218.752676,38.9223755 218.750755,48.076273 L218.750755,48.076273 Z" id="Path" fill="#3066B3"></path>
                        <path d="M188.878963,69.6471256 C186.090253,70.4728735 186.401719,72.1243692 187.430282,72.4285921 C188.458845,72.732815 192.377526,72.4285921 191.051983,71.0378589 C189.726441,69.6471256 188.878963,69.6471256 188.878963,69.6471256 Z" id="Path" fill="#FD495C"></path>
                        <path d="M178.129753,38.7322838 C176.536205,43.6505541 178.571601,60.3900572 171.567231,59.2311128 C164.562861,58.0721684 155.327523,56.9277108 157.348432,61.4693242 C158.561098,64.0644167 158.54248,67.0672695 157.297728,69.6471256 C151.34944,62.2128929 148.734797,52.6524629 150.071866,43.2257882 C151.408934,33.7991136 156.579041,25.3428632 164.360045,19.855977 C164.360045,19.855977 173.443272,23.0141005 169.510105,25.3247459 C165.576937,27.6353913 157.4933,30.5182654 161.824855,33.6908757 C166.156409,36.863486 170.770457,38.7033102 164.997465,41.3906126 C159.224473,44.0779149 159.014414,53.6174759 165.54072,50.6549243 C172.067026,47.6923727 171.77729,37.9572398 174.660164,35.5379434 C177.543038,33.1186469 179.716059,33.8357438 178.129753,38.7322838 Z" id="Path" fill="#EAEAEA"></path>
                        <path d="M190.204505,34.4369462 C189.010716,34.9272865 187.936184,35.6683427 187.053625,36.6099669 C185.409373,38.4497911 183.533332,41.2022841 185.054446,43.0131347 C187.502716,45.9467127 189.929256,41.0356858 191.312746,43.9258034 C192.696236,46.815921 197.896999,39.5797619 198.758964,37.0011107 C199.620929,34.4224594 196.426588,27.1863003 191.312746,28.6277374 C186.198904,30.0691745 188.661661,30.2864766 190.392834,32.4160369 C191.327233,33.5822247 190.841925,34.1544535 190.204505,34.4369462 Z" id="Path" fill="#EAEAEA"></path>
                        <path d="M206.828114,21.9638071 C206.73395,22.825772 206.205181,24.7742473 203.423715,26.2011976 C199.744066,28.0917256 198.353333,25.4189101 195.101045,20.899027 C191.848758,16.3791438 186.061279,23.3038366 180.578024,25.0350098 C175.094768,26.766183 178.46295,21.8623995 181.063331,20.9931912 C183.663713,20.1239829 182.120868,13.6194075 182.120868,13.6194075 C182.845208,13.5759471 183.533332,13.5542169 184.243185,13.5542169 C192.539623,13.5402993 200.561213,16.527171 206.828114,21.9638071 L206.828114,21.9638071 Z" id="Path" fill="#EAEAEA"></path>
                        <path d="M208.609991,72.5372432 C199.323942,81.7722245 185.617623,84.9688701 173.20424,80.794722 C173.678856,79.5675523 174.31723,78.4101949 175.102011,77.3541058 C176.874745,75.2344528 178.315673,72.8581428 179.375619,70.3062752 C179.375619,70.3062752 184.808171,68.0318468 184.496704,64.2797643 C184.185238,60.5276819 187.908347,56.0585025 189.009344,60.6580631 C190.110341,65.2576237 200.446676,74.8696188 203.430958,72.5227564 C206.41524,70.175894 208.609991,72.5372432 208.609991,72.5372432 Z" id="Path" fill="#EAEAEA"></path>
                        <path d="M208.762103,39.7753338 C209.146003,39.7753338 214.82483,42.8320496 212.999493,43.8895864 C211.174156,44.9471232 204.915856,44.7587947 207.41483,48.6050414 C209.913804,52.4512881 212.03612,54.3997634 205.299756,56.0077987 C198.563392,57.6158341 194.181133,54.3780332 192.261632,56.0077987 C190.34213,57.6375643 191.761837,51.2995871 195.028611,48.040056 C198.295386,44.7805249 208.762103,39.7753338 208.762103,39.7753338 Z" id="Path" fill="#EAEAEA"></path>
                        <path d="M91.7739093,248.160779 C91.7739093,248.160779 102.595553,242.163242 109.882415,247.023565 C117.169278,251.883888 110.135935,265.045151 88.9996861,281.654272 C67.8634377,298.263394 84.3059613,282.443803 82.661709,280.929932 C81.0174566,279.416061 62.3801821,298.85011 59.4176304,296.865418 C56.4550788,294.880725 100.241447,259.735737 101.117898,255.396938 C101.99435,251.05814 91.7739093,248.160779 91.7739093,248.160779 Z" id="Path" fill="#3066B3"></path>
                        <path d="M207.103363,24.3106695 C207.103363,24.3106695 213.919405,20.5296134 218.497235,23.5863293 C223.075066,26.6430451 218.65659,34.9439844 205.335973,45.4107009 C192.015356,55.8774175 202.380665,45.9032523 201.337615,44.9471232 C200.294565,43.990994 188.581983,56.246831 186.691455,54.986479 C184.800927,53.726127 212.420021,31.5830456 212.956033,28.8522829 C213.492044,26.1215201 207.103363,24.3106695 207.103363,24.3106695 Z" id="Path" fill="#FEBB46"></path>
                        <path d="M242.320786,99.1567472 L335.036338,129.651472 C340.147952,131.332931 343.213291,136.551453 342.192819,141.834875 L327.017891,220.143299 C326.368615,223.54855 324.108597,226.427627 320.954945,227.866994 C317.801294,229.30636 314.145515,229.127327 311.147596,227.386701 L224.473042,176.965377 C220.672799,174.755794 218.612369,170.445271 219.279523,166.100273 L228.420697,107.689475 C228.896002,104.583449 230.714487,101.844134 233.392372,100.200284 C236.070257,98.5564339 239.335996,98.1747403 242.320786,99.1567472 Z" id="Path" fill="#D9D8D6"></path>
                        <path d="M234.831108,88.5306758 L327.54666,119.0254 C332.637269,120.726905 335.675287,125.941134 334.645194,131.208803 L319.528213,209.517227 C318.878937,212.922478 316.618919,215.801556 313.465267,217.240922 C310.311616,218.680289 306.655837,218.501255 303.657918,216.76063 L216.983364,166.339305 C213.185903,164.127683 211.128553,159.817592 211.797088,155.474201 L220.923775,97.0344303 C221.406149,93.9319462 223.22878,91.1986917 225.907466,89.5607867 C228.586152,87.9228818 231.849699,87.5461505 234.831108,88.5306758 Z" id="Path" fill="#EAEAEA"></path>
                        <path d="M238.1341,105.342613 L278.30601,119.887365 C279.833751,120.442805 280.726429,122.031156 280.406596,123.624961 L279.421494,128.514257 C279.230156,129.461717 278.630809,130.276614 277.78337,130.741519 C276.935931,131.206424 275.926622,131.274034 275.024748,130.92631 L235.055653,115.548567 C233.576299,114.975337 232.717131,113.427615 233.013014,111.868919 L233.788058,107.812613 C233.967899,106.867312 234.553617,106.048597 235.390202,105.573138 C236.226787,105.097679 237.229911,105.013403 238.1341,105.342613 Z" id="Path" fill="#FFFFFF"></path>
                        <path d="M292.69865,124.595577 L318.774899,133.838158 C319.983433,134.269427 320.694816,135.519738 320.448125,136.77898 L307.540382,202.693942 C307.382943,203.504376 306.847994,204.190921 306.100633,204.541694 C305.353272,204.892467 304.483343,204.865299 303.759326,204.468576 L279.703986,191.285583 C278.730604,190.754629 278.205603,189.660879 278.400174,188.569307 L289.308738,126.580269 C289.44286,125.836996 289.895234,125.189511 290.54702,124.80791 C291.198805,124.426309 291.984847,124.348738 292.69865,124.595577 Z" id="Path" fill="#FFFFFF"></path>
                        <path d="M295.530821,129.665958 L313.784195,136.510974 C314.665976,136.842417 315.184367,137.757225 315.015573,138.683994 L312.502113,152.040829 C312.390903,152.607948 312.03456,153.096843 311.528709,153.376319 C311.022858,153.655795 310.4193,153.697231 309.880001,153.489509 L292.01777,146.630007 C291.155401,146.301374 290.643608,145.411035 290.793635,144.500447 L292.915952,131.150856 C293.020852,130.58028 293.372769,130.085329 293.877242,129.798856 C294.381716,129.512382 294.987071,129.46373 295.530821,129.665958 Z" id="Path" fill="#3066B3"></path>
                        <path d="M291.988797,152.627544 L308.648623,159.450829 C309.509487,159.800913 310.001479,160.71201 309.822054,161.62385 L309.822054,161.725258 C309.714176,162.305474 309.350061,162.805949 308.831213,163.087168 C308.312364,163.368387 307.694271,163.400273 307.149238,163.173938 L290.532873,156.249245 C289.6955,155.90108 289.209035,155.021239 289.359442,154.126929 L289.359442,154.126929 C289.454825,153.547331 289.806589,153.041693 290.316849,152.750718 C290.827109,152.459744 291.441405,152.414488 291.988797,152.627544 L291.988797,152.627544 Z" id="Path" fill="#EAEAEA"></path>
                        <path d="M287.831084,161.775962 L287.707946,162.579979 C287.570169,163.452761 288.036938,164.308998 288.84516,164.666079 L305.186276,171.909482 C305.735194,172.149548 306.363865,172.12477 306.892185,171.842246 C307.420506,171.559722 307.790182,171.050624 307.895309,170.460801 L308.04742,169.635053 C308.20018,168.746621 307.728181,167.868345 306.902963,167.505493 L290.54736,160.320038 C289.996638,160.077148 289.364749,160.101378 288.834245,160.385729 C288.30374,160.670079 287.933721,161.182871 287.831084,161.775962 Z" id="Path" fill="#EAEAEA"></path>
                        <path d="M288.52645,170.01171 L305.251467,177.798368 C306.058513,178.172992 306.510969,179.04516 306.352464,179.920685 L303.455103,195.85617 C303.340584,196.480822 302.930944,197.011477 302.355645,197.280429 C301.780346,197.549381 301.110478,197.523396 300.557742,197.210686 L283.992081,187.881184 C283.260239,187.472012 282.872219,186.64054 283.028708,185.816814 L285.766714,171.445904 C285.871293,170.844896 286.250329,170.327111 286.791635,170.045802 C287.332941,169.764494 287.97451,169.751886 288.52645,170.01171 Z" id="Path" fill="#EAEAEA"></path>
                        <path d="M236.13492,122.270445 L272.72859,137.48159 C274.604257,138.262066 275.710987,140.215996 275.415892,142.226018 L269.968853,179.022503 C269.753571,180.456481 268.851654,181.694997 267.552965,182.340012 C266.254275,182.985028 264.72245,182.955271 263.449791,182.260304 L227.623923,162.514789 C226.007137,161.622858 225.112555,159.822151 225.378468,157.994905 L230.057706,125.740034 C230.254466,124.387456 231.063201,123.200871 232.250189,122.523198 C233.437178,121.845525 234.870128,121.752293 236.13492,122.270445 Z" id="Path" fill="#CBCBCB"></path>
                        <path d="M250.187121,167.353381 C246.79187,167.311482 243.530591,166.022439 241.024217,163.73168 C234.53537,157.729086 232.929493,148.096801 237.120023,140.31376 C239.072785,136.664794 242.586606,134.108803 246.659584,133.37458 C254.627327,132.049038 262.31982,138.553613 263.869908,147.861385 C264.630437,152.094335 263.911766,156.460069 261.834512,160.225873 C259.884235,163.875682 256.36869,166.430257 252.294951,167.15781 C251.599307,167.283743 250.89406,167.349178 250.187121,167.353381 L250.187121,167.353381 Z M248.738441,139.966077 C248.40818,139.966569 248.078582,139.995651 247.753338,140.052998 C245.691637,140.469724 243.931985,141.802793 242.972692,143.674699 C240.385167,148.666078 241.403355,154.766349 245.471666,158.646812 C246.949528,160.168 249.079838,160.867036 251.171656,160.517195 C253.263474,160.167354 255.050401,158.81319 255.95287,156.893908 C257.257797,154.481667 257.695041,151.694556 257.191491,148.9986 L257.191491,148.9986 C256.33677,143.78335 252.664365,139.966077 248.752928,139.966077 L248.738441,139.966077 Z" id="Shape" fill="#FED58C"></path>
                        <path d="M243.653572,134.888452 C239.581456,135.624691 236.068427,138.180106 234.114011,141.827631 C229.939548,149.602413 231.541197,159.215285 238.010962,165.216578 C240.518826,167.509574 243.783219,168.798829 247.181109,168.838279 C247.889872,168.835251 248.59722,168.774691 249.296183,168.657194 L250.020523,168.512326 L248.615303,161.906343 C248.46978,161.943639 248.322261,161.972659 248.173455,161.993264 C246.08682,162.26766 243.988757,161.577192 242.472898,160.117222 C238.412531,156.235551 237.39509,150.1427 239.973924,145.152353 C240.934881,143.281845 242.693762,141.949359 244.754569,141.530652 C245.080487,141.479532 245.409776,141.452898 245.739672,141.450974 C247.804936,141.526268 249.747304,142.451579 251.107033,144.007895 C252.623945,145.670703 253.656095,147.717467 254.091315,149.925755 L260.661081,148.33945 C258.74158,139.58942 251.288118,133.613613 243.653572,134.888452 Z" id="Path" fill="#FF911D"></path>
                        <polygon id="Path" fill="#020089" points="300.898182 195.262211 284.96994 186.74397 288.135307 171.967429 288.874134 172.11954 285.824661 186.345583 301.253109 194.595818"></polygon>
                        <polygon id="Path" fill="#3066B3" points="296.762199 190.793032 298.051525 181.463529 293.372287 189.89485 295.270058 177.436198 288.924838 187.533501 288.924838 182.535553 284.064515 186.026873 283.622667 185.411184 289.670908 181.072386 289.670908 184.933119 296.559384 173.981095 294.74129 185.874762 299.348094 177.588309 297.957361 187.663882 299.333607 185.599512 303.042229 184.63614 303.230558 185.36048 299.797185 186.251418"></polygon>
                        <path d="M145.59239,187.649395 C143.274501,180.239394 132.322476,171.569042 122.565613,169.128015 C112.80875,166.686988 89.5212111,154.112442 94.9682498,161.616607 C100.415288,169.120772 98.2350243,189.431272 99.0969892,201.79576 C99.5098631,207.706377 106.738779,216.029046 106.738779,216.029046 C111.37938,220.328916 117.429048,222.788445 123.753531,222.946495 C132.206025,222.943308 140.055327,218.567631 144.50261,211.379701 C148.949893,204.191771 149.362153,195.214681 145.59239,187.649395 L145.59239,187.649395 Z" id="Path" fill="#FEBB46"></path>
                        <path d="M135.799309,212.747785 C135.799309,212.747785 121.225584,221.439868 112.895671,213.037521 C104.565758,204.635174 115.170099,182.61523 108.730714,175.451505 C102.29133,168.28778 127.483883,176.530772 133.532124,182.796316 C139.580366,189.061859 145.078108,199.470628 135.799309,212.747785 Z" id="Path" fill="#FF911D"></path>
                        <path d="M114.605114,176.139629 C114.605114,176.139629 124.492358,177.762151 129.497549,183.897313 C134.50274,190.032475 133.003356,196.660188 127.998165,194.661009 C122.992974,192.66183 123.369631,185.519835 118.864234,182.397928 C114.358838,179.276022 111.099307,175.263177 114.605114,176.139629 Z" id="Path" fill="#FFFFFF"></path>
                        <path d="M149.076466,205.699954 L142.274911,200.339836 C142.274911,200.339836 137.20453,198.166816 131.98928,203.019895 C126.77403,207.872975 122.435232,214.529662 126.194558,218.730835 C129.953884,222.932009 135.024265,227.857522 135.024265,227.857522 L150.517903,207.575995 L149.076466,205.699954 Z" id="Path" fill="#052F5F"></path>
                        <path d="M337.904725,372.015718 C336.290213,374.09173 333.683151,375.137875 331.08144,374.753724 L258.480817,364.468093 C253.228749,363.727396 248.358796,361.302586 244.602458,357.557887 C226.34184,339.376947 169.995413,282.75527 146.664413,253.977232 C142.115556,248.349108 134.249221,239.823623 132.590482,235.093681 C129.24403,225.568607 132.300746,218.093416 137.24799,212.530483 C144.940483,203.896347 157.181834,199.854528 157.181834,199.854528 L172.13946,204.780042 L311.821233,294.648936 C317.400245,298.240671 321.485162,303.736133 323.316513,310.113601 L339.215781,365.409735 C339.879817,367.693876 339.390719,370.158282 337.904725,372.015718 L337.904725,372.015718 Z" id="Path" fill="#EAEAEA"></path>
                        <path d="M337.904725,372.015718 C339.390719,370.158282 339.879817,367.693876 339.215781,365.409735 L323.316513,310.113601 C321.533097,303.888313 317.598173,298.498006 312.212377,294.902456 L311.719825,294.793804 C301.261479,288.922118 288.396589,289.39756 278.400174,296.025183 C258.002752,307.817442 249.940846,323.912282 246.768235,335.335128 C244.486563,343.570877 244.13888,352.255716 244.16061,357.145013 L244.566241,357.5434 C248.324429,361.285523 253.193473,363.70988 258.4446,364.453606 L331.045223,374.739238 C333.656207,375.140496 336.280092,374.0987 337.904725,372.015718 L337.904725,372.015718 Z" id="Path" fill="#FEBB46"></path>
                        <path d="M337.441147,372.015718 C332.980951,372.019909 328.635191,370.604302 325.033199,367.9739 L262.624043,322.492576 C257.510201,318.769467 252.587102,314.80974 247.854746,310.613395 L182.475795,252.666176 C184.40254,247.22638 187.625854,243.293213 188.205326,240.22201 C189.168699,235.086438 209.153246,235.796291 209.153246,235.796291 L210.218026,234.760485 L209.022865,234.543183 L210.218026,226.162566 L178.310839,226.162566 L173.638844,244.828814 L139.363063,214.406524 C138.796172,213.901427 138.042066,213.659712 137.287176,213.741135 C136.532285,213.822558 135.847068,214.21952 135.400922,214.833885 C131.605379,220.099838 129.685878,226.821716 132.590482,235.115412 C134.249221,239.845353 142.115556,248.370838 146.664413,253.998962 C169.966439,282.777 226.34184,339.398677 244.602458,357.579617 C248.358796,361.324317 253.228749,363.749126 258.480817,364.489823 L331.08144,374.775455 C333.683151,375.159606 336.290213,374.11346 337.904725,372.037448 L337.441147,372.015718 Z" id="Path" fill="#D9D8D6"></path>
                        <path d="M337.904725,372.015718 L337.441147,372.015718 C332.980951,372.019909 328.635191,370.604302 325.033199,367.9739 L262.624043,322.492576 C260.170944,320.70587 257.756477,318.858802 255.380641,316.951373 C251.530396,322.57122 248.632826,328.787289 246.804452,335.349615 C244.522781,343.585363 244.175097,352.270203 244.196827,357.1595 L244.602458,357.557887 C246.941375,359.887135 249.728281,361.717967 252.794746,362.939735 C253.171403,363.091846 253.562547,363.236714 253.946447,363.367096 C255.051988,363.745851 256.182194,364.048368 257.329116,364.272521 L257.684043,364.337712 C257.959292,364.381172 258.227298,364.431876 258.502547,364.468093 L331.10317,374.753724 C331.443641,374.80517 331.787401,374.831799 332.131733,374.833402 C332.757128,374.834469 333.380156,374.75659 333.986044,374.601613 L334.217833,374.536422 C335.079001,374.281121 335.886518,373.871227 336.600913,373.326774 L336.963083,373.029795 C337.309372,372.723377 337.624763,372.383725 337.904725,372.015718 Z" id="Path" fill="#FF911D"></path>
                        <path d="M329.075018,343.904073 C329.075018,343.904073 316.478741,300.943453 301.253109,290.766473 C286.027477,280.589492 228.413453,244.205882 228.413453,244.205882 C228.413453,244.205882 214.361253,241.236087 232.947823,253.977232 C251.534394,266.718377 277.132578,284.508173 289.236304,292.685974 C301.340029,300.863776 330.139798,364.88821 332.631528,364.533283 C335.123259,364.178357 329.075018,343.904073 329.075018,343.904073 Z" id="Path" fill="#FFFFFF"></path>
                        <polygon id="Rectangle" fill="#FEBB46" transform="translate(214.407395, 251.137835) rotate(-52.940000) translate(-214.407395, -251.137835) " points="214.219067 174.263605 214.595724 174.263605 214.595724 328.012066 214.219067 328.012066"></polygon>
                        <path d="M246.442282,335.248207 C249.636623,323.760171 257.74199,307.571166 278.240819,295.72096 C288.350351,289.029471 301.35403,288.556864 311.92264,294.496825 L311.719825,294.808291 C301.261479,288.936605 288.396589,289.412047 278.400174,296.03967 C258.002752,307.831929 249.940846,323.926769 246.768235,335.349615 C243.334862,347.72859 244.732839,357.434749 244.747326,357.528913 C244.761813,357.623077 242.987179,347.699616 246.442282,335.248207 Z" id="Path" fill="#FEBB46"></path>
                        <path d="M290.793635,281.386267 C290.704605,281.386224 290.622121,281.339483 290.576333,281.263129 C290.53848,281.204646 290.525602,281.133448 290.54057,281.065411 C290.555538,280.997374 290.597108,280.938155 290.656011,280.900959 L290.786392,280.821281 C290.865321,280.770819 290.965175,280.766297 291.048341,280.80942 C291.131507,280.852543 291.18535,280.936759 291.189587,281.030344 C291.193825,281.123929 291.147813,281.212666 291.068885,281.263129 L290.938504,281.350049 C290.893576,281.372926 290.844043,281.38531 290.793635,281.386267 Z M292.242316,280.422894 C292.15537,280.421801 292.074358,280.378595 292.025014,280.307 C291.943328,280.188917 291.97247,280.027016 292.090205,279.944829 C292.466861,279.684067 292.901466,279.387087 293.386774,279.039404 C293.441929,278.997473 293.511843,278.979943 293.580257,278.990889 C293.648671,279.001835 293.709625,279.040304 293.748944,279.097351 C293.832911,279.21585 293.807214,279.379668 293.690996,279.466765 L292.387184,280.379434 C292.346312,280.40658 292.298609,280.421644 292.249559,280.422894 L292.242316,280.422894 Z M294.80648,278.590313 C294.722101,278.585846 294.64338,278.546485 294.589178,278.481662 C294.509051,278.362288 294.534295,278.201355 294.647126,278.112249 C295.045513,277.815269 295.472873,277.503803 295.907478,277.163363 C296.02349,277.075354 296.188882,277.098054 296.276891,277.214067 C296.3649,277.330079 296.3422,277.495471 296.226187,277.58348 L294.958592,278.532366 C294.915921,278.568364 294.862287,278.588796 294.80648,278.590313 Z M297.319941,276.663568 C297.208938,276.664724 297.109371,276.595478 297.071828,276.491009 C297.034285,276.386541 297.066996,276.269757 297.153343,276.19999 L298.377478,275.207644 C298.449937,275.148124 298.548645,275.131782 298.63642,275.164773 C298.724195,275.197765 298.787702,275.275078 298.803018,275.367589 C298.818335,275.4601 298.783133,275.553755 298.710674,275.613275 C298.2978,275.953715 297.884926,276.286911 297.479296,276.605621 C297.441069,276.639589 297.392682,276.659963 297.341671,276.663568 L297.319941,276.663568 Z M299.760968,274.657146 C299.682188,274.660027 299.60679,274.625021 299.558152,274.562981 C299.509054,274.514053 299.481456,274.44759 299.481456,274.378275 C299.481456,274.308959 299.509054,274.242496 299.558152,274.193568 C299.949296,273.860371 300.347683,273.512688 300.74607,273.157761 C300.815942,273.095654 300.913639,273.07554 301.002361,273.104996 C301.091084,273.134452 301.157352,273.209004 301.176203,273.300568 C301.195054,273.392132 301.163625,273.486797 301.093754,273.548905 C300.692952,273.911075 300.294565,274.258758 299.898592,274.591955 C299.866449,274.62361 299.826442,274.646114 299.782698,274.657146 L299.760968,274.657146 Z M302.115074,272.556559 C302.006374,272.557129 301.908724,272.49021 301.870027,272.38863 C301.83133,272.287051 301.859705,272.172122 301.941232,272.100225 C302.317889,271.745298 302.701789,271.375884 303.078446,271.013714 C303.127374,270.964616 303.193837,270.937018 303.263153,270.937018 C303.332468,270.937018 303.398931,270.964616 303.44786,271.013714 C303.550958,271.118101 303.550958,271.285984 303.44786,271.390371 L302.296159,272.484125 C302.252049,272.524533 302.196251,272.549896 302.136804,272.556559 L302.115074,272.556559 Z M304.375015,270.340078 C304.307409,270.341046 304.242218,270.31497 304.19393,270.267644 C304.142966,270.21973 304.114064,270.152888 304.114064,270.082937 C304.114064,270.012986 304.142966,269.946144 304.19393,269.89823 C304.5561,269.521573 304.91827,269.17389 305.265954,268.746529 C305.370341,268.64343 305.538223,268.64343 305.642611,268.746529 C305.693575,268.794443 305.722477,268.861285 305.722477,268.931236 C305.722477,269.001187 305.693575,269.068029 305.642611,269.115943 C305.287684,269.507086 304.91827,269.89823 304.5561,270.274887 C304.511895,270.314033 304.455712,270.337016 304.396745,270.340078 L304.375015,270.340078 Z M306.497332,268.000459 C306.392965,268.003895 306.296612,267.944737 306.252453,267.85011 C306.208293,267.755483 306.224844,267.643637 306.294517,267.565855 C306.6422,267.167467 306.968153,266.761837 307.286863,266.348963 C307.378268,266.237475 307.541492,266.218272 307.656276,266.305503 C307.711548,266.348364 307.747283,266.411633 307.755456,266.481098 C307.763628,266.550562 307.743552,266.620397 307.699737,266.674916 C307.381027,267.08779 307.047831,267.500664 306.700147,267.906295 C306.655645,267.961668 306.589951,267.995828 306.519062,268.000459 L306.497332,268.000459 Z M308.438564,265.508728 C308.383535,265.509844 308.329806,265.491935 308.286452,265.458024 C308.168718,265.375838 308.139575,265.213937 308.221262,265.095854 C308.532728,264.654007 308.822464,264.212159 309.09047,263.792042 C309.139639,263.71182 309.22787,263.663922 309.321929,263.666392 C309.415988,263.668862 309.501584,263.721324 309.546475,263.804017 C309.591365,263.886709 309.58873,263.987069 309.539561,264.067291 C309.264312,264.501895 308.967332,264.950986 308.655866,265.400077 C308.609632,265.463074 308.538207,265.502754 308.460294,265.508728 L308.438564,265.508728 Z M310.104546,262.828669 C310.064027,262.837969 310.021928,262.837969 309.981409,262.828669 C309.858868,262.756251 309.811755,262.602348 309.872758,262.473743 C310.126277,261.995678 310.358066,261.524857 310.553637,261.068523 C310.615772,260.93881 310.769216,260.881268 310.901321,260.938141 C311.032865,260.994608 311.094293,261.146562 311.038945,261.278581 C310.83613,261.749402 310.597098,262.23471 310.314605,262.727262 C310.269219,262.78644 310.200666,262.823353 310.126277,262.828669 L310.104546,262.828669 Z M311.357655,259.931308 L311.270734,259.931308 C311.134472,259.883301 311.060784,259.735927 311.104136,259.598112 C311.259968,259.10832 311.388137,258.610153 311.488036,258.105971 C311.498462,258.036729 311.537061,257.974882 311.594683,257.935096 C311.652304,257.895309 311.723815,257.881127 311.792259,257.895912 C311.860541,257.908238 311.921095,257.947268 311.960519,258.004365 C311.999943,258.061462 312.014986,258.131916 312.002318,258.200135 C311.901046,258.726804 311.768007,259.246864 311.603931,259.757467 C311.572324,259.857502 311.483846,259.928855 311.379385,259.938552 L311.357655,259.931308 Z M311.92264,256.838376 L311.92264,256.838376 C311.853473,256.836481 311.787894,256.807174 311.740345,256.756907 C311.692795,256.70664 311.667173,256.639536 311.669121,256.57037 C311.669121,256.461719 311.669121,256.353068 311.669121,256.244417 C311.668262,255.842325 311.641648,255.440701 311.589444,255.042012 C311.579141,254.972743 311.597134,254.902242 311.63937,254.846381 C311.681606,254.790521 311.744535,254.753997 311.813989,254.745032 C311.957301,254.727683 312.088606,254.826962 312.110969,254.969578 C312.16948,255.391993 312.198524,255.817968 312.19789,256.244417 C312.19789,256.360311 312.19789,256.476205 312.19789,256.584856 C312.197944,256.72609 312.085549,256.841696 311.944371,256.845619 L311.92264,256.838376 Z M311.480793,253.730956 C311.367484,253.734273 311.265011,253.664006 311.227274,253.557114 C311.062848,253.074198 310.856846,252.606453 310.611585,252.159138 C310.566298,252.077621 310.567939,251.978137 310.615891,251.898159 C310.663843,251.818182 310.75082,251.769861 310.844058,251.7714 C310.937297,251.772938 311.022632,251.824102 311.067919,251.905618 C311.331899,252.379727 311.552512,252.876712 311.727069,253.390516 C311.77042,253.528331 311.696733,253.675705 311.56047,253.723712 L311.480793,253.730956 Z M310.017626,250.99295 C309.938346,250.990821 309.864081,250.953688 309.81481,250.891542 C309.491244,250.493257 309.145424,250.11358 308.779004,249.754328 C308.674993,249.654317 308.67175,249.488925 308.77176,249.384914 C308.871771,249.280903 309.037163,249.27766 309.141174,249.377671 C309.52812,249.75025 309.89102,250.14702 310.227684,250.565589 C310.314915,250.680373 310.295712,250.843597 310.184224,250.935003 C310.13775,250.974225 310.078408,250.994866 310.017626,250.99295 Z M273.49639,249.486322 C273.13422,249.486322 272.77205,249.486322 272.43161,249.450105 C272.362413,249.446368 272.297549,249.415241 272.251342,249.363597 C272.205134,249.311953 272.181384,249.244041 272.185335,249.174856 C272.196908,249.029627 272.322377,248.920245 272.467827,248.92858 C272.967622,248.92858 273.481904,248.964797 274.017915,248.92858 C274.159044,248.931857 274.274815,249.04137 274.285921,249.182099 C274.29006,249.327425 274.177577,249.449549 274.032402,249.457348 L273.49639,249.486322 Z M275.596977,249.377671 C275.467679,249.356196 275.372882,249.244356 275.372882,249.113287 C275.372882,248.982218 275.467679,248.870377 275.596977,248.848903 C276.089528,248.805442 276.611053,248.740252 277.154309,248.667818 C277.298324,248.647815 277.431286,248.748348 277.451288,248.892363 C277.47129,249.036378 277.370758,249.16934 277.226743,249.189343 C276.676244,249.261777 276.147476,249.326967 275.647681,249.377671 L275.596977,249.377671 Z M270.888765,249.254533 L270.838062,249.254533 C270.305269,249.150547 269.781967,249.002762 269.273487,248.812686 C269.159054,248.745882 269.110617,248.605482 269.159515,248.48233 C269.208414,248.359178 269.339969,248.290245 269.469059,248.320134 C269.938591,248.5027 270.423382,248.643289 270.917739,248.740252 C271.058049,248.772717 271.147616,248.910267 271.120554,249.051718 C271.095306,249.177335 270.9803,249.264367 270.852548,249.254533 L270.888765,249.254533 Z M278.726127,248.943067 C278.598568,248.941922 278.489493,248.851026 278.465364,248.725765 C278.452697,248.657546 278.46774,248.587091 278.507164,248.529994 C278.546588,248.472898 278.607141,248.433867 278.675423,248.421542 C279.189705,248.327378 279.703986,248.233213 280.225511,248.124562 C280.324336,248.091281 280.433492,248.118343 280.505325,248.193934 C280.577157,248.269525 280.598623,248.379918 280.560349,248.476918 C280.522076,248.573919 280.431014,248.639912 280.326919,248.646087 C279.798151,248.747495 279.283869,248.848903 278.769587,248.935823 L278.726127,248.943067 Z M307.764927,248.798199 C307.707521,248.800401 307.651151,248.782465 307.605573,248.747495 C307.194323,248.434679 306.766327,248.144513 306.32349,247.878287 C306.199477,247.804279 306.15894,247.643751 306.232948,247.519738 C306.306956,247.395725 306.467483,247.355188 306.591496,247.429196 C307.052263,247.703339 307.497229,248.003208 307.924282,248.327378 C308.038113,248.416651 308.060554,248.58015 307.974986,248.696791 C307.916688,248.771879 307.822977,248.810465 307.72871,248.798199 L307.764927,248.798199 Z M281.768356,248.327378 C281.624341,248.341379 281.496243,248.235982 281.482242,248.091967 C281.46824,247.947952 281.573637,247.819854 281.717652,247.805853 L283.253253,247.472656 C283.320614,247.455396 283.392107,247.466561 283.450996,247.503538 C283.509886,247.540515 283.551002,247.600058 283.56472,247.668228 C283.596652,247.809906 283.509925,247.95124 283.369148,247.986938 L281.826303,248.320134 L281.768356,248.327378 Z M267.926214,248.095589 C267.874278,248.098917 267.822873,248.083495 267.781346,248.052128 C267.327495,247.747741 266.909547,247.392972 266.535481,246.994592 C266.453343,246.884751 266.467388,246.730623 266.568027,246.637439 C266.668666,246.544255 266.823417,246.542089 266.926624,246.632421 C267.266449,247.006294 267.650798,247.337126 268.071082,247.617524 C268.128801,247.655875 268.16888,247.715623 268.182471,247.783575 C268.196061,247.851527 268.182044,247.922094 268.143516,247.979694 C268.098796,248.049026 268.023136,248.09226 267.940701,248.095589 L267.926214,248.095589 Z M284.854045,247.646498 C284.71003,247.662499 284.580311,247.558724 284.564309,247.414709 C284.548308,247.270694 284.652083,247.140975 284.796098,247.124973 L286.338943,246.784533 C286.430811,246.765124 286.526054,246.796201 286.588796,246.866056 C286.651538,246.935911 286.672247,247.033933 286.643122,247.123197 C286.613996,247.212461 286.539462,247.279406 286.447594,247.298814 L284.911993,247.639254 L284.854045,247.646498 Z M305.012435,247.190163 C304.976542,247.197015 304.939676,247.197015 304.903783,247.190163 C304.432962,246.980105 303.947654,246.79902 303.455103,246.632421 C303.388917,246.61255 303.333711,246.566522 303.302261,246.504989 C303.270811,246.443456 303.265842,246.371751 303.288505,246.306468 C303.333528,246.16731 303.481807,246.089948 303.621701,246.132627 C304.129172,246.298722 304.627281,246.492163 305.113842,246.712099 C305.178867,246.739163 305.230178,246.79138 305.2561,246.856868 C305.282023,246.922356 305.280352,246.995546 305.251467,247.059782 C305.204074,247.13902 305.119231,247.188283 305.026921,247.190163 L305.012435,247.190163 Z M287.932491,246.980105 C287.809868,246.976363 287.705441,246.889837 287.678972,246.770046 C287.651911,246.628595 287.741478,246.491046 287.881788,246.45858 L289.431876,246.147114 C289.501173,246.132274 289.573526,246.146279 289.632281,246.185904 C289.691037,246.22553 289.731133,246.287363 289.743342,246.357172 C289.758127,246.425616 289.743945,246.497127 289.704159,246.554749 C289.664373,246.61237 289.602526,246.65097 289.533283,246.661395 L287.990439,246.972861 L287.932491,246.980105 Z M291.039911,246.386146 C290.911291,246.387943 290.800575,246.295679 290.779149,246.168844 C290.766609,246.099555 290.782624,246.02814 290.823552,245.970841 C290.864479,245.913542 290.92684,245.875231 290.996451,245.864621 L292.561026,245.625589 C292.704338,245.60824 292.835642,245.707518 292.858005,245.850134 C292.868308,245.919403 292.850316,245.989904 292.80808,246.045764 C292.765844,246.101625 292.702914,246.138149 292.63346,246.147114 C292.119178,246.219548 291.597653,246.299225 291.083372,246.386146 L291.039911,246.386146 Z M302.013666,246.219548 L301.955719,246.219548 C301.463167,246.110896 300.948886,246.023976 300.427361,245.958785 C300.357906,245.949821 300.294977,245.913296 300.252741,245.857436 C300.210505,245.801575 300.192513,245.731074 300.202815,245.661806 C300.209963,245.592945 300.24496,245.530003 300.299681,245.487594 C300.354402,245.445186 300.424085,245.427 300.492551,245.43726 C301.028563,245.502451 301.564575,245.596615 302.071613,245.705266 C302.211923,245.737732 302.30149,245.875281 302.274428,246.016732 C302.248551,246.124165 302.159386,246.2047 302.049883,246.219548 L302.013666,246.219548 Z M294.161818,245.958785 C294.02719,245.955932 293.915583,245.853625 293.901055,245.719753 C293.892962,245.651287 293.913101,245.582477 293.956832,245.529179 C294.000564,245.475882 294.064116,245.442693 294.132844,245.43726 C294.668856,245.379313 295.197624,245.335852 295.719149,245.299635 C295.789541,245.295694 295.858529,245.320424 295.910386,245.368188 C295.962243,245.415951 295.99255,245.482677 295.994398,245.553155 C296.000414,245.622828 295.977383,245.691892 295.930752,245.744008 C295.884121,245.796125 295.818034,245.826665 295.748123,245.828404 C295.233841,245.828404 294.712316,245.900838 294.190791,245.958785 L294.161818,245.958785 Z M265.803897,245.813917 C265.709372,245.813141 265.621857,245.763914 265.572108,245.683536 C265.292422,245.220727 265.050203,244.736289 264.847768,244.234855 C264.798282,244.09892 264.865605,243.948245 264.999879,243.894415 C265.065137,243.868623 265.138036,243.87022 265.202102,243.898845 C265.266168,243.927471 265.315994,243.980708 265.340319,244.046527 C265.520543,244.525489 265.74105,244.98831 265.999469,245.430017 C266.070824,245.554116 266.028794,245.712537 265.905305,245.784943 C265.88297,245.798624 265.858479,245.808421 265.832871,245.813917 L265.803897,245.813917 Z M298.891759,245.813917 L298.891759,245.813917 C298.457155,245.813917 298.008064,245.7777 297.544487,245.7777 L297.327184,245.7777 C297.183169,245.7777 297.066422,245.660953 297.066422,245.516937 C297.064399,245.447178 297.091222,245.37967 297.140569,245.330322 C297.189917,245.280975 297.257425,245.254152 297.327184,245.256175 L297.544487,245.256175 C298.015308,245.256175 298.478885,245.256175 298.920733,245.292392 C299.064748,245.292392 299.181496,245.409139 299.181496,245.553155 C299.181496,245.69717 299.064748,245.813917 298.920733,245.813917 L298.891759,245.813917 Z M264.666683,242.916556 C264.545552,242.917788 264.438654,242.837615 264.40592,242.720984 C264.290026,242.228433 264.188618,241.699664 264.108941,241.149166 C264.086939,241.005151 264.185849,240.870567 264.329865,240.848565 C264.47388,240.826562 264.608463,240.925473 264.630466,241.069488 C264.700688,241.583586 264.797395,242.093717 264.920202,242.597846 C264.951792,242.737791 264.864402,242.876967 264.72463,242.909313 L264.666683,242.916556 Z M264.203105,239.801893 C264.065773,239.806039 263.950131,239.700035 263.942343,239.562861 C263.906126,239.048579 263.877152,238.512567 263.869908,237.969312 C263.869855,237.82408 263.985492,237.705231 264.130671,237.701306 C264.201659,237.697211 264.271103,237.723115 264.322066,237.772701 C264.37303,237.822287 264.400827,237.890996 264.398677,237.962069 C264.398677,238.49808 264.398677,239.026849 264.463867,239.526644 C264.467818,239.595829 264.444068,239.663741 264.39786,239.715385 C264.351653,239.767029 264.286789,239.798156 264.217592,239.801893 L264.203105,239.801893 Z M264.166888,236.651013 L264.166888,236.651013 C264.097691,236.647276 264.032827,236.616149 263.98662,236.564505 C263.940412,236.512861 263.916662,236.444949 263.920612,236.375764 C263.943516,235.84099 264.004027,235.308492 264.101697,234.782215 C264.144518,234.65682 264.272547,234.58154 264.402943,234.605083 C264.533339,234.628627 264.626957,234.743927 264.623222,234.876379 C264.529063,235.381257 264.468568,235.891835 264.442137,236.404737 C264.4384,236.473934 264.407273,236.538798 264.355629,236.585005 C264.303986,236.631213 264.236073,236.654964 264.166888,236.651013 Z M264.753604,233.57981 C264.72506,233.586867 264.695227,233.586867 264.666683,233.57981 C264.53042,233.531803 264.456733,233.384428 264.500085,233.246614 C264.679663,232.748769 264.895116,232.264605 265.144747,231.797933 C265.178318,231.737369 265.234598,231.692645 265.30118,231.673621 C265.367761,231.654598 265.439175,231.662839 265.499674,231.696526 C265.625217,231.76655 265.673155,231.92315 265.608325,232.051452 C265.370122,232.496228 265.166699,232.958773 264.999879,233.434942 C264.945381,233.515348 264.849731,233.557547 264.753604,233.543593 L264.753604,233.57981 Z M266.202284,230.841804 C266.147255,230.84292 266.093527,230.82501 266.050173,230.7911 C265.933955,230.704003 265.908258,230.540185 265.992225,230.421687 C266.311173,229.996657 266.657158,229.592605 267.028032,229.212039 C267.075946,229.161075 267.142788,229.132172 267.212739,229.132172 C267.282689,229.132172 267.349531,229.161075 267.397445,229.212039 C267.446544,229.260967 267.474141,229.32743 267.474141,229.396745 C267.474141,229.466061 267.446544,229.532524 267.397445,229.581452 C267.042967,229.947351 266.713836,230.336983 266.412343,230.74764 C266.352195,230.792874 266.277117,230.813585 266.202284,230.805587 L266.202284,230.841804 Z M268.375305,228.596349 C268.2649,228.59287 268.167939,228.52201 268.131092,228.417877 C268.094245,228.313745 268.125061,228.197672 268.208707,228.125528 C268.607094,227.799575 269.034454,227.480865 269.483545,227.176642 C269.60472,227.09811 269.765983,227.126568 269.852959,227.241833 C269.933915,227.364056 269.901643,227.528646 269.780525,227.611247 C269.345921,227.908226 268.925803,228.219692 268.541903,228.531159 C268.487794,228.564508 268.422631,228.574935 268.360818,228.560132 L268.375305,228.596349 Z M270.968443,226.828959 C270.873768,226.82861 270.787177,226.775538 270.743897,226.691334 C270.672542,226.567235 270.714572,226.408814 270.838062,226.336408 C271.287153,226.082889 271.757974,225.82937 272.250525,225.612068 C272.380539,225.550061 272.536202,225.605192 272.598208,225.735205 C272.660215,225.865219 272.605084,226.020882 272.475071,226.082889 C271.997006,226.314678 271.533428,226.560953 271.098824,226.807229 C271.050081,226.814495 271.000295,226.809516 270.953956,226.792742 L270.968443,226.828959 Z M273.800613,225.445469 C273.693594,225.447936 273.595939,225.384747 273.554338,225.286114 C273.525846,225.220958 273.525202,225.146992 273.552553,225.081348 C273.579905,225.015705 273.632879,224.96408 273.699206,224.938431 C274.170027,224.742859 274.662578,224.547287 275.147886,224.358959 C275.2839,224.306953 275.436321,224.375056 275.488326,224.51107 C275.540331,224.647085 275.472229,224.799505 275.336215,224.85151 C274.83642,225.032595 274.343868,225.228167 273.887534,225.423739 L273.800613,225.445469 Z M276.755921,224.351715 C276.641406,224.351715 276.539543,224.278956 276.502402,224.17063 C276.479562,224.104374 276.484352,224.031713 276.515694,223.969029 C276.547036,223.906345 276.602291,223.858915 276.669001,223.837434 C277.168795,223.670836 277.66859,223.518724 278.190115,223.366613 C278.257366,223.346582 278.329851,223.3545 278.391191,223.388577 C278.45253,223.422655 278.497547,223.480016 278.516068,223.547698 C278.553569,223.687415 278.473423,223.831679 278.334983,223.873651 C277.827945,224.018519 277.32815,224.177874 276.835599,224.337229 L276.755921,224.351715 Z M279.783664,223.460777 C279.656271,223.451432 279.553178,223.35348 279.537334,223.226731 C279.521491,223.099983 279.5973,222.979667 279.718473,222.939252 L281.254074,222.555352 C281.322333,222.537988 281.394712,222.548975 281.454743,222.585812 C281.514773,222.622649 281.55735,222.682203 281.572784,222.750924 C281.600835,222.891933 281.515635,223.030778 281.377212,223.069633 C280.855687,223.192771 280.348649,223.315909 279.848854,223.453534 L279.783664,223.460777 Z M282.854866,222.736437 C282.730746,222.739532 282.621656,222.654685 282.594104,222.533621 C282.562617,222.389698 282.653205,222.247344 282.796919,222.214912 L284.347007,221.896202 C284.438875,221.878087 284.533428,221.910359 284.59505,221.980862 C284.656671,222.051364 284.675999,222.149385 284.645754,222.238002 C284.615508,222.326619 284.540282,222.392369 284.448415,222.410484 L282.912814,222.729193 L282.854866,222.736437 Z M285.947799,222.120748 C285.821917,222.119009 285.715251,222.027581 285.69428,221.903445 C285.679495,221.835001 285.693677,221.76349 285.733463,221.705869 C285.77325,221.648247 285.835097,221.609648 285.904339,221.599223 C286.41862,221.497815 286.932902,221.410894 287.46167,221.31673 C287.604261,221.29862 287.736778,221.393276 287.765893,221.534032 C287.787825,221.67756 287.691474,221.812452 287.548591,221.838255 L285.998503,222.113504 L285.947799,222.120748 Z M289.062462,221.584736 C288.918447,221.596737 288.791971,221.489719 288.77997,221.345703 C288.767968,221.201688 288.874987,221.075212 289.019002,221.063211 L290.583577,220.816935 C290.726889,220.799586 290.858193,220.898865 290.880556,221.041481 C290.893046,221.109941 290.876845,221.180525 290.835751,221.236687 C290.794658,221.292849 290.732284,221.329649 290.663254,221.33846 L289.105923,221.577492 L289.062462,221.584736 Z M292.184369,221.113915 C292.040354,221.123916 291.915499,221.015276 291.905498,220.871261 C291.895497,220.727245 292.004137,220.602391 292.148152,220.59239 L293.712727,220.375088 C293.856742,220.355085 293.989704,220.455618 294.009706,220.599633 C294.029708,220.743648 293.929176,220.87661 293.785161,220.896613 L292.220586,221.113915 L292.184369,221.113915 Z M295.313519,220.693797 C295.184221,220.672323 295.089424,220.560482 295.089424,220.429413 C295.089424,220.298344 295.184221,220.186504 295.313519,220.165029 L296.878094,219.969457 C297.022737,219.956263 297.15274,220.057729 297.175073,220.201246 C297.1832,220.270487 297.163261,220.340099 297.119709,220.394539 C297.076158,220.448978 297.01262,220.483711 296.943284,220.490982 L295.378709,220.693797 L295.313519,220.693797 Z M298.449912,220.302653 C298.305897,220.302653 298.189149,220.185906 298.189149,220.041891 C298.189149,219.897876 298.305897,219.781129 298.449912,219.781129 L300.02173,219.600043 C300.1635,219.582933 300.292662,219.683034 300.311466,219.824589 C300.32466,219.969232 300.223194,220.099236 300.079677,220.121568 L298.515102,220.302653 L298.449912,220.302653 Z M301.586305,219.940483 C301.454109,219.93812 301.343389,219.839702 301.325543,219.708694 C301.317416,219.639453 301.337355,219.569841 301.380906,219.515402 C301.424458,219.460962 301.487995,219.426229 301.557332,219.418958 L303.12915,219.237873 C303.272246,219.224984 303.40005,219.327227 303.418886,219.469662 C303.427012,219.538903 303.407074,219.608516 303.363522,219.662955 C303.319971,219.717394 303.256433,219.752127 303.187097,219.759398 L301.615279,219.940483 L301.586305,219.940483 Z M304.722698,219.585557 C304.590502,219.583193 304.479782,219.484775 304.461936,219.353768 C304.449046,219.210672 304.55129,219.082868 304.693725,219.064032 L306.265543,218.882947 C306.408639,218.870057 306.536443,218.9723 306.555279,219.114735 C306.568473,219.259379 306.467007,219.389382 306.32349,219.411715 L304.758915,219.585557 L304.722698,219.585557 Z M307.866335,219.23063 C307.72232,219.23063 307.605573,219.113883 307.605573,218.969867 C307.605573,218.825852 307.72232,218.709105 307.866335,218.709105 L309.43091,218.535263 C309.500179,218.524961 309.57068,218.542953 309.62654,218.585189 C309.682401,218.627425 309.718925,218.690354 309.72789,218.759809 C309.741083,218.904452 309.639617,219.034456 309.496101,219.056788 L307.924282,219.23063 L307.866335,219.23063 Z M311.002728,218.875703 C310.870532,218.87334 310.759812,218.774922 310.741966,218.643914 C310.733839,218.574673 310.753778,218.505061 310.797329,218.450622 C310.840881,218.396182 310.904418,218.361449 310.973755,218.354178 L312.545573,218.16585 C312.615188,218.155599 312.685931,218.174742 312.740877,218.218699 C312.795823,218.262656 312.830029,218.327472 312.835309,218.397639 C312.845569,218.466105 312.827384,218.535788 312.784975,218.590509 C312.742566,218.64523 312.679624,218.680227 312.610764,218.687375 L311.031702,218.875703 L311.002728,218.875703 Z M314.146365,218.499046 C314.014169,218.496683 313.903449,218.398265 313.885603,218.267257 C313.877476,218.198016 313.897415,218.128404 313.940966,218.073965 C313.984518,218.019525 314.048055,217.984792 314.117391,217.977521 L315.681966,217.774706 C315.825062,217.761817 315.952866,217.86406 315.971702,218.006495 C315.982005,218.075763 315.964013,218.146265 315.921777,218.202125 C315.879541,218.257986 315.816611,218.29451 315.747157,218.303474 L314.182582,218.499046 L314.146365,218.499046 Z M317.275515,218.100659 C317.143387,218.089875 317.038995,217.984113 317.029936,217.851855 C317.020878,217.719598 317.109874,217.600589 317.239298,217.571891 L318.803873,217.361832 C318.947888,217.34183 319.08085,217.442362 319.100852,217.586378 C319.120854,217.730393 319.020322,217.863355 318.876307,217.883357 L317.311732,218.093416 L317.275515,218.100659 Z M320.404665,217.666055 C320.274824,217.664262 320.164947,217.569646 320.143902,217.44151 C320.122268,217.295586 320.222628,217.159614 320.368448,217.137287 L321.925779,216.905498 C322.069794,216.883495 322.204378,216.982406 322.22638,217.126422 C322.248383,217.270437 322.149472,217.40502 322.005457,217.427023 L320.440882,217.658812 L320.404665,217.666055 Z M323.526571,217.180747 C323.399012,217.179602 323.289937,217.088707 323.265809,216.963445 C323.253269,216.894156 323.269284,216.822741 323.310212,216.765442 C323.351139,216.708143 323.4135,216.669832 323.483111,216.659222 L325.040442,216.39846 C325.183033,216.38035 325.31555,216.475005 325.344665,216.615762 C325.366347,216.757698 325.269207,216.890457 325.127363,216.912741 L323.570032,217.180747 L323.526571,217.180747 Z M326.641234,216.644735 C326.513675,216.64359 326.4046,216.552695 326.380472,216.427433 C326.365687,216.358989 326.379869,216.287478 326.419655,216.229857 C326.459441,216.172235 326.521288,216.133635 326.59053,216.12321 L328.140619,215.826231 C328.208838,215.813563 328.279292,215.828606 328.336389,215.86803 C328.393486,215.907454 328.432516,215.968008 328.444841,216.036289 C328.471561,216.176048 328.381311,216.311424 328.242026,216.340512 L326.684695,216.637492 L326.641234,216.644735 Z M329.734167,216.036289 C329.610553,216.035214 329.50468,215.947491 329.480648,215.826231 C329.465665,215.757983 329.478698,215.686576 329.516826,215.628023 C329.554954,215.569469 329.614987,215.528667 329.683463,215.514764 L331.219065,215.174325 C331.362989,215.142838 331.505342,215.233426 331.537774,215.37714 C331.552758,215.445388 331.539724,215.516794 331.501596,215.575348 C331.463468,215.633902 331.403436,215.674704 331.334959,215.688606 L329.792114,216.029046 L329.734167,216.036289 Z M332.819857,215.311949 C332.686896,215.314144 332.573582,215.215937 332.55686,215.084014 C332.540137,214.952091 332.625363,214.828717 332.754666,214.797668 C333.268948,214.667286 333.775986,214.544149 334.283024,214.406524 C334.415559,214.392499 334.538263,214.477992 334.571015,214.60718 C334.603767,214.736368 334.536614,214.869994 334.413405,214.920805 L332.877804,215.304706 L332.819857,215.311949 Z M335.869329,214.507932 C335.752094,214.509287 335.648369,214.432234 335.61581,214.319603 C335.578309,214.179886 335.658456,214.035622 335.796895,213.99365 C336.303933,213.848782 336.810971,213.703914 337.303523,213.544559 C337.443022,213.505869 337.588651,213.581849 337.636719,213.718401 C337.679398,213.858295 337.602035,214.006574 337.462878,214.051597 L335.941763,214.500688 L335.869329,214.507932 Z M338.889828,213.580776 C338.79796,213.596303 338.704788,213.56164 338.645407,213.489843 C338.586027,213.418047 338.56946,213.320026 338.601947,213.232703 C338.634434,213.14538 338.711039,213.082021 338.802907,213.066494 C339.302702,212.899896 339.795253,212.726055 340.251588,212.544969 C340.385563,212.496007 340.534017,212.563779 340.584784,212.697081 C340.63427,212.833016 340.566947,212.983692 340.432673,213.037521 C339.940121,213.218606 339.440326,213.392448 338.933288,213.566289 L338.889828,213.580776 Z M341.845136,212.487022 C341.716195,212.491424 341.603418,212.400872 341.579861,212.274025 C341.556303,212.147177 341.629048,212.022172 341.750972,211.979984 C342.23628,211.784412 342.721588,211.574354 343.199652,211.364295 C343.263889,211.33541 343.337078,211.333739 343.402566,211.359661 C343.468054,211.385584 343.520271,211.436895 343.547336,211.50192 C343.604209,211.634024 343.546667,211.787468 343.416954,211.849603 C342.93889,212.059661 342.446338,212.26972 341.968274,212.465292 C341.922726,212.476887 341.874729,212.474361 341.830649,212.458049 L341.845136,212.487022 Z M344.742497,211.20494 C344.642447,211.202912 344.552384,211.143808 344.510708,211.052829 C344.478373,210.991634 344.472463,210.919879 344.49435,210.854218 C344.516237,210.788558 344.564018,210.7347 344.626603,210.705145 C345.104667,210.473356 345.561002,210.227081 346.017336,209.980805 C346.145349,209.910798 346.305877,209.957821 346.375884,210.085834 C346.445892,210.213848 346.398868,210.374375 346.270855,210.444383 C345.814521,210.697902 345.343699,210.936934 344.858391,211.168723 C344.811392,211.182782 344.76169,211.185267 344.713523,211.175966 L344.742497,211.20494 Z M347.509477,209.683825 C347.418591,209.683509 347.334059,209.637152 347.284931,209.560688 C347.24772,209.50132 347.235966,209.429475 347.252317,209.361345 C347.268669,209.293214 347.31175,209.23453 347.371852,209.198518 C347.820943,208.923268 348.255547,208.633532 348.675665,208.343796 C348.794597,208.283798 348.939544,208.320257 349.015935,208.429387 C349.092326,208.538516 349.07697,208.687188 348.979887,208.7784 C348.552527,209.07538 348.103436,209.365116 347.647101,209.647608 C347.593136,209.664428 347.535725,209.666924 347.480503,209.654852 L347.509477,209.683825 Z M350.095371,207.887462 C350.013036,207.88979 349.934701,207.851974 349.885313,207.786054 C349.799745,207.669413 349.822186,207.505913 349.936017,207.416641 C350.348891,207.090687 350.747278,206.757491 351.123935,206.417051 C351.172863,206.367953 351.239326,206.340355 351.308641,206.340355 C351.377957,206.340355 351.44442,206.367953 351.493348,206.417051 C351.544312,206.464965 351.573214,206.531807 351.573214,206.601758 C351.573214,206.671708 351.544312,206.73855 351.493348,206.786464 C351.109448,207.134148 350.703817,207.510805 350.276457,207.815028 C350.216755,207.860849 350.13938,207.876858 350.066398,207.858488 L350.095371,207.887462 Z M352.427747,205.779632 C352.360141,205.7806 352.29495,205.754524 352.246662,205.707198 C352.197564,205.658269 352.169966,205.591806 352.169966,205.522491 C352.169966,205.453175 352.197564,205.386712 352.246662,205.337784 C352.608832,204.961127 352.971002,204.569983 353.275225,204.171596 C353.334745,204.099137 353.4284,204.063936 353.520911,204.079252 C353.613422,204.094568 353.690735,204.158075 353.723726,204.24585 C353.756718,204.333626 353.740376,204.432334 353.680856,204.504793 C353.354903,204.910423 352.999976,205.316054 352.630562,205.699954 C352.564924,205.750998 352.479729,205.769635 352.398773,205.750658 L352.427747,205.779632 Z M354.397953,203.338605 C354.34643,203.338748 354.29602,203.323625 354.253084,203.295145 C354.131966,203.212544 354.099694,203.047954 354.18065,202.925731 C354.470387,202.49837 354.745636,202.056523 354.991912,201.614675 C355.023999,201.552599 355.080286,201.50652 355.147475,201.487323 C355.214665,201.468126 355.286799,201.477513 355.346838,201.513267 C355.40865,201.545587 355.454937,201.601323 355.475354,201.668019 C355.495771,201.734716 355.488617,201.806812 355.455489,201.868194 C355.194727,202.324529 354.919478,202.780863 354.615255,203.22271 C354.561968,203.304555 354.465352,203.34718 354.368979,203.331362 L354.397953,203.338605 Z M355.919067,200.593355 C355.885679,200.60084 355.851048,200.60084 355.817659,200.593355 C355.752635,200.566291 355.701323,200.514074 355.675401,200.448586 C355.649479,200.383098 355.65115,200.309909 355.680035,200.245672 C355.890093,199.782094 356.078422,199.296786 356.24502,198.796992 C356.293028,198.660729 356.440402,198.587042 356.578217,198.630393 C356.644844,198.651638 356.699737,198.699461 356.72991,198.762549 C356.760083,198.825638 356.762855,198.898388 356.737572,198.96359 C356.570226,199.468245 356.376809,199.963877 356.158099,200.448487 C356.102213,200.539851 355.994941,200.586239 355.890093,200.564382 L355.919067,200.593355 Z M356.933143,197.630804 L356.867953,197.630804 C356.799233,197.61537 356.739678,197.572793 356.702841,197.512762 C356.666004,197.452731 356.655017,197.380352 356.672381,197.312094 C356.795519,196.812299 356.911413,196.298018 357.020064,195.783736 C357.032239,195.715822 357.071569,195.655804 357.128978,195.617532 C357.186387,195.579259 357.256915,195.566039 357.324287,195.580921 C357.392569,195.593246 357.453123,195.632277 357.492547,195.689373 C357.531971,195.74647 357.547013,195.816925 357.534346,195.885144 C357.425695,196.406669 357.3098,196.928194 357.186662,197.435232 C357.143576,197.55044 357.025841,197.619874 356.90417,197.60183 L356.933143,197.630804 Z M357.548833,194.537871 L357.512616,194.537871 C357.366796,194.515544 357.266436,194.379572 357.28807,194.233648 C357.367748,193.719366 357.440182,193.197841 357.498129,192.68356 C357.503409,192.613393 357.537615,192.548577 357.592561,192.50462 C357.647507,192.460664 357.71825,192.44152 357.787865,192.451771 C357.857201,192.459042 357.920739,192.493775 357.96429,192.548214 C358.007842,192.602654 358.02778,192.672266 358.019654,192.741507 C357.961707,193.263032 357.889273,193.7918 357.809595,194.313325 C357.774671,194.441197 357.651513,194.524329 357.519859,194.508897 L357.548833,194.537871 Z M357.896516,191.401478 L357.896516,191.401478 C357.827319,191.39774 357.762455,191.366613 357.716248,191.31497 C357.67004,191.263326 357.64629,191.195414 357.65024,191.126228 C357.686457,190.611947 357.708187,190.083178 357.722674,189.561653 C357.726599,189.416474 357.845448,189.300838 357.99068,189.300891 C358.059848,189.302786 358.125426,189.332093 358.172976,189.38236 C358.220525,189.432627 358.246147,189.499731 358.244199,189.568897 C358.244199,190.104909 358.244199,190.64092 358.171765,191.162445 C358.16134,191.231688 358.12274,191.293534 358.065119,191.333321 C358.007497,191.373107 357.935986,191.387289 357.867542,191.372504 L357.896516,191.401478 Z M357.96895,188.250598 C357.827717,188.250652 357.712111,188.138257 357.708187,187.997078 C357.708187,187.470725 357.686457,186.9492 357.642997,186.432504 C357.634661,186.287053 357.744044,186.161585 357.889273,186.150011 C357.958946,186.143995 358.02801,186.167027 358.080126,186.213657 C358.132243,186.260288 358.162783,186.326376 358.164522,186.396287 C358.198324,186.92264 358.220055,187.451409 358.229712,187.982592 C358.233703,188.052302 358.208765,188.120572 358.160781,188.171297 C358.112798,188.222022 358.046018,188.250712 357.976193,188.250598 L357.96895,188.250598 Z M357.773378,185.106961 C357.63875,185.104107 357.527143,185.001801 357.512616,184.867929 C357.454668,184.353647 357.396721,183.832122 357.317044,183.317841 C357.304105,183.224679 357.341849,183.131691 357.41606,183.073905 C357.490271,183.016119 357.589673,183.002313 357.676823,183.037688 C357.763972,183.073063 357.82563,183.152245 357.838569,183.245406 C357.918246,183.766931 357.983437,184.288456 358.034141,184.817225 C358.042267,184.886466 358.022329,184.956078 357.978777,185.010518 C357.935225,185.064957 357.871688,185.09969 357.802352,185.106961 L357.773378,185.106961 Z M357.324287,181.985054 C357.197953,181.987462 357.088071,181.898946 357.063525,181.774996 C356.96936,181.260714 356.867953,180.746433 356.752058,180.239394 C356.722055,180.09738 356.812859,179.957931 356.954874,179.927928 C357.096889,179.897925 357.236337,179.988728 357.26634,180.130743 C357.382234,180.637782 357.483642,181.159307 357.577806,181.673588 C357.592646,181.742886 357.578641,181.815239 357.539015,181.873994 C357.49939,181.932749 357.437557,181.972846 357.367748,181.985054 L357.324287,181.985054 Z M356.636164,178.921095 C356.507544,178.922892 356.396828,178.830629 356.375401,178.703793 C356.24502,178.196755 356.100152,177.69696 355.955284,177.197165 C355.91328,177.059151 355.991111,176.913217 356.129126,176.871212 C356.26714,176.829208 356.413074,176.907039 356.455079,177.045054 C356.60719,177.552092 356.752058,178.05913 356.88244,178.566168 C356.91938,178.708041 356.835472,178.853267 356.694111,178.892122 L356.636164,178.921095 Z M355.737982,175.900596 C355.625339,175.901687 355.524037,175.832223 355.484463,175.726755 C355.31545,175.243861 355.141609,174.760968 354.962938,174.278074 C354.914234,174.140121 354.985159,173.988599 355.122293,173.937634 C355.256268,173.888671 355.404722,173.956444 355.455489,174.089746 C355.643818,174.589541 355.817659,175.082092 355.984258,175.581887 C356.007098,175.648143 356.002308,175.720804 355.970966,175.783489 C355.939624,175.846173 355.884369,175.893602 355.817659,175.915083 C355.777241,175.9149 355.738403,175.899364 355.709008,175.871623 L355.737982,175.900596 Z M354.608011,172.909071 C354.501847,172.907382 354.407308,172.841492 354.368979,172.742473 C354.166164,172.257165 353.963348,171.7791 353.75329,171.293792 C353.724405,171.229556 353.722734,171.156367 353.748656,171.090878 C353.774578,171.02539 353.82589,170.973173 353.890914,170.946109 C354.02097,170.88985 354.17215,170.947749 354.231354,171.07649 C354.448656,171.561798 354.651472,172.047106 354.854287,172.525171 C354.904634,172.659128 354.840855,172.809008 354.709419,172.865611 C354.679217,172.887366 354.644594,172.902204 354.608011,172.909071 L354.608011,172.909071 Z M353.340416,170.01171 C353.237739,170.01249 353.144164,169.952942 353.101383,169.859599 C352.876838,169.388778 352.645049,168.917956 352.377043,168.454379 C352.334344,168.370275 352.339758,168.269779 352.391245,168.190749 C352.442731,168.111719 352.532469,168.066159 352.626655,168.071233 C352.720841,168.076307 352.805165,168.131242 352.847864,168.215346 C353.086897,168.686168 353.318686,169.156989 353.572205,169.664027 C353.604081,169.72613 353.60894,169.798629 353.585635,169.864431 C353.562331,169.930232 353.512925,169.983513 353.449067,170.01171 C353.413524,170.021592 353.375959,170.021592 353.340416,170.01171 L353.340416,170.01171 Z M351.891735,167.20127 C351.795758,167.198957 351.707921,167.146804 351.659946,167.063645 C351.413671,166.609725 351.160152,166.153391 350.899389,165.694642 C350.863635,165.634604 350.854248,165.562469 350.873445,165.495279 C350.892642,165.42809 350.938721,165.371803 351.000797,165.339716 C351.124897,165.26836 351.283317,165.31039 351.355723,165.43388 C351.616486,165.890214 351.877248,166.346549 352.123524,166.81737 C352.157211,166.877869 352.165452,166.949283 352.146428,167.015864 C352.127405,167.082445 352.082681,167.138726 352.022117,167.172296 C351.988497,167.200331 351.948821,167.220168 351.906222,167.230244 L351.891735,167.20127 Z M350.32716,164.470507 C350.235227,164.467299 350.150974,164.418378 350.102615,164.340126 C349.827366,163.891035 349.552116,163.449188 349.269624,163.00734 C349.196273,162.882918 349.234714,162.722749 349.356544,162.64517 C349.415027,162.607317 349.486225,162.594438 349.554262,162.609407 C349.622299,162.624375 349.681518,162.665945 349.718715,162.724847 C350.001207,163.166695 350.276457,163.615786 350.551706,164.07212 C350.597175,164.153641 350.596954,164.252948 350.55112,164.334265 C350.505287,164.415582 350.420446,164.467194 350.32716,164.470507 L350.32716,164.470507 Z M348.632204,161.804935 C348.545258,161.803842 348.464247,161.760636 348.414902,161.689041 C348.125166,161.247193 347.828186,160.819832 347.531207,160.385228 C347.489981,160.329164 347.473613,160.258618 347.485941,160.190128 C347.498269,160.121639 347.538209,160.061228 347.596398,160.023058 C347.71448,159.941372 347.876381,159.970514 347.958568,160.088249 C348.262791,160.51561 348.55977,160.957457 348.849506,161.399305 C348.903008,161.479378 348.908021,161.582422 348.862545,161.667311 C348.817068,161.7522 348.728507,161.805114 348.632204,161.804935 L348.632204,161.804935 Z M346.828597,159.211797 C346.744939,159.212458 346.666342,159.171804 346.618538,159.103146 C346.307072,158.683029 345.995606,158.255668 345.676896,157.842794 C345.619964,157.767747 345.607394,157.668028 345.64392,157.5812 C345.680446,157.494373 345.76052,157.433627 345.853979,157.421846 C345.947437,157.410064 346.040081,157.449038 346.097013,157.524084 C346.415723,157.944202 346.727189,158.364319 347.038656,158.798923 C347.080587,158.854079 347.098117,158.923992 347.087171,158.992406 C347.076225,159.060821 347.037755,159.121774 346.980708,159.161093 C346.945272,159.202581 346.896708,159.230697 346.843084,159.240771 L346.828597,159.211797 Z M344.923582,156.698336 C344.841993,156.69734 344.765051,156.660195 344.713523,156.596929 C344.38757,156.176811 344.061617,155.771181 343.735664,155.36555 C343.691038,155.311943 343.669748,155.242692 343.676554,155.173273 C343.68336,155.103855 343.717693,155.040056 343.771881,154.996137 C343.825488,154.95151 343.89474,154.930221 343.964158,154.937027 C344.033577,154.943832 344.097375,154.978166 344.141295,155.032354 C344.474491,155.437984 344.800444,155.850858 345.133641,156.270976 C345.219209,156.387617 345.196768,156.551116 345.082937,156.640389 C345.046006,156.685074 344.994876,156.715752 344.938069,156.72731 L344.923582,156.698336 Z M342.931646,154.250066 C342.853551,154.249728 342.779488,154.215341 342.728831,154.155902 C342.388391,153.750272 342.047951,153.351884 341.700268,152.960741 C341.65117,152.911813 341.623572,152.845349 341.623572,152.776034 C341.623572,152.706719 341.65117,152.640255 341.700268,152.591327 C341.748182,152.540363 341.815024,152.511461 341.884975,152.511461 C341.954925,152.511461 342.021767,152.540363 342.069682,152.591327 C342.417365,152.989714 342.757805,153.388102 343.098245,153.793732 C343.147343,153.84266 343.174941,153.909123 343.174941,153.978439 C343.174941,154.047754 343.147343,154.114217 343.098245,154.163146 C343.064613,154.220152 343.010022,154.261746 342.946133,154.27904 L342.931646,154.250066 Z M340.867277,151.903204 C340.792844,151.902646 340.721996,151.871158 340.671705,151.816283 C340.316778,151.425139 339.947365,151.033996 339.606925,150.657339 C339.507572,150.551441 339.507572,150.386579 339.606925,150.280682 C339.711312,150.177583 339.879195,150.177583 339.983582,150.280682 L341.048362,151.44687 C341.151461,151.551257 341.151461,151.719139 341.048362,151.823527 C340.999961,151.87161 340.935427,151.900005 340.867277,151.903204 L340.867277,151.903204 Z M338.694256,149.592559 C338.621957,149.591766 338.553437,149.560141 338.505928,149.505638 L337.412174,148.375667 C337.310163,148.273656 337.310163,148.108264 337.412174,148.006253 C337.514184,147.904243 337.679577,147.904243 337.781587,148.006253 L338.889828,149.143468 C338.988246,149.24694 338.988246,149.409409 338.889828,149.512881 C338.8422,149.556716 338.780648,149.582362 338.715986,149.585315 L338.694256,149.592559 Z M336.477775,147.33986 C336.410169,147.340829 336.344978,147.314752 336.29669,147.267426 C335.912789,146.890769 335.536133,146.543086 335.159476,146.166429 C335.055465,146.064419 335.053843,145.897405 335.155854,145.793394 C335.257865,145.689383 335.424878,145.687762 335.528889,145.789772 L336.666103,146.890769 C336.715202,146.939698 336.742799,147.006161 336.742799,147.075476 C336.742799,147.144792 336.715202,147.211255 336.666103,147.260183 C336.62183,147.304676 336.562239,147.330585 336.499505,147.332617 L336.477775,147.33986 Z M334.196103,145.16684 C334.129056,145.164958 334.064866,145.139282 334.015018,145.094406 L332.856074,144.029626 C332.748062,143.933615 332.738333,143.768223 332.834343,143.660212 C332.930353,143.552201 333.095746,143.542472 333.203757,143.638482 C333.587657,143.978922 333.978801,144.362822 334.369945,144.710505 C334.451472,144.782403 334.479847,144.897331 334.44115,144.998911 C334.402453,145.100491 334.304802,145.16741 334.196103,145.16684 L334.196103,145.16684 Z M331.849241,143.044523 C331.785258,143.044856 331.723386,143.021654 331.675399,142.979332 L330.480238,141.950769 C330.431139,141.901841 330.403542,141.835378 330.403542,141.766062 C330.403542,141.696747 330.431139,141.630284 330.480238,141.581355 C330.528152,141.530391 330.594994,141.501489 330.664944,141.501489 C330.734895,141.501489 330.801737,141.530391 330.849651,141.581355 C331.233551,141.907309 331.639182,142.247749 332.052056,142.617162 C332.101154,142.66609 332.128752,142.732553 332.128752,142.801869 C332.128752,142.871184 332.101154,142.937647 332.052056,142.986576 C331.999101,143.022857 331.934624,143.038332 331.870971,143.030036 L331.849241,143.044523 Z M329.437188,140.99464 C329.376982,140.993108 329.31875,140.972854 329.270589,140.936693 L328.046454,139.937103 C327.966705,139.881335 327.924646,139.7858 327.937367,139.689321 C327.950088,139.592842 328.015473,139.511474 328.106951,139.478282 C328.19843,139.445091 328.300779,139.465599 328.372407,139.531473 C328.749064,139.828452 329.161938,140.161649 329.603786,140.531062 C329.659758,140.573764 329.695453,140.637818 329.702322,140.707884 C329.709191,140.777949 329.686616,140.847716 329.640003,140.900476 C329.593431,140.951178 329.527763,140.980072 329.458918,140.980153 L329.437188,140.99464 Z M326.967187,139.024434 C326.906982,139.022903 326.84875,139.002648 326.800589,138.966487 C325.996571,138.350798 325.540237,138.024845 325.532994,138.017601 C325.414981,137.933593 325.387416,137.769822 325.471425,137.65181 C325.555434,137.533797 325.719204,137.506232 325.837217,137.590241 C325.837217,137.590241 326.308038,137.923437 327.126542,138.54637 C327.181814,138.589232 327.217549,138.652501 327.225721,138.721965 C327.233894,138.791429 327.213818,138.861264 327.170003,138.915783 C327.1255,138.971156 327.059806,139.005317 326.988918,139.009948 L326.967187,139.024434 Z" id="Shape" fill="#3066B3"></path>
                        <path d="M140.304706,330.561726 C140.304706,330.561726 129.816259,329.178236 128.910834,341.47029 C128.005408,353.762344 125.955526,366.517976 133.126494,367.65519 C140.297462,368.792404 144.629017,354.43598 145.773475,348.967212 C146.917932,343.498443 148.960572,333.343192 140.304706,330.561726 Z" id="Path" fill="#FF911D"></path>
                        <path d="M151.242244,321.167033 C151.242244,321.167033 146.229809,332.792694 145.541686,336.55202 C144.853563,340.311346 144.179926,353.530555 139.848371,352.842432 C135.516817,352.154309 131.641596,344.440085 133.691479,337.015597 C135.741362,329.59111 139.392037,317.748147 139.392037,317.748147 L151.242244,321.167033 Z" id="Path" fill="#007EA7"></path>
                        <path d="M245.457179,251.956322 L234.548615,244.937465 L223.096796,237.563682 C196.491779,237.375353 189.538112,229.552478 184.670546,232.058696 C179.802979,234.564913 179.962334,246.422363 177.687906,260.090663 C177.586498,260.655649 177.492334,261.227877 177.390926,261.785619 C175.525289,271.521983 172.803264,281.074522 169.256585,290.331869 C167.431248,295.264626 156.261921,323.448705 154.900162,327.099379 C153.538402,330.750054 149.42415,331.65548 141.905498,329.149262 C134.386846,326.643045 129.823502,322.760581 131.199749,318.660816 C131.388077,318.09583 131.924089,316.552985 132.807784,314.314774 C138.023034,300.269817 153.63981,258.410194 152.951687,247.805853 C152.140425,235.492068 146.925176,240.975324 146.331217,226.6189 C146.135645,221.823768 149.025762,218.325205 152.966173,215.797257 C160.839752,210.726875 172.892773,209.524471 172.892773,209.524471 C186.401719,206.359104 207.313422,216.137697 219.156385,218.216554 C230.999348,220.29541 235.09187,228.676027 237.163484,233.232127 C239.235097,237.788227 245.268851,251.514475 245.457179,251.956322 Z" id="Path" fill="#3066B3"></path>
                        <path d="M234.548615,244.937465 L223.096796,237.563682 C196.491779,237.375353 189.538112,229.552478 184.670546,232.058696 C179.802979,234.564913 179.962334,246.422363 177.687906,260.090663 C177.586498,260.655649 177.492334,261.227877 177.390926,261.785619 L177.390926,261.785619 C177.390926,261.785619 179.991308,230.197141 184.677789,227.857522 C189.364271,225.517903 205.770577,226.91588 217.128232,228.820895 C228.485887,230.72591 231.977207,238.099693 231.977207,238.099693 L234.548615,244.937465 Z" id="Path" fill="#052F5F"></path>
                        <path d="M171.668638,248.168023 L173.117319,256.085062 C173.117319,256.085062 169.408697,270.571867 160.564502,256.085062 C160.564502,256.085062 158.702948,252.383683 157.587464,253.977232 C156.47198,255.57078 140.927638,309.990463 142.159017,313.184803 C143.390395,316.379144 145.230219,322.304247 149.10544,324.129584 C152.98066,325.954922 143.701862,327.82372 139.051597,324.129584 C136.465702,322.072458 134.241978,317.73366 132.778811,314.293044 C137.99406,300.248087 153.610836,258.388464 152.922713,247.784122 C152.111452,235.470338 146.896202,240.953594 146.302243,226.59717 C146.106671,221.802038 148.996789,218.303474 152.9372,215.775527 L170.038873,242.32984 L177.702393,249.573243 L171.668638,248.168023 Z" id="Path" fill="#052F5F"></path>
                        <path d="M241.980346,155.452471 C241.256006,156.314436 242.407707,157.741386 241.256006,159.320448 C240.104305,160.89951 236.670932,160.182413 234.512398,160.320038 C233.788058,160.363498 232.505976,161.153029 231.15146,162.181592 C229.237203,163.671264 227.399841,165.257197 225.646474,166.933264 L225.030784,166.933264 L218.99703,163.036314 C218.99703,163.036314 224.313688,158.893087 227.189318,156.741797 C230.064949,154.590506 231.491899,148.281503 233.9619,147.752734 C236.4319,147.223966 240.423015,152.142236 244.305478,149.846078 C248.187942,147.549919 250.020523,145.536253 250.447884,146.702441 C250.451936,146.726416 250.451936,146.7509 250.447884,146.774875 C250.918705,148.36118 242.6902,154.583263 241.980346,155.452471 Z" id="Path" fill="#007EA7"></path>
                        <path d="M241.980346,155.452471 C241.256006,156.314436 242.407707,157.741386 241.256006,159.320448 C240.104305,160.89951 236.670932,160.182413 234.512398,160.320038 C233.788058,160.363498 232.505976,161.153029 231.15146,162.181592 L229.579641,161.254437 C229.579641,161.254437 234.497911,158.125287 237.025859,158.661299 C239.553806,159.19731 239.155419,155.206196 240.814158,154.141415 C242.161431,153.286694 248.195186,148.469831 250.426154,146.702441 C250.430206,146.726416 250.430206,146.7509 250.426154,146.774875 C250.918705,148.36118 242.6902,154.583263 241.980346,155.452471 Z" id="Path" fill="#133C55"></path>
                        <path d="M232.839172,167.346138 L231.390492,168.794819 C226.696767,173.401623 212.325857,187.540744 210.616414,189.250187 C208.559287,191.307313 203.764155,192.335877 200.685709,189.250187 C199.678876,188.243354 197.846295,186.483207 195.752952,184.433324 C191.40691,180.195934 186.017819,174.777869 184.685033,172.546901 C182.707584,169.229423 184.685033,155.952266 184.685033,155.952266 C184.685033,155.952266 192.464447,158.617838 202.069199,171.793587 C202.069199,171.793587 203.952483,175.045875 207.863921,171.793587 C211.775358,168.541299 224.639641,155.133761 224.639641,155.133761 C224.639641,155.133761 234.041577,157.77036 232.839172,167.346138 Z" id="Path" fill="#FED58C"></path>
                        <path d="M231.368762,168.802062 C226.675037,173.408866 212.304126,187.547988 210.594683,189.257431 C208.537557,191.314557 203.742425,192.34312 200.663979,189.257431 C199.657146,188.250598 197.824565,186.490451 195.731221,184.440568 L184.663303,166.933264 L185.387643,163.275346 C185.387643,163.275346 196.527996,177.037811 198.918319,179.884468 C201.308641,182.731125 205.386677,185.266316 209.22568,181.195524 C213.064684,177.124731 220.815124,169.787165 223.473453,167.650361 C226.131782,165.513557 226.718497,162.043967 225.342251,160.595287 C223.966004,159.146606 225.25533,157.031533 227.891928,160.131709 C229.652075,162.188836 230.796533,166.288601 231.368762,168.802062 Z" id="Path" fill="#FEBB46"></path>
                        <path d="M193.85518,210.88623 C194.992394,213.602506 192.551368,217.043122 184.663303,219.752155 C176.775237,222.461187 153.00239,221.403651 150.525147,218.18758 C148.047903,214.971509 154.414854,197.543883 152.944443,191.097255 C151.474032,184.650627 142.550161,175.313881 148.149311,170.091388 C153.748461,164.868894 162.860661,157.328512 168.104884,156.647633 C173.349108,155.966753 182.461308,153.685081 185.655649,156.647633 C185.655649,156.647633 190.356617,171.945699 192.7904,176.030978 C194.166969,178.526104 195.038293,181.268067 195.354565,184.100128 C195.803656,187.895671 195.296617,192.009923 192.7904,195.037666 C188.408142,200.325349 192.254388,207.35145 193.645122,210.415409 C193.717556,210.574764 193.797233,210.734119 193.85518,210.88623 Z" id="Path" fill="#FEBB46"></path>
                        <path d="M193.645122,210.400922 C191.472101,212.943357 187.292658,216.767873 182.97559,218.18758 C176.514475,220.302653 172.559577,217.542917 177.37644,216.666465 C182.193302,215.790014 186.198904,210.929691 180.223097,213.725644 C174.24729,216.521597 155.255088,214.449984 155.255088,214.449984 L154.530748,200.506435 C154.530748,200.506435 180.063742,194.639279 184.685033,194.653765 C189.306323,194.668252 195.180723,189.91658 195.224183,187.591448 C195.224183,186.541155 195.311104,185.215612 195.376295,184.078398 C195.825386,187.873941 195.318348,191.988193 192.81213,195.015935 C188.408142,200.310863 192.254388,207.35145 193.645122,210.400922 Z" id="Path" fill="#FF911D"></path>
                        <path d="M167.235676,234.028901 C167.235676,234.028901 170.683536,241.069488 174.131395,243.800251 C177.579255,246.531014 179.303185,250.123741 177.753097,249.544269 C176.203008,248.964797 172.306058,245.813917 172.805853,247.103243 C173.305647,248.392568 174.754328,253.281865 172.805853,256.874593 C170.857377,260.46732 171.741073,254.375619 170.937055,252.10119 C170.133037,249.826762 170.712509,256.447232 169.705676,259.170751 C168.698843,261.89427 167.692011,252.405413 167.26465,251.116088 C166.837289,249.826762 166.402685,253.136997 166.54031,255.722892 C166.677934,258.308786 165.091629,259.170751 164.671512,257.446821 C164.251394,255.722892 164.381776,250.406234 163.519811,249.978873 C162.657846,249.551513 163.237318,256.012628 162.512978,256.439988 C161.788638,256.867349 160.484825,251.862158 160.803535,249.544269 C161.122244,247.22638 157.645411,234.028901 157.645411,234.028901 L167.235676,234.028901 Z" id="Path" fill="#007EA7"></path>
                        <path d="M172.392979,237.020426 C172.392979,237.020426 166.916966,237.534708 163.664679,238.222831 C160.412391,238.910954 155.247845,242.32984 155.247845,242.32984 C155.247845,242.32984 154.878432,241.228843 154.248256,239.432479 C151.742038,232.015235 145.280923,212.63189 144.339281,206.409808 C143.16585,198.66661 146.034237,178.508221 146.302243,173.539247 C146.476085,170.221769 149.380689,169.693 151.278461,169.700244 C151.829343,169.702075 152.379191,169.748097 152.922713,169.837869 C162.02767,173.50303 159.391071,182.95567 158.717435,193.060217 C158.043798,203.164763 160.767318,210.444383 162.607142,215.145351 C164.446966,219.846319 172.392979,237.020426 172.392979,237.020426 Z" id="Path" fill="#FED58C"></path>
                        <path d="M161.636526,235.492068 C158.877734,236.10843 156.337217,237.460036 154.284473,239.403506 C151.778255,231.986262 145.31714,212.602917 144.375498,206.380834 C143.202067,198.637637 146.070454,178.479248 146.33846,173.510274 C146.512302,170.192795 149.416906,169.664027 151.314678,169.67127 C150.423739,177.639013 147.975469,200.817901 149.141657,206.67057 C150.590337,213.834295 153.813651,222.946495 155.856291,227.857522 C157.89893,232.768549 163.700896,232.247024 165.576937,232.420866 C167.452978,232.594707 166.92421,234.477992 161.636526,235.492068 Z" id="Path" fill="#FEBB46"></path>
                        <path d="M178.788903,167.643118 C178.788903,167.643118 181.845619,186.157254 176.39858,195.023179 C170.951542,203.889104 160.079195,206.047637 156.290895,210.4806 L149.815293,210.88623 L149.134413,204.642417 C149.134413,204.642417 155.38547,197.297607 161.861072,195.711302 C168.336673,194.124997 173.407055,189.460246 174.616703,180.942004 C175.826351,172.423763 175.377261,167.643118 175.377261,167.643118 L178.788903,167.643118 Z" id="Path" fill="#FFFFFF"></path>
                        <path d="M178.310839,163.724437 C178.310839,163.724437 182.207789,167.215757 178.875824,169.67127 C175.543859,172.126784 170.864621,164.789217 173.20424,164.564672 L178.310839,163.724437 Z" id="Path" fill="#D9D8D6"></path>
                        <path d="M179.730545,164.079364 C178.250219,165.058349 176.507003,165.563629 174.732598,165.528044 C173.088345,165.448367 171.197817,165.759833 170.256175,167.360625 C169.083025,169.153566 167.647314,170.760196 165.997054,172.126784 C165.569351,172.513412 164.97557,172.658395 164.417813,172.512385 C163.860056,172.366375 163.413477,171.949047 163.230075,171.402443 C162.570925,169.33083 161.426467,166.426226 159.803945,164.666079 C157.058696,161.689041 160.144385,154.445638 165.113359,153.699568 C170.082333,152.953497 177.796557,151.577251 182.251249,156.205785 C186.705942,160.834319 187.227467,163.181182 189.284593,164.666079 C191.34172,166.150977 190.827438,167.657604 186.879784,166.11476 C183.779607,164.883381 181.95427,162.703117 179.730545,164.079364 Z" id="Path" fill="#FFFFFF"></path>
                        <path d="M184.706763,152.062559 L184.706763,152.062559 C184.374544,152.225181 184.027743,152.356141 183.670956,152.453703 C179.998551,153.475022 178.513654,154.003791 178.600575,157.741386 C178.600575,158.197721 178.644035,158.697516 178.701982,159.255258 C178.701982,159.255258 180.411425,163.557839 175.804621,163.717193 C173.046314,163.809004 170.308403,163.214131 167.836879,161.98602 C165.945295,161.082567 164.35545,159.651203 163.259048,157.864524 C161.256175,154.17953 159.539268,150.346156 158.123476,146.398218 C155.783857,139.922616 154.103387,132.686457 156.406789,129.542821 C160.513799,123.936427 167.887582,120.510298 167.887582,120.510298 C170.784943,119.945312 176.71729,119.699037 181.179226,123.407659 C181.501583,123.672597 181.80871,123.955541 182.099138,124.255137 C184.047613,126.225342 185.619432,129.09373 186.394476,133.200739 C188.705121,145.659391 187.930077,150.454524 184.706763,152.062559 Z" id="Path" fill="#007EA7"></path>
                        <path d="M184.663303,152.062559 C184.331084,152.225181 183.984283,152.356141 183.627496,152.453703 C179.955091,153.475022 178.470193,154.003791 178.557114,157.741386 C176.767994,155.720477 174.008257,153.098365 172.574064,154.416665 C171.13987,155.734964 169.539078,159.450829 167.807905,161.98602 C165.916321,161.082567 164.326476,159.651203 163.230075,157.864524 C161.227201,154.17953 159.510295,150.346156 158.094502,146.398218 L172.392979,125.189536 L181.128522,123.422145 L182.483038,123.139653 C182.371473,123.528287 182.226048,123.906392 182.048434,124.269624 C181.397519,125.781897 180.236201,127.01756 178.767173,127.760944 C175.949489,129.043026 174.667407,135.902528 175.572832,141.950769 C176.478258,147.99901 179.636381,153.156313 184.663303,152.062559 Z" id="Path" fill="#13293D"></path>
                        <path d="M168.104884,115.273318 C178.448463,113.462467 194.695415,121.857571 178.557114,125.950093 C169.140691,130.383055 174.884709,139.582176 171.494797,148.107661 C168.104884,156.633146 162.882391,172.568631 142.774706,176.016491 C122.667021,179.46435 116.865055,157.538571 126.839221,151.287515 C136.813386,145.036458 141.376729,149.353526 144.672477,143.109713 C147.968226,136.8659 147.729193,129.014052 153.36456,123.110679 C158.775382,117.482555 163.280778,116.113552 168.104884,115.273318 Z" id="Path" fill="#133C55"></path>
                        <path d="M314.877949,92.152377 L315.993433,94.1877731 C316.071821,94.3334778 316.18985,94.4540185 316.333873,94.5354565 L318.369269,95.643697 C318.64641,95.7946729 318.818884,96.0850365 318.818884,96.4006326 C318.818884,96.7162287 318.64641,97.0065923 318.369269,97.1575681 L316.333873,98.3020257 C316.190116,98.3805401 316.071947,98.4987088 315.993433,98.6424657 L314.877949,100.677862 C314.729121,100.955498 314.439645,101.128768 314.124635,101.128768 C313.809624,101.128768 313.520148,100.955498 313.371321,100.677862 L312.255837,98.6424657 C312.175161,98.5003412 312.057522,98.382702 311.915397,98.3020257 L309.872758,97.1865418 C309.599706,97.0324066 309.430833,96.7431578 309.430833,96.4296062 C309.430833,96.1160546 309.599706,95.8268058 309.872758,95.6726706 L311.915397,94.5644301 C312.058028,94.4811942 312.175622,94.361098 312.255837,94.2167467 L313.371321,92.1813507 C313.518068,91.9048742 313.803162,91.7296779 314.116112,91.7236596 C314.429062,91.7176413 314.72068,91.8817471 314.877949,92.152377 Z" id="Path" fill="#D9D8D6"></path>
                        <path d="M261.428882,49.4525195 L262.537122,51.4879156 C262.61856,51.6319379 262.739101,51.7499673 262.884806,51.8283555 L264.920202,52.9438395 C265.193253,53.0979747 265.362126,53.3872234 265.362126,53.700775 C265.362126,54.0143267 265.193253,54.3035754 264.920202,54.4577106 L262.884806,55.5659512 C262.738592,55.6469377 262.618109,55.767421 262.537122,55.9136345 L261.428882,57.9490306 C261.274747,58.2220818 260.985498,58.3909549 260.671946,58.3909549 C260.358395,58.3909549 260.069146,58.2220818 259.915011,57.9490306 L258.799527,55.9136345 C258.721139,55.7679299 258.603109,55.6473891 258.459087,55.5659512 L256.416447,54.4577106 C256.139306,54.3067348 255.966832,54.0163712 255.966832,53.700775 C255.966832,53.3851789 256.139306,53.0948153 256.416447,52.9438395 L258.451843,51.8283555 C258.5956,51.7498411 258.713769,51.6316725 258.792283,51.4879156 L259.907767,49.4525195 C260.057572,49.1716366 260.349991,48.9961851 260.668325,48.9961851 C260.986659,48.9961851 261.279078,49.1716366 261.428882,49.4525195 Z" id="Path" fill="#FED58C"></path>
                        <path d="M88.5795688,77.7814665 L89.6950528,79.8168626 C89.7714694,79.9621772 89.8901782,80.0808859 90.0354927,80.1573026 L92.0708888,81.2727865 C92.34394,81.4269217 92.5128131,81.7161705 92.5128131,82.0297221 C92.5128131,82.3432737 92.34394,82.6325225 92.0708888,82.7866577 L90.0354927,83.9021416 C89.8887497,83.9766037 89.7695149,84.0958386 89.6950528,84.2425815 L88.5795688,86.2779776 C88.4254336,86.5510288 88.1361848,86.7199019 87.8226332,86.7199019 C87.5090816,86.7199019 87.2198329,86.5510288 87.0656977,86.2779776 L85.9502137,84.2425815 C85.8737971,84.097267 85.7550883,83.9785582 85.6097738,83.9021416 L83.5743777,82.7866577 C83.2972365,82.6356818 83.1247622,82.3453182 83.1247622,82.0297221 C83.1247622,81.714126 83.2972365,81.4237624 83.5743777,81.2727865 L85.6097738,80.1935196 C85.7535306,80.1150052 85.8716993,79.9968365 85.9502137,79.8530797 L87.0656977,77.8176836 C87.2099287,77.5367906 87.4962022,77.3572424 87.8118704,77.3496905 C88.1275386,77.3421386 88.4220706,77.507792 88.5795688,77.7814665 L88.5795688,77.7814665 Z" id="Path" fill="#D9D8D6"></path>
                        <path d="M60.4099766,193.118164 L61.5254606,195.15356 C61.6039749,195.297317 61.7221436,195.415486 61.8659005,195.494 L63.90854,196.609484 C64.1815912,196.763619 64.3504643,197.052868 64.3504643,197.36642 C64.3504643,197.679971 64.1815912,197.96922 63.90854,198.123355 L61.8659005,199.231596 C61.7218782,199.313034 61.6038487,199.433574 61.5254606,199.579279 L60.4099766,201.614675 C60.2578994,201.888139 59.9695681,202.057711 59.6566627,202.057711 C59.3437574,202.057711 59.0554261,201.888139 58.9033489,201.614675 L57.7878649,199.579279 C57.7094767,199.433574 57.5914472,199.313034 57.447425,199.231596 L55.4120289,198.123355 C55.1348877,197.972379 54.9624134,197.682016 54.9624134,197.36642 C54.9624134,197.050823 55.1348877,196.76046 55.4120289,196.609484 L57.447425,195.494 C57.5911818,195.415486 57.7093505,195.297317 57.7878649,195.15356 L58.9033489,193.118164 C59.0521764,192.840528 59.3416524,192.667258 59.6566627,192.667258 C59.971673,192.667258 60.261149,192.840528 60.4099766,193.118164 Z" id="Path" fill="#D9D8D6"></path>
                        <path d="M123.688341,132.143202 L124.796581,134.178598 C124.878019,134.32262 124.99856,134.44065 125.144264,134.519038 L127.179661,135.634522 C127.452712,135.788657 127.621585,136.077906 127.621585,136.391458 C127.621585,136.705009 127.452712,136.994258 127.179661,137.148393 L125.144264,138.256634 C124.998051,138.33762 124.877568,138.458104 124.796581,138.604317 L123.688341,140.639713 C123.534205,140.912764 123.244957,141.081637 122.931405,141.081637 C122.617853,141.081637 122.328605,140.912764 122.174469,140.639713 L121.058985,138.604317 C120.980597,138.458612 120.862568,138.338072 120.718546,138.256634 L118.683149,137.148393 C118.406008,136.997417 118.233534,136.707054 118.233534,136.391458 C118.233534,136.075861 118.406008,135.785498 118.683149,135.634522 L120.718546,134.519038 C120.862302,134.440524 120.980471,134.322355 121.058985,134.178598 L122.174469,132.143202 C122.325445,131.866061 122.615809,131.693587 122.931405,131.693587 C123.247001,131.693587 123.537365,131.866061 123.688341,132.143202 L123.688341,132.143202 Z" id="Path" fill="#FED58C"></path>
                        <path d="M344.959799,254.419079 L346.075283,256.454475 C346.153797,256.598232 346.271966,256.716401 346.415723,256.794915 L348.451119,257.910399 C348.72826,258.061375 348.900735,258.351739 348.900735,258.667335 C348.900735,258.982931 348.72826,259.273294 348.451119,259.42427 L346.415723,260.554241 C346.271701,260.635679 346.153671,260.75622 346.075283,260.901924 L344.959799,262.93732 C344.805664,263.210372 344.516415,263.379245 344.202864,263.379245 C343.889312,263.379245 343.600063,263.210372 343.445928,262.93732 L342.330444,260.901924 C342.252056,260.75622 342.134026,260.635679 341.990004,260.554241 L339.954608,259.446 C339.677467,259.295025 339.504993,259.004661 339.504993,258.689065 C339.504993,258.373469 339.677467,258.083105 339.954608,257.932129 L341.990004,256.816645 C342.133761,256.738131 342.25193,256.619962 342.330444,256.476205 L343.445928,254.440809 C343.592885,254.16145 343.880786,253.984762 344.196408,253.980232 C344.51203,253.975701 344.804884,254.144053 344.959799,254.419079 L344.959799,254.419079 Z" id="Path" fill="#D9D8D6"></path>
                        <path d="M179.071396,326.309849 L180.18688,328.345245 C180.262861,328.492704 180.381493,328.61386 180.52732,328.692928 L182.533742,329.801169 C182.806793,329.955304 182.975666,330.244553 182.975666,330.558104 C182.975666,330.871656 182.806793,331.160905 182.533742,331.31504 L180.498346,332.430524 C180.353032,332.50694 180.234323,332.625649 180.157906,332.770964 L179.042422,334.80636 C178.891446,335.083501 178.601083,335.255975 178.285487,335.255975 C177.969891,335.255975 177.679527,335.083501 177.528551,334.80636 L176.413067,332.770964 C176.334553,332.627207 176.216384,332.509038 176.072627,332.430524 L174.037231,331.31504 C173.76009,331.164064 173.587616,330.8737 173.587616,330.558104 C173.587616,330.242508 173.76009,329.952144 174.037231,329.801169 L176.072627,328.692928 C176.216649,328.61149 176.334679,328.490949 176.413067,328.345245 L177.528551,326.309849 C177.678065,326.021891 177.975514,325.841178 178.299973,325.841178 C178.624433,325.841178 178.921882,326.021891 179.071396,326.309849 L179.071396,326.309849 Z" id="Path" fill="#D9D8D6"></path>
                        <path d="M303.694135,55.1892943 L304.809619,57.2246903 C304.888134,57.3684472 305.006302,57.4866159 305.150059,57.5651303 L307.185455,58.6806142 C307.462596,58.8315901 307.635071,59.1219537 307.635071,59.4375498 C307.635071,59.7531459 307.462596,60.0435095 307.185455,60.1944854 L305.150059,61.3027259 C305.006037,61.3841639 304.888007,61.5047046 304.809619,61.6504093 L303.694135,63.6858053 C303.54,63.9588565 303.250751,64.1277296 302.9372,64.1277296 C302.623648,64.1277296 302.334399,63.9588565 302.180264,63.6858053 L301.06478,61.6504093 C300.988799,61.5029504 300.870167,61.3817943 300.72434,61.3027259 L298.688944,60.1944854 C298.415893,60.0403502 298.24702,59.7511014 298.24702,59.4375498 C298.24702,59.1239982 298.415893,58.8347494 298.688944,58.6806142 L300.72434,57.5651303 C300.869655,57.4887136 300.988364,57.3700049 301.06478,57.2246903 L302.180264,55.1892943 C302.33124,54.9121531 302.621604,54.7396788 302.9372,54.7396788 C303.252796,54.7396788 303.543159,54.9121531 303.694135,55.1892943 L303.694135,55.1892943 Z" id="Path" fill="#FF911D"></path>
                        <path d="M24.1929642,146.036048 L25.3084482,148.071444 C25.3869626,148.215201 25.5051313,148.33337 25.6488881,148.411884 L27.6842842,149.527368 C27.9614254,149.678344 28.1338997,149.968707 28.1338997,150.284304 C28.1338997,150.5999 27.9614254,150.890263 27.6842842,151.041239 L25.6488881,152.14948 C25.5048659,152.230918 25.3868364,152.351458 25.3084482,152.497163 L24.1929642,154.532559 C24.040887,154.806023 23.7525558,154.975595 23.4396504,154.975595 C23.126745,154.975595 22.8384137,154.806023 22.6863365,154.532559 L21.5708525,152.497163 C21.4906376,152.352812 21.3730433,152.232716 21.2304126,152.14948 L19.1877731,151.041239 C18.9147219,150.887104 18.7458488,150.597855 18.7458488,150.284304 C18.7458488,149.970752 18.9147219,149.681503 19.1877731,149.527368 L21.2304126,148.411884 C21.3725371,148.331208 21.4901762,148.213569 21.5708525,148.071444 L22.6863365,146.036048 C22.8351641,145.758412 23.1246401,145.585142 23.4396504,145.585142 C23.7546607,145.585142 24.0441367,145.758412 24.1929642,146.036048 L24.1929642,146.036048 Z" id="Path" fill="#FF911D"></path>
                        <path d="M343.112731,100.895164 L344.228215,102.93056 C344.30673,103.074317 344.424899,103.192485 344.568655,103.271 L346.604051,104.386484 C346.881193,104.53746 347.053667,104.827823 347.053667,105.143419 C347.053667,105.459016 346.881193,105.749379 346.604051,105.900355 L344.568655,106.994109 C344.424633,107.075547 344.306604,107.196087 344.228215,107.341792 L343.112731,109.377188 C342.958596,109.650239 342.669348,109.819112 342.355796,109.819112 C342.042244,109.819112 341.752996,109.650239 341.59886,109.377188 L340.49062,107.341792 C340.409633,107.195578 340.28915,107.075095 340.142936,106.994109 L338.10754,105.885868 C337.834489,105.731733 337.665616,105.442484 337.665616,105.128933 C337.665616,104.815381 337.834489,104.526132 338.10754,104.371997 L340.142936,103.256513 C340.288641,103.178125 340.409182,103.060095 340.49062,102.916073 L341.59886,100.880677 C341.752471,100.604958 342.044491,100.435242 342.360099,100.438262 C342.675707,100.441282 342.964426,100.616555 343.112731,100.895164 L343.112731,100.895164 Z" id="Path" fill="#FF911D"></path>
                        <path d="M215.129053,360.28865 L216.244537,362.324046 C216.320954,362.46936 216.439663,362.588069 216.584977,362.664486 L218.620373,363.77997 C218.897514,363.930945 219.069989,364.221309 219.069989,364.536905 C219.069989,364.852501 218.897514,365.142865 218.620373,365.293841 L216.584977,366.409325 C216.44122,366.487839 216.323052,366.606008 216.244537,366.749765 L215.129053,368.785161 C214.978077,369.062302 214.687714,369.234776 214.372118,369.234776 C214.056522,369.234776 213.766158,369.062302 213.615182,368.785161 L212.506942,366.749765 C212.425504,366.605742 212.304963,366.487713 212.159258,366.409325 L210.123862,365.293841 C209.850811,365.139706 209.681938,364.850457 209.681938,364.536905 C209.681938,364.223354 209.850811,363.934105 210.123862,363.77997 L212.159258,362.664486 C212.306717,362.588504 212.427873,362.469872 212.506942,362.324046 L213.615182,360.28865 C213.769317,360.015598 214.058566,359.846725 214.372118,359.846725 C214.685669,359.846725 214.974918,360.015598 215.129053,360.28865 L215.129053,360.28865 Z" id="Path" fill="#D9D8D6"></path>
                    </g>
                </g>
            </g>
        </g>
    </g>
</svg>