<?xml version="1.0" encoding="UTF-8"?>
<svg width="620px" height="520px" viewBox="0 0 620 520" version="1.1" xmlns="http://www.w3.org/2000/svg" xmlns:xlink="http://www.w3.org/1999/xlink">
    <!-- Generator: Sketch 53.2 (72643) - https://sketchapp.com -->
    <title>illustration1</title>
    <desc>Created with Sketch.</desc>
    <defs>
        <linearGradient x1="32.9905089%" y1="45.4160788%" x2="99.1436197%" y2="55.4033071%" id="linearGradient-1">
            <stop stop-color="#3139EC" offset="0%"></stop>
            <stop stop-color="#FF0061" offset="100%"></stop>
        </linearGradient>
        <linearGradient x1="32.9905089%" y1="34.7960248%" x2="99.1436197%" y2="67.9217189%" id="linearGradient-2">
            <stop stop-color="#3139EC" offset="0%"></stop>
            <stop stop-color="#FF0061" offset="100%"></stop>
        </linearGradient>
        <linearGradient x1="50%" y1="0%" x2="50%" y2="99.9853042%" id="linearGradient-3">
            <stop stop-color="#FFD657" offset="0%"></stop>
            <stop stop-color="#FFD652" offset="53%"></stop>
            <stop stop-color="#FFD648" offset="100%"></stop>
        </linearGradient>
    </defs>
    <g id="Landing-Page" stroke="none" stroke-width="1" fill="none" fill-rule="evenodd">
        <g id="Landing-Page-Desktop-HD" transform="translate(-797.000000, -230.000000)">
            <g id="Section-1-:-Hero">
                <g id="Group-36" transform="translate(149.000000, 230.000000)">
                    <g id="illustration1" transform="translate(648.000000, 0.000000)">
                        <rect id="RectangleLarge" fill="#FFFFFF" opacity="0.01" x="0" y="0" width="620" height="520"></rect>
                        <g id="Top-Rating" transform="translate(25.473976, 0.000000)" fill-rule="nonzero">
                            <path d="M233.145068,349.134236 C233.145068,349.134236 84.5980658,360.449516 109.220116,370.135397 C132.353578,379.237911 224.887427,391.981431 134.365184,408.979497 C43.84294,425.977563 29.5404255,432.294004 71.2510638,444.182592 C112.961702,456.07118 25.6982592,462.709478 45.4622824,470.936944 C65.2263056,479.16441 155.225532,486.335783 138.800774,500.054932 C122.376015,513.774081 185.439845,522.011605 216.177176,518.712573 C246.914507,515.41354 411.544294,486.60735 360.006963,460.376015 C308.469632,434.144681 424.841006,435.230948 406.967892,419.630948 C389.094778,404.030948 569.012766,400.178723 542.12766,382.617408 C515.242553,365.056093 301.740812,360.188008 301.740812,360.188008 L233.145068,349.134236 Z" id="Path" fill="url(#linearGradient-1)" opacity="0.04"></path>
                            <path d="M135.296619,284.525648 C135.296619,284.525648 73.5094035,249.091171 90.7638781,223.50695 C108.018353,197.922729 129.379855,235.836297 144.989866,212.094867 C160.599877,188.353437 17.4654155,146.812133 33.4307627,118.525702 C45.9419095,96.3956817 83.7149955,119.666084 103.184125,97.6600182 C122.000427,76.3894158 53.4866104,42.6241939 71.8732033,18.7257549 C90.2597962,-5.17268404 223.320884,67.2828876 249.409186,51.1935858 C275.497489,35.104284 225.31242,14.0072181 244.451004,3.80162603 C265.358006,-7.34602065 326.988213,54.3420316 346.705252,39.409639 C366.42229,24.4772465 329.632577,20.9652006 346.705252,2.66950773 C365.124899,-17.0723217 517.060134,78.6949706 508.515533,92.743154 C497.210877,111.253701 476.675739,88.6113354 462.536655,106.617801 C448.397572,124.624267 529.777872,150.307651 518.068298,173.825963 C508.565115,192.914965 477.204611,175.429109 465.255392,187.659292 C453.306172,199.889475 513.002688,229.258442 499.450323,244.579225 C489.335631,256.024363 479.832448,237.621243 442.98489,258.916636 C404.972158,280.881384 428.03597,279.278238 420.920978,290.177976 C412.26895,303.449377 142.436402,300.391831 142.436402,300.391831 L135.296619,284.525648 Z" id="Path" fill="url(#linearGradient-2)" opacity="0.04"></path>
                            <path d="M63.9388781,428.471954 L99.6549323,427.365571 C99.6549323,427.365571 122.788395,413.736944 114.058027,403.095551 C105.32766,392.454159 91.5582205,403.618569 96.4967118,389.567505 C101.435203,375.516441 102.531528,368.787621 96.2251451,364.05029 C89.9187621,359.312959 87.0723404,370.296325 80.6754352,360.147776 C74.27853,349.999226 91.1458414,319.533462 74.4796905,307.182205 C57.8135397,294.830948 62.7419729,356.466538 54.5145068,364.05029 C46.2870406,371.634043 44.3558994,358.498259 36.410058,365.6294 C28.4642166,372.760542 57.2603482,384.538491 49.8475822,390.251451 C42.4348162,395.96441 30.9183752,391.076209 37.496325,402.321083 C44.0742747,413.565957 63.9388781,428.471954 63.9388781,428.471954 Z" id="Path" fill="#3066B3"></path>
                            <path d="M92.6545455,434.285493 C92.6545455,434.285493 116.79381,413.163636 105.277369,392.423985 C105.277369,392.423985 84.9702128,406.736557 92.6545455,434.285493 Z" id="Path" fill="#6774FF"></path>
                            <path d="M92.1617021,420.837911 C91.4878143,420.546228 91.1558994,419.832108 90.7435203,418.031721 C89.7377176,413.626306 88.9029014,403.950484 89.1945841,394.787621 C89.4661509,386.419342 90.7837524,375.325338 95.5814313,369.994584 C104.633656,359.936557 100.027079,345.271954 99.9868472,345.121083 L102.340426,344.366731 C102.541586,345.020503 107.369439,360.540039 97.4119923,371.644101 C88.7319149,381.309865 91.9303675,416.05029 93.5597679,418.916828 C93.4605339,418.761609 93.311621,418.644606 93.1373308,418.584913 L92.1617021,420.837911 Z" id="Path" fill="#0E2C77"></path>
                            <path d="M80.967118,420.596518 C76.4784391,416.536758 72.4601897,411.985441 68.9880077,407.02824 C61.3237911,396.135397 57.9241779,385.182205 59.050677,375.335397 C61.6858801,352.905996 49.1535783,341.389555 48.9926499,341.278917 L50.6421663,339.438298 C51.1953578,339.931141 64.260735,351.940426 61.4746615,375.647195 C58.8394584,398.036364 82.3048356,418.534623 82.5462282,418.745841 L80.967118,420.596518 Z" id="Path" fill="#0E2C77"></path>
                            <path d="M67.0367505,418.725725 L64.5825919,418.413926 C64.5825919,418.303288 66.0007737,407.158994 60.0363636,399.846809 C56.9284333,396.034816 52.3319149,393.882398 46.3675048,393.449903 C23.0630561,391.780271 17.9636364,371.603868 17.9133462,371.39265 L20.3172147,370.819342 C20.4982592,371.583752 25.0746615,389.446809 46.5384913,390.935397 C53.2270793,391.418182 58.4069632,393.882398 61.9574468,398.247582 C68.5957447,406.434816 67.0970986,418.222824 67.0367505,418.725725 Z" id="Path" fill="#0E2C77"></path>
                            <path d="M92.6545455,434.285493 C92.6545455,434.285493 97.0398453,388.099033 82.2243714,377.960542 C82.2243714,377.950484 74.7311412,405.439072 92.6545455,434.285493 Z" id="Path" fill="#FF911E"></path>
                            <path d="M92.6545455,434.285493 C92.6545455,434.285493 79.47853,398.82089 56.445648,395.652611 C56.4355899,395.652611 52.1106383,429.477756 92.6545455,434.285493 Z" id="Path" fill="#FFBC47"></path>
                            <path d="M92.6545455,434.285493 C92.6545455,434.285493 68.5152805,410.055706 48.1980658,407.038298 C48.1980658,407.038298 45.6332689,432.545455 92.6545455,434.285493 Z" id="Path" fill="#3E53E5"></path>
                            <circle id="Oval" fill="#FFD648" transform="translate(15.962927, 365.179478) rotate(-22.330000) translate(-15.962927, -365.179478) " cx="15.9629271" cy="365.179478" r="11.9388781"></circle>
                            <circle id="Oval" fill="#FF911E" transform="translate(49.195422, 331.494046) rotate(-80.750000) translate(-49.195422, -331.494046) " cx="49.1954217" cy="331.494046" r="10.6011605"></circle>
                            <path d="M107.912573,343.562089 C107.916642,346.52864 106.132766,349.205349 103.393198,350.343419 C100.653629,351.48149 97.4982267,350.856655 95.3991171,348.760425 C93.3000075,346.664194 92.6708412,343.509653 93.8051503,340.768525 C94.9394595,338.027396 97.6137169,336.239848 100.580271,336.239845 C102.523993,336.237175 104.389019,337.007445 105.764382,338.380921 C107.139745,339.754398 107.912574,341.618365 107.912573,343.562089 L107.912573,343.562089 Z" id="Path" fill="#FFD648"></path>
                            <path d="M320.680077,488.820116 C320.680077,488.820116 344.557834,468.704062 333.856093,434.295551 C333.856093,434.285493 307.51412,449.29207 320.680077,488.820116 Z" id="Path" fill="#FF911E"></path>
                            <path d="M320.680077,488.820116 C320.680077,488.820116 319.734623,467.607737 308.439458,455.477756 C308.439458,455.467698 299.276596,473.984526 320.680077,488.820116 Z" id="Path" fill="#FFBC47"></path>
                            <path d="M517.666538,386.731141 C517.012766,387.736944 516.660735,388.239845 516.660735,388.239845 L515.654932,386.499807 C459.541199,288.39381 516.660735,227.784139 516.660735,227.784139 C580.096712,284.923791 525.873888,374.078143 517.666538,386.731141 Z" id="Path" fill="#FF911E"></path>
                            <path d="M517.666538,249.670406 L517.666538,386.731141 C517.012766,387.736944 516.660735,388.239845 516.660735,388.239845 L515.654932,386.499807 L515.654932,249.710638 C515.654932,249.155149 516.105246,248.704836 516.660735,248.704836 L516.660735,248.704836 C517.200885,248.704403 517.644932,249.130689 517.666538,249.670406 Z" id="Path" fill="#0E2C77"></path>
                            <path d="M509.941973,387.586074 C509.529594,387.646422 509.107157,387.686654 508.694778,387.736944 L508.694778,387.736944 C508.694778,387.666538 508.644487,387.032882 508.604255,385.916441 C508.191876,374.269246 508.674662,310.018569 567.675048,285.094778 C567.654932,285.08472 579.49323,379.056867 509.941973,387.586074 Z" id="Path" fill="#FFD648"></path>
                            <path d="M555.917215,309.394971 L509.941973,387.586074 C509.529594,387.646422 509.107157,387.686654 508.694778,387.736944 L508.694778,387.736944 C508.694778,387.666538 508.644487,387.032882 508.604255,385.916441 L554.197292,308.37911 C554.331695,308.148033 554.552559,307.979966 554.811103,307.912027 C555.069648,307.844088 555.344603,307.881868 555.575242,308.017021 L555.575242,308.017021 C556.04928,308.303766 556.20218,308.919861 555.917215,309.394971 L555.917215,309.394971 Z" id="Path" fill="#0E2C77"></path>
                            <path d="M216.136944,53.5388781 L216.136944,363.89942 C216.129822,370.274901 221.044109,375.575311 227.401934,376.049516 L363.497099,386.22824 C367.982979,386.540039 383.361702,375.16441 383.361702,375.16441 C383.361702,375.16441 384.478143,373.434429 384.478143,369.270406 L384.478143,53.8104449 C384.478143,46.6994197 383.703675,45.7640232 379.952031,43.098646 L374.611219,39.5783366 C370.909865,37.3655706 366.846422,36.0982592 363.698259,36.2088975 L227.854545,41.3686654 C221.310511,41.6122055 216.132414,46.9903156 216.136944,53.5388781 Z" id="Path" fill="#052F5F"></path>
                            <path d="M207.074662,53.5589942 L207.074662,363.859188 C207.079646,370.25241 212.02289,375.555642 218.4,376.009284 L362.380658,386.22824 C365.757169,386.474049 369.083832,385.304653 371.563851,383.000143 C374.043869,380.695634 375.453855,377.46359 375.456093,374.078143 L375.456093,48.3992263 C375.461329,45.0834741 374.114569,41.9088906 371.726724,39.6083603 C369.33888,37.3078299 366.116353,36.0802059 362.803095,36.2088975 L218.822437,41.3887814 C212.268837,41.6216324 207.075941,47.0012588 207.074662,53.5589942 Z" id="Path" fill="#3066B3"></path>
                            <path d="M215.312186,60.1168279 L215.312186,346.609671 C215.301438,350.838996 218.56671,354.354766 222.7853,354.656093 L359.071567,364.301741 C361.303081,364.461149 363.50022,363.684312 365.13561,362.157694 C366.771,360.631075 367.696982,358.492512 367.691296,356.255319 L367.691296,55.2286267 C367.692732,53.0430709 366.805065,50.9509558 365.23238,49.4332867 C363.659696,47.9156176 361.537311,47.1029781 359.353191,47.182205 L223.066925,52.0704062 C218.737316,52.2274568 215.309338,55.7843731 215.312186,60.1168279 Z" id="Path" fill="#FFFFFF"></path>
                            <path d="M259.497099,50.1694391 L262.514507,56.6669246 C263.778003,59.3996515 266.545433,61.1194113 269.555126,61.0421663 L303.873114,60.2375242 C306.654905,60.1677029 309.173703,58.5760699 310.430948,56.093617 L314.454159,48.2081238 L282.268472,46.055706 L259.497099,50.1694391 Z" id="Path" fill="#3066B3"></path>
                            <polygon id="Path" fill="#FF911E" points="269.705996 223.6 269.705996 303.309865 286.311799 275.328433 301.75087 303.309865 301.75087 221.266538 288.786074 218.792263"></polygon>
                            <polygon id="Path" fill="#FF911E" points="301.75087 303.309865 299.276596 304.134623 297.627079 294.529207 300.302515 297.104062"></polygon>
                            <polygon id="Path" fill="#FF911E" points="269.705996 303.309865 267.231721 304.134623 269.02205 295.665764 270.4 298.79381"></polygon>
                            <polygon id="Path" fill="#FEBB46" points="267.231721 224.4147 267.231721 304.134623 283.837524 276.143133 299.276596 304.134623 299.276596 222.091296 286.311799 219.617021"></polygon>
                            <path d="M207.074662,111.503288 L375.425919,248.161702 L384.478143,242.126886 C384.478143,242.126886 387.90793,241.583752 387.90793,248.161702 C387.90793,254.739652 390.10058,268.740426 384.478143,272.854159 C381.624181,275.020655 378.596526,276.948262 375.425919,278.617408 L207.074662,141.687427 C207.074662,141.687427 202.689362,138.398453 202.13617,130.160928 C201.582979,121.923404 202.417795,112.328046 207.074662,111.503288 Z" id="Path" fill="#FFD648"></path>
                            <path d="M328.897485,186.073501 C328.900153,197.153598 324.500472,207.780796 316.666603,215.616551 C308.832735,223.452306 298.206596,227.854546 287.126499,227.854545 C286.291683,227.854545 285.466925,227.854545 284.652224,227.774081 C306.742747,226.489864 323.998976,208.201321 323.998976,186.073501 C323.998976,163.945681 306.742747,145.657138 284.652224,144.372921 C285.466925,144.322631 286.291683,144.292456 287.126499,144.292456 C298.206596,144.292456 308.832735,148.694696 316.666603,156.530451 C324.500472,164.366206 328.900153,174.993404 328.897485,186.073501 Z" id="Path" fill="#052F5F"></path>
                            <path d="M325.618569,186.073501 C325.624831,208.188763 308.38884,226.474438 286.311799,227.774081 C285.497099,227.774081 284.67234,227.854545 283.837524,227.854545 C260.76249,227.854545 242.05648,209.148535 242.05648,186.073501 C242.05648,162.998467 260.76249,144.292456 283.837524,144.292456 C284.67234,144.292456 285.497099,144.292456 286.311799,144.372921 C308.386554,145.67746 325.619809,163.960232 325.618569,186.073501 Z" id="Path" fill="#3066B3"></path>
                            <path d="M291.733075,369.30058 C291.73721,372.994653 289.062187,376.146749 285.416634,376.74352 C285.157056,376.788561 284.895123,376.818784 284.632108,376.834043 L284.189555,376.834043 C281.401569,376.978062 278.761465,375.572602 277.324228,373.179287 C275.886992,370.785971 275.886992,367.795074 277.324228,365.401758 C278.761465,363.008442 281.401569,361.602983 284.189555,361.747002 L284.642166,361.747002 C284.913733,361.747002 285.1853,361.797292 285.446809,361.837524 C289.083486,362.456436 291.741156,365.611623 291.733075,369.30058 Z" id="Path" fill="#FF911E"></path>
                            <path d="M291.733075,369.30058 C291.172206,372.651189 288.090075,374.978964 284.713844,374.601844 C281.337613,374.224724 278.845052,371.274265 279.037297,367.882481 C279.229542,364.490698 282.03953,361.840785 285.43675,361.847582 C289.078069,362.45377 291.74376,365.609164 291.733075,369.30058 Z" id="Path" fill="#FFD648"></path>
                            <path d="M259.376402,205.485493 L282.449516,159.097872 C282.59913,158.811558 282.902126,158.638952 283.22471,158.656272 C283.547293,158.673592 283.830066,158.877649 283.948162,159.178337 L302.304062,207.89942 C302.462992,208.236199 302.373337,208.637874 302.086284,208.875108 C301.799232,209.112341 301.387858,209.124739 301.087041,208.905222 L282.12766,196.262282 C281.871935,196.116997 281.558626,196.116997 281.302901,196.262282 L260.502901,206.581818 C260.186433,206.768333 259.784288,206.719993 259.521036,206.463793 C259.257784,206.207592 259.198546,205.806908 259.376402,205.485493 L259.376402,205.485493 Z" id="Path" fill="#FFD648"></path>
                            <path d="M281.272727,195.668859 L255.031335,176.498259 C254.737668,176.298876 254.606891,175.932305 254.708043,175.592067 C254.809195,175.251828 255.118993,175.016239 255.473888,175.009671 L311.406576,174.335783 C311.767045,174.329101 312.08904,174.560137 312.198163,174.903757 C312.307285,175.247377 312.177583,175.621857 311.879304,175.824371 L282.17795,195.678917 C281.901943,195.858945 281.544666,195.854975 281.272727,195.668859 Z" id="Path" fill="#FFD648"></path>
                            <polygon id="Path" fill="#FEBB46" points="394.948549 367.651064 394.948549 326.634429 351.960542 349.134236 351.960542 395.652611"></polygon>
                            <polygon id="Path" fill="#FF911E" points="394.948549 367.651064 478.088201 375.06383 478.088201 334.047195 394.948549 326.634429"></polygon>
                            <path d="M424.448743,358.126112 L413.505609,340.29323 L420.294778,327.087041 C420.511135,326.65851 420.442932,326.141197 420.122901,325.783385 C419.802871,325.425573 419.296342,325.300303 418.846422,325.467698 L407.189168,329.99381 L400.208897,318.618182 C399.942266,318.166901 399.405495,317.951329 398.900794,318.092834 C398.396094,318.234338 398.049635,318.697545 398.05648,319.221663 L398.05648,333.554352 C391.518762,336.119149 385.222437,338.583366 381.621663,340.082012 C381.158984,340.271992 380.870828,340.737839 380.907439,341.236662 C380.94405,341.735486 381.297133,342.154269 381.782592,342.274662 L398.05648,346.388395 L398.05648,371.432882 C398.049037,371.996739 398.449285,372.483786 399.003896,372.585755 C399.558506,372.687723 400.105818,372.374892 400.29942,371.845261 L408.416248,350.582592 C408.546522,350.239806 408.831626,349.979102 409.184668,349.879933 C409.537711,349.780763 409.916864,349.854879 410.206576,350.079691 L422.748936,359.654932 C423.194636,359.98447 423.810669,359.954932 424.222795,359.584263 C424.634921,359.213593 424.729361,358.604126 424.448743,358.126112 L424.448743,358.126112 Z" id="Path" fill="#3066B3"></path>
                            <path d="M428.562476,354.837137 L417.619342,337.004255 L424.448743,323.788008 C424.670301,323.360351 424.603664,322.840159 424.281463,322.482157 C423.959262,322.124156 423.448939,322.003281 423.000387,322.178723 L411.343133,326.704836 L404.332689,315.319149 C404.061967,314.878252 403.53138,314.67076 403.033382,314.811041 C402.535385,314.951322 402.191114,315.405253 402.190329,315.922631 L402.190329,330.265377 C395.642553,332.820116 389.346228,335.294391 385.745455,336.793037 C385.282775,336.983017 384.994619,337.448864 385.03123,337.947687 C385.067841,338.446511 385.420924,338.865294 385.906383,338.985687 L402.190329,343.089362 L402.190329,368.123791 C402.182886,368.687648 402.583134,369.174695 403.137745,369.276664 C403.692356,369.378633 404.239667,369.065801 404.433269,368.53617 L412.540039,347.283559 C412.671552,346.942059 412.955673,346.682047 413.307466,346.581252 C413.65926,346.480457 414.037963,346.550559 414.330368,346.7706 L426.882785,356.355899 C427.325393,356.678493 427.933579,356.646442 428.339828,356.279115 C428.746078,355.911788 428.839013,355.309889 428.562476,354.837137 Z" id="Path" fill="#FFD648"></path>
                            <path d="M436.789942,355.661896 L425.856867,337.829014 L432.646035,324.612766 C432.859045,324.182977 432.787298,323.666612 432.465184,323.311176 C432.14307,322.95574 431.636237,322.833672 431.187621,323.003482 L419.540426,327.519536 L412.560155,316.143907 C412.284482,315.708341 411.755648,315.505299 411.259313,315.644458 C410.762979,315.783618 410.416786,316.231994 410.407737,316.747389 L410.407737,331.090135 C403.859961,333.644874 397.573694,336.119149 393.962863,337.617795 C393.500183,337.807776 393.212027,338.273622 393.248638,338.772446 C393.285249,339.271269 393.638332,339.690052 394.123791,339.810445 L410.367505,343.91412 L410.367505,368.958607 C410.360062,369.522465 410.76031,370.009511 411.314921,370.11148 C411.869532,370.213449 412.416843,369.900617 412.610445,369.370986 L420.727273,348.118375 C420.856249,347.777281 421.138526,347.516982 421.488935,347.416017 C421.839343,347.315051 422.216847,347.385244 422.507544,347.605416 L435.059961,357.190716 C435.492299,357.621588 436.185032,357.64236 436.64241,357.238166 C437.099787,356.833972 437.164371,356.143943 436.789942,355.661896 L436.789942,355.661896 Z" id="Path" fill="#3066B3"></path>
                            <path d="M445.027466,364.71412 L434.084333,346.881238 L440.873501,333.66499 C441.095059,333.237333 441.028422,332.717141 440.706221,332.35914 C440.38402,332.001138 439.873697,331.880264 439.425145,332.055706 L427.767892,336.581818 L420.787621,325.196132 C420.515934,324.753616 419.982647,324.546388 419.483452,324.68935 C418.984257,324.832312 418.641513,325.290422 418.645261,325.809671 L418.645261,340.14236 C412.097485,342.707157 405.801161,345.171373 402.200387,346.670019 C401.737707,346.86 401.449551,347.325847 401.486162,347.82467 C401.522773,348.323493 401.875856,348.742277 402.361315,348.862669 L418.645261,352.966344 L418.645261,378.010832 C418.632617,378.576699 419.031331,379.068599 419.587561,379.17336 C420.14379,379.27812 420.694129,378.964966 420.888201,378.433269 L428.994971,357.1706 C429.125246,356.827814 429.410349,356.56711 429.763391,356.46794 C430.116434,356.368771 430.495588,356.442886 430.7853,356.667698 L443.32766,366.24294 C443.77336,366.572478 444.389393,366.54294 444.801519,366.17227 C445.213645,365.801601 445.308085,365.192134 445.027466,364.71412 Z" id="Path" fill="#8EBDC5"></path>
                            <polygon id="Path" fill="#FEBB46" points="478.088201 375.06383 478.088201 334.047195 435.110251 356.547002 435.110251 403.065377"></polygon>
                            <polygon id="Path" fill="#FFD648" points="351.960542 395.652611 435.110251 403.065377 435.110251 356.547002 351.960542 349.134236"></polygon>
                            <path d="M470.896712,391.116441 C470.896712,391.116441 465.485493,412.047195 444.434043,407.038298 C423.382592,402.0294 403.005029,425.142747 403.005029,425.142747 L422.758994,428.471954 C422.758994,428.471954 430.282398,407.068472 444.434043,407.068472 C458.585687,407.068472 459.852998,383.381818 459.852998,383.381818 L463.091683,377.980658 L470.896712,391.116441 Z" id="Path" fill="#FF911E"></path>
                            <polygon id="Path" fill="#052F5F" points="419.761702 355.17911 419.761702 341.449903 502.609671 398.25764 493.547389 407.038298"></polygon>
                            <polygon id="Path" fill="#3066B3" points="419.761702 341.449903 467.758607 326.634429 513.854545 354.897485 502.609671 398.25764"></polygon>
                            <path d="M398.911412,399.83675 C398.911412,399.83675 412.439458,380.535397 459.852998,383.351644 L455.316828,380.193424 C455.316828,380.193424 414.984139,373.042166 381.138878,398.297872 L398.911412,399.83675 Z" id="Path" fill="#FF911E"></path>
                            <path d="M481.226306,352.946228 L476.750484,352.131528 C472.516054,350.190329 435.401934,332.659188 435.32147,315.922631 C435.32147,310.239845 439.103288,305.562863 446.626692,302.022437 C454.673114,298.210445 461.713733,298.210445 467.38646,302.022437 C482.825532,312.291683 481.467698,347.83675 481.40735,349.345455 L481.226306,352.946228 Z M457.851451,305.673501 C454.906373,305.786574 452.022115,306.545408 449.402708,307.896325 C444.373694,310.249903 441.859188,312.925338 441.879304,315.811992 C441.89942,318.698646 444.283172,325.055319 460.164797,335.384913 C464.911719,338.445229 469.809451,341.265033 474.839458,343.833656 C474.62824,332.498259 472.425532,313.186847 463.705222,307.393424 C461.961969,306.274539 459.922091,305.706738 457.851451,305.764023 L457.851451,305.673501 Z" id="Shape" fill="#FEBB46"></path>
                            <path d="M505.26499,354.877369 C503.112573,354.877369 500.748936,354.806963 498.113733,354.656093 C487.572921,354.062669 477.947389,352.453385 477.545068,352.382979 L469.448356,351.729207 L476.247582,346.408511 C480.821959,343.402416 485.597341,340.713953 490.540039,338.362089 C501.603868,333.121857 510.394584,331.32147 516.771373,332.880464 C520.683464,333.769029 523.999397,336.348088 525.823598,339.921083 C528.136944,344.336557 527.060735,347.424371 525.743133,349.234816 C523.932689,351.749323 519.798839,354.877369 505.26499,354.877369 Z M487.713733,347.172921 C502.961702,348.943133 517.988395,348.731915 520.422437,345.372534 C520.744294,344.929981 520.593424,344.125338 520,342.978723 C519.04131,341.065916 517.264828,339.692844 515.172147,339.247195 C507.990716,337.446809 496.152418,342.556286 487.713733,347.172921 L487.713733,347.172921 Z" id="Shape" fill="#FEBB46"></path>
                            <path d="M478.088201,349.134236 C478.088201,349.134236 462.156286,350.401547 443.689749,371.996132 C443.689749,371.996132 442.824758,373.705996 446.013153,376.099807 C449.201547,378.493617 451.565184,377.528046 451.565184,377.528046 C451.565184,377.528046 462.759768,354.575629 479.556673,349.365571 L478.088201,349.134236 Z" id="Path" fill="#FEBB46"></path>
                            <polygon id="Path" fill="#8EBDC5" points="89.7678917 438.17795 226.838685 453.043714 299.9706 408.134623 174.567118 397.432882"></polygon>
                            <path d="M139.595358,422.437137 C139.595358,422.437137 139.042166,413.09323 144.372921,407.189168 L152.419342,416.241393 L139.595358,422.437137 Z" id="Path" fill="#1631A4"></path>
                            <path d="M253.462282,418.584913 C253.27118,417.287427 252.396132,407.712186 246.854159,402.884333 L241.825145,411.011219 L253.462282,418.584913 Z" id="Path" fill="#1631A4"></path>
                            <ellipse id="Oval" fill="#3066B3" transform="translate(196.526928, 420.479679) rotate(-1.920000) translate(-196.526928, -420.479679) " cx="196.526928" cy="420.479679" rx="56.9485493" ry="18.1044487"></ellipse>
                            <ellipse id="Oval" fill="#FF911E" transform="translate(194.682267, 408.193060) rotate(-1.718358) translate(-194.682267, -408.193060) " cx="194.682267" cy="408.19306" rx="51.8120811" ry="16.4723979"></ellipse>
                            <path d="M247.477756,402.321083 C247.789555,411.373308 224.857253,419.550484 196.27234,420.505996 C167.687427,421.461509 144.262282,414.873501 143.9706,405.781044 C143.678917,396.688588 166.591103,388.551644 195.176015,387.596132 C223.760928,386.640619 247.176015,393.208511 247.477756,402.321083 Z" id="Path" fill="#FEBB46"></path>
                            <polygon id="Path" fill="#3066B3" points="89.7678917 454.874275 89.7678917 438.17795 226.838685 453.043714 226.838685 471.5706"></polygon>
                            <polygon id="Path" fill="#052F5F" points="299.9706 408.134623 299.9706 425.414313 226.838685 471.5706 226.838685 453.043714"></polygon>
                            <path d="M259.356286,439.274275 L286.331915,442 C287.993288,442.170098 289.257177,443.568628 289.258801,445.238685 L289.258801,456.010832 C289.258801,456.010832 286.512959,460.677756 279.653385,458.897485 L279.653385,454.441779 C279.656409,452.764391 278.385631,451.358702 276.716441,451.193037 L257.485493,449.29207 C257.485493,449.29207 253.864603,442.985687 259.356286,439.274275 Z" id="Path" fill="#FF911E"></path>
                            <path d="M276.827079,428.170213 L303.802708,430.88588 C305.471898,431.051546 306.742676,432.457235 306.739652,434.134623 L306.739652,444.90677 C306.739652,444.90677 303.99381,449.573694 297.134236,447.783366 L297.134236,443.32766 C297.136783,441.652311 295.864909,440.249765 294.197292,440.088975 L274.905996,438.17795 C274.905996,438.17795 271.335397,431.871567 276.827079,428.170213 Z" id="Path" fill="#FEBB46"></path>
                            <polygon id="Path" fill="#007EA7" points="149.864603 233.889362 156.653772 244.108317 160.978723 235.257253 153.163636 230.529981"></polygon>
                            <path d="M163.734623,382.305609 L161.391103,400.993424 C161.391103,400.993424 165.504836,408.677756 176.347389,403.397292 C187.189942,398.116828 191.595358,393.610832 191.595358,393.610832 C191.595358,393.610832 192.128433,387.777176 187.572147,386.912186 C183.015861,386.047195 181.034429,387.425145 180.259961,385.56441 C179.485493,383.703675 176.478143,380.97795 176.478143,380.97795 L163.734623,382.305609 Z" id="Path" fill="#1631A4"></path>
                            <path d="M148.426306,237.369439 C148.426306,237.369439 156.472727,237.097872 158.715667,233.939652 C160.958607,230.781431 160.978723,212.053385 160.978723,212.053385 L152.338878,130.754352 C152.338878,130.754352 137.171373,129.929594 133.610832,157.57911 C129.466925,189.664217 128.461122,195.578337 130.523017,202.377563 C132.584913,209.176789 148.426306,237.369439 148.426306,237.369439 Z" id="Path" fill="#FEBB46"></path>
                            <path d="M204.17795,398.569439 L202.166344,414.028627 C202.166344,414.028627 206.692456,418.967118 216.991876,415.124952 C227.291296,411.282785 235.096325,403.397292 235.096325,403.397292 C235.096325,403.397292 234.412379,395.823598 228.508317,395.531915 C222.604255,395.240232 218.108317,397.855319 217.132689,395.793424 C216.15706,393.731528 213.109478,392.353578 213.109478,392.353578 L204.17795,398.569439 Z" id="Path" fill="#1631A4"></path>
                            <path d="M157.277369,232.441006 C157.277369,232.441006 152.338878,242.25764 155.426692,253.230948 C158.514507,264.204255 160.837911,294.800774 160.837911,302.072727 C160.837911,309.344681 162.62824,380.97795 162.62824,380.97795 C162.62824,380.97795 169.347002,390.905222 181.356286,385.081625 C181.28588,383.844487 192.128433,316.757447 191.575242,311.959768 C191.02205,307.162089 179.505609,235.951257 179.505609,235.951257 L157.277369,232.441006 Z" id="Path" fill="#3066B3"></path>
                            <path d="M162.62824,230.841779 C162.62824,230.841779 160.707157,249.258027 168.391489,258.310251 C176.075822,267.362476 188.024758,310.119149 190.418569,323.586847 C192.812379,337.054545 202.166344,397.533462 202.166344,397.533462 C202.166344,397.533462 212.455706,404.061122 218.772147,395.521857 C218.772147,395.521857 214.306383,277.581431 213.592263,267.664217 C212.878143,257.747002 210.665377,238.787621 210.665377,238.787621 C210.665377,238.787621 187.622437,232.893617 186.807737,232.430948 C185.993037,231.968279 162.62824,230.841779 162.62824,230.841779 Z" id="Path" fill="#052F5F"></path>
                            <path d="M156.834816,225.802708 C156.834816,225.802708 155.08472,226.335783 155.426692,231.897872 C155.768665,237.459961 201.693617,241.704449 208.734236,239.652611 C215.774855,237.600774 211.218569,230.529981 211.218569,230.529981 L162.940039,224.696325 L156.834816,225.802708 Z" id="Path" fill="#FF911E"></path>
                            <path d="M190.710251,123.924952 C190.710251,123.924952 186.395358,123.190716 184.947002,130.402321 L184.947002,130.402321 L183.518762,137.603868 L164.408511,133.580658 L171.992263,115.667311 L176.95087,117.849903 L190.710251,123.924952 Z" id="Path" fill="#007EA7"></path>
                            <path d="M211.218569,230.529981 C211.218569,230.529981 197.660348,230.912186 187.139652,230.821663 C183.548936,230.821663 180.310251,230.700967 178.087427,230.529981 C178.087427,230.529981 159.5706,230.318762 155.456867,224.354352 C151.343133,218.389942 140.631335,147.621663 140.631335,147.621663 C140.631335,147.621663 138.800774,131.538878 152.338878,130.754352 L194.522244,136.105222 C194.522244,136.105222 200.697872,137.191489 200.697872,147.661896 C200.697872,152.167892 203.051451,166.34971 205.726886,181.074662 L205.726886,181.074662 C209.297485,200.60735 213.451451,221.085493 213.451451,221.085493 C213.451451,221.085493 214.286267,227.442166 211.218569,230.529981 Z" id="Path" fill="#FFD648"></path>
                            <path d="M228.759768,198.354352 C228.759768,198.354352 230.12766,196.433269 228.759768,192.178723 C227.391876,187.924178 227.110251,187.2 228.206576,183.247195 C229.302901,179.294391 232.461122,176.95087 233.416634,177.212379 C234.372147,177.473888 234.110638,181.979884 233.829014,183.247195 C233.829014,183.247195 237.258801,179.515667 237.67118,177.212379 C238.083559,174.909091 238.767505,167.2147 240.145455,167.083946 C241.523404,166.953191 242.609671,169.276596 242.338104,172.022437 C242.066538,174.768279 248.101354,179.978337 248.372921,182.724178 C248.644487,185.470019 250.575629,192.329594 248.372921,194.663056 C246.170213,196.996518 235.206963,206.048743 235.206963,206.048743 L228.759768,198.354352 Z" id="Path" fill="#007EA7"></path>
                            <path d="M190.710251,123.924952 C190.710251,123.924952 186.395358,123.190716 184.947002,130.402321 C181.929594,124.246809 174.245261,120.112959 174.245261,120.112959 L176.95087,117.870019 L190.710251,123.924952 Z" id="Path" fill="#13293D"></path>
                            <path d="M211.218569,230.529981 C211.218569,230.529981 197.660348,230.912186 187.139652,230.821663 C187.471567,230.218182 195.779497,214.618182 185.278917,190.499033 C174.567118,165.917215 182.502901,151.986847 182.502901,151.986847 L200.084333,166.96325 L205.736944,181.044487 L205.736944,181.044487 C209.307544,200.577176 213.461509,221.055319 213.461509,221.055319 C213.461509,221.055319 214.286267,227.442166 211.218569,230.529981 Z" id="Path" fill="#FEBB46"></path>
                            <path d="M194.220503,94.0827853 C194.220503,94.3845261 196.07118,106.635203 195.035203,113.63559 C193.999226,120.635977 193.808124,124.337331 192.359768,124.69942 C190.911412,125.061509 174.255319,120.062669 174.255319,120.062669 L162.940039,105.911025 C162.940039,105.911025 172.716441,87.9071567 173.12882,88.1183752 C173.541199,88.3295938 193.395745,86.4990329 194.220503,94.0827853 Z" id="Path" fill="#007EA7"></path>
                            <path d="M228.478143,194.512186 C234.134811,195.08235 238.670038,199.443145 239.461509,205.073114 C239.461509,205.073114 222.855706,227.572921 216.680077,227.572921 C210.504449,227.572921 185.811992,186.33501 183.066151,170.503675 C180.320309,154.67234 181.265764,138.398453 193.969052,135.994584 C206.67234,133.590716 208.995745,182.030174 214.487427,192.319536 C219.97911,202.608897 221.759381,202.739652 223.539652,200.687814 C225.319923,198.635977 228.478143,194.512186 228.478143,194.512186 Z" id="Path" fill="#FFD648"></path>
                            <path d="M179.14352,108.48588 C179.14352,108.48588 183.47853,99.162089 188.286267,98.7497099 C193.094004,98.3373308 194.441779,95.7323017 194.441779,95.7323017 L193.11412,85.5736944 L176.105996,93.8112186 C176.105996,93.8112186 179.475435,104.372147 179.14352,108.48588 Z" id="Path" fill="#13293D"></path>
                            <path d="M177.544294,103.13501 C177.544294,103.13501 173.631721,97.3717602 170.855706,102.52147 C168.079691,107.67118 173.74236,112.710251 176.105996,112.086654 L177.021277,112.649903 L174.235203,120.16325 L169.276596,122.074275 C169.276596,122.074275 148.627466,113.424371 153.022824,92.5338491 C157.418182,71.6433269 179.294391,71.9551257 190.720309,75.5156673 C202.146228,79.0762089 211.198453,69.4808511 211.198453,69.4808511 C211.198453,69.4808511 206.772921,96.7381044 194.441779,95.7323017 C182.110638,94.726499 179.14352,108.445648 179.14352,108.445648 C179.14352,108.445648 179.565957,105.196905 177.544294,103.13501 Z" id="Path" fill="#133C55"></path>
                            <path d="M260.110638,273.005029 L247.477756,402.321083 C247.789555,411.373308 224.857253,419.550484 196.27234,420.505996 C167.687427,421.461509 144.262282,414.873501 143.9706,405.781044 L109.220116,274.12147 L260.110638,273.005029 Z" id="Path" fill="url(#linearGradient-3)"></path>
                        </g>
                    </g>
                </g>
            </g>
        </g>
    </g>
</svg>