<?xml version="1.0" encoding="UTF-8"?>
<svg width="457px" height="289px" viewBox="0 0 457 289" version="1.1" xmlns="http://www.w3.org/2000/svg" xmlns:xlink="http://www.w3.org/1999/xlink">
    <!-- Generator: Sketch 53.2 (72643) - https://sketchapp.com -->
    <title>Online Rating</title>
    <desc>Created with Sketch.</desc>
    <defs>
        <linearGradient x1="51.5092502%" y1="43.1454615%" x2="57.8481013%" y2="55.3250669%" id="linearGradient-1">
            <stop stop-color="#FFD657" offset="0%"></stop>
            <stop stop-color="#FFD652" offset="52%"></stop>
            <stop stop-color="#FFD648" offset="100%"></stop>
        </linearGradient>
    </defs>
    <g id="Landing-Page" stroke="none" stroke-width="1" fill="none" fill-rule="evenodd">
        <g id="Landing-Page-Desktop-HD" transform="translate(-781.000000, -1036.000000)" fill-rule="nonzero">
            <g id="Section-2-:-Growth" transform="translate(0.000000, 850.000000)">
                <g id="Group-8" transform="translate(134.000000, 8.000000)">
                    <g id="Online-Rating" transform="translate(613.000000, 178.000000)">
                        <path d="M57.092723,212.501174 C57.092723,212.501174 31.2206573,206.470657 36.3884977,195.39554 C41.556338,184.320423 54.463615,195.806338 46.4037559,178.577465 C38.3438967,161.348592 29.5856808,162.967136 43.8732394,146.90493 C58.1607981,130.842723 36.2159624,103.220657 46.4037559,97.2394366 C56.5915493,91.258216 64.6431925,134.309859 77.0492958,143.248826 C89.4553991,152.187793 70.0164319,172.374413 75.3321596,183.014085 C80.6478873,193.653756 95.3298122,193.612676 83.6795775,204.794601 C72.0293427,215.976526 57.092723,212.501174 57.092723,212.501174 Z" id="Path" fill="#3066B3"></path>
                        <path d="M67.0751174,211.038732 C66.3110329,211.038732 64.1255869,210.217136 60.5023474,202.264085 C54.8415493,189.940141 55.7124413,156.81338 58.0375587,143.585681 C60.1901408,131.426056 50.6431925,104.872066 50.6431925,104.872066 C51.1115023,105.940141 62.0140845,131.212441 59.7629108,143.897887 C57.4542254,156.93662 56.5504695,189.529343 62.0715962,201.524648 C65.3579812,208.664319 67.165493,209.264085 67.1901408,209.2723 C67.143767,209.266458 67.0968433,209.266458 67.0504695,209.2723 L67.0751174,211.038732 Z" id="Path" fill="#052F5F"></path>
                        <path d="M57.3474178,169.868545 L56.3943662,168.365023 C71.5692488,158.703052 74.4694836,150.215962 74.4694836,150.133803 C74.4694836,150.051643 73.064554,159.820423 57.3474178,169.868545 Z" id="Path" fill="#052F5F"></path>
                        <polygon id="Path" fill="#052F5F" points="56.4847418 158.620892 45.5410798 148.65493 57.6924883 157.306338"></polygon>
                        <path d="M59.4507042,133.800469 L57.8075117,133.176056 C60.7570423,129.207746 59.3603286,115.232394 59.3603286,115.232394 C59.4589202,115.643192 62.334507,126.093897 59.4507042,133.800469 Z" id="Path" fill="#052F5F"></path>
                        <path d="M55.1701878,119.693662 C51.8262911,116.760563 48.4988263,113.170188 48.4002347,113.038732 C50.4164475,115.113714 52.8086593,116.78659 55.4495305,117.96831 L55.1701878,119.693662 Z" id="Path" fill="#052F5F"></path>
                        <path d="M56.8380282,185.947183 C47.2089202,178.133803 45.9518779,168.077465 45.9518779,168.077465 C48.3895154,174.557536 52.5411657,180.253986 57.963615,184.558685 L56.8380282,185.947183 Z" id="Path" fill="#052F5F"></path>
                        <path d="M61.3732394,207.661972 C61.1596244,207.514085 40.2746479,192.511737 45.7629108,173.409624 C50.8485915,155.61385 35.2629108,146.592723 34.5974178,146.223005 L35.4765258,144.661972 C35.649061,144.760563 52.9518779,154.734742 47.4800469,173.902582 C42.3697183,191.7723 62.2687793,206.059859 62.4330986,206.207746 L61.3732394,207.661972 Z" id="Path" fill="#052F5F"></path>
                        <path d="M68.67723,203.266432 C68.4800469,202.338028 64.0269953,180.426056 75.4061033,164.40493 C86.0868545,149.42723 82.4307512,143.865023 82.3896714,143.799296 L83.8028169,142.755869 C83.991784,143.010563 88.370892,149.213615 76.8356808,165.440141 C65.9166667,180.820423 70.3450704,202.683099 70.3943662,202.90493 L68.67723,203.266432 Z" id="Path" fill="#052F5F"></path>
                        <path d="M68.5622066,215.204225 C68.5622066,215.204225 73.943662,183.548122 59.6561033,172.596244 C59.6561033,172.596244 49.8544601,198.08216 68.5622066,215.204225 Z" id="Path" fill="#FFD655"></path>
                        <path d="M68.5622066,215.204225 C68.5622066,215.204225 57.5774648,196.857981 43.9143192,193.062207 C43.9143192,193.062207 41.8356808,206.100939 68.5622066,215.204225 Z" id="Path" fill="#FEBB46"></path>
                        <path d="M474.241784,278.664319 C474.241784,278.664319 489.950704,260.055164 484.339202,244.707746 C484.339202,244.707746 470.076291,256.390845 474.241784,278.664319 Z" id="Path" fill="#FF911E"></path>
                        <path d="M474.241784,278.664319 C474.241784,278.664319 482.055164,257.976526 461.860329,246.194836 C461.860329,246.194836 459.091549,266.488263 474.241784,278.664319 Z" id="Path" fill="#FFBC47"></path>
                        <path d="M68.5622066,215.204225 C68.5622066,215.204225 66.3356808,194.516432 80.5903756,185.717136 C80.5903756,185.717136 81.6502347,208.532864 68.5622066,215.204225 Z" id="Path" fill="#FEBB46"></path>
                        <circle id="Oval" fill="#FFD648" transform="translate(83.778581, 143.743253) rotate(-76.660000) translate(-83.778581, -143.743253) " cx="83.7785814" cy="143.743253" r="8.1584507"></circle>
                        <polygon id="Path" fill="#E6E6E6" points="43.8732394 209.017606 84.9859155 209.017606 83.9178404 215.212441 44.7030516 215.212441"></polygon>
                        <path d="M47.7758216,215.204225 L50.6678404,230.86385 C50.6678404,230.86385 64.0352113,236.820423 77.6983568,230.86385 L80.2453052,215.204225 L47.7758216,215.204225 Z" id="Path" fill="#BDCCD3"></path>
                        <rect id="Rectangle" fill="#FFFFFF" x="124.093897" y="0.981220657" width="333.214789" height="193.034038" rx="11.29"></rect>
                        <path d="M457.308685,10.2652582 L457.308689,21.7676056 L124.102109,21.7676056 L124.102113,10.2652582 C124.09993,7.80448895 125.076501,5.44387914 126.816528,3.70385182 C128.556555,1.9638245 130.917165,0.987254118 133.377934,0.98943662 L448.049296,0.98943662 C450.507218,0.991614663 452.863605,1.97010976 454.600077,3.70966396 C456.33655,5.44921816 457.310865,7.80733609 457.308685,10.2652582 L457.308685,10.2652582 Z" id="Path" fill="#3066B3"></path>
                        <rect id="Rectangle" fill="#007EA7" x="227.048122" y="194.023474" width="138.989437" height="19.4061033"></rect>
                        <path d="M227.048122,216.642019 L366.037559,216.642019 L366.037559,203.726526 C366.037559,203.726526 347.724178,208.245305 295.70892,208.245305 C272.747503,208.251072 249.810733,206.741532 227.048122,203.726526 L227.048122,216.642019 Z" id="Path" fill="#13293D"></path>
                        <path d="M422.859167,235.004695 L155.57744,235.004695 C155.56873,229.277011 157.839614,223.781285 161.888932,219.730425 C165.93825,215.679566 171.433111,213.40659 177.160798,213.413146 L401.284038,213.413146 C407.012454,213.410191 412.505965,215.689791 416.549296,219.747653 C417.307081,220.514528 418.004757,221.338555 418.63615,222.212441 C421.383009,225.911356 422.863951,230.397399 422.859167,235.004695 Z" id="Path" fill="#3066B3"></path>
                        <path d="M202.564554,84.3485915 L147.394366,84.3485915 C139.2277,84.3485915 132.605634,90.4612676 132.605634,97.9953052 L132.605634,113.457746 C132.605634,121 139.219484,127.10446 147.394366,127.10446 L202.564554,127.10446 L213.204225,134.260563 L213.204225,122.922535 C215.829051,120.468342 217.329359,117.042886 217.353286,113.449531 L217.353286,97.9953052 C217.353286,90.4612676 210.731221,84.3485915 202.564554,84.3485915 Z" id="Path" fill="#E1E1E1"></path>
                        <path d="M217.353286,49.7840376 C217.353286,41.6164462 210.732145,34.9953052 202.564554,34.9953052 L147.394366,34.9953052 C139.226775,34.9953052 132.605634,41.6164462 132.605634,49.7840376 L132.605634,58.6408451 C132.605634,66.8084364 139.226775,73.4295775 147.394366,73.4295775 L202.564554,73.4295775 L213.204225,80.5856808 L213.204225,68.8943662 L213.204225,68.8943662 C215.866624,66.1452229 217.354654,62.4678746 217.353286,58.6408451 L217.353286,49.7840376 Z" id="Path" fill="#E1E1E1"></path>
                        <rect id="Rectangle" fill="#F9F9FB" x="141.32277" y="44.0821596" width="66.5657277" height="1.78286385"></rect>
                        <rect id="Rectangle" fill="#F9F9FB" x="141.32277" y="50.6138498" width="66.5657277" height="1.78286385"></rect>
                        <rect id="Rectangle" fill="#F9F9FB" x="141.32277" y="57.1537559" width="66.5657277" height="1.78286385"></rect>
                        <rect id="Rectangle" fill="#F9F9FB" x="141.32277" y="63.685446" width="66.5657277" height="1.78286385"></rect>
                        <rect id="Rectangle" fill="#F9F9FB" x="141.32277" y="92.1948357" width="66.5657277" height="1.78286385"></rect>
                        <rect id="Rectangle" fill="#F9F9FB" x="141.32277" y="98.7265258" width="66.5657277" height="1.78286385"></rect>
                        <rect id="Rectangle" fill="#F9F9FB" x="141.32277" y="105.258216" width="66.5657277" height="1.78286385"></rect>
                        <rect id="Rectangle" fill="#F9F9FB" x="141.32277" y="111.798122" width="66.5657277" height="1.78286385"></rect>
                        <rect id="Rectangle" fill="#F9F9FB" x="141.32277" y="118.329812" width="66.5657277" height="1.78286385"></rect>
                        <rect id="Rectangle" fill="#FEBB46" x="239.026995" y="65.7312207" width="20.786385" height="85.1338028"></rect>
                        <rect id="Rectangle" fill="#FFD648" x="275.25939" y="110.080986" width="20.786385" height="40.7840376"></rect>
                        <rect id="Rectangle" fill="#FF911E" x="311.491784" y="35.0035211" width="20.786385" height="115.853286"></rect>
                        <rect id="Rectangle" fill="#FEBB46" x="347.724178" y="52.8568075" width="20.786385" height="98"></rect>
                        <rect id="Rectangle" fill="#FFD648" x="383.956573" y="72.4600939" width="20.786385" height="78.4049296"></rect>
                        <path d="M142.514085,11.6784038 C142.514085,14.4009342 140.307037,16.6079812 137.584507,16.6079812 C134.861977,16.6079812 132.65493,14.4009342 132.65493,11.6784038 C132.65493,8.9558733 134.861977,6.74882629 137.584507,6.74882629 C138.891912,6.74882629 140.14577,7.268191 141.070245,8.1926661 C141.99472,9.11714121 142.514085,10.3709985 142.514085,11.6784038 L142.514085,11.6784038 Z" id="Path" fill="#FF911E"></path>
                        <circle id="Oval" fill="#FEBB46" cx="137.559859" cy="11.6784038" r="2.47300469"></circle>
                        <path d="M160.926056,11.6784038 C160.926056,14.4009342 158.719009,16.6079812 155.996479,16.6079812 C153.273948,16.6079812 151.066901,14.4009342 151.066901,11.6784038 C151.066901,8.9558733 153.273948,6.74882629 155.996479,6.74882629 C158.719009,6.74882629 160.926056,8.9558733 160.926056,11.6784038 Z" id="Path" fill="#FF911E"></path>
                        <path d="M158.453052,11.6784038 C158.453052,13.039669 157.349528,14.1431925 155.988263,14.1431925 C154.626998,14.1431925 153.523474,13.039669 153.523474,11.6784038 C153.523474,10.3171385 154.626998,9.21361502 155.988263,9.21361502 C157.349528,9.21361502 158.453052,10.3171385 158.453052,11.6784038 Z" id="Path" fill="#FEBB46"></path>
                        <path d="M179.338028,11.6784038 C179.338028,14.4009342 177.130981,16.6079812 174.408451,16.6079812 C171.68592,16.6079812 169.478873,14.4009342 169.478873,11.6784038 C169.478873,8.9558733 171.68592,6.74882629 174.408451,6.74882629 C177.130981,6.74882629 179.338028,8.9558733 179.338028,11.6784038 L179.338028,11.6784038 Z" id="Path" fill="#FF911E"></path>
                        <circle id="Oval" fill="#FEBB46" cx="174.383803" cy="11.6784038" r="2.47300469"></circle>
                        <path d="M422.8592,235.004695 L155.577447,235.004695 C155.571671,230.523298 156.964683,226.151825 159.562207,222.5 C199.902582,230.165493 332.278169,230.929577 372.66784,229.516432 C406.016432,228.341549 417.913146,221.859155 417.913146,221.859155 L418.627934,222.179577 C421.384446,225.886486 422.868657,230.385232 422.8592,235.004695 Z" id="Path" fill="#052F5F"></path>
                        <path d="M457.308689,181.502347 L457.308685,184.747653 C457.310868,187.208422 456.334298,189.569032 454.59427,191.309059 C452.854243,193.049086 450.493633,194.025657 448.032864,194.023474 L133.361502,194.023474 C130.897134,194.030023 128.531455,193.055643 126.786567,191.315379 C125.041678,189.575114 124.061024,187.21203 124.061033,184.747653 L124.061033,181.502347 L457.308689,181.502347 Z" id="Path" fill="#3066B3"></path>
                        <path d="M278.874413,159.762911 L367.606808,159.762911 C369.521127,159.762911 371.073944,161.874413 371.073944,164.478873 L371.073944,171.092723 C371.073944,173.697183 369.521127,175.808685 367.606808,175.808685 L278.874413,175.808685 C276.951878,175.808685 275.407277,173.697183 275.407277,171.092723 L275.407277,164.478873 C275.407277,161.874413 276.951878,159.762911 278.874413,159.762911 Z" id="Path" fill="#3066B3"></path>
                        <polygon id="Path" fill="#007EA7" points="457.012911 77.7593897 456.766432 83.0011737 460.742958 85.3262911 467.899061 83.3955399 467.504695 75.1795775"></polygon>
                        <path d="M467.044601,76.5434272 C467.044601,76.5434272 462.599765,81.4730047 460.323944,81.2018779 C458.864609,80.9027067 457.626481,79.943765 456.971831,78.6056338 L461.671362,76.5434272 L467.044601,76.5434272 Z" id="Path" fill="#13293D"></path>
                        <path d="M455.08216,63.2007042 C455.08216,63.2007042 454.046948,71.5152582 454.884977,74.3415493 C455.723005,77.1678404 457.062207,79.1396714 457.957746,79.3368545 C458.853286,79.5340376 460.67723,79.9859155 464.144366,78.3016432 C466.255547,77.2623898 468.164213,75.8545398 469.780516,74.1443662 L472.705399,72.9037559 C472.705399,72.9037559 475.671362,68.6478873 475.474178,68.5 C475.276995,68.3521127 474.143192,64.1455399 473.247653,63.9976526 C472.352113,63.8497653 468.942488,60.1361502 468.745305,59.8403756 C468.548122,59.5446009 457.062207,59.8403756 457.062207,59.8403756 C457.062207,59.8403756 455.279343,61.4178404 455.08216,63.2007042 Z" id="Path" fill="#007EA7"></path>
                        <path d="M398.671362,61.7382629 C397.919502,61.3119712 397.070862,61.0856671 396.206573,61.0809859 C394.818075,61.0809859 392.377934,61.9025822 390.529343,61.0809859 C388.680751,60.2593897 385.9777,58.7640845 386.174883,58.3697183 C386.372066,57.9753521 387.037559,56.9812207 389.017606,57.3180751 C390.137723,57.5135154 391.273944,57.6015519 392.410798,57.5809859 C392.410798,57.5809859 392.115023,54.1467136 391.392019,53.6866197 C389.970748,53.2689839 388.507612,53.0099729 387.029343,52.9143192 L385.517606,52.758216 C385.517606,52.758216 385.911972,49.9976526 386.774648,49.5950704 C387.637324,49.1924883 390.882629,48.0093897 392.451878,48.2147887 C394.021127,48.4201878 399.566901,50.0633803 400.100939,50.9835681 C400.634977,51.9037559 402.565728,57.2441315 403.066901,57.7124413 C403.568075,58.1807512 398.671362,61.7382629 398.671362,61.7382629 Z" id="Path" fill="#007EA7"></path>
                        <path d="M400.980047,64.3920188 C400.980047,64.3920188 401.021127,67.9084507 402.508216,69.9870892 C403.995305,72.0657277 415.834507,88.6948357 419.392019,90.5762911 C422.949531,92.4577465 441.476526,100.85446 443.661972,100.969484 C449.199531,101.32277 456.043427,91.1103286 448.714789,86.4683099 C441.38615,81.8262911 428.092723,82.1220657 425.052817,80.971831 C422.267606,79.9201878 410.264085,61.1138498 405.769953,60.4319249 L400.980047,64.3920188 Z" id="Path" fill="#FEBB46"></path>
                        <path d="M398.112676,62.165493 C397.944394,63.1942997 398.222279,64.2460829 398.876761,65.0575117 C401.25939,67.6373239 406.805164,60.9495305 406.172535,58.9941315 C405.792568,57.6257363 404.468173,56.7416415 403.058685,56.915493 C401.111502,57.2030516 398.112676,62.165493 398.112676,62.165493 Z" id="Path" fill="#FF911E"></path>
                        <path d="M475.482394,108.988263 C474.751174,133.940141 469.484742,136.018779 469.484742,136.018779 L462.994131,135.517606 L436.127934,133.438967 C428.503521,126.118545 433.57277,114.944836 435.232394,111.855634 C437.910798,106.926056 439.29108,106.712441 443.053991,96.1220657 C446.816901,85.5316901 447.556338,85.8110329 447.556338,85.8110329 C447.556338,85.8110329 449.388498,84.3403756 454.61385,84.3403756 C458.089202,84.3403756 468.49061,84.7429577 468.49061,84.7429577 C473.625587,85.6467136 475.548122,84.5786385 475.646714,98.1842723 C475.704225,101.068075 475.61385,104.617371 475.482394,108.988263 Z" id="Path" fill="#FFD648"></path>
                        <path d="M468.91784,68.4014085 C468.91784,68.4014085 467.627934,64.4741784 462.34507,65.0657277 C457.062207,65.657277 455.090376,63.2007042 455.090376,63.2007042 L458.647887,59.7089202 L471.316901,64.0551643 L468.91784,68.4014085 Z" id="Path" fill="#13293D"></path>
                        <path d="M468.91784,68.4014085 C468.91784,68.4014085 469.632629,65.1150235 471.56338,66.758216 C473.494131,68.4014085 469.681925,72.0328638 468.91784,71.7370892 L467.553991,76.2065728 L467.652582,78.3180751 C467.652582,78.3180751 475.65493,75.6478873 476.764085,71.1866197 C478.251174,65.2053991 474.299296,64.0633803 474.299296,64.0633803 C474.299296,64.0633803 477.265258,51.5176056 463.232394,53.4483568 C450.571596,55.1901408 447.564554,50.4741784 447.564554,50.4741784 C447.564554,50.4741784 447.342723,61.6889671 455.065728,63.241784 C462.788732,64.7946009 467.233568,61.6478873 468.91784,68.4014085 Z" id="Path" fill="#133C55"></path>
                        <path d="M437.311033,225.91784 C437.311033,225.91784 434.34507,230.748826 432.16784,231.669014 C429.99061,232.589202 425.134977,235.826291 424.937793,237.107981 C424.74061,238.389671 432.266432,240.476526 438.502347,238.33216 C441.164319,237.420188 447.605634,234.437793 447.605634,234.437793 C447.605634,234.437793 446.323944,226.024648 445.231221,224.931925 L437.311033,225.91784 Z" id="Path" fill="#13293D"></path>
                        <path d="M461.465962,226.649061 C461.465962,226.649061 459.683099,234.610329 459.485915,236.508216 C459.485915,236.508216 472.557512,242.053991 475.326291,241.955399 C478.09507,241.856808 482.260563,241.059859 482.556338,239.276995 C482.852113,237.494131 474.537559,233.139671 473.937793,232.646714 C473.338028,232.153756 470.478873,227.199531 470.478873,227.199531 L461.465962,226.649061 Z" id="Path" fill="#13293D"></path>
                        <path d="M433.548122,141.161972 C433.548122,141.161972 427.616197,173.828638 427.796948,177.394366 C427.9777,180.960094 436.111502,225.507042 436.111502,225.507042 C436.111502,225.507042 442.051643,228.078638 446.792254,225.507042 C446.792254,225.507042 443.826291,180.557512 444.812207,177.985915 C445.798122,175.414319 454.712441,160.362676 454.909624,159.771127 C455.106808,159.179577 451.960094,138.705399 451.960094,138.705399 L439.266432,136.010563 L433.548122,141.161972 Z" id="Path" fill="#133C55"></path>
                        <path d="M444.828638,138.647887 L445.650235,149.476526 C445.759856,150.899951 446.590806,152.168079 447.852113,152.836854 L449.388498,153.658451 C449.388498,153.658451 454.318075,178.372066 454.942488,183.720657 C455.566901,189.069249 460.282864,226.640845 460.282864,226.640845 C460.282864,226.640845 466.034038,231.233568 471.357981,227.676056 C471.357981,227.676056 471.744131,189.701878 471.357981,183.843897 C470.971831,177.985915 469.402582,144.119718 469.402582,144.119718 C469.402582,144.119718 457.982394,134.589202 451.984742,136.002347 C445.987089,137.415493 444.828638,138.647887 444.828638,138.647887 Z" id="Path" fill="#007EA7"></path>
                        <path d="M482.286885,148.615779 C482.286885,148.615779 486.260246,152.201844 486.47541,155.379098 C486.690574,158.556352 486.805328,162.11373 485.593238,161.453893 C484.381148,160.794057 484.259221,156.268443 483.054303,155.909836 C481.849385,155.55123 481.512295,161.088115 482.286885,162.522541 C483.061475,163.956967 485.320697,167.822746 484.244877,168.482582 C483.169057,169.142418 478.865779,164.179303 477.431352,160.320697 C475.996926,156.46209 475,143 475,143 L482.616803,143.796107 L482.286885,148.615779 Z" id="Path" fill="#007EA7" transform="translate(480.805944, 155.771045) scale(-1, 1) translate(-480.805944, -155.771045) "></path>
                        <path d="M475.482394,108.988263 C474.751174,133.940141 469.484742,136.018779 469.484742,136.018779 L462.994131,135.517606 L460.742958,133.619718 C473.888498,130.801643 471.530516,117.434272 469.402582,107.788732 C468.055164,101.659624 469.599765,91.7265258 469.599765,91.7265258 L475.646714,98.1842723 C475.704225,101.068075 475.61385,104.617371 475.482394,108.988263 Z" id="Path" fill="#FEBB46"></path>
                        <path d="M490.271127,117.803991 C489.778169,131.261737 487.633803,141.57277 486.023474,141.548122 L480.872066,144.423709 L478.5223,143.002347 C478.5223,143.002347 477.158451,141.753521 478.5223,136.807512 C479.068628,134.84095 479.428976,132.827406 479.598592,130.793427 L479.598592,130.793427 C479.982398,125.389756 478.963558,119.978583 476.640845,115.084507 C476.336854,114.42723 476.016432,113.745305 475.65493,113.06338 C470.183099,102.571596 465.869718,89.8861502 473.609155,86.3039906 C479.861502,83.3955399 490.755869,104.338028 490.271127,117.803991 Z" id="Path" fill="#FFD648"></path>
                        <path d="M478.09507,147.340376 C481.185324,146.277531 484.371717,145.51808 487.609155,145.07277 C488.019777,144.632652 488.214788,144.033497 488.141884,143.436003 C488.06898,142.838508 487.735623,142.303823 487.231221,141.975352 C485.374413,140.496479 477.429577,142.796948 476.911972,144.127934 C476.394366,145.45892 476.525822,146.469484 478.09507,147.340376 Z" id="Path" fill="#FF911E"></path>
                        <path d="M447.137324,138.54108 C447.137324,138.54108 449.470657,150.388498 451.984742,153.066901 C451.984742,153.066901 458.261737,143.166667 469.402582,144.127934 L467.75939,138.269953 C467.75939,138.269953 449.807512,136.593897 447.137324,138.54108 Z" id="Path" fill="#FFFFFF"></path>
                        <polygon id="Path" fill="#FFFFFF" points="444.302817 138.705399 440.679577 146.280516 435.774648 140.406103 434.961268 136.339202"></polygon>
                        <path d="M433.548122,141.161972 C433.548122,141.161972 430.187793,136.010563 436.127934,133.438967 C442.068075,130.867371 467.471831,133.59507 469.484742,136.010563 C472.951878,140.16784 470.807512,143.733568 469.402582,144.127934 C458.463504,137.931888 445.356641,136.847659 433.548122,141.161972 Z" id="Path" fill="#FF911E"></path>
                        <path d="M460.75939,83.8556338 L467.775822,80.6924883 L468.219484,82.7382629 C466.484206,83.5617376 464.633521,84.1158348 462.731221,84.3814554 C460.422535,84.463615 460.75939,83.8556338 460.75939,83.8556338 Z" id="Path" fill="#FFFFFF"></path>
                        <path d="M460.75939,83.8556338 L456.807512,81.6948357 C456.807512,81.6948357 456.265258,82.2124413 456.807512,83.3955399 C457.349765,84.5786385 460.75939,83.8556338 460.75939,83.8556338 Z" id="Path" fill="#FFFFFF"></path>
                        <path d="M455.032864,85.7288732 C455.032864,85.7288732 453.899061,83.6091549 455.032864,82.6971831 C455.665493,82.1713615 457.357981,83.6830986 460.488263,83.8474178 C464.793427,84.0692488 468.2277,82.3603286 468.622066,82.8039906 C469.443662,83.6995305 467.923709,86.4190141 467.923709,86.4190141 C467.923709,86.4190141 460.134977,89.2617371 455.032864,85.7288732 Z" id="Path" fill="#FF911E"></path>
                        <path d="M392.435446,57.5809859 L336.632629,51.4765258 C336.13387,50.9453671 336.13387,50.1180131 336.632629,49.5868545 L387.053991,52.9143192 C388.53226,53.0099729 389.995396,53.2689839 391.416667,53.6866197 C392.139671,54.1467136 392.435446,57.5809859 392.435446,57.5809859 Z" id="Path" fill="#052F5F"></path>
                        <path d="M485.818075,122.454225 C485.818075,122.454225 480.773474,122.454225 479.598592,130.776995 C479.982398,125.373324 478.963558,119.962151 476.640845,115.068075 C476.640845,115.068075 480.173709,121.85446 485.818075,122.454225 Z" id="Path" fill="#FEBB46"></path>
                        <path d="M478.119718,147.816901 C478.078638,147.693662 477.758216,147.685446 477.396714,147.816901 C477.035211,147.948357 476.7723,148.129108 476.81338,148.252347 C476.85446,148.375587 477.183099,148.392019 477.544601,148.252347 C477.906103,148.112676 478.169014,147.948357 478.119718,147.816901 Z" id="Path" fill="#01008A"></path>
                        <polygon id="Path" fill="#FF911E" points="168.008216 180.064554 173.176056 180.064554 215.964789 155.219484 218.092723 150.865023"></polygon>
                        <path d="M179.830986,177.38615 L179.830986,177.38615 C179.831317,176.062533 180.527047,174.836426 181.663146,174.157277 L205.152582,160.140845 C206.322744,159.438963 207.781578,159.427166 208.962938,160.110033 C210.144298,160.7929 210.862195,162.062923 210.838028,163.42723 L210.838028,163.788732 C210.826214,165.11777 210.114164,166.341995 208.964789,167.00939 L185.483568,180.664319 C184.315816,181.342493 182.874203,181.342929 181.70604,180.665463 C180.537877,179.987996 179.822303,178.736517 179.830986,177.38615 Z" id="Path" fill="#3066B3"></path>
                        <rect id="Rectangle" fill="#3066B3" x="172.510563" y="255.799296" width="39.7981221" height="5.19248826"></rect>
                        <rect id="Rectangle" fill="#052F5F" x="168.008216" y="259.841549" width="50.084507" height="6.72065728"></rect>
                        <polygon id="Path" fill="#FFD648" points="218.092723 256.982394 168.008216 256.982394 168.008216 185.70892 218.092723 156.698357"></polygon>
                        <polygon id="Path" fill="#FEBB46" points="168.008216 180.064554 168.008216 174.715962 218.092723 145.615023 218.092723 150.865023"></polygon>
                        <rect id="Rectangle" fill="#FEBB46" x="172.510563" y="206.840376" width="20.5399061" height="30.0375587"></rect>
                        <rect id="Rectangle" fill="#FF911E" x="172.510563" y="206.840376" width="1.98004695" height="30.0375587"></rect>
                        <path d="M193.223005,212.04108 L193.223005,212.04108 C193.644997,212.04108 193.987089,212.383172 193.987089,212.805164 L193.987089,215.335681 C193.987089,215.757673 193.644997,216.099765 193.223005,216.099765 L193.223005,216.099765 C192.801012,216.099765 192.45892,215.757673 192.45892,215.335681 L192.45892,212.805164 C192.45892,212.383172 192.801012,212.04108 193.223005,212.04108 Z" id="Path" fill="#052F5F"></path>
                        <path d="M193.223005,227.487089 L193.223005,227.487089 C193.425653,227.487089 193.62,227.567591 193.763294,227.710884 C193.906588,227.854178 193.987089,228.048526 193.987089,228.251174 L193.987089,230.773474 C193.987113,231.196816 193.646322,231.541271 193.223005,231.545775 L193.223005,231.545775 C193.018925,231.545786 192.823322,231.464158 192.67979,231.319083 C192.536258,231.174007 192.456726,230.977542 192.45892,230.773474 L192.45892,228.251174 C192.456698,228.047853 192.536486,227.852211 192.680264,227.708433 C192.824042,227.564655 193.019684,227.484867 193.223005,227.487089 Z" id="Path" fill="#052F5F"></path>
                        <polygon id="Path" fill="#FFFFFF" points="193.987089 206.840376 193.987089 236.877934 199.631455 239.161972 199.631455 205.312207"></polygon>
                        <polygon id="Path" fill="#E8E8E8" points="199.631455 205.312207 200.82277 205.558685 200.82277 238.866197 199.631455 239.161972"></polygon>
                        <path d="M200.223005,184.780516 C200.226327,186.875527 198.966441,188.765944 197.031538,189.569206 C195.096634,190.372468 192.868329,189.930149 191.38693,188.44875 C189.905532,186.967352 189.463213,184.739047 190.266475,182.804143 C191.069736,180.869239 192.960153,179.609353 195.055164,179.612676 C197.907408,179.6172 200.218481,181.928273 200.223005,184.780516 L200.223005,184.780516 Z" id="Path" fill="#052F5F"></path>
                        <path d="M201.414319,184.780516 C201.417643,186.87478 200.158648,188.764678 198.224753,189.568423 C196.290859,190.372167 194.063199,189.931356 192.581153,188.451663 C191.099107,186.97197 190.654758,184.745012 191.455429,182.809844 C192.256101,180.874675 194.143996,179.612679 196.238263,179.612676 C199.093714,179.612672 201.409787,181.925069 201.414319,184.780516 L201.414319,184.780516 Z" id="Path" fill="#3066B3"></path>
                        <path d="M211.799296,178.840376 C211.799296,180.823285 210.19183,182.430751 208.20892,182.430751 C206.226011,182.430751 204.618545,180.823285 204.618545,178.840376 C204.618545,176.857466 206.226011,175.25 208.20892,175.25 C209.161147,175.25 210.074373,175.628271 210.747699,176.301597 C211.421025,176.974923 211.799296,177.888149 211.799296,178.840376 L211.799296,178.840376 Z" id="Path" fill="#052F5F"></path>
                        <path d="M212.793427,178.840376 C212.79675,180.29736 211.921201,181.612575 210.575756,182.171675 C209.230312,182.730775 207.680503,182.423417 206.650257,181.393171 C205.62001,180.362924 205.312653,178.813116 205.871752,177.467671 C206.430852,176.122226 207.746067,175.246677 209.203052,175.25 C211.184087,175.254518 212.788909,176.85934 212.793427,178.840376 L212.793427,178.840376 Z" id="Path" fill="#3066B3"></path>
                        <path d="M188.359155,234.823944 C186.083333,234.823944 185.393192,232.170188 185.343897,230.600939 L185.343897,213.347418 C185.343897,213.150235 185.245305,211.285211 183.700704,211.285211 C182.156103,211.285211 182.057512,212.928404 182.057512,213.084507 L182.057512,230.666667 C182.016432,232.120892 181.293427,234.774648 178.894366,234.774648 C176.495305,234.774648 175.829812,232.112676 175.829812,230.707746 L175.829812,210.406103 L177.612676,210.406103 L177.612676,230.757042 C177.612676,230.757042 177.612676,233.049296 178.894366,233.049296 C180.176056,233.049296 180.274648,230.683099 180.274648,230.666667 L180.274648,213.076291 C180.245914,212.149057 180.590845,211.249144 181.231973,210.578664 C181.8731,209.908184 182.756682,209.523339 183.684272,209.510563 C186.321596,209.510563 187.052817,212.016432 187.077465,213.339202 L187.077465,230.592723 C187.077465,231.093897 187.365023,233.057512 188.309859,233.057512 C189.723005,233.057512 189.755869,230.592723 189.755869,230.592723 L189.755869,209.510563 L193.075117,209.510563 L193.075117,211.293427 L191.612676,211.293427 L191.612676,230.568075 C191.588028,232.038732 190.914319,234.823944 188.359155,234.823944 Z" id="Path" fill="#3066B3"></path>
                        <circle id="Oval" fill="#052F5F" cx="170.7277" cy="254.460094" r="1.33920188"></circle>
                        <circle id="Oval" fill="#052F5F" cx="215.274648" cy="254.460094" r="1.33920188"></circle>
                        <rect id="Rectangle" fill="#052F5F" x="218.092723" y="249.653756" width="2.62089202" height="6.13732394"></rect>
                        <path d="M308.180751,224.299296 C308.184076,226.024701 307.147275,227.58206 305.554162,228.244649 C303.961049,228.907238 302.125644,228.544452 300.90442,227.325581 C299.683197,226.10671 299.316871,224.272009 299.976386,222.677621 C300.635901,221.083232 302.191259,220.04343 303.916667,220.043427 C306.268451,220.043423 308.17622,221.947516 308.180751,224.299296 L308.180751,224.299296 Z" id="Path" fill="#052F5F"></path>
                        <path d="M220.713615,253.120892 L220.713615,253.120892 C220.713605,252.884129 220.808217,252.65718 220.976404,252.490537 C221.144591,252.323893 221.372402,252.231376 221.609155,252.233568 L344.692488,252.233568 C346.31421,252.12368 347.543372,250.725737 347.444836,249.103286 C347.48602,248.389747 347.230288,247.690943 346.738263,247.172535 C346.014433,246.572608 345.106727,246.239106 344.166667,246.2277 L295.306338,246.2277 C294.621924,246.278028 293.947515,246.040738 293.445405,245.572934 C292.943295,245.10513 292.65895,244.44917 292.660798,243.762911 C292.643718,243.174513 292.873032,242.605695 293.293427,242.193662 C293.907024,241.672599 294.690524,241.394866 295.495305,241.413146 L331.431925,241.413146 C331.760563,241.413146 333.896714,241.109155 333.896714,239.769953 C333.896714,238.430751 331.752347,238.126761 331.431925,238.085681 L308.024648,238.085681 C306.851041,238.11554 305.717597,237.657402 304.894366,236.820423 C303.021127,234.930751 303.029343,231.586854 303.029343,231.447183 L303.029343,225.194836 C303.033801,224.706639 303.42847,224.31197 303.916667,224.307512 L303.916667,224.307512 C304.408069,224.307491 304.807698,224.703454 304.812207,225.194836 L304.812207,231.447183 C304.812207,231.488263 304.812207,234.215962 306.159624,235.555164 C306.649751,236.051937 307.32749,236.317659 308.024648,236.286385 L331.423709,236.286385 C332.943662,236.384977 335.646714,237.223005 335.646714,239.753521 C335.646714,242.284038 332.943662,243.11385 331.481221,243.212441 L295.470657,243.212441 C295.137581,243.201066 294.809533,243.296028 294.534038,243.483568 C294.465338,243.56274 294.432605,243.666888 294.443662,243.771127 C294.443662,244.39554 295.166667,244.428404 295.306338,244.428404 L344.158451,244.428404 C345.568339,244.435225 346.92819,244.951735 347.987089,245.882629 C348.824862,246.733881 349.273798,247.893386 349.2277,249.086854 C349.283375,250.340096 348.838305,251.564021 347.990624,252.488764 C347.142942,253.413507 345.962264,253.963126 344.70892,254.016432 L221.609155,254.016432 C221.371643,254.016432 221.143859,253.922081 220.975913,253.754134 C220.807966,253.586188 220.713615,253.358404 220.713615,253.120892 Z" id="Path" fill="#FF911E"></path>
                        <polygon id="Path" fill="url(#linearGradient-1)" points="168.008216 174.715962 133.714789 137.275822 218.092723 137.596244 218.092723 145.615023"></polygon>
                        <polygon id="Path" fill="#1631A4" points="127.314554 178.183099 132.120892 178.273474 132.942488 179.612676 131.71831 183.852113"></polygon>
                        <path d="M138.028169,177.262911 C136.38568,176.88723 134.664694,177.072345 133.139671,177.788732 L133.139671,177.788732 C131.911535,178.330254 130.781603,179.071512 129.795775,179.982394 C129.795775,179.982394 123.896714,174.042254 124.044601,173.935446 L130.617371,167.362676 L133.394366,167.683099 L135.13615,171.298122 L138.028169,177.262911 Z" id="Path" fill="#007EA7"></path>
                        <path d="M138.028169,177.262911 C136.38568,176.88723 134.664694,177.072345 133.139671,177.788732 C133.961268,175.274648 132.687793,171.70892 132.687793,171.70892 L135.152582,171.273474 L138.028169,177.262911 Z" id="Path" fill="#13293D"></path>
                        <path d="M147.115023,164.32277 C147.115023,164.32277 145.33216,170.410798 144.592723,171.717136 L144.592723,173.565728 C144.58822,173.97997 144.251122,174.313405 143.836854,174.31338 L143.327465,174.31338 C143.327465,174.31338 140.862676,177.805164 139.392019,177.805164 C137.921362,177.805164 133.303991,172.875587 132.712441,171.643192 C132.375794,170.784962 132.375794,169.831235 132.712441,168.973005 L129.812207,166.590376 L130.855634,161.660798 L136.352113,158.694836 L145.849765,161.217136 C145.849765,161.217136 147.558685,162.852113 147.115023,164.32277 Z" id="Path" fill="#007EA7"></path>
                        <path d="M134.36385,166.212441 C134.36385,166.212441 136.352113,164.396714 138.052817,165.103286 C139.753521,165.809859 144.584507,166.590376 147.188967,163.994131 L145.997653,162.802817 L134.938967,163.805164 L134.36385,166.212441 Z" id="Path" fill="#13293D"></path>
                        <path d="M133.649061,164.117371 C133.649061,164.117371 131.455399,162.802817 131.036385,164.938967 C130.600939,167.264085 133.205399,168.59507 133.205399,168.59507 L132.712441,168.973005 C132.712441,168.973005 128.555164,170.328638 127.314554,169.884977 C127.314554,169.884977 128.957746,169.120892 128.850939,168.241784 C128.744131,167.362676 127.856808,164.511737 127.856808,164.511737 C127.758869,162.425425 129.056726,160.527266 131.036385,159.861502 C134.446009,158.776995 139.983568,156.08216 143.007042,156.747653 C149.193662,158.103286 147.188967,163.93662 147.188967,163.93662 C147.188967,163.93662 141.372066,165.17723 138.504695,164.28169 C135.637324,163.38615 134.051643,166.697183 134.051643,166.697183 C134.19681,165.816321 134.055709,164.912122 133.649061,164.117371 L133.649061,164.117371 Z" id="Path" fill="#133C55"></path>
                        <path d="M148.355634,206.840376 C148.355634,206.840376 133.246479,182.143192 132.482394,182.143192 C131.71831,182.143192 128.037559,191.402582 130.715962,197.663146 C133.394366,203.923709 143.861502,216.510563 143.861502,216.510563 L148.355634,206.840376 Z" id="Path" fill="#E1E1E1"></path>
                        <path d="M168.008216,214.776995 L151.223005,209.765258 C151.223005,209.765258 145.471831,212.38615 148.257042,219.139671 C148.257042,219.139671 165.880282,219.961268 167.975352,219.764085 L168.008216,214.776995 Z" id="Path" fill="#007EA7"></path>
                        <path d="M152.110329,210.028169 C152.110329,210.028169 148.823944,212.764085 149.086854,219.180751 L148.150235,219.788732 L144.600939,212.106808 C144.600939,212.106808 145.003521,207.579812 148.36385,206.840376 C151.724178,206.100939 152.110329,210.028169 152.110329,210.028169 Z" id="Path" fill="#FEBB46"></path>
                        <path d="M92.7664319,216.510563 C92.3364623,218.429352 91.7399127,220.306971 90.9835681,222.122066 C90.1886761,223.856137 88.3792063,224.89295 86.4812207,224.701878 C86.2981585,224.687798 86.1167004,224.657555 85.9389671,224.611502 L85.8814554,224.611502 L85.8814554,224.611502 C84.9718625,224.350594 84.1305204,223.893465 83.4166667,223.2723 C80.4507042,220.807512 84.9776995,207.850939 89.3568075,205.098592 C93.7359155,202.346244 96.6443662,205.838028 96.7511737,206.068075 C97.3591549,208.483568 92.7664319,216.510563 92.7664319,216.510563 Z" id="Path" fill="#FF911E"></path>
                        <path d="M84.9366197,210.808685 C84.9366197,210.808685 85.2981221,211.276995 84.5011737,211.983568 C84.2273168,211.80875 84.1058097,211.47123 84.2053991,211.161972 C84.3532864,210.67723 84.9366197,210.808685 84.9366197,210.808685 Z" id="Path" fill="#052F5F"></path>
                        <path d="M92.8896714,207.752347 L86.4812207,224.701878 C86.2981585,224.687798 86.1167004,224.657555 85.9389671,224.611502 L85.8814554,224.611502 L92.2570423,207.768779 L92.8896714,207.752347 Z" id="Path" fill="#052F5F"></path>
                        <path d="M142.21831,250.894366 C142.21831,250.894366 140.139671,255.947183 140.435446,258.617371 C140.731221,261.287559 141.306338,262.010563 141.306338,262.010563 C141.306338,262.010563 157.41784,263.859155 160.367371,262.487089 C164.07277,260.769953 167.309859,258.691315 162.930751,257.130282 C158.551643,255.569249 152.315728,253.712441 149.785211,249.555164 L142.21831,250.894366 Z" id="Path" fill="#13293D"></path>
                        <path d="M96.7018779,206.018779 L84.8626761,211.161972 C84.8626761,211.161972 86.0129108,204.161972 91.8051643,203.496479 C97.5974178,202.830986 96.7018779,206.018779 96.7018779,206.018779 Z" id="Path" fill="#FEBB46"></path>
                        <path d="M82.0774648,256.242958 C82.0774648,256.242958 79.0293427,254.016432 76.2112676,255.051643 C73.3931925,256.086854 73.0152582,259.20892 70.4600939,259.726526 C67.9049296,260.244131 63.7805164,263.514085 63.4847418,265.888498 C63.1889671,268.262911 83.3016432,264.557512 83.3016432,264.557512 L82.0774648,256.242958 Z" id="Path" fill="#13293D"></path>
                        <path d="M123.181925,236.196009 C123.181925,236.196009 133.04108,233.221831 135.678404,231.266432 L140.492958,253.120892 C140.492958,253.120892 147.640845,254.50939 151.896714,250.746479 C151.896714,250.746479 149.719484,216.39554 147.93662,214.119718 C146.153756,211.843897 143.960094,211.350939 137.633803,213.026995 C131.307512,214.703052 117.849765,218.57277 117.849765,218.57277 L111.433099,226.558685 L123.181925,236.196009 Z" id="Path" fill="#3066B3"></path>
                        <path d="M130.830986,265.39554 C129.146714,265.789906 83.0140845,265.39554 83.0140845,265.39554 C83.0140845,265.39554 77.665493,260.14554 82.1267606,255.100939 C82.6197183,254.706573 109.543427,253.416667 112.024648,252.126761 C112.024648,252.126761 94.6971831,232.334507 94.4014085,232.038732 C94.1056338,231.742958 87.508216,221.965962 93.2758216,212.032864 C94.0891777,210.637715 95.0655127,209.344209 96.1842723,208.179577 L119.747653,215.508216 L119.829812,221.382629 L116.970657,225.10446 C116.970657,225.10446 134.002347,252.726526 134.298122,256.883803 C134.593897,261.04108 132.515258,265.001174 130.830986,265.39554 Z" id="Path" fill="#052F5F"></path>
                        <path d="M119.829812,221.382629 L116.970657,225.10446 L93.2758216,212.032864 C94.0891777,210.637715 95.0655127,209.344209 96.1842723,208.179577 L119.747653,215.508216 L119.829812,221.382629 Z" id="Path" fill="#3066B3"></path>
                        <path d="M147.443662,162.769953 C147.443662,162.769953 143.401408,161.126761 140.38615,161.800469 C137.370892,162.474178 124.447183,165.267606 123.132629,164.569249 C121.818075,163.870892 128.185446,160.214789 128.185446,160.214789 C128.185446,160.214789 129.352113,151.234742 134.224178,150.215962 C144.617371,148.038732 145.981221,158.193662 145.981221,158.193662 C145.981221,158.193662 152.184272,161.019953 151.600939,163.065728 C151.255869,164.183099 147.443662,162.769953 147.443662,162.769953 Z" id="Path" fill="#FFD648"></path>
                        <path d="M133.254695,185.36385 C133.213615,188.4777 131.282864,202.091549 127.938967,211.350939 C127.259369,213.356096 126.369848,215.283851 125.285211,217.102113 C122.565728,221.407277 120.865023,221.875587 119.879108,221.423709 L119.829812,221.423709 C119.32881,221.120593 118.948434,220.653109 118.753521,220.100939 L117.011737,219.164319 L117.011737,219.164319 L112.016432,216.535211 L112.016432,216.535211 L96.1924883,208.212441 C96.1924883,208.212441 94.7793427,205.747653 98.4190141,197.696009 C102.280516,189.159624 114.431925,175.742958 121.234742,174.748826 C121.234742,174.748826 131.825117,181.584507 132.129108,180.88615 C132.283134,180.03587 132.283134,179.164834 132.129108,178.314554 C132.884387,180.587661 133.264556,182.96857 133.254695,185.36385 L133.254695,185.36385 Z" id="Path" fill="#FFD648"></path>
                        <path d="M121.226526,174.715962 L124.019953,171.355634 L131.71831,179.957746 C131.71831,179.957746 127.856808,182.537559 128.160798,185.018779 C128.169014,184.550469 121.226526,174.715962 121.226526,174.715962 Z" id="Path" fill="#FFFFFF"></path>
                        <polygon id="Path" fill="#FF911E" points="131.71831 179.949531 132.0223 181.502347 130.715962 180.730047"></polygon>
                        <polygon id="Path" fill="#FFFFFF" points="132.120892 178.273474 132.0223 181.502347 134.938967 179.325117 133.254695 177.723005"></polygon>
                        <path d="M134.938967,179.325117 C134.780954,180.541447 134.780954,181.773107 134.938967,182.989437 L132.474178,181.157277 L134.938967,179.325117 Z" id="Path" fill="#FF911E"></path>
                        <path d="M175.747653,235.325117 C175.747653,235.325117 174.926056,239.564554 171.220657,241.142019 C168.573415,242.312605 165.49556,241.92036 163.226526,240.123239 C162.70892,239.769953 159.118545,235.735915 157.754695,235.127934 C156.390845,234.519953 131.71831,224.217136 130.535211,222.730047 C129.352113,221.242958 136.080986,213.133803 138.356808,214.21831 C140.632629,215.302817 158.946009,229.064554 160.137324,229.467136 C160.737405,229.713659 161.410483,229.713659 162.010563,229.467136 C162.010563,229.467136 165.379108,228.571596 167.161972,228.768779 C169.002689,229.085388 170.821929,229.516189 172.609155,230.058685 C172.620218,230.249508 172.600804,230.440874 172.551643,230.625587 C172.420188,231.20892 171.951878,231.997653 170.448357,231.874413 L170.448357,231.874413 L170.13615,231.874413 C167.465962,231.471831 168.164319,233.254695 168.164319,233.254695 C169.590338,234.3305 171.251926,235.051461 173.011737,235.357981 C173.919817,235.490154 174.84301,235.479065 175.747653,235.325117 L175.747653,235.325117 Z" id="Path" fill="#007EA7"></path>
                        <path d="M127.938967,211.350939 C127.259369,213.356096 126.369848,215.283851 125.285211,217.102113 C122.565728,221.407277 120.865023,221.875587 119.879108,221.423709 L119.829812,221.423709 C119.829812,221.423709 124.825117,219 119.829812,211.235915 C111.433099,198.172535 111.61385,186.744131 111.61385,186.744131 L116.140845,185.758216 L127.938967,211.350939 Z" id="Path" fill="#FFBB46"></path>
                        <path d="M116.4777,178.183099 C116.4777,178.183099 103.521127,191.624413 96.1267606,204.244131 C96.6304896,202.379988 97.3014431,200.565114 98.1314554,198.821596 C99.314554,196.496479 114.56338,177.34507 114.56338,177.34507 L116.4777,178.183099 Z" id="Path" fill="#FFBB46"></path>
                        <path d="M126.460094,217.184272 C126.460094,217.184272 124.816901,216.691315 124.816901,215.204225 C124.816901,213.717136 116.017606,198.821596 113.930751,193.924883 C111.91784,189.217136 108.5,180.294601 116.502347,178.183099 C121.744131,176.794601 132.046948,205.903756 134.963615,209.765258 C134.938967,209.765258 128.21831,217.389671 126.460094,217.184272 Z" id="Path" fill="#FFFFFF"></path>
                        <path d="M131.052817,223.124413 C131.052817,223.124413 129.836854,223.82277 128.357981,222.039906 C126.879108,220.257042 125.95892,218.671362 126.460094,217.184272 C127.544601,213.897887 133.032864,208.672535 136.376761,209.962441 C137.82277,210.512911 140.550469,213.248826 139.203052,214.719484 C139.203052,214.719484 133.920188,215.803991 131.052817,223.124413 Z" id="Path" fill="#FFD648"></path>
                        <path d="M104.293427,212.451878 L105.657277,213.166667 C105.657277,213.166667 104.367371,214.382629 102.748826,218.005869 L101.327465,217.184272 C101.327465,217.184272 102.82277,213.602113 104.293427,212.451878 Z" id="Path" fill="#052F5F"></path>
                        <path d="M180.217136,227.158451 L191.785211,218.071596 L191.785211,218.663146 L181.10446,227.83216 C181.10446,227.83216 180.274648,228.440141 180.217136,227.158451 Z" id="Path" fill="#FFFFFF"></path>
                        <path d="M113.700704,224.093897 L115.409624,225.10446 C115.409624,225.10446 118.334507,222.187793 118.548122,219.944836 L117.011737,219.123239 C117.011737,219.123239 116.379108,221.160798 113.700704,224.093897 Z" id="Path" fill="#052F5F"></path>
                        <path d="M182.139671,228.201878 L175.747653,235.366197 L173.003521,235.366197 C171.24371,235.059677 169.582122,234.338716 168.156103,233.262911 L170.440141,231.915493 L170.440141,231.915493 C171.943662,232.038732 172.411972,231.25 172.543427,230.666667 L180.414319,226.04108 C180.414319,226.04108 182.7723,226 182.139671,228.201878 Z" id="Path" fill="#052F5F"></path>
                        <path d="M100.711268,210.562207 C100.711268,210.562207 98.4107981,213.174883 98.2464789,215.368545 L96.7758216,214.382629 C96.7758216,214.382629 97.9589202,211.096244 99.3802817,209.847418 L100.711268,210.562207 Z" id="Path" fill="#052F5F"></path>
                        <path d="M96.1267606,204.244131 C96.1267606,204.244131 110.751174,178.676056 116.444836,178.183099 C116.444836,178.183099 120.232394,178.330986 121.776995,182.989437 C123.321596,187.647887 130.683099,201.516432 130.683099,201.516432 C130.683099,201.516432 131.044601,199.914319 131.258216,198.870892 C131.258216,198.870892 124.29108,185.339202 123.617371,182.143192 C122.943662,178.947183 118.457746,175.397887 116.124413,175.611502 C113.659624,175.833333 107.809859,180.803991 94.3685446,203.545775 L96.1267606,204.244131 Z" id="Path" fill="#052F5F"></path>
                        <polygon id="Path" fill="#052F5F" points="110.397887 215.664319 112.016432 216.510563 109.099765 221.185446 107.5223 220.215962"></polygon>
                        <polygon id="Rectangle" fill="#6774FF" transform="translate(276.227454, 242.435507) rotate(-77.410000) translate(-276.227454, -242.435507) " points="268.060787 240.110389 284.39412 240.110389 284.39412 244.760624 268.060787 244.760624"></polygon>
                        <path d="M279.597418,237.066901 C278.936179,237.06653 278.277222,236.98933 277.633803,236.836854 C275.280102,236.329064 273.283177,234.782278 272.203052,232.630282 C270.43662,228.826291 274.569249,225.153756 275.045775,224.742958 L277.74061,227.906103 L276.393192,226.328638 L277.748826,227.906103 C276.730047,228.785211 275.711268,230.305164 275.974178,230.880282 C276.514603,231.875791 277.473891,232.575649 278.586854,232.786385 C279.439428,233.052785 280.364969,232.945303 281.133803,232.49061 C281.700704,232.038732 281.372066,230.461268 281.068075,229.754695 L284.888498,228.111502 C285.710094,229.960094 286.359155,233.657277 283.713615,235.752347 C282.52891,236.641904 281.078423,237.105133 279.597418,237.066901 Z" id="Path" fill="#3066B3"></path>
                        <path d="M228.633803,238.200704 C228.633803,238.200704 230.120892,235.785211 232.676056,236.820423 L232.207746,237.798122 L238.008216,248.478873 C238.477337,249.341613 238.542456,250.367237 238.186215,251.28238 C237.829974,252.197524 237.088574,252.909191 236.159624,253.2277 L236.159624,253.2277 C235.240839,253.542588 234.230438,253.441388 233.392356,252.950533 C232.554273,252.459678 231.971749,251.627923 231.796948,250.672535 L229.603286,238.710094 L228.633803,238.200704 Z" id="Path" fill="#3066B3"></path>
                        <polygon id="Path" fill="#FFFFFF" points="229.504695 236.122066 230.769953 235.694836 224.944836 220.36385 224.525822 220.511737"></polygon>
                        <path d="M274.799296,248.873239 L274.799296,248.873239 C275.139373,248.951519 275.496633,248.890478 275.791426,248.703724 C276.086219,248.51697 276.294036,248.220031 276.368545,247.879108 L278.315728,239.137324 C278.393856,238.798261 278.332596,238.442028 278.145691,238.148541 C277.958787,237.855055 277.661886,237.648888 277.321596,237.576291 L277.321596,237.576291 C276.982534,237.498163 276.6263,237.559423 276.332814,237.746327 C276.039327,237.933232 275.83316,238.230133 275.760563,238.570423 L273.805164,247.312207 C273.729348,247.651093 273.791583,248.00622 273.97812,248.29913 C274.164657,248.59204 274.460143,248.798623 274.799296,248.873239 Z" id="Path" fill="#77ACB2"></path>
                        <path d="M229.093897,237.633803 L228.198357,237.198357 C229.1419,235.748993 230.953392,235.131593 232.585681,235.703052 L232.035211,236.623239 L229.093897,237.633803 Z" id="Path" fill="#77ACB2"></path>
                        <rect id="Rectangle" fill="#FFD648" x="229.825117" y="241.938967" width="49.4929577" height="24.6232394"></rect>
                        <rect id="Rectangle" fill="#052F5F" x="238.928404" y="236.877934" width="5.15140845" height="7.82981221"></rect>
                        <rect id="Rectangle" fill="#052F5F" x="263.880282" y="236.877934" width="5.15140845" height="7.82981221"></rect>
                        <rect id="Rectangle" fill="#FFDC78" x="232.79108" y="246.194836" width="43.1584507" height="17.0070423"></rect>
                        <path d="M237.942488,248.076291 L237.942488,248.076291 C238.815037,248.076279 239.523648,248.781219 239.528169,249.653756 L239.528169,259.422535 C239.528169,260.298283 238.818236,261.008216 237.942488,261.008216 L237.942488,261.008216 C237.521269,261.010416 237.116666,260.84406 236.818815,260.546209 C236.520964,260.248358 236.354608,259.843754 236.356808,259.422535 L236.356808,249.653756 C236.356802,249.233959 236.524126,248.831474 236.821737,248.535405 C237.119349,248.239336 237.522697,248.074105 237.942488,248.076291 Z" id="Path" fill="#FEBB46"></path>
                        <path d="M244.474178,248.076291 L244.474178,248.076291 C244.89397,248.074105 245.297318,248.239336 245.594929,248.535405 C245.892541,248.831474 246.059865,249.233959 246.059859,249.653756 L246.059859,259.422535 C246.062059,259.843754 245.895703,260.248358 245.597852,260.546209 C245.300001,260.84406 244.895398,261.010416 244.474178,261.008216 L244.474178,261.008216 C244.05363,261.008216 243.650306,260.841154 243.352933,260.543781 C243.05556,260.246408 242.888498,259.843084 242.888498,259.422535 L242.888498,249.653756 C242.893019,248.781219 243.60163,248.076279 244.474178,248.076291 L244.474178,248.076291 Z" id="Path" fill="#FEBB46"></path>
                        <path d="M251.005869,248.076291 L251.005869,248.076291 C251.42566,248.074105 251.829008,248.239336 252.12662,248.535405 C252.424231,248.831474 252.591555,249.233959 252.591549,249.653756 L252.591549,259.422535 C252.593749,259.843754 252.427393,260.248358 252.129542,260.546209 C251.831691,260.84406 251.427088,261.010416 251.005869,261.008216 L251.005869,261.008216 C250.130121,261.008216 249.420188,260.298283 249.420188,259.422535 L249.420188,249.653756 C249.424709,248.781219 250.13332,248.076279 251.005869,248.076291 L251.005869,248.076291 Z" id="Path" fill="#FEBB46"></path>
                        <path d="M257.545775,248.076291 L257.545775,248.076291 C258.416984,248.076291 259.123239,248.782546 259.123239,249.653756 L259.123239,259.422535 C259.125426,259.842327 258.960195,260.245675 258.664126,260.543286 C258.368056,260.840898 257.965572,261.008222 257.545775,261.008216 L257.545775,261.008216 C257.124555,261.010416 256.719952,260.84406 256.422101,260.546209 C256.12425,260.248358 255.957894,259.843754 255.960094,259.422535 L255.960094,249.653756 C255.960088,249.233959 256.127412,248.831474 256.425024,248.535405 C256.722635,248.239336 257.125983,248.074105 257.545775,248.076291 Z" id="Path" fill="#FEBB46"></path>
                        <path d="M264.077465,248.076291 L264.077465,248.076291 C264.950014,248.076279 265.658625,248.781219 265.663146,249.653756 L265.663146,259.422535 C265.663146,260.298283 264.953212,261.008216 264.077465,261.008216 L264.077465,261.008216 C263.656246,261.010416 263.251642,260.84406 262.953791,260.546209 C262.65594,260.248358 262.489584,259.843754 262.491784,259.422535 L262.491784,249.653756 C262.491778,249.233959 262.659102,248.831474 262.956714,248.535405 C263.254325,248.239336 263.657673,248.074105 264.077465,248.076291 Z" id="Path" fill="#FEBB46"></path>
                        <path d="M270.609155,248.076291 L270.609155,248.076291 C271.481704,248.076279 272.190315,248.781219 272.194836,249.653756 L272.194836,259.422535 C272.194836,260.298283 271.484902,261.008216 270.609155,261.008216 L270.609155,261.008216 C270.187936,261.010416 269.783332,260.84406 269.485481,260.546209 C269.18763,260.248358 269.021275,259.843754 269.023474,259.422535 L269.023474,249.653756 C269.023468,249.233959 269.190793,248.831474 269.488404,248.535405 C269.786015,248.239336 270.189364,248.074105 270.609155,248.076291 Z" id="Path" fill="#FEBB46"></path>
                        <path d="M267.339202,236.877934 L265.556338,236.877934 L265.556338,229.261737 C265.556338,225.235915 259.632629,225.153756 259.575117,225.153756 L248.122066,225.153756 C242.526995,225.153756 242.370892,229.319249 242.370892,229.5 L242.370892,236.84507 L240.588028,236.84507 L240.588028,229.450704 C240.588028,229.368545 240.793427,223.346244 248.11385,223.346244 L259.550469,223.346244 C262.237089,223.346244 267.314554,224.570423 267.314554,229.196009 L267.339202,236.877934 Z" id="Path" fill="#FF911E"></path>
                        <path d="M292.775822,166.261737 L289.883803,166.261737 C289.793246,166.261469 289.711943,166.206183 289.678404,166.122066 L288.676056,163.34507 C288.645792,163.259878 288.565174,163.202963 288.474765,163.202963 C288.384356,163.202963 288.303738,163.259878 288.273474,163.34507 L287.188967,166.130282 C287.157386,166.215951 287.074848,166.272077 286.983568,166.269953 L283.787559,166.269953 C283.694998,166.273211 283.614204,166.333633 283.584915,166.421498 C283.555627,166.509363 283.58401,166.606176 283.656103,166.664319 L286.120892,168.480047 C286.198672,168.53979 286.225777,168.644822 286.18662,168.734742 L284.888498,172.078638 C284.846551,172.167235 284.870286,172.27301 284.946067,172.335189 C285.021847,172.397368 285.130221,172.39999 285.20892,172.341549 L288.32277,170.295775 C288.39737,170.245931 288.494649,170.245931 288.569249,170.295775 L291.494131,172.308685 C291.57288,172.357518 291.673685,172.352259 291.746925,172.295498 C291.820165,172.238737 291.850409,172.142433 291.82277,172.053991 L290.615023,168.685446 C290.580087,168.597787 290.606806,168.497591 290.680751,168.438967 L292.923709,166.664319 C293.006156,166.60659 293.039405,166.500589 293.0047,166.406113 C292.969994,166.311638 292.876033,166.252367 292.775822,166.261737 Z" id="Path" fill="#FFD648"></path>
                        <path d="M309.947183,166.261737 L307.06338,166.261737 C306.972823,166.261469 306.891521,166.206183 306.857981,166.122066 L305.855634,163.34507 C305.82537,163.259878 305.744751,163.202963 305.654343,163.202963 C305.563934,163.202963 305.483316,163.259878 305.453052,163.34507 L304.368545,166.130282 C304.336964,166.215951 304.254426,166.272077 304.163146,166.269953 L300.967136,166.269953 C300.874576,166.273211 300.793781,166.333633 300.764493,166.421498 C300.735204,166.509363 300.763587,166.606176 300.835681,166.664319 L303.300469,168.480047 C303.383969,168.535524 303.415223,168.643175 303.374413,168.734742 L302.076291,172.078638 C302.034344,172.167235 302.05808,172.27301 302.13386,172.335189 C302.20964,172.397368 302.318015,172.39999 302.396714,172.341549 L305.510563,170.295775 C305.582609,170.247369 305.676781,170.247369 305.748826,170.295775 L308.681925,172.308685 C308.760673,172.357518 308.861478,172.352259 308.934718,172.295498 C309.007958,172.238737 309.038203,172.142433 309.010563,172.053991 L307.802817,168.685446 C307.76788,168.597787 307.794599,168.497591 307.868545,168.438967 L310.111502,166.664319 C310.199343,166.60583 310.233818,166.493553 310.193938,166.395846 C310.154058,166.29814 310.050864,166.242055 309.947183,166.261737 L309.947183,166.261737 Z" id="Path" fill="#FFD648"></path>
                        <path d="M327.126761,166.261737 L324.242958,166.261737 C324.150908,166.266542 324.06693,166.209437 324.037559,166.122066 L323.035211,163.34507 C323.001158,163.261592 322.919969,163.207026 322.829812,163.207026 C322.739655,163.207026 322.658466,163.261592 322.624413,163.34507 L321.539906,166.130282 C321.513746,166.216376 321.43262,166.27384 321.342723,166.269953 L318.146714,166.269953 C318.054153,166.273211 317.973359,166.333633 317.94407,166.421498 C317.914782,166.509363 317.943165,166.606176 318.015258,166.664319 L320.480047,168.480047 C320.563547,168.535524 320.5948,168.643175 320.553991,168.734742 L319.255869,172.078638 C319.213922,172.167235 319.237657,172.27301 319.313438,172.335189 C319.389218,172.397368 319.497592,172.39999 319.576291,172.341549 L322.690141,170.295775 C322.762186,170.247369 322.856358,170.247369 322.928404,170.295775 L325.861502,172.308685 C325.940251,172.357518 326.041056,172.352259 326.114296,172.295498 C326.187536,172.238737 326.21778,172.142433 326.190141,172.053991 L324.974178,168.685446 C324.946272,168.595895 324.97553,168.498369 325.048122,168.438967 L327.29108,166.664319 C327.378921,166.60583 327.413396,166.493553 327.373515,166.395846 C327.333635,166.29814 327.230441,166.242055 327.126761,166.261737 L327.126761,166.261737 Z" id="Path" fill="#FFD648"></path>
                        <path d="M344.306338,166.261737 L341.422535,166.261737 C341.330485,166.266542 341.246507,166.209437 341.217136,166.122066 L340.214789,163.34507 C340.180736,163.261592 340.099547,163.207026 340.00939,163.207026 C339.919233,163.207026 339.838043,163.261592 339.803991,163.34507 L338.719484,166.130282 C338.69099,166.214666 338.611359,166.271071 338.5223,166.269953 L335.326291,166.269953 C335.233731,166.273211 335.152936,166.333633 335.123648,166.421498 C335.094359,166.509363 335.122742,166.606176 335.194836,166.664319 L337.659624,168.480047 C337.737896,168.539243 337.767971,168.642834 337.733568,168.734742 L336.42723,172.078638 C336.394248,172.168224 336.422279,172.268864 336.496824,172.3285 C336.571369,172.388136 336.675708,172.393392 336.755869,172.341549 L339.869718,170.295775 C339.941764,170.247369 340.035936,170.247369 340.107981,170.295775 L343.016432,172.333333 C343.09518,172.382166 343.195985,172.376907 343.269225,172.320146 C343.342465,172.263385 343.37271,172.167081 343.34507,172.078638 L342.129108,168.710094 C342.098715,168.620572 342.128399,168.521624 342.203052,168.463615 L344.446009,166.688967 C344.563986,166.650398 344.628358,166.523493 344.589789,166.405516 C344.55122,166.28754 344.424314,166.223168 344.306338,166.261737 Z" id="Path" fill="#FFD648"></path>
                        <path d="M361.502347,166.261737 L358.610329,166.261737 C358.519772,166.261469 358.438469,166.206183 358.40493,166.122066 L357.394366,163.34507 C357.360313,163.261592 357.279124,163.207026 357.188967,163.207026 C357.09881,163.207026 357.017621,163.261592 356.983568,163.34507 L355.899061,166.130282 C355.86748,166.215951 355.784942,166.272077 355.693662,166.269953 L352.505869,166.269953 C352.413308,166.273211 352.332514,166.333633 352.303225,166.421498 C352.273937,166.509363 352.30232,166.606176 352.374413,166.664319 L354.839202,168.480047 C354.917474,168.539243 354.947548,168.642834 354.913146,168.734742 L353.606808,172.078638 C353.573826,172.168224 353.601857,172.268864 353.676402,172.3285 C353.750947,172.388136 353.855285,172.393392 353.935446,172.341549 L357.04108,170.295775 C357.11568,170.245931 357.212959,170.245931 357.287559,170.295775 L360.220657,172.308685 C360.299406,172.357518 360.400211,172.352259 360.473451,172.295498 C360.546691,172.238737 360.576935,172.142433 360.549296,172.053991 L359.333333,168.685446 C359.30294,168.595924 359.332625,168.496976 359.407277,168.438967 L361.650235,166.664319 C361.732682,166.60659 361.765931,166.500589 361.731226,166.406113 C361.69652,166.311638 361.602559,166.252367 361.502347,166.261737 L361.502347,166.261737 Z" id="Path" fill="#FFD648"></path>
                        <path d="M427.42723,288.53169 C411.266432,288.720657 393.971831,288.811033 375.937793,288.827465 C375.937793,288.827465 361.387324,280.447183 368.543427,269.75 C375.699531,259.052817 380.719484,281.334507 383.989437,275.394366 C387.25939,269.454225 376.59507,266.981221 379.536385,261.690141 C382.4777,256.399061 387.850939,267.038732 390.521127,263.193662 C393.191315,259.348592 386.035211,258.600939 387.793427,254.246479 C389.551643,249.892019 395.187793,258.173709 396.995305,256.390845 C398.802817,254.607981 392.887324,226.698357 404.71831,227.026995 C416.549296,227.355634 407.692488,252.693662 409.771127,254.246479 C411.849765,255.799296 419.57277,250.721831 420.451878,254.591549 C421.330986,258.461268 410.058685,259.849765 410.35446,262.429577 C410.650235,265.00939 424.321596,256.941315 425.200704,263.193662 C426.079812,269.446009 413.50939,273.874413 413.805164,276.807512 C414.100939,279.74061 431.724178,267.671362 433.663146,276.881455 C435.28169,284.415493 429.555164,287.619718 427.42723,288.53169 Z" id="Path" fill="#3066B3"></path>
                        <path d="M383.061033,231.833333 C383.061033,231.833333 386.199531,212.879108 392.353286,208.278169 C398.507042,203.67723 367.483568,206.643192 383.061033,231.833333 Z" id="Path" fill="#FF911E"></path>
                        <path d="M393.174883,281.268779 L391.53169,280.586854 C391.605634,280.406103 399.131455,261.599765 387.357981,242.916667 C374.992958,223.305164 385.254695,212.38615 385.254695,212.38615 C383.77015,214.717065 382.87099,217.372265 382.633803,220.125587 C382.107981,224.742958 382.757042,232.276995 388.869718,241.971831 C401.144366,261.451878 393.257042,281.071596 393.174883,281.268779 Z" id="Path" fill="#052F5F"></path>
                        <path d="M374.992958,243.623239 C374.992958,243.623239 373.60446,231.59507 374.992958,222.828638 C376.381455,214.062207 357.394366,227.298122 374.992958,243.623239 Z" id="Path" fill="#FFBC47"></path>
                        <path d="M396.428404,238.710094 C396.428404,238.710094 397.019953,223.099765 404.447183,216.592723 C411.874413,210.085681 382.86385,216.428404 396.428404,238.710094 Z" id="Path" fill="#FFBC47"></path>
                        <path d="M428.429577,243.623239 C428.429577,243.623239 428.487089,224.882629 423.220657,220.36385 C417.954225,215.84507 445.124413,216.362676 428.429577,243.623239 Z" id="Path" fill="#FF911E"></path>
                        <path d="M433.65493,251.346244 C433.65493,251.346244 437.861502,238.200704 435.437793,230.929577 C433.014085,223.658451 453.808685,235.012911 433.65493,251.346244 Z" id="Path" fill="#FFBC47"></path>
                        <path d="M416.647887,278.409624 L414.906103,278.319249 C415.245319,274.491761 415.849268,270.69237 416.713615,266.948357 C418.644366,258.494131 421.446009,251.970657 425.061033,247.550469 C433.161972,237.642019 428.478873,220.823944 428.429577,220.651408 C429.955809,224.296843 430.86913,228.169436 431.132629,232.112676 C431.370892,239.696009 430.048122,244.264085 426.433099,248.676056 C418.192488,258.691315 416.664319,278.212441 416.647887,278.409624 Z" id="Path" fill="#052F5F"></path>
                        <path d="M391.49061,276.807512 C391.441315,276.602113 386.232394,256.620892 376.751174,247.016432 C366.719484,236.84507 372.026995,226.394366 372.026995,226.394366 C371.89554,226.796948 368.789906,236.401408 378.016432,245.75939 C382.124413,249.949531 385.969484,256.374413 389.35446,264.861502 C390.85854,268.619351 392.147787,272.459662 393.215962,276.36385 L391.49061,276.807512 Z" id="Path" fill="#052F5F"></path>
                        <path d="M419.835681,278.92723 L418.134977,278.401408 C418.381455,277.579812 424.296948,258.789906 431.346244,252.455399 C437.919014,246.57277 437.467136,237.017606 437.467136,236.92723 C437.467136,236.836854 439.71831,247.336854 432.537559,253.786385 C425.866197,259.784038 419.909624,278.738263 419.835681,278.92723 Z" id="Path" fill="#052F5F"></path>
                        <path d="M398.309859,273.849765 L396.592723,273.373239 C396.642019,273.217136 401.029343,256.998826 396.592723,242.152582 C391.934272,226.599765 398.088028,222.5 398.088028,222.5 C398.088028,222.5 393.980047,227.24061 398.293427,241.643192 C402.88615,256.957746 398.474178,273.16784 398.309859,273.849765 Z" id="Path" fill="#052F5F"></path>
                        <path d="M396.428404,288.827465 C396.428404,288.827465 394.053991,261.435446 378.312207,253.120892 C378.312207,253.120892 371.188967,274.046948 396.428404,288.827465 Z" id="Path" fill="#FFBC47"></path>
                        <path d="M396.428404,288.827465 C396.428404,288.827465 385.08216,273.611502 400.257042,260.991784 C400.257042,260.991784 407.421362,276.125587 396.428404,288.827465 Z" id="Path" fill="#FF911E"></path>
                        <path d="M396.428404,288.827465 C396.428404,288.827465 392.271127,272.724178 372.66784,269.158451 C372.66784,269.158451 377.712441,289 396.428404,288.827465 Z" id="Path" fill="#FF911E"></path>
                        <path d="M413.838028,288.827465 C413.838028,288.827465 416.212441,261.435446 431.954225,253.120892 C431.954225,253.120892 439.077465,274.046948 413.838028,288.827465 Z" id="Path" fill="#FFBC47"></path>
                        <path d="M413.838028,288.827465 C413.838028,288.827465 425.184272,273.611502 410.00939,260.991784 C409.976526,260.991784 402.84507,276.125587 413.838028,288.827465 Z" id="Path" fill="#FF911E"></path>
                        <path d="M413.838028,288.827465 C413.838028,288.827465 417.995305,272.724178 437.590376,269.158451 C437.590376,269.158451 432.553991,289 413.838028,288.827465 Z" id="Path" fill="#FF911E"></path>
                        <path d="M413.838028,288.827465 C413.838028,288.827465 416.573944,273.455399 402.196009,267.860329 C402.196009,267.860329 399.764085,284.144366 413.838028,288.827465 Z" id="Path" fill="#FFBC47"></path>
                    </g>
                </g>
            </g>
        </g>
    </g>
</svg>