<?xml version="1.0" encoding="UTF-8"?>
<svg width="468px" height="350px" viewBox="0 0 468 350" version="1.1" xmlns="http://www.w3.org/2000/svg" xmlns:xlink="http://www.w3.org/1999/xlink">
    <!-- Generator: Sketch 53.2 (72643) - https://sketchapp.com -->
    <title>SEO Analysis</title>
    <desc>Created with Sketch.</desc>
    <defs>
        <linearGradient x1="32.9905089%" y1="27.5793639%" x2="99.1436197%" y2="76.4283735%" id="linearGradient-1">
            <stop stop-color="#3139EC" offset="0%"></stop>
            <stop stop-color="#FF0061" offset="100%"></stop>
        </linearGradient>
    </defs>
    <g id="Landing-Page" stroke="none" stroke-width="1" fill="none" fill-rule="evenodd">
        <g id="Landing-Page-Desktop-HD" transform="translate(-109.000000, -1642.000000)" fill-rule="nonzero">
            <g id="Section-3-:-Ad-Boost" transform="translate(0.000000, 1500.000000)">
                <g id="About">
                    <g id="Group-6" transform="translate(109.000000, 142.000000)">
                        <g id="SEO-Analysis" transform="translate(-0.000000, 0.000000)">
                            <path d="M193.554303,5.16393443 C162.98668,20.6844262 196.824795,109.159836 158.934426,128.52459 C121.044057,147.889344 10.9590164,144.446721 10.9590164,210.580943 C10.9590164,276.715164 143.148566,255.234631 118.935451,268.675205 C94.7223361,282.115779 -26.6588115,298.747951 6.3329918,307.003074 C39.3247951,315.258197 119.77459,318.650615 130.482582,323.369877 C141.190574,328.089139 96.6659836,344.606557 167.110656,346.413934 C237.555328,348.221311 360.707992,353.26332 407.936475,346.413934 C444.908811,341.056352 498.133197,318.213115 444.908811,312.590164 C391.684426,306.967213 341.14959,244.641393 393.032787,213.435451 C444.915984,182.229508 503.038934,130.532787 386.814549,105.329918 C270.590164,80.1270492 251.383197,-24.1915984 193.554303,5.16393443 Z" id="Path" fill="url(#linearGradient-1)" opacity="0.04"></path>
                            <rect id="Rectangle" fill="#EAEAEA" x="48.4620902" y="129.277664" width="147.229508" height="183.334016"></rect>
                            <rect id="Rectangle" fill="#EAEAEA" x="211.871926" y="59.1342213" width="186.059426" height="143.456967"></rect>
                            <rect id="Rectangle" fill="#3066B3" x="48.4620902" y="110.01332" width="147.229508" height="19.2643443"></rect>
                            <rect id="Rectangle" fill="#FFFFFF" x="57.642418" y="136.36373" width="129.327869" height="35.4590164" rx="8.16"></rect>
                            <circle id="Oval" fill="#FFFFFF" transform="translate(103.799326, 215.915611) rotate(-53.370000) translate(-103.799326, -215.915611) " cx="103.799326" cy="215.915611" r="33.2930328"></circle>
                            <rect id="Rectangle" fill="#3066B3" x="70.5092213" y="270.461066" width="13.4190574" height="30.567623"></rect>
                            <rect id="Rectangle" fill="#052F5F" x="88.0163934" y="263.131148" width="13.4190574" height="37.897541"></rect>
                            <rect id="Rectangle" fill="#FEBB46" x="105.516393" y="268.660861" width="13.4190574" height="32.3678279"></rect>
                            <rect id="Rectangle" fill="#3066B3" x="123.669057" y="252.867828" width="13.4190574" height="48.1608607"></rect>
                            <rect id="Rectangle" fill="#D4D4D4" x="145.293033" y="182.602459" width="43.6495902" height="118.42623" rx="8.16"></rect>
                            <rect id="Rectangle" fill="#3066B3" x="57.642418" y="182.602459" width="19.579918" height="1.76434426"></rect>
                            <rect id="Rectangle" fill="#3066B3" x="57.642418" y="187.192623" width="14.5594262" height="1.76434426"></rect>
                            <rect id="Rectangle" fill="#3066B3" x="211.871926" y="37.3237705" width="186.059426" height="21.8104508"></rect>
                            <rect id="Rectangle" fill="#FFFFFF" x="220.040984" y="67.4467213" width="90.6055328" height="22.1977459" rx="8.16"></rect>
                            <rect id="Rectangle" fill="#FF911D" x="234.578893" y="102.131148" width="11.5829918" height="85.9866803"></rect>
                            <rect id="Rectangle" fill="#FEBB46" x="248.406762" y="102.131148" width="11.5901639" height="85.9866803"></rect>
                            <rect id="Rectangle" fill="#FF911D" x="262.808402" y="102.131148" width="11.5829918" height="85.9866803"></rect>
                            <rect id="Rectangle" fill="#FEBB46" x="277.202869" y="102.131148" width="11.5829918" height="85.9866803"></rect>
                            <rect id="Rectangle" fill="#FF911D" x="291.597336" y="102.131148" width="11.5829918" height="85.9866803"></rect>
                            <rect id="Rectangle" fill="#FEBB46" x="305.991803" y="102.131148" width="11.5901639" height="85.9866803"></rect>
                            <rect id="Rectangle" fill="#FF911D" x="320.630123" y="102.131148" width="11.5829918" height="85.9866803"></rect>
                            <rect id="Rectangle" fill="#FEBB46" x="335.02459" y="102.131148" width="11.5901639" height="85.9866803"></rect>
                            <rect id="Rectangle" fill="#FF911D" x="349.42623" y="102.131148" width="11.5829918" height="85.9866803"></rect>
                            <rect id="Rectangle" fill="#FEBB46" x="363.820697" y="102.131148" width="11.5829918" height="85.9866803"></rect>
                            <polygon id="Path" fill="#3066B3" points="429.682377 270.719262 454.232582 195.526639 405.447746 195.526639 377.175205 270.719262"></polygon>
                            <polygon id="Path" fill="#052F5F" points="417.568648 264.816598 355.221311 264.816598 355.221311 270.719262 429.682377 270.719262 431.61168 264.816598"></polygon>
                            <rect id="Rectangle" fill="#052F5F" x="422.847336" y="241.507172" width="22.0614754" height="6.52663934"></rect>
                            <path d="M423.471311,333.504098 L362.565574,333.504098 C362.565574,329.918033 372.506148,326.905738 385.875,326.102459 L385.875,270.719262 L400.204918,270.719262 L400.204918,326.080943 C413.530738,326.884221 423.471311,329.918033 423.471311,333.504098 Z" id="Path" fill="#3066B3"></path>
                            <polygon id="Path" fill="#052F5F" points="415.703893 296.703893 400.169057 284.568648 400.169057 285.945697 415.703893 298.080943"></polygon>
                            <path d="M411.680328,297.808402 C411.684287,299.938513 413.413593,301.662471 415.543707,301.659833 C417.67382,301.657195 419.398851,299.928958 419.397534,297.798843 C419.396216,295.668729 417.66905,293.942627 415.538934,293.942623 C414.514324,293.942621 413.531784,294.350136 412.807949,295.075317 C412.084113,295.800498 411.678423,296.783793 411.680328,297.808402 L411.680328,297.808402 Z" id="Path" fill="#052F5F"></path>
                            <path d="M227.865779,236.235656 L415.531762,236.235656 C415.531762,236.235656 416.629098,250.407787 375.410861,252.867828 C334.192623,255.327869 304.901639,270.626025 304.901639,293.942623 L304.901639,333.504098 L227.865779,333.504098 L227.865779,236.235656 Z" id="Path" fill="#D6DAE3"></path>
                            <rect id="Rectangle" fill="#F26178" x="224.767418" y="233.122951" width="194.622951" height="3.11270492"></rect>
                            <rect id="Rectangle" fill="#3066B3" x="251.497951" y="217.193648" width="13.8135246" height="15.9293033"></rect>
                            <rect id="Rectangle" fill="#3066B3" x="274.391393" y="209.727459" width="13.3043033" height="23.3883197"></rect>
                            <path d="M375.40369,229.35041 L375.403689,230.017418 C375.403903,230.236577 375.38228,230.455211 375.339139,230.670082 C375.087001,231.832655 374.192901,232.749038 373.036885,233.029713 C372.80281,233.091463 372.561755,233.1228 372.319672,233.122951 L335.02459,233.122951 L335.02459,229.35041 L375.40369,229.35041 Z" id="Path" fill="#D9D8D6"></path>
                            <path d="M340.826844,233.094262 L311.9375,233.094262 C311.744913,233.093092 311.553709,233.061628 311.370902,233.001025 C310.81623,232.828923 310.371759,232.410908 310.165984,231.867828 L295.821721,194.027664 C295.611548,193.441147 295.703362,192.788773 296.067254,192.283048 C296.431147,191.777324 297.02054,191.482982 297.643443,191.495902 L323.979508,191.495902 C324.77035,191.493138 325.479608,191.982183 325.758197,192.722336 L340.826844,233.094262 Z" id="Path" fill="#D9D8D6"></path>
                            <path d="M261.42418,209.727459 C261.42418,209.727459 268.151639,199.872951 267.957992,195.526639 C267.764344,191.180328 262.808402,199.686475 262.808402,199.686475 C262.808402,199.686475 261.42418,183.255123 256.47541,183.061475 C251.526639,182.867828 258.404713,206.012295 258.404713,206.012295 C258.404713,206.012295 250.04918,195.634221 248.406762,197.95082 C246.764344,200.267418 256.669057,208.58709 256.669057,210.566598 C256.491581,212.793338 256.16088,215.005202 255.679303,217.186475 L259.982582,217.186475 C259.982582,217.186475 260.032787,215.221311 261.42418,209.727459 Z" id="Path" fill="#FF911D"></path>
                            <polygon id="Path" fill="#3066B3" points="280.071721 209.727459 276.213115 192.80123 274.391393 193.317623 277.783811 209.727459"></polygon>
                            <polygon id="Path" fill="#3066B3" points="282.001025 209.727459 285.615779 186.088115 289.954918 185.005123 286.340164 209.727459"></polygon>
                            <polygon id="Path" fill="#FEBB46" points="275.044057 196.473361 276.944672 195.992828 277.202869 197.133197 275.352459 197.957992"></polygon>
                            <path d="M339.048156,233.029713 L311.370902,233.029713 C310.81623,232.857611 310.371759,232.439596 310.165984,231.896516 L295.821721,194.056352 C295.576411,193.419301 295.69734,192.699222 296.137295,192.177254 L323.907787,192.177254 L339.048156,233.029713 Z" id="Path" fill="#FF911D"></path>
                            <path d="M375.339139,230.670082 C375.087001,231.832655 374.192901,232.749038 373.036885,233.029713 L333.267418,233.029713 L333.267418,230.670082 L375.339139,230.670082 Z" id="Path" fill="#FF911D"></path>
                            <path d="M317.581967,213.413934 C318.342213,215.945697 317.273566,218.104508 315.602459,218.061475 C314.060451,218.025615 312.47541,215.135246 311.715164,212.603484 C310.954918,210.071721 312.123975,208.82377 313.665984,208.780738 C315.344262,208.709016 316.821721,210.860656 317.581967,213.413934 Z" id="Path" fill="#FF911D"></path>
                            <path d="M395.751025,325.923156 C395.751025,325.923156 375.955943,327.522541 375.403689,333.482582 L362.565574,333.482582 C362.565574,329.896516 372.506148,326.884221 385.875,326.080943 L385.875,270.719262 L391.32582,270.719262 L391.32582,307.490779 C391.32582,315.846311 392.552254,325.679303 395.751025,325.923156 Z" id="Path" fill="#052F5F"></path>
                            <path d="M258.32582,217.207992 L257.766393,217.207992 C258.072382,214.071741 258.731615,210.980083 259.731557,207.991803 C261.460041,202.476434 256.461066,186.231557 256.410861,186.066598 L256.94877,185.901639 C257.156762,186.57582 262.048156,202.476434 260.269467,208.135246 C259.283466,211.077055 258.631485,214.120435 258.32582,217.207992 L258.32582,217.207992 Z" id="Path" fill="#FEBB46"></path>
                            <path d="M258.670082,214.568648 L258.139344,214.375 C260.018443,209.053279 249.805328,199.894467 249.697746,199.808402 L250.070697,199.385246 C250.508197,199.772541 260.678279,208.88832 258.670082,214.568648 Z" id="Path" fill="#FEBB46"></path>
                            <path d="M260.025615,208.909836 L259.530738,208.644467 C262.127049,203.867828 266.523566,196.387295 266.566598,196.315574 L267.047131,196.602459 C267.004098,196.67418 262.614754,204.147541 260.025615,208.909836 Z" id="Path" fill="#FEBB46"></path>
                            <path d="M229.565574,78.5420082 C229.565574,80.5225375 231.17111,82.1280738 233.151639,82.1280738 C235.132169,82.1280738 236.737705,80.5225375 236.737705,78.5420082 C236.737705,76.5614789 235.132169,74.9559426 233.151639,74.9559426 C232.200556,74.9559426 231.288426,75.3337592 230.615908,76.0062769 C229.94339,76.6787947 229.565574,77.5909245 229.565574,78.5420082 L229.565574,78.5420082 Z M235.683402,78.3268443 C235.800543,79.7106856 234.774882,80.9279827 233.391226,81.0472936 C232.00757,81.1666045 230.788666,80.1428532 230.667186,78.7593861 C230.545706,77.3759189 231.567545,76.1554114 232.95082,76.0317623 C234.338944,75.9116667 235.561923,76.93884 235.683402,78.3268443 L235.683402,78.3268443 Z" id="Shape" fill="#FFFFFF"></path>
                            <path d="M238.114754,80.5358607 L238.710041,80.5358607 C238.857991,80.5238684 238.984745,80.4252821 239.032787,80.2848361 L239.226434,79.3381148 C239.241962,79.1919721 239.168515,79.0507274 239.039959,78.9795082 L238.502049,78.7213115 C238.368465,78.6461967 238.282062,78.5084909 238.272541,78.3555328 C238.272541,78.3555328 238.272541,78.2838115 238.272541,78.1260246 L238.272541,78.0686475 C238.272541,78.0040984 238.351434,77.8965164 238.473361,77.8247951 L238.97541,77.5020492 C239.100007,77.4191765 239.160047,77.2676479 239.126025,77.1219262 L238.824795,76.2110656 C238.76469,76.074896 238.629373,75.9875038 238.480533,75.9887295 L237.885246,76.0317623 C237.743343,76.0417542 237.605915,75.9797769 237.519467,75.8668033 C237.454918,75.7663934 237.32582,75.4077869 237.390369,75.2786885 L237.670082,74.755123 C237.73182,74.6216406 237.709348,74.46434 237.612705,74.3534836 L236.895492,73.7079918 C236.77417,73.6259869 236.615175,73.6259869 236.493852,73.7079918 L235.998975,74.045082 C235.873625,74.1126659 235.722687,74.1126659 235.597336,74.045082 C235.489754,73.9877049 235.202869,73.7366803 235.195697,73.6004098 L235.195697,73.005123 C235.179027,72.85677 235.078575,72.7312056 234.9375,72.682377 L233.997951,72.4887295 C233.849787,72.4724801 233.70702,72.5495746 233.639344,72.682377 L233.373975,73.2202869 C233.299294,73.3509534 233.165301,73.4367087 233.015369,73.4497951 L232.778689,73.4497951 L232.721311,73.4497951 C232.663934,73.4497951 232.556352,73.3637295 232.477459,73.2489754 L232.161885,72.7397541 C232.07644,72.6183776 231.927152,72.5592258 231.781762,72.5891393 L230.86373,72.8903689 C230.730363,72.9526153 230.646076,73.0874744 230.648566,73.2346311 L230.691598,73.829918 C230.701306,73.9734014 230.636214,74.1117215 230.519467,74.1956967 C230.419057,74.2602459 230.060451,74.3893443 229.938525,74.3247951 L229.407787,74.045082 C229.273185,73.9833032 229.114614,74.008788 229.006148,74.1096311 L228.367828,74.8268443 C228.28457,74.9503977 228.28457,75.1121023 228.367828,75.2356557 L228.697746,75.7305328 C228.777921,75.8462669 228.794114,75.9947012 228.740779,76.125 C228.683402,76.232582 228.432377,76.5266393 228.296107,76.5338115 L227.70082,76.5338115 C227.552149,76.5439327 227.42448,76.6432308 227.378074,76.7848361 L227.184426,77.7315574 C227.170807,77.8773331 227.243742,78.0175935 227.370902,78.0901639 L227.908811,78.3483607 C228.044348,78.4214077 228.13151,78.5603224 228.13832,78.7141393 C228.13832,78.7141393 228.13832,78.7786885 228.13832,78.9436475 L228.13832,79.0010246 C228.13832,79.0584016 228.059426,79.1731557 227.9375,79.244877 L227.435451,79.567623 C227.310854,79.6504956 227.250814,79.8020242 227.284836,79.9477459 L227.586066,80.8586066 C227.643601,80.9960586 227.781563,81.0822854 227.930328,81.0737705 L228.525615,81.0307377 C228.668581,81.02371 228.805683,81.0882288 228.891393,81.2028689 C228.955943,81.3032787 229.085041,81.6618852 229.020492,81.7838115 L228.740779,82.3145492 C228.679041,82.4480315 228.701512,82.6053321 228.798156,82.7161885 L229.515369,83.3616803 C229.636691,83.4436852 229.795686,83.4436852 229.917008,83.3616803 L230.411885,83.0245902 C230.537236,82.9570062 230.688174,82.9570062 230.813525,83.0245902 C230.921107,83.0819672 231.207992,83.3258197 231.215164,83.4692623 L231.215164,84.0645492 C231.23102,84.2116408 231.332322,84.3354539 231.473361,84.380123 L232.377049,84.6311475 C232.524803,84.6453395 232.666484,84.5688319 232.735656,84.4375 L233.001025,83.8995902 C233.073787,83.7671142 233.208859,83.6806682 233.359631,83.670082 L233.596311,83.670082 L233.653689,83.670082 C233.711066,83.670082 233.818648,83.7561475 233.897541,83.8709016 L234.213115,84.380123 C234.300839,84.4985705 234.448193,84.556956 234.593238,84.5307377 L235.51127,84.2295082 C235.644637,84.1672617 235.728924,84.0324027 235.726434,83.8852459 L235.683402,83.2827869 C235.676374,83.1398211 235.740893,83.0027186 235.855533,82.9170082 C235.955943,82.8596311 236.314549,82.7305328 236.436475,82.795082 L236.967213,83.067623 C237.100084,83.1333488 237.2597,83.1105465 237.368852,83.0102459 L238.007172,82.2930328 C238.09043,82.1694794 238.09043,82.0077747 238.007172,81.8842213 L237.677254,81.3893443 C237.597063,81.2709322 237.580936,81.1204181 237.634221,80.9877049 C237.734631,80.8370902 237.978484,80.5430328 238.114754,80.5358607 Z M233.173156,82.6516393 C230.903469,82.6516393 229.063525,80.8116948 229.063525,78.5420082 C229.063525,76.2723216 230.903469,74.432377 233.173156,74.432377 C235.442842,74.432377 237.282787,76.2723216 237.282787,78.5420082 C237.278839,80.8100575 235.441205,82.6476915 233.173156,82.6516393 L233.173156,82.6516393 Z" id="Shape" fill="#FF911D"></path>
                            <path d="M365.692623,184.969262 C358.61305,184.969261 352.872812,190.706289 352.868852,197.785861 C352.868852,210.616803 365.692623,226.001025 365.692623,226.001025 C365.692623,226.001025 378.516393,210.616803 378.516393,197.785861 C378.512434,190.706289 372.772196,184.969261 365.692623,184.969262 Z M365.692623,205.639344 C361.335458,205.639344 357.803279,202.107165 357.803279,197.75 C357.803279,193.392835 361.335458,189.860656 365.692623,189.860656 C370.049787,189.860656 373.581967,193.392835 373.581967,197.75 C373.581967,199.842384 372.750771,201.84907 371.271232,203.328609 C369.791693,204.808148 367.785007,205.639344 365.692623,205.639344 L365.692623,205.639344 Z" id="Shape" fill="#3066B3"></path>
                            <path d="M247.079918,207.030738 C246.032787,205.904713 244.304303,205.92623 243.264344,206.0625 L243.429303,204.140369 L227.356557,204.140369 L227.521516,206.0625 C226.48873,205.92623 224.753074,205.904713 223.705943,207.030738 C222.809426,207.984631 222.680328,209.433402 223.311475,211.334016 C224.459016,214.769467 228.496926,215.744877 230.483607,216.017418 C233.302002,218.493045 237.51972,218.493045 240.338115,216.017418 C242.310451,215.744877 246.348361,214.769467 247.510246,211.334016 C248.112705,209.42623 247.976434,207.991803 247.079918,207.030738 Z M225.247951,210.695697 C224.882172,209.584016 224.860656,208.780738 225.190574,208.429303 C225.628074,207.955943 226.890369,207.998975 227.693648,208.178279 L227.9375,211.047131 C228.00767,211.898494 228.226122,212.731037 228.582992,213.507172 C227.191598,213.012295 225.75,212.1875 225.247951,210.695697 L225.247951,210.695697 Z M238.229508,214.683402 L233.209016,214.683402 L233.209016,213.471311 L234.994877,213.471311 L234.994877,208.185451 L233.330943,209.189549 L233.330943,207.862705 L235.61168,206.478484 L236.472336,206.478484 L236.472336,213.471311 L238.258197,213.471311 L238.229508,214.683402 Z M245.530738,210.695697 C245.028689,212.1875 243.58709,213.026639 242.195697,213.492828 C242.554903,212.717097 242.77578,211.884561 242.848361,211.032787 L243.085041,208.163934 C243.88832,207.984631 245.150615,207.941598 245.588115,208.414959 C245.918033,208.780738 245.896516,209.584016 245.530738,210.695697 L245.530738,210.695697 Z" id="Shape" fill="#052F5F"></path>
                            <path d="M235.389344,218.75 C234.888666,218.749317 234.388352,218.722984 233.890369,218.671107 L233.890369,224.810451 L236.88832,224.810451 L236.88832,218.671107 C236.390336,218.722984 235.890022,218.749317 235.389344,218.75 Z" id="Path" fill="#052F5F"></path>
                            <path d="M239.98668,225.800205 L230.46209,225.800205 C229.944109,225.802105 229.501021,226.172852 229.407787,226.682377 L228.23873,233.137295 L242.210041,233.137295 L241.040984,226.682377 C240.94775,226.172852 240.504661,225.802105 239.98668,225.800205 L239.98668,225.800205 Z" id="Path" fill="#052F5F"></path>
                            <polygon id="Path" fill="#FF911D" points="238.229508 213.464139 238.229508 214.683402 233.180328 214.683402 233.180328 213.464139 234.966189 213.464139 234.966189 208.185451 233.302254 209.189549 233.302254 207.862705 235.582992 206.478484 236.443648 206.478484 236.443648 213.464139"></polygon>
                            <path d="M123.51127,192.112705 C118.928652,188.046329 113.040814,185.756331 106.914959,185.657787 L106.764344,209.368852 L123.51127,192.112705 Z" id="Path" fill="#EAEAEA"></path>
                            <path d="M102.453893,185.5 C85.6711066,185.5 73.2704918,199.127049 73.2704918,215.895492 C73.2704916,223.956218 76.4730934,231.686693 82.1735601,237.385815 C87.8740269,243.084936 95.6052576,246.285714 103.665984,246.283811 C115.435451,246.283811 126.380123,239.334016 130.410861,230.368852 L103.070697,215.881148 L103.070697,185.514344 L102.453893,185.5 Z" id="Path" fill="#052F5F"></path>
                            <polygon id="Path" fill="#FEBB46" points="118.125 203.007172 113.728484 217.028689 116.260246 218.391393 122.507172 198.510246"></polygon>
                            <polygon id="Path" fill="#FEBB46" points="112.451844 208.838115 110.436475 215.264344 112.97541 216.627049 116.826844 204.341189"></polygon>
                            <path d="M130.47541,200.396516 L123.597336,222.336066 L126.13627,223.69877 L132.297131,204.082992 C131.777719,202.812684 131.168955,201.580774 130.47541,200.396516 L130.47541,200.396516 Z" id="Path" fill="#FEBB46"></path>
                            <path d="M132.777664,205.330943 L126.889344,224.078893 L129.428279,225.441598 L134.07582,210.631148 C133.822412,208.825258 133.387492,207.049535 132.777664,205.330943 Z" id="Path" fill="#FEBB46"></path>
                            <path d="M134.334016,214.167008 C134.334016,213.688866 134.319672,213.210724 134.290984,212.732582 L130.181352,225.828893 L131.673156,226.625 C133.531792,222.740842 134.443653,218.471563 134.334016,214.167008 Z" id="Path" fill="#FEBB46"></path>
                            <path d="M126.157787,194.759221 L123.798156,197.17623 L117.01332,218.793033 L119.552254,220.148566 L127.183402,195.849385 C126.846311,195.476434 126.509221,195.081967 126.157787,194.759221 Z" id="Path" fill="#FEBB46"></path>
                            <polygon id="Path" fill="#FEBB46" points="107.646516 213.772541 109.683402 214.862705 111.153689 210.172131"></polygon>
                            <path d="M127.828893,196.595287 L120.305328,220.557377 L122.844262,221.91291 L129.901639,199.442623 C129.268048,198.453077 128.5759,197.502271 127.828893,196.595287 Z" id="Path" fill="#FEBB46"></path>
                            <path d="M77.5809426,146.648566 C75.142418,146.885246 72.8473361,147.989754 72.7469262,150.650615 C72.625,153.648566 75.1209016,154.523566 77.5809426,155.126025 L77.5809426,158.446721 C76.8437611,158.071382 76.3646198,157.329397 76.3258197,156.503074 L72.2018443,156.969262 C72.517418,159.838115 75.0204918,160.935451 77.5809426,161.107582 L77.5809426,162.21209 L78.4415984,162.21209 L78.4415984,145.594262 L77.5809426,145.594262 L77.5809426,146.648566 Z M77.5809426,151.504098 L77.3442623,151.396516 C76.2684426,150.844262 76.4190574,149.718238 77.5809426,149.316598 L77.5809426,151.504098 Z" id="Shape" fill="#FF911D"></path>
                            <path d="M83.9139344,154 C82.64844,153.030615 81.1754613,152.367774 79.6106557,152.063525 L79.6106557,149.381148 C80.114466,149.623291 80.4867337,150.074207 80.6290984,150.614754 L84.6454918,149.947746 C84.1864754,148.097336 82.2356557,146.870902 79.625,146.641393 L79.625,145.594262 L78.9077869,145.594262 L78.9077869,162.21209 L79.625,162.21209 L79.625,161.071721 C80.7932744,160.994228 81.9343717,160.684571 82.9815574,160.160861 C85.0614754,158.877049 85.914959,155.793033 83.9139344,154 Z M79.6106557,158.554303 L79.6106557,155.685451 C80.6004098,156.029713 80.9375,156.352459 81.0952869,156.911885 C81.2530738,157.471311 80.7581967,158.296107 79.5604508,158.554303 L79.6106557,158.554303 Z" id="Shape" fill="#FF911D"></path>
                            <path d="M386.814549,48.232582 C386.802675,49.9022285 385.440935,51.2468715 383.771271,51.2376504 C382.101608,51.2284294 380.754803,49.8688277 380.76137,48.1991519 C380.767938,46.5294761 382.125398,45.1805118 383.795082,45.1844262 C384.600295,45.186314 385.371564,45.5089841 385.938238,46.0810428 C386.504913,46.6531015 386.820276,47.4273873 386.814549,48.232582 Z" id="Path" fill="#D6DAFF"></path>
                            <path d="M375.819672,48.232582 C375.803754,49.9000762 374.439105,51.2389572 372.77161,51.223089 C371.104115,51.2072207 369.765193,49.8426118 369.781011,48.1751167 C369.796829,46.5076215 371.161398,45.1686583 372.828893,45.1844262 C374.494857,45.2041236 375.831633,46.5665445 375.819672,48.232582 Z" id="Path" fill="#D6DAFF"></path>
                            <path d="M364.824795,48.232582 C364.812921,49.9022285 363.451181,51.2468715 361.781517,51.2376504 C360.111854,51.2284294 358.765049,49.8688277 358.771616,48.1991519 C358.778184,46.5294761 360.135644,45.1805118 361.805328,45.1844262 C362.610541,45.186314 363.38181,45.5089841 363.948484,46.0810428 C364.515159,46.6531015 364.830522,47.4273873 364.824795,48.232582 Z" id="Path" fill="#D6DAFF"></path>
                            <path d="M186.970287,119.645492 C186.973189,120.870302 186.237615,121.976123 185.106871,122.44685 C183.976126,122.917577 182.67314,122.660404 181.806039,121.795358 C180.938939,120.930313 180.678675,119.62794 181.146718,118.496082 C181.614761,117.364223 182.718834,116.626028 183.943648,116.626025 C184.745702,116.624119 185.515559,116.9414 186.083371,117.507866 C186.651183,118.074333 186.970289,118.843435 186.970287,119.645492 Z" id="Path" fill="#D6DAFF"></path>
                            <path d="M176.004098,119.645492 C176.007001,120.870302 175.271427,121.976123 174.140682,122.44685 C173.009937,122.917577 171.706951,122.660404 170.839851,121.795358 C169.97275,120.930313 169.712486,119.62794 170.180529,118.496082 C170.648572,117.364223 171.752646,116.626028 172.977459,116.626025 C173.779513,116.624119 174.549371,116.9414 175.117183,117.507866 C175.684995,118.074333 176.004101,118.843435 176.004098,119.645492 L176.004098,119.645492 Z" id="Path" fill="#D6DAFF"></path>
                            <path d="M164.959016,119.645492 C164.961919,120.870302 164.226345,121.976123 163.0956,122.44685 C161.964855,122.917577 160.661869,122.660404 159.794769,121.795358 C158.927668,120.930313 158.667404,119.62794 159.135447,118.496082 C159.60349,117.364223 160.707564,116.626028 161.932377,116.626025 C162.734431,116.624119 163.504289,116.9414 164.072101,117.507866 C164.639913,118.074333 164.959019,118.843435 164.959016,119.645492 L164.959016,119.645492 Z" id="Path" fill="#D6DAFF"></path>
                            <polygon id="Path" fill="#FFFFFF" points="234.578893 102.131148 246.161885 102.131148 246.161885 157.578893 234.578893 181.203893"></polygon>
                            <polygon id="Path" fill="#FFFFFF" points="248.406762 102.131148 259.996926 102.131148 259.996926 159.92418 248.406762 154.351434"></polygon>
                            <polygon id="Path" fill="#FFFFFF" points="262.808402 102.131148 274.391393 102.131148 274.391393 148.893443 262.808402 159.400615"></polygon>
                            <polygon id="Path" fill="#FFFFFF" points="277.202869 102.131148 288.785861 102.131148 288.785861 154.860656 277.202869 147.968238"></polygon>
                            <polygon id="Path" fill="#FFFFFF" points="291.597336 102.131148 303.180328 102.131148 303.180328 135.38832 291.597336 153.060451"></polygon>
                            <polygon id="Path" fill="#FFFFFF" points="305.991803 102.131148 317.581967 102.131148 317.581967 134.628074 305.991803 132.921107"></polygon>
                            <polygon id="Path" fill="#FFFFFF" points="320.630123 102.131148 332.220287 102.131148 332.220287 117.400615 320.630123 131.321721"></polygon>
                            <polygon id="Path" fill="#FFFFFF" points="335.02459 102.131148 346.614754 102.131148 346.614754 132.985656 335.02459 119.652664"></polygon>
                            <polygon id="Path" fill="#FFFFFF" points="349.42623 102.131148 361.009221 102.131148 361.009221 110.042008 349.42623 129.435451"></polygon>
                            <polygon id="Path" fill="#FFFFFF" points="375.403689 102.131148 375.403689 129.679303 363.820697 109.604508 363.820697 102.131148"></polygon>
                            <rect id="Rectangle" fill="#D6DAFF" x="248.227459" y="72.4887295" width="57.7643443" height="1"></rect>
                            <rect id="Rectangle" fill="#D6DAFF" x="248.349385" y="76.0245902" width="32.6905738" height="1"></rect>
                            <rect id="Rectangle" fill="#D6DAFF" x="248.227459" y="79.6895492" width="44.7254098" height="1"></rect>
                            <rect id="Rectangle" fill="#D6DAFF" x="248.227459" y="84.1936475" width="38.4713115" height="1"></rect>
                            <rect id="Rectangle" fill="#D9D8D6" x="99.0614754" y="146.79918" width="73.9159836" height="1.04713115"></rect>
                            <rect id="Rectangle" fill="#D9D8D6" x="99.2192623" y="151.324795" width="41.835041" height="1.04713115"></rect>
                            <rect id="Rectangle" fill="#D9D8D6" x="99.0614754" y="156.015369" width="57.2336066" height="1.04713115"></rect>
                            <rect id="Rectangle" fill="#D9D8D6" x="99.0614754" y="161.781762" width="49.2223361" height="1.04713115"></rect>
                            <circle id="Oval" fill="#3066B3" cx="365.692623" cy="197.785861" r="5.28586066"></circle>
                            <rect id="Rectangle" fill="#D9D8D6" x="57.642418" y="290.765369" width="1.68545082" height="1.12602459"></rect>
                            <path d="M119.97541,291.905738 L116.61168,291.905738 L116.61168,290.786885 L119.97541,290.786885 L119.97541,291.905738 Z M113.240779,291.905738 L109.869877,291.905738 L109.869877,290.786885 L113.240779,290.786885 L113.240779,291.905738 Z M106.498975,291.905738 L103.128074,291.905738 L103.128074,290.786885 L106.498975,290.786885 L106.498975,291.905738 Z M99.7571721,291.905738 L96.3934426,291.905738 L96.3934426,290.786885 L99.7571721,290.786885 L99.7571721,291.905738 Z M93.022541,291.905738 L89.6516393,291.905738 L89.6516393,290.786885 L93.022541,290.786885 L93.022541,291.905738 Z M86.2807377,291.905738 L82.9098361,291.905738 L82.9098361,290.786885 L86.2807377,290.786885 L86.2807377,291.905738 Z M79.5461066,291.905738 L76.1752049,291.905738 L76.1752049,290.786885 L79.5461066,290.786885 L79.5461066,291.905738 Z M72.8043033,291.905738 L69.4334016,291.905738 L69.4334016,290.786885 L72.8043033,290.786885 L72.8043033,291.905738 Z M66.0625,291.905738 L62.6987705,291.905738 L62.6987705,290.786885 L66.0625,290.786885 L66.0625,291.905738 Z M123.360656,290.83709 L122.578893,290.033811 L124.981557,287.67418 L125.770492,288.477459 L123.360656,290.83709 Z M128.173156,286.117828 L127.384221,285.314549 L129.794057,282.954918 L130.582992,283.758197 L128.173156,286.117828 Z M132.985656,281.398566 L132.196721,280.595287 L134.606557,278.235656 L135.38832,279.038934 L132.985656,281.398566 Z M137.798156,276.679303 L137.009221,275.876025 L139.411885,273.516393 L140.20082,274.319672 L137.798156,276.679303 Z M142.610656,271.960041 L141.821721,271.156762 L144.224385,268.797131 L145.01332,269.60041 L142.610656,271.960041 Z M147.415984,267.240779 L146.634221,266.4375 L149.036885,264.077869 L149.82582,264.881148 L147.415984,267.240779 Z M152.228484,262.521516 L151.446721,261.718238 L153.849385,259.358607 L154.63832,260.161885 L152.228484,262.521516 Z M157.040984,257.802254 L156.252049,256.998975 L158.661885,254.639344 L159.443648,255.442623 L157.040984,257.802254 Z M161.853484,253.082992 L161.064549,252.279713 L163.474385,249.920082 L164.256148,250.723361 L161.853484,253.082992 Z M166.665984,248.36373 L165.877049,247.560451 L168.279713,245.20082 L169.068648,246.004098 L166.665984,248.36373 Z M171.471311,243.644467 L170.696721,242.848361 L173.099385,240.481557 L173.88832,241.284836 L171.471311,243.644467 Z M176.283811,238.925205 L175.516393,238.114754 L177.919057,235.755123 L178.707992,236.55123 L176.283811,238.925205 Z M181.096311,234.205943 L180.307377,233.409836 L182.717213,231.050205 L183.506148,231.846311 L181.096311,234.205943 Z M185.908811,229.48668 L185.119877,228.690574 L187.529713,226.330943 L188.311475,227.127049 L185.908811,229.48668 Z M190.721311,224.77459 L189.932377,223.971311 L192.335041,221.61168 L193.123975,222.407787 L190.721311,224.77459 Z M195.533811,220.055328 L194.744877,219.252049 L197.147541,216.892418 L197.936475,217.695697 L195.533811,220.055328 Z M200.339139,215.336066 L199.557377,214.532787 L201.960041,212.173156 L202.748975,212.976434 L200.339139,215.336066 Z M205.151639,210.616803 L204.362705,209.813525 L206.772541,207.453893 L207.561475,208.257172 L205.151639,210.616803 Z M209.964139,205.897541 L209.175205,205.094262 L211.585041,202.734631 L212.366803,203.53791 L209.964139,205.897541 Z M214.776639,201.178279 L213.987705,200.375 L216.397541,198.015369 L217.179303,198.818648 L214.776639,201.178279 Z M219.589139,196.459016 L218.800205,195.655738 L221.202869,193.296107 L221.991803,194.099385 L219.589139,196.459016 Z M224.394467,191.739754 L223.612705,190.936475 L226.015369,188.576844 L226.804303,189.380123 L224.394467,191.739754 Z M229.206967,187.020492 L228.425205,186.217213 L230.827869,183.857582 L231.616803,184.660861 L229.206967,187.020492 Z M234.019467,182.30123 L233.230533,181.497951 L235.640369,179.13832 L236.429303,179.941598 L234.019467,182.30123 Z M238.831967,177.581967 L238.043033,176.778689 L240.452869,174.419057 L241.234631,175.222336 L238.831967,177.581967 Z M243.644467,172.862705 L242.855533,172.059426 L245.258197,169.699795 L246.047131,170.503074 L243.644467,172.862705 Z M248.456967,168.143443 L247.668033,167.340164 L250.070697,164.980533 L250.859631,165.783811 L248.456967,168.143443 Z M253.262295,163.42418 L252.480533,162.620902 L254.883197,160.26127 L255.672131,161.064549 L253.262295,163.42418 Z M258.074795,158.704918 L257.285861,157.901639 L259.695697,155.542008 L260.484631,156.345287 L258.074795,158.704918 Z M262.887295,153.985656 L262.098361,153.182377 L264.508197,150.822746 L265.289959,151.626025 L262.887295,153.985656 Z M267.699795,149.266393 L266.910861,148.463115 L269.313525,146.103484 L270.102459,146.906762 L267.699795,149.266393 Z M272.512295,144.547131 L271.723361,143.743852 L274.126025,141.384221 L274.914959,142.1875 L272.512295,144.547131 Z M277.317623,139.827869 L276.535861,139.02459 L278.938525,136.664959 L279.727459,137.468238 L277.317623,139.827869 Z M282.130123,135.108607 L281.348361,134.3125 L283.751025,131.952869 L284.539959,132.748975 L282.130123,135.108607 Z M286.942623,130.389344 L286.153689,129.593238 L288.563525,127.233607 L289.352459,128.029713 L286.942623,130.389344 Z M291.755123,125.670082 L290.966189,124.873975 L293.376025,122.514344 L294.157787,123.310451 L291.755123,125.670082 Z" id="Shape" fill="#D9D8D6"></path>
                            <polygon id="Path" fill="#D9D8D6" points="298.13832 120.98668 297.378074 120.17623 296.581967 120.957992 295.793033 120.154713 297.406762 118.569672 298.955943 120.21209"></polygon>
                            <path d="M322.430328,146.641393 L319.998975,144.080943 L320.816598,143.306352 L323.247951,145.873975 L322.430328,146.641393 Z M317.574795,141.51332 L315.143443,138.945697 L315.961066,138.171107 L318.385246,140.73873 L317.574795,141.51332 Z M312.704918,136.378074 L310.280738,133.810451 L311.091189,133.043033 L313.522541,135.610656 L312.704918,136.378074 Z M307.856557,131.25 L305.425205,128.682377 L306.242828,127.907787 L308.67418,130.47541 L307.856557,131.25 Z M303.001025,126.114754 L300.569672,123.547131 L301.387295,122.779713 L303.811475,125.340164 L303.001025,126.114754 Z" id="Shape" fill="#D9D8D6"></path>
                            <polygon id="Path" fill="#D9D8D6" points="326.432377 150.872951 324.854508 149.209016 325.672131 148.434426 326.418033 149.223361 327.14959 148.427254 327.981557 149.1875"></polygon>
                            <path d="M330.348361,146.605533 L329.516393,145.845287 L331.883197,143.26332 L332.715164,144.023566 L330.348361,146.605533 Z M335.081967,141.441598 L334.221311,140.681352 L336.595287,138.099385 L337.420082,138.859631 L335.081967,141.441598 Z M339.815574,136.277664 L338.990779,135.553279 L341.357582,132.971311 L342.182377,133.731557 L339.815574,136.277664 Z M344.556352,131.11373 L343.724385,130.353484 L346.091189,127.771516 L346.923156,128.531762 L344.556352,131.11373 Z M349.289959,125.949795 L348.457992,125.189549 L350.824795,122.607582 L351.656762,123.367828 L349.289959,125.949795 Z M354.023566,120.785861 L353.19877,120.025615 L355.565574,117.443648 L356.390369,118.203893 L354.023566,120.785861 Z M358.757172,115.621926 L357.932377,114.86168 L360.29918,112.279713 L361.123975,113.039959 L358.757172,115.621926 Z M363.497951,110.457992 L362.665984,109.733607 L365.032787,107.151639 L365.864754,107.904713 L363.497951,110.457992 Z M368.231557,105.286885 L367.39959,104.533811 L369.766393,101.951844 L370.598361,102.71209 L368.231557,105.286885 Z M372.965164,100.130123 L372.140369,99.369877 L374.507172,96.7879098 L375.331967,97.5409836 L372.965164,100.130123 Z M377.69877,94.9590164 L376.873975,94.2059426 L379.240779,91.6239754 L380.072746,92.3770492 L377.69877,94.9590164 Z" id="Shape" fill="#D9D8D6"></path>
                            <polygon id="Rectangle" fill="#D9D8D6" transform="translate(382.607757, 88.817728) rotate(-47.490000) translate(-382.607757, -88.817728) " points="381.765032 88.2547156 383.450483 88.2547156 383.450483 89.3807401 381.765032 89.3807401"></polygon>
                            <polygon id="Path" fill="#D9D8D6" points="385.186475 91.5235656 386.814549 84.1936475 379.656762 86.4456967"></polygon>
                            <path d="M202.211066,109.446721 C202.211066,109.446721 205.739754,111.476434 207.045082,118.376025 C208.35041,125.275615 209.533811,133.380123 204.628074,134.032787 C202.493191,134.383396 200.336153,134.582323 198.173156,134.628074 L197.64959,145.809426 L185.492828,142.797131 L186.991803,131.321721 C186.991803,131.321721 180.128074,125.526639 179.862705,119.645492 C179.597336,113.764344 184.445697,107.094262 190.979508,106.965164 C194.868396,106.877609 198.72108,107.72884 202.211066,109.446721 L202.211066,109.446721 Z" id="Path" fill="#007EA7"></path>
                            <path d="M237.146516,158.461066 L243.92418,147.702869 C243.979804,147.612911 244.050108,147.53291 244.132172,147.466189 L254.015369,139.232582 C254.241203,139.044293 254.538219,138.964452 254.828022,139.014132 C255.117825,139.063813 255.37129,139.238022 255.521516,139.490779 L255.650615,139.720287 C255.877291,140.101661 255.824671,140.586938 255.521516,140.910861 L250.45082,146.376025 C250.331479,146.502765 250.247406,146.658547 250.206967,146.827869 L249.604508,149.359631 C249.531084,149.680472 249.619563,150.016926 249.841319,150.260142 C250.063075,150.503358 250.389949,150.622452 250.716189,150.578893 L251.978484,150.406762 C252.284744,150.36518 252.59309,150.466957 252.814419,150.682683 C253.035749,150.898409 253.145397,151.204045 253.11168,151.51127 L253.11168,151.51127 C253.067056,151.881121 252.821333,152.195867 252.473361,152.328893 L248.170082,154 C247.993918,154.069757 247.840159,154.186317 247.72541,154.33709 L244.971311,158.066598 C244.902251,158.159679 244.817266,158.239808 244.720287,158.303279 L239.326844,161.925205 C239.070176,162.095399 238.749601,162.138395 238.457158,162.041847 C238.164715,161.945298 237.932752,161.719886 237.827869,161.430328 L237.110656,159.328893 C236.986048,159.049963 236.999321,158.728764 237.146516,158.461066 Z" id="Path" fill="#007EA7"></path>
                            <path d="M211.154713,150.048156 L218.879098,167.591189 C219.299234,168.547661 220.163628,169.235738 221.189957,169.430683 C222.216285,169.625628 223.272769,169.302411 224.014344,168.566598 L236.995902,155.656762 L242.898566,164.241803 L225.326844,182.796107 C223.842337,184.367912 221.712571,185.161994 219.561391,184.945753 C217.410211,184.729512 215.481104,183.527423 214.339139,181.691598 L208.192623,171.83709 L201.020492,151.898566 L211.154713,150.048156 Z" id="Path" fill="#052F5F"></path>
                            <path d="M162.090164,331.079918 L162.090164,336.423156 C162.092081,336.880261 161.911344,337.319198 161.588119,337.642422 C161.264894,337.965647 160.825958,338.146384 160.368852,338.144467 L145.752049,338.144467 C145.069196,338.153382 144.445649,337.75777 144.162824,337.136176 C143.879999,336.514583 143.991389,335.784575 144.446721,335.275615 L154.20082,323.943648 C154.527878,323.555667 155.009465,323.331764 155.516906,323.331764 C156.024347,323.331764 156.505933,323.555667 156.832992,323.943648 L161.731557,329.932377 C161.985716,330.259051 162.113092,330.666654 162.090164,331.079918 L162.090164,331.079918 Z" id="Path" fill="#13293D"></path>
                            <path d="M186.970287,335.921107 L186.970287,336.57377 C186.970287,337.441242 187.673512,338.144467 188.540984,338.144467 L213.29918,338.144467 C214.011119,338.144766 214.634227,337.666178 214.817562,336.97825 C215.000898,336.290321 214.698607,335.565111 214.080943,335.211066 L198.252049,326.109631 C197.649719,325.76308 196.891259,325.853512 196.387295,326.331967 L187.457992,334.780738 C187.14444,335.076867 186.967828,335.489828 186.970287,335.921107 L186.970287,335.921107 Z" id="Path" fill="#13293D"></path>
                            <path d="M209.096311,221.425205 L208.085041,236.737705 L202.074795,327.938525 L186.963115,335.246926 L186.963115,258.505123 L175.645492,291.669057 L164.385246,332.26332 L164.170082,333.03791 C164.037178,333.471686 163.687461,333.804609 163.247674,333.916022 C162.807886,334.027434 162.341842,333.901171 162.018443,333.582992 L155.793033,327.077869 L149.983607,329.043033 L174.246926,220.256148 L174.246926,220.141393 L195.684426,200.382172 L209.096311,221.425205 Z" id="Path" fill="#13293D"></path>
                            <path d="M210.788934,236.235656 L208.085041,236.737705 L196.351434,238.932377 L194.759221,219.252049 L189.946721,238.932377 C189.946721,238.932377 182.351434,239.778689 177.108607,238.129098 L157.607582,320.343238 L163.632172,326.489754 L156.804303,323.369877 L164.392418,332.277664 L164.177254,333.052254 C164.04435,333.486031 163.694633,333.818953 163.254846,333.930366 C162.815058,334.041779 162.349015,333.915515 162.025615,333.597336 L155.800205,327.092213 L149.990779,329.057377 L174.254098,220.270492 L198.015369,208.077869 L209.125,221.453893 L210.788934,236.235656 Z" id="Path" fill="#052F5F"></path>
                            <path d="M191.223361,139.66291 C191.223361,139.66291 168.071721,144.109631 166.242828,148.685451 C164.413934,153.26127 166.501025,171.048156 170.546107,181.777664 C174.591189,192.507172 172.826844,202.390369 171.177254,208.04918 C169.527664,213.707992 164.966189,229.35041 164.966189,229.35041 C164.966189,229.35041 177.058402,235.360656 188.921107,234.679303 L195.677254,207.425205 L199.980533,234.679303 C199.980533,234.679303 212.044057,234.571721 213.141393,229.35041 C214.23873,224.129098 213.629098,155.542008 211.879098,151.324795 C210.129098,147.107582 201.38627,141.814549 191.223361,139.66291 Z" id="Path" fill="#FFFFFF"></path>
                            <path d="M157.248975,225.800205 C157.248975,225.800205 161.222336,229.38627 161.4375,232.563525 C161.652664,235.740779 161.767418,239.298156 160.555328,238.63832 C159.343238,237.978484 159.221311,233.452869 158.016393,233.094262 C156.811475,232.735656 156.474385,238.272541 157.248975,239.706967 C158.023566,241.141393 160.282787,245.007172 159.206967,245.667008 C158.131148,246.326844 153.827869,241.36373 152.393443,237.505123 C150.959016,233.646516 149.96209,220.184426 149.96209,220.184426 L157.578893,220.980533 L157.248975,225.800205 Z" id="Path" fill="#007EA7"></path>
                            <path d="M172.296107,151.331967 L174.655738,153.376025 C174.655738,153.376025 181.906762,173.608607 181.921107,182.308402 C181.935451,191.008197 176.226434,204.836066 172.855533,191.746926 C169.484631,178.657787 167.117828,172.418033 167.117828,172.418033 L172.296107,151.331967 Z" id="Path" fill="#E3E3E3"></path>
                            <path d="M172.977459,149.567623 C175,153.038934 177.48873,159.744877 172.977459,170.151639 C168.466189,180.558402 164.980533,190.95082 164.980533,190.95082 L160.139344,223.66291 L148.290984,221.898566 C148.290984,221.898566 151.159836,195.36168 152.974385,185.643443 C154.788934,175.925205 166.242828,148.671107 166.242828,148.671107 C166.242828,148.671107 171.227459,146.548156 172.977459,149.567623 Z" id="Path" fill="#052F5F"></path>
                            <polygon id="Path" fill="#FFFFFF" points="184.739754 137.461066 199.693648 139.003074 197.857582 174.289959 183.943648 146.79918"></polygon>
                            <path d="M183.943648,139.66291 L196.910861,172.410861 L181.935451,161.143443 C181.667707,160.941215 181.491495,160.64071 181.445739,160.308311 C181.399984,159.975912 181.488451,159.638973 181.691598,159.371926 L185.535861,154.30123 C185.950088,153.752012 185.851493,152.972793 185.313525,152.544057 L179.102459,147.595287 C178.838129,147.385393 178.668869,147.078381 178.632483,146.742819 C178.596096,146.407257 178.695615,146.0711 178.908811,145.809426 L183.943648,139.66291 Z" id="Path" fill="#052F5F"></path>
                            <path d="M199.578893,141.169057 L203.57377,146.849385 C203.975433,147.453316 203.975433,148.239306 203.57377,148.843238 L200.941598,152.866803 C200.475428,153.580879 200.574238,154.524066 201.178279,155.126025 L203.329918,157.277664 C203.86501,157.807488 204.013798,158.614377 203.702869,159.300205 L197.965164,171.83709 L199.578893,141.169057 Z" id="Path" fill="#052F5F"></path>
                            <path d="M205.266393,110.572746 C205.266393,110.572746 205.445697,112.372951 201.04918,112.509221 C196.652664,112.645492 191.373975,112.509221 192.844262,116.726434 C194.314549,120.943648 198.151639,134.656762 198.151639,134.656762 L197.98668,138.852459 L192.593238,138.300205 C192.593238,138.300205 189.007172,122.220287 188.168033,121.015369 C187.328893,119.810451 186.303279,121.280738 186.303279,122.019467 C186.303279,122.758197 188.770492,125.089139 188.935451,125.892418 C189.10041,126.695697 188.003074,129.306352 188.003074,129.306352 C188.003074,129.306352 182.430328,123.690574 182.430328,123.489754 C182.430328,123.288934 185.29918,112.803279 185.29918,112.803279 L193.848361,108.664959 L205.266393,110.572746 Z" id="Path" fill="#13293D"></path>
                            <path d="M202.404713,111.540984 C202.404713,111.540984 191.431352,111.447746 191.345287,112.767418 C191.259221,114.08709 192.643443,115.413934 191.818648,116.726434 C190.993852,118.038934 195.619877,127.98668 199.327869,128.065574 C199.449562,128.076242 199.571955,128.076242 199.693648,128.065574 C203.459016,127.44877 200.733607,122.9375 205.38832,122.693648 C210.043033,122.449795 210.30123,129.865779 209.512295,131.35041 C208.723361,132.835041 208.027664,135.789959 204.247951,135.52459 C200.468238,135.259221 192.557377,134.807377 191.818648,131.35041 C191.079918,127.893443 189.243852,119.63832 187.701844,119.20082 C186.159836,118.76332 184.115779,123.152664 186.984631,124.938525 C189.853484,126.724385 186.762295,133.043033 186.762295,133.043033 C186.762295,133.043033 176.434426,124.077869 177.302254,118.734631 C178.170082,113.391393 178.973361,110.04918 181.956967,107.940574 C184.940574,105.831967 204.599385,101.973361 205.911885,103.637295 C207.224385,105.30123 208.285861,113.470287 202.404713,111.540984 Z" id="Path" fill="#133C55"></path>
                            <path d="M199.643443,140.021516 L188.576844,139.003074 C188.576844,139.003074 195.139344,140.530738 194.960041,141.663934 C194.780738,142.797131 186.970287,141.663934 186.970287,141.663934 C186.970287,141.663934 188.842213,142.531762 187.766393,142.890369 C187.004702,143.128762 186.225267,143.306233 185.435451,143.421107 L197.857582,174.26127 L190.197746,144.568648 C192.017337,145.030706 193.906687,145.152286 195.770492,144.927254 L197.95082,172.410861 L199.643443,140.021516 Z" id="Path" fill="#E3E3E3"></path>
                            <path d="M251.497951,218.699795 C251.497951,218.699795 252.050205,218.75 254.617828,218.699795 C257.185451,218.64959 261.732582,222.594262 261.92623,226.739754 C261.99303,229.124767 262.943947,231.399811 264.594262,233.122951 L251.497951,233.122951 L251.497951,218.699795 Z" id="Path" fill="#052F5F"></path>
                            <path d="M274.391393,211.01127 L280.071721,211.01127 C282.86168,211.01127 284.260246,233.122951 285.974385,233.122951 L274.391393,233.122951 L274.391393,211.01127 Z" id="Path" fill="#052F5F"></path>
                            <circle id="Oval" fill="#052F5F" transform="translate(199.577446, 180.726258) rotate(-80.810000) translate(-199.577446, -180.726258) " cx="199.577446" cy="180.726258" r="1.59221311"></circle>
                            <path d="M201.156762,191.739754 C201.156756,192.384395 200.768045,192.965423 200.172195,193.211441 C199.576344,193.457459 198.890946,193.319916 198.436146,192.863058 C197.981346,192.4062 197.846899,191.720188 198.095605,191.125454 C198.34431,190.530721 198.927086,190.144637 199.571721,190.147541 C199.993346,190.147537 200.397598,190.315516 200.695058,190.614322 C200.992518,190.913127 201.15867,191.318134 201.156762,191.739754 Z" id="Path" fill="#052F5F"></path>
                            <path d="M199.543033,205.38832 C199.543033,206.267675 198.830175,206.980533 197.95082,206.980533 C197.071465,206.980533 196.358607,206.267675 196.358607,205.38832 C196.358607,204.508965 197.071465,203.796107 197.95082,203.796107 C198.830175,203.796107 199.543033,204.508965 199.543033,205.38832 L199.543033,205.38832 Z" id="Path" fill="#052F5F"></path>
                            <polygon id="Path" fill="#052F5F" points="191.546107 242.066598 186.970287 258.519467 187.457992 334.780738 202.074795 327.938525 202.376025 323.369877 192.765369 326.776639 200.920082 320.536885 193.496926 322.186475"></polygon>
                        </g>
                    </g>
                </g>
            </g>
        </g>
    </g>
</svg>