<?xml version="1.0" encoding="UTF-8"?>
<svg width="613px" height="368px" viewBox="0 0 613 368" version="1.1" xmlns="http://www.w3.org/2000/svg" xmlns:xlink="http://www.w3.org/1999/xlink">
    <!-- Generator: Sketch 53.2 (72643) - https://sketchapp.com -->
    <title>Business Consultation</title>
    <desc>Created with Sketch.</desc>
    <defs>
        <linearGradient x1="32.9905089%" y1="47.4817516%" x2="99.1436197%" y2="52.9683908%" id="linearGradient-1">
            <stop stop-color="#3139EC" offset="0%"></stop>
            <stop stop-color="#FF0061" offset="100%"></stop>
        </linearGradient>
    </defs>
    <g id="Landing-Page" stroke="none" stroke-width="1" fill="none" fill-rule="evenodd">
        <g id="Landing-Page-Desktop-HD" transform="translate(-771.000000, -6116.000000)" fill-rule="nonzero">
            <g id="Section-10-:-Contact-Us" transform="translate(0.000000, 5950.000000)">
                <g id="Contac-us">
                    <g id="Group-26" transform="translate(150.000000, 10.000000)">
                        <g id="Business-Consultation" transform="translate(621.000000, 156.000000)">
                            <path d="M337.53,223.14 C336.825899,223.13514 336.190839,222.715687 335.91,222.07 C331.813136,213.447277 326.943217,205.213599 321.36,197.47 C312.57,185.7 300.53,176.41 300.41,176.31 C299.626073,175.658057 299.458064,174.520763 300.02,173.67 C300.289869,173.271657 300.711842,173.001999 301.1867,172.924433 C301.661558,172.846867 302.147404,172.968235 302.53,173.26 C310.613181,179.645064 317.886946,186.992708 324.19,195.14 C329.946594,203.088292 334.951481,211.554752 339.14,220.43 C339.581543,221.356811 339.21589,222.466986 338.31,222.95 C338.069035,223.075065 337.801487,223.140237 337.53,223.14 L337.53,223.14 Z" id="Path" fill="#3066B3"></path>
                            <path d="M511.55,295.59 C475.33,297.33 484.97,306.79 498.37,319.26 C511.77,331.73 478.2,346.17 418.13,350.48 C358.06,354.79 346.9,337 324.84,331 C302.54,324.94 285.29,330.52 304.91,341.79 C336.45,359.9 191.77,375.35 136.91,362.88 C89.7,352.15 138.59,342.74 142.42,327.88 C146.25,313.02 38.76,328.88 4.24,299.36 C-9.15,287.89 10.3,273.62 47.83,260.45 C106.99,239.7 211.07,221.68 302.24,221.68 C459.24,221.68 485.59,242.01 485.59,242.01 C485.59,242.01 499.77,244.93 517.34,250.19 C537.52,256.19 562.19,265.33 575.06,276.61 C595.37,294.44 547.77,293.85 511.55,295.59 Z" id="Path" fill="url(#linearGradient-1)" opacity="0.04"></path>
                            <polygon id="Path" fill="#EAEAEA" points="391.11 184.74 401.82 234.74 433.96 234.74 442.78 184.74"></polygon>
                            <path d="M341.68,223.14 C341.408513,223.140237 341.140965,223.075065 340.9,222.95 C339.994537,222.466932 339.62547,221.359732 340.06,220.43 C344.249755,211.557479 349.25105,203.091431 355,195.14 C361.305974,186.995266 368.579406,179.647957 376.66,173.26 C377.042596,172.968235 377.528442,172.846867 378.0033,172.924433 C378.478158,173.001999 378.900131,173.271657 379.17,173.67 C379.731936,174.520763 379.563927,175.658057 378.78,176.31 C378.66,176.41 366.61,185.71 357.78,197.47 C352.200239,205.213986 347.333674,213.447651 343.24,222.07 C342.968241,222.696332 342.362174,223.112031 341.68,223.14 L341.68,223.14 Z" id="Path" fill="#3066B3"></path>
                            <path d="M424.72,184.74 C424.72,184.74 418.84,167.74 428.5,154.28 C438.16,140.82 444.4,139.78 445.72,131.6 C448.04,117.36 440.62,113.36 441.58,105.24 C442.99,93.24 456,97.62 454.81,83.34 C453.86,72 460.68,51.22 440.26,62 C422,71.59 417.16,99.25 414.32,126 C411.48,152.75 416.05,184.71 416.05,184.71 L424.72,184.74 Z" id="Path" fill="#F2F1F0"></path>
                            <path d="M407.36,184.74 C407.36,184.74 412.71,169.27 403.92,157.04 C395.13,144.81 389.46,143.85 388.25,136.4 C386.15,123.46 392.9,119.82 392.03,112.4 C390.74,101.46 378.91,105.46 380.03,92.47 C380.89,82.15 374.7,63.26 393.26,73.03 C409.91,81.78 414.26,106.94 416.86,131.3 C419.46,155.66 415.28,184.7 415.28,184.7 L407.36,184.74 Z" id="Path" fill="#EAEAEA"></path>
                            <path d="M419.89,185.06 C419.745194,185.056702 419.619465,184.959363 419.58,184.82 C418.301184,179.703935 417.55389,174.469528 417.35,169.2 C417.22,161.45 422.59,139.37 429.99,130.71 C434.91,124.95 433.33,117.62 431.65,109.86 C430.615334,105.820581 430.035071,101.678237 429.92,97.51 C430.08,85.85 438.45,78.44 438.53,78.37 C438.613924,78.2833108 438.739474,78.2511972 438.854715,78.2869434 C438.969956,78.3226896 439.055293,78.4202177 439.075425,78.5391838 C439.095558,78.6581499 439.047062,78.7783261 438.95,78.85 C438.86,78.92 430.7,86.14 430.55,97.52 C430.669018,101.637878 431.245902,105.729724 432.27,109.72 C433.98,117.64 435.59,125.12 430.47,131.12 C423.16,139.67 417.85,161.52 417.98,169.19 C418.183146,174.408906 418.923727,179.59297 420.19,184.66 C420.214449,184.740927 420.204786,184.828329 420.16325,184.901962 C420.121714,184.975594 420.051908,185.029069 419.97,185.05 L419.89,185.06 Z" id="Path" fill="#F4F4F4"></path>
                            <path d="M411.7,185.06 L411.7,185.06 C411.529629,185.039319 411.403549,184.891501 411.41,184.72 C411.41,184.44 413.31,156.58 410.41,149.15 C409.8,147.56 408.89,145.77 407.93,143.87 C404.6,137.31 400.45,129.14 402.57,119.35 C404.22,111.77 400.21,106.35 396.67,101.54 C394.43,98.49 392.48,95.86 392.48,93.22 C392.48,85.86 385.18,77.64 385.11,77.56 C384.986722,77.4353293 384.986722,77.2346707 385.11,77.11 C385.236742,76.9918695 385.433258,76.9918695 385.56,77.11 C385.86,77.45 393.09,85.59 393.09,93.19 C393.09,95.62 394.98,98.19 397.16,101.13 C400.6,105.79 404.87,111.59 403.16,119.45 C401.09,129.02 405.16,137.08 408.46,143.55 C409.46,145.47 410.35,147.27 410.97,148.89 C413.9,156.45 412.07,183.58 411.97,184.73 C411.977064,184.892672 411.86085,185.034712 411.7,185.06 Z" id="Path" fill="#F4F4F4"></path>
                            <rect id="Rectangle" fill="#3066B3" x="271.75" y="167.23" width="139.7" height="9.89" rx="4.01"></rect>
                            <path d="M344.56,167.23 C344.74,167.23 356.25,129.65 356.25,129.65 L404.61,129.65 L392.83,167.23 L344.56,167.23 Z" id="Path" fill="#FFBC48"></path>
                            <path d="M346.5,161.24 L320.31,161.24 C319.702487,161.24 319.21,161.732487 319.21,162.34 L319.21,167.23 L344.56,167.23 L346.5,161.24 Z" id="Path" fill="#FCAF3F"></path>
                            <path d="M356.25,129.65 L354.11,129.65 C353.81251,129.653139 353.550529,129.846602 353.46,130.13 L343.72,161.24 L346.5,161.24 L356.25,129.65 Z" id="Path" fill="#FCAF3F"></path>
                            <path d="M304.87,154.7 C304.806418,156.344539 304.468429,157.966887 303.87,159.5 C303.761058,159.776345 303.637551,160.046724 303.5,160.31 C303.138086,161.013739 302.713007,161.683155 302.23,162.31 C300.67957,164.259683 298.801527,165.924542 296.68,167.23 L283.85,167.23 C283.85,167.23 278.75,163.59 276.96,158.78 C275.956477,155.682588 275.956477,152.347412 276.96,149.25 C281.69299,147.914724 286.605644,147.327635 291.52,147.51 C300.03,147.75 304.52,149.25 304.52,149.25 C304.729975,150.271992 304.863676,151.308182 304.92,152.35 C304.95845,153.133537 304.941743,153.918808 304.87,154.7 Z" id="Path" fill="#052F5F"></path>
                            <path d="M312.37,157.89 C312.37,161.02 309.57,163.55 306.12,163.55 C304.724444,163.560976 303.361754,163.126597 302.23,162.31 C302.713007,161.683155 303.138086,161.013739 303.5,160.31 C304.220142,160.955007 305.153234,161.311149 306.12,161.31 C307.409114,161.431314 308.655721,160.81206 309.337876,159.711516 C310.02003,158.610971 310.02003,157.219029 309.337876,156.118484 C308.655721,155.01794 307.409114,154.398686 306.12,154.52 C305.695685,154.523891 305.274346,154.591305 304.87,154.72 C304.925084,153.937635 304.925084,153.152365 304.87,152.37 C305.282718,152.297376 305.700942,152.260572 306.12,152.26 C309.57,152.24 312.37,154.77 312.37,157.89 Z" id="Path" fill="#052F5F"></path>
                            <rect id="Rectangle" fill="#3066B3" x="335.49" y="177.11" width="8.23" height="102.84"></rect>
                            <path d="M368.11,290 C368.11,290 356.73,292.87 339.61,292.87 C329.266721,292.86819 318.945885,291.907411 308.78,290 L335.49,280 L343.72,280 L368.11,290 Z" id="Path" fill="#3066B3"></path>
                            <path d="M572.32,110.59 C572.32,110.59 608,129.73 611.88,165 C614.03,184.63 616.88,230.12 578.8,258.34 C555.91,275.28 495.57,283.94 463.16,272.78 C431.16,261.78 423.49,246.89 425.99,223.52 C428.49,200.15 449.86,183.81 467.58,178.68 C485.3,173.55 491.13,173.08 503.32,155.51 C515.51,137.94 547.42,101.72 547.42,101.72 L572.32,110.59 Z" id="Path" fill="#408FFF"></path>
                            <path d="M570.8,131.57 C570.8,131.57 589.12,157.1 572.8,190.24 C556.48,223.38 530.14,233.41 511.4,234.15 C492.66,234.89 473.4,227.45 472.51,219.42 C471.62,211.39 508.11,175.2 508.11,175.2 L570.8,131.57 Z" id="Path" fill="#0951A4"></path>
                            <path d="M412.5,271.5 C410.733767,273.598946 408.804428,275.555035 406.73,277.35 L405.13,272.04 L402.25,275.91 C402.25,275.91 400.45,276.17 387.33,274.02 C378.17,272.51 369.68,267.95 365.33,265.32 C364.744333,264.958911 364.414036,264.29699 364.477666,263.611904 C364.541297,262.926818 364.987849,262.33705 365.63,262.09 C370.63,260.14 380.63,256.65 389.26,256.09 C390.73,255.99 392.11,255.9 393.41,255.84 C395.94,255.7 398.16,255.63 400.05,255.59 C405.6,255.49 408.41,255.73 408.41,255.73 C408.41,255.73 412.72,260.58 413.18,261.03 C413.953097,262.4804 414.621469,263.984237 415.18,265.53 C415.18,265.53 415.64,267.81 412.5,271.5 Z" id="Path" fill="#FFBC48"></path>
                            <path d="M432.43,298.36 C432.43,300.86 429.92,306.36 429.92,306.36 L427.06,302.3 L424.9,306.89 C424.9,306.89 424.9,308.2 406.2,310.3 C394.79,311.59 387.84,310.4 384.2,309.3 C383.536725,309.105578 383.040822,308.552223 382.919979,307.871686 C382.799136,307.191149 383.074211,306.500892 383.63,306.09 C387.48,303.26 395.06,297.83 402.51,293.28 C404.641861,291.974077 406.841631,290.782396 409.1,289.71 C410.5,289.04 411.81,288.48 413.01,288 C415.564117,286.932767 418.221515,286.131861 420.94,285.61 L431.37,295.1 C431.37,295.1 432.45,295.86 432.43,298.36 Z" id="Path" fill="#FFBC48"></path>
                            <path d="M422.25,284.06 L419.6,287.32 C419.6,287.32 418.97,292.09 422.6,294.96 C426.23,297.83 428.45,297.96 428.45,297.96 L432.38,294.18 L432.38,286.27 L422.25,284.06 Z" id="Path" fill="#007EA7"></path>
                            <path d="M412,252.34 L408.43,255.68 C408.248764,257.700643 408.89055,259.70893 410.21,261.25 C411.525112,263.029575 413.237118,264.477931 415.21,265.48 L419.58,262.71 L421.96,256.13 L412,252.34 Z" id="Path" fill="#007EA7"></path>
                            <path d="M396.8,267.19 C394.34,269.52 396.01,265.62 395.96,262.27 C395.74729,259.917423 394.877542,257.672017 393.45,255.79 C395.98,255.65 398.2,255.58 400.09,255.54 C400.37,257.51 399.12,265 396.8,267.19 Z" id="Path" fill="#FCAF3F"></path>
                            <path d="M413,298.59 C411.68,300.59 412.1,295.95 411.08,293.74 C410.06,291.53 409.16,289.92 409.08,289.74 C410.48,289.07 411.79,288.51 412.99,288.03 C414.38,290.06 414.35,296.61 413,298.59 Z" id="Path" fill="#FCAF3F"></path>
                            <path d="M502.81,178.66 C502.81,178.66 479.38,189.66 470.57,196.71 C461.76,203.76 411.57,248.07 411.57,248.07 C411.367044,251.701706 412.598838,255.267803 415,258 C419.08,263 422.55,264.71 422.55,264.71 C422.55,264.71 449.23,248 454.87,242 C458.659937,238.246731 463.3073,235.473415 468.41,233.92 C468.41,233.92 500.05,208.51 501.73,207.79 C503.41,207.07 525.73,198.2 526.42,198.2 C527.11,198.2 524,180 524,180 L502.81,178.66 Z" id="Path" fill="#E5E5E5"></path>
                            <path d="M516.58,188.44 C516.58,188.44 480.39,201.82 474.16,211.16 C467.93,220.5 421,279.47 421,279.47 C421,279.47 421,284.8 427.11,290.2 C433.22,295.6 436.28,295.59 436.28,295.59 C436.28,295.59 484.04,234.64 496.28,229.13 C508.52,223.62 521.62,221 530,216.91 C538.38,212.82 539.78,210.96 539.78,210.96 C539.78,210.96 536.9,192.04 536.36,191.86 C535.82,191.68 516.58,188.44 516.58,188.44 Z" id="Path" fill="#F2F1F0"></path>
                            <path d="M570.76,170.4 C566.21,171.96 564.76,174.6 563.69,179.99 C562.993445,184.02992 562.632214,188.12053 562.61,192.22 C562.61,192.22 563.33,193.93 558.3,203.54 C554.86,210.12 547.3,210.68 547.3,210.68 C547.3,210.68 542.62,212.35 532.67,209.48 C522.72,206.61 521.67,198.48 517.45,189.94 C513.23,181.4 501.75,178.32 501.75,178.32 C503.634945,175.760582 505.718019,173.353178 507.98,171.12 C512.42,166.56 515.17,168.12 518.78,162.37 C522.39,156.62 519.85,149.79 518.95,144.75 C518.05,139.71 520.95,137.75 524.61,133.25 C528.27,128.75 527.22,125.16 529.2,119.25 C530.419393,115.665017 532.761886,112.568578 535.88,110.42 L559.22,106.49 C559.22,106.49 569.29,110.27 572.22,114.32 C575.15,118.37 578.81,129.68 580.42,144.96 C582.03,160.24 575.32,168.84 570.76,170.4 Z" id="Path" fill="#3066B3"></path>
                            <path d="M467.58,103.61 C466.09082,102.587338 464.441536,101.820151 462.7,101.34 C459.055651,100.248121 455.303782,99.5540753 451.51,99.27 C448.02,99.1 439.51,99.76 439.51,99.76 C439.51,99.76 436.97,101.97 436.97,106.76 C436.942664,109.534587 437.573226,112.276159 438.81,114.76 C438.81,114.76 446.67,111.21 450.14,112.02 C454.37,113.02 456.7,111.52 458.46,112.42 C460.22,113.32 462.81,115.03 463.15,114.94 C463.49,114.85 466.32,114 466.32,114 L467.58,103.61 Z" id="Path" fill="#007EA7"></path>
                            <path d="M459.9,100.59 C459.295815,99.0561385 458.077441,97.845017 456.54,97.25 C454.428224,96.1753681 452.465108,94.830768 450.7,93.25 C450.0203,93.8788905 449.804747,94.8648445 450.16,95.72 C450.79,97.16 453.31,98.91 453.31,98.91 C452.289124,100.128483 452.367221,101.92472 453.49,103.05 C455.46,104.93 459.9,100.59 459.9,100.59 Z" id="Path" fill="#007EA7"></path>
                            <path d="M535.53,108.8 C535.53,108.8 512.99,119.7 504.25,116.8 C495.51,113.9 470.09,101.8 470.09,101.8 C470.09,101.8 466.61,103.13 464.45,108.28 C462.29,113.43 463.45,119.41 463.45,119.41 C463.45,119.41 496.06,135.18 506.45,136.25 C516.84,137.32 530.72,130.32 530.72,130.32 L542.45,107.32 L535.53,108.8 Z" id="Path" fill="#3066B3"></path>
                            <path d="M524.62,77.87 C524.62,77.87 522.94,80.15 522.62,89.26 C522.3,98.37 519.75,100.26 517.23,104.12 C514.71,107.98 516.15,111.43 520.95,114.07 C525.75,116.71 537.95,110.71 537.95,110.71 C537.95,110.71 541.09,101.13 540.61,99.93 C540.13,98.73 524.62,77.87 524.62,77.87 Z" id="Path" fill="#133C55"></path>
                            <path d="M535,107.68 C535,107.68 537,110.35 535,114.78 C533.341029,118.385798 532.69129,122.374094 533.12,126.32 C533.318802,127.982618 534.801993,129.186881 536.47,129.04 C541.097761,128.584973 545.528535,126.938075 549.33,124.26 C557.51,118.51 557.06,110.42 557.06,110.42 L554.36,102.42 L544.36,96.32 L535,107.68 Z" id="Path" fill="#007EA7"></path>
                            <path d="M530.62,78.87 C529.491529,83.9135757 529.117458,89.0966503 529.51,94.25 C529.805716,97.9464096 530.510012,101.598684 531.61,105.14 C532.521007,108.003942 535.41035,109.75208 538.37,109.23 C543.03,108.37 549.77,106.51 553.37,102.7 C559.31,96.49 558.37,84.18 558.37,84.18 L556,74.2 C556,74.2 547.82,73.48 546.29,73.2 C544.76,72.92 534.29,74.55 534.29,74.55 L530.62,78.87 Z" id="Path" fill="#13293D"></path>
                            <path d="M524.62,77.87 C523.491529,82.9135757 523.117458,88.0966503 523.51,93.25 C523.805716,96.9464096 524.510012,100.598684 525.61,104.14 C526.521007,107.003942 529.41035,108.75208 532.37,108.23 C537.03,107.37 543.77,105.51 547.37,101.7 C553.31,95.49 552.37,83.18 552.37,83.18 L550,73.2 C550,73.2 541.82,72.48 540.29,72.2 C538.76,71.92 528.29,73.55 528.29,73.55 L524.62,77.87 Z" id="Path" fill="#007EA7"></path>
                            <path d="M529.09,167.23 L556,171.36 C556,171.36 554.21,172.62 548.09,172.89 C541.97,173.16 529.09,167.23 529.09,167.23 Z" id="Path" fill="#052F5F"></path>
                            <path d="M517.94,150.08 L517.43,158.36 L516.81,161.77 C516.81,161.77 514.67,161.35 512.99,160.93 C511.31,160.51 511.38,161.53 505.14,159.68 C500.59,158.32 499.88,155.76 499.83,154.47 C499.796056,154.211108 499.796056,153.948892 499.83,153.69 L498.3,153.14 L498,153 C496.13,152.34 494.4,150.54 494.22,149.21 C494.131545,148.370625 494.344192,147.527124 494.82,146.83 C494.722679,146.274228 494.722679,145.705772 494.82,145.15 C495.004906,144.070176 495.428542,143.045249 496.06,142.15 C496.06,142.65 496.13,143.15 496.14,143.78 C496.594389,143.33809 497.150855,143.015203 497.76,142.84 C498.747229,143.44516 499.823818,143.890645 500.95,144.16 C501.200261,144.222029 501.454063,144.268782 501.71,144.3 L503.01,144.48 C505.122791,144.750921 507.249966,144.894514 509.38,144.91 C511.12,144.91 511.95,147 513.38,148.5 C514.81,150 517.94,150.08 517.94,150.08 Z" id="Path" fill="#007EA7"></path>
                            <path d="M497.78,142.81 C497.170855,142.985203 496.614389,143.30809 496.16,143.75 C496.16,143.16 496.16,142.62 496.08,142.12 L496.33,141.75 C496.778696,142.148428 497.264208,142.503354 497.78,142.81 L497.78,142.81 Z" id="Path" fill="#6774FF"></path>
                            <path d="M478.66,136.42 C478.66,136.42 481.26,134.61 487.2,135.24 C493.14,135.87 495.74,139.36 495.74,139.36 L491.2,143.27 L482.84,144.12 L478.66,136.42 Z" id="Path" fill="#FCAF3F"></path>
                            <path d="M495.74,149.23 C495.546392,150.131524 495.208727,150.995945 494.74,151.79 C494.407567,152.367362 494.000756,152.898569 493.53,153.37 C491.718725,155.130091 489.251249,156.048137 486.73,155.9 C483.04,155.72 477.73,153.74 477.29,147.81 C477.071693,143.963638 477.528593,140.108758 478.64,136.42 C478.64,136.42 480.53,139.9 486.45,140.62 C492.37,141.34 495.72,139.36 495.72,139.36 C495.72,139.36 495.88,140.22 496.01,141.56 C496.07,142.19 496.13,142.93 496.14,143.75 C496.216895,145.585956 496.082682,147.42467 495.74,149.23 L495.74,149.23 Z" id="Path" fill="#FFBC48"></path>
                            <path d="M499.87,153.69 C499.836056,153.948892 499.836056,154.211108 499.87,154.47 C498.841364,155.309022 497.492454,155.64625 496.19,155.39 C495.08909,155.101227 494.151501,154.380005 493.59,153.39 C494.060756,152.918569 494.467567,152.387362 494.8,151.81 C495.205931,152.54304 495.891321,153.08053 496.7,153.3 C497.261305,153.423815 497.846931,153.375013 498.38,153.16 L499.87,153.69 Z" id="Path" fill="#FFBC48"></path>
                            <path d="M503,144.45 L501.7,144.27 C501.444063,144.238782 501.190261,144.192029 500.94,144.13 C500.5398,143.459739 499.894094,142.971873 499.14,142.77 C498.684427,142.650069 498.205573,142.650069 497.75,142.77 C497.140855,142.945203 496.584389,143.26809 496.13,143.71 C496.13,143.12 496.13,142.58 496.05,142.08 C496.05,141.89 496.05,141.7 496,141.52 C497.023999,140.695584 498.360122,140.366129 499.65,140.62 C501.381359,141.190526 502.665012,142.658105 503,144.45 L503,144.45 Z" id="Path" fill="#FFBC48"></path>
                            <path d="M517.35,165 L522.35,166.11 L525.95,158.83 C525.95,158.83 527.75,153.88 525.95,152.83 C524.15,151.78 519.88,149.28 519.88,149.28 L517.95,155.96 L517.22,159.58 L517.09,162.71 L517.35,165 Z" id="Path" fill="#052F5F"></path>
                            <path d="M557.05,133.49 C557.05,133.49 556.05,136.21 558.21,144.57 C560.37,152.93 560.46,155.18 560.46,155.18 C560.46,155.18 537.71,151.41 529.53,149.25 C521.35,147.09 519.25,146.34 519.25,146.34 C517.926656,149.570388 517.061611,152.969983 516.68,156.44 C516.487491,159.304098 516.713193,162.180965 517.35,164.98 C517.35,164.98 517.85,157.04 519.11,154.04 C519.691431,152.527903 520.564681,151.144973 521.68,149.97 L563.33,158.42 C563.33,158.42 561.72,147 559.65,142.33 C558.402541,139.508958 557.528497,136.537208 557.05,133.49 Z" id="Path" fill="#052F5F"></path>
                            <path d="M524.62,77.87 C524.62,77.87 540.23,71.31 544.19,77.87 C548.15,84.43 546.36,92.3 545.45,99.54 C544.54,106.78 562.45,120.54 577.96,112.15 C591.16,104.99 583.47,97.41 580.47,95.97 C577.47,94.53 570.65,93.82 569.47,87.58 C568.29,81.34 569.11,73.58 562.99,67.58 C556.36253,61.0925793 546.529128,59.1313902 537.92,62.58 C523.37,67.93 524.62,77.87 524.62,77.87 Z" id="Path" fill="#133C55"></path>
                            <path d="M306.94,4.33 L306.94,43.91 C306.94,45.0610396 306.482751,46.1649355 305.668843,46.9788434 C304.854936,47.7927513 303.75104,48.25 302.6,48.25 L141.73,48.25 L127.35,59.18 C126.968662,59.4715369 126.451046,59.5100909 126.030725,59.2782647 C125.610405,59.0464385 125.366864,58.5880711 125.41,58.11 L126.32,48.25 L126.32,4.33 C126.32,3.1816126 126.776195,2.08026016 127.588228,1.26822764 C128.40026,0.456195119 129.501613,-3.86893628e-15 130.65,0 L302.65,0 C305.025757,0.0219478841 306.940101,1.95414131 306.94,4.33 Z" id="Path" fill="#F2F1F0"></path>
                            <path d="M193.39,16.74 L140.89,16.74 C140.481184,16.7794755 140.08536,16.5836489 139.868696,16.2347285 C139.652031,15.885808 139.652031,15.444192 139.868696,15.0952715 C140.08536,14.7463511 140.481184,14.5505245 140.89,14.59 L193.39,14.59 C193.943685,14.6434642 194.366197,15.1087396 194.366197,15.665 C194.366197,16.2212604 193.943685,16.6865358 193.39,16.74 L193.39,16.74 Z" id="Path" fill="#EAEAEA"></path>
                            <path d="M237.85,26.94 L140.85,26.94 C140.253532,26.94 139.77,26.4564675 139.77,25.86 C139.77,25.2635325 140.253532,24.78 140.85,24.78 L237.85,24.78 C238.446468,24.78 238.93,25.2635325 238.93,25.86 C238.93,26.4564675 238.446468,26.94 237.85,26.94 L237.85,26.94 Z" id="Path" fill="#EAEAEA"></path>
                            <path d="M267.1,37.13 L140.89,37.13 C140.293532,37.13 139.81,36.6464675 139.81,36.05 C139.81,35.4535325 140.293532,34.97 140.89,34.97 L267.1,34.97 C267.696467,34.9700001 268.18,35.4535325 268.18,36.05 C268.18,36.6464675 267.696467,37.1299999 267.1,37.13 L267.1,37.13 Z" id="Path" fill="#EAEAEA"></path>
                            <polygon id="Path" fill="#FFBC48" points="15.4 199.22 29.76 266.23 72.83 266.23 84.66 199.22"></polygon>
                            <path d="M60.44,199.22 C60.44,199.22 52.56,176.42 65.51,158.4 C78.46,140.38 86.82,139 88.6,128 C91.69,108.93 81.75,103.56 83.04,92.68 C84.94,76.56 102.37,82.47 100.77,63.32 C99.51,48.11 108.64,20.32 81.28,34.67 C56.75,47.57 50.28,84.67 46.51,120.54 C42.74,156.41 48.83,199.23 48.83,199.23 L60.44,199.22 Z" id="Path" fill="#052F5F"></path>
                            <path d="M37.18,199.22 C37.18,199.22 44.35,178.48 32.57,162.09 C20.79,145.7 13.19,144.41 11.57,134.44 C8.76,117.09 17.8,112.2 16.63,102.31 C14.9,87.65 -0.95,93 0.5,75.6 C1.65,61.78 -6.65,36.46 18.23,49.6 C40.54,61.28 46.4,95 49.85,127.65 C53.3,160.3 47.74,199.22 47.74,199.22 L37.18,199.22 Z" id="Path" fill="#3066B3"></path>
                            <path d="M54,199.64 C53.8086756,199.64212 53.6401001,199.514661 53.59,199.33 C51.8739857,192.471459 50.8686852,185.454462 50.59,178.39 C50.42,168 57.59,138.39 67.59,126.8 C74.19,119.08 72.06,109.26 69.82,98.85 C68.64,93.39 67.42,87.75 67.49,82.31 C67.62,66.67 78.85,56.75 79,56.65 C79.176967,56.5016262 79.4405256,56.5239617 79.59,56.7 C79.67005,56.777265 79.7152633,56.8837441 79.7152633,56.995 C79.7152633,57.1062559 79.67005,57.212735 79.59,57.29 C79.48,57.39 68.54,67.07 68.34,82.29 C68.26,87.64 69.47,93.23 70.64,98.64 C72.93,109.26 75.1,119.29 68.23,127.32 C58.44,138.79 51.32,168.07 51.49,178.32 C51.771142,185.315086 52.7765129,192.262199 54.49,199.05 C54.5475671,199.276008 54.414472,199.506707 54.19,199.57 L54,199.64 Z" id="Path" fill="#EAEAEA"></path>
                            <path d="M43,199.64 L43,199.64 C42.8885018,199.632322 42.784662,199.580521 42.7114655,199.496063 C42.638269,199.411606 42.6017529,199.301458 42.61,199.19 C42.61,198.82 45.15,161.47 41.3,151.51 C40.48,149.39 39.3,146.98 37.96,144.44 C33.5,135.64 27.96,124.7 30.79,111.57 C32.99,101.42 27.62,94.13 22.88,87.7 C19.88,83.62 17.27,80.09 17.27,76.55 C17.27,66.69 7.48,55.68 7.38,55.55 C7.21741125,55.3830439 7.21741125,55.1169561 7.38,54.95 C7.46770523,54.8718176 7.58358251,54.8329287 7.7006957,54.8423733 C7.81780889,54.8518179 7.9259568,54.9087733 8,55 C8.41,55.46 18.1,66.37 18.1,76.55 C18.1,79.81 20.63,83.24 23.55,87.2 C28.16,93.45 33.89,101.2 31.61,111.75 C28.83,124.58 34.3,135.38 38.71,144.06 C40.01,146.62 41.24,149.06 42.07,151.21 C46,161.34 43.55,197.71 43.44,199.21 C43.4429129,199.32667 43.3971496,199.439291 43.3136827,199.520861 C43.2302158,199.602431 43.1165722,199.645594 43,199.64 Z" id="Path" fill="#EAEAEA"></path>
                            <path d="M102.78,111.67 C102.78,111.67 59.87,115.24 47.28,167.93 C35.18,218.59 49.73,271.11 126.39,284.09 C206.13,297.6 237.39,253.48 243.6,239.39 C249.81,225.3 256.06,193.64 220,175 C189.22,159 193.6,168.7 173,146.89 C151.33,123.96 134,110.05 122.71,108.78 C113.62,107.7 102.78,111.67 102.78,111.67 Z" id="Path" fill="#408FFF"></path>
                            <path d="M87.47,129.65 C87.47,129.65 55.19,167.25 85.63,204.33 C113.57,238.33 136.51,237.76 166.71,236.06 C196.91,234.36 210.34,226.25 218.58,212.83 C226.82,199.41 195.18,180 187,178.66 C178.82,177.32 117.41,162.2 117.41,162.2 L87.47,129.65 Z" id="Path" fill="#0951A4"></path>
                            <path d="M274.29,277.55 C274.084232,281.116718 274.668116,284.684897 276,288 C276.94744,290.459831 278.193436,292.793974 279.71,294.95 L330,263.53 C330,263.53 329.16,257.66 319.81,258.38 C310.46,259.1 287.33,267.84 287.33,267.84 L278.5,270.6 L274.29,277.55 Z" id="Path" fill="#13293D"></path>
                            <path d="M269.7,272.91 L274.29,277.55 C277.272599,277.158062 280.06405,275.863526 282.29,273.84 C284.237434,272.091724 285.92156,270.070771 287.29,267.84 L282.14,261.76 L275.79,261.25 L269.7,272.91 Z" id="Path" fill="#007EA7"></path>
                            <path d="M193.62,247.35 C197.421048,252.548573 203.341733,255.782038 209.77,256.17 C222,256.83 225.93,248.85 225.93,248.85 C225.93,248.85 221.93,236.41 221.93,236.06 C221.93,235.71 212.46,229.85 212.46,229.85 L193.62,247.35 Z" id="Path" fill="#FCAF3F"></path>
                            <path d="M201.42,249.87 L194.1,254.18 L214.84,303.68 C214.84,303.68 219.51,298.17 219.99,282.59 C220.47,267.01 214.84,256.82 214.84,256.82 L201.42,249.87 Z" id="Path" fill="#13293D"></path>
                            <path d="M202.72,244.63 L201.42,249.87 C201.42,249.87 204.29,254.78 208.49,255.87 C210.550613,256.493743 212.68742,256.830248 214.84,256.87 C214.84,256.87 216.59,247.55 218.53,245.2 C219.716982,243.739774 220.656141,242.094555 221.31,240.33 C221.31,240.33 212.44,236.61 210.88,236.13 C209.32,235.65 202.72,244.63 202.72,244.63 Z" id="Path" fill="#007EA7"></path>
                            <path d="M285.31,256.7 C285.31,256.7 283.4,261.49 276.44,268.21 C269.48,274.93 263.26,274.43 263.26,274.43 C263.26,274.43 253.91,268.43 235.45,250.43 C232.28,247.33 229.45,244.49 226.82,241.88 C227.05,240.65 227.35,239.24 227.72,237.66 C228.89,232.76 234.37,217.73 239.15,204.29 C256,220.18 285.31,256.7 285.31,256.7 Z" id="Path" fill="#FCAF3F"></path>
                            <path d="M245.52,185.74 C244.13,190.23 241.74,197.05 239.15,204.33 C234.37,217.77 228.89,232.8 227.72,237.7 C227.35,239.28 227.05,240.7 226.82,241.92 C226.331694,244.201326 226.034001,246.519318 225.93,248.85 C225.93,248.85 221.49,244.71 212.11,243.99 C202.73,243.27 193.62,247.35 193.62,247.35 C195.129786,239.646934 197.363016,232.103505 200.29,224.82 C200.71,223.74 201.17,222.64 201.66,221.52 C207.49,208.07 213.97,194.09 214.17,193.65 L214.17,193.65 C196.17,191.43 173.02,192.36 173.02,192.36 C173.02,192.36 170.22,192.44 166.66,192.66 L168.4,183.24 L184.4,172.24 C184.4,172.24 227.4,160.37 237.97,163.97 C248.54,167.57 249.48,173 245.52,185.74 Z" id="Path" fill="#FFBC48"></path>
                            <path d="M214.17,193.64 L214.17,193.64 C213.97,194.08 207.49,208.06 201.66,221.51 C201.17,222.63 200.71,223.73 200.29,224.81 C193.900731,223.347988 187.351733,222.702833 180.8,222.89 C151.08,223.13 138.9,217.89 138.9,217.89 C138.9,217.89 150.36,197 151.6,195 C152.39,193.74 160.6,193 166.66,192.66 C170.22,192.44 173.02,192.36 173.02,192.36 C173.02,192.36 196.2,191.42 214.17,193.64 Z" id="Path" fill="#FCAF3F"></path>
                            <path d="M200.14,68.2 C200.324825,66.5566095 200.083766,64.8933049 199.44,63.37 C198.726692,61.7364845 197.813015,60.198013 196.72,58.79 C196.57516,58.5992911 196.543119,58.3457768 196.635957,58.1250286 C196.728795,57.9042805 196.932394,57.749867 197.17,57.72 C198.275547,57.5135358 199.409441,57.8915003 200.17,58.72 C201.538977,60.1384149 203.073288,61.3873509 204.74,62.44 L205.69,64.35 L200.14,68.2 Z" id="Path" fill="#007EA7"></path>
                            <path d="M218.25,76.44 C216.144067,78.0306577 213.802481,79.2824274 211.31,80.15 C207.65,81.29 204.36,85.76 204.36,85.76 L197.16,83.45 L195.48,76.15 C197.132947,75.4054673 198.406176,74.0128735 199,72.3 C199.84,69.55 199.84,67.15 202.48,64.57 C205.12,61.99 209,58.7 209,58.7 C212.044087,59.9212783 214.681807,61.9766898 216.61,64.63 C219.69,69 218.25,76.44 218.25,76.44 Z" id="Path" fill="#007EA7"></path>
                            <path d="M201.16,51.61 L215.39,87.74 L217.39,86.89 L203.5,50.76 C203.067111,50.623311 202.608382,50.5890775 202.16,50.66 C201.68,50.82 201.16,51.61 201.16,51.61 Z" id="Path" fill="#052F5F"></path>
                            <path d="M218.25,76.44 C218.25,76.44 211.18,76.38 207.65,71.44 C204.12,66.5 209,58.7 209,58.7 C212.044087,59.9212783 214.681807,61.9766898 216.61,64.63 C219.69,69 218.25,76.44 218.25,76.44 Z" id="Path" fill="#007EA7"></path>
                            <path d="M159.23,158.42 C167.86,163.27 184.4,172.26 184.4,172.26 C184.4,172.26 181.05,185.68 167.5,201.39 C153.95,217.1 134.65,218.59 134.65,218.59 C134.65,218.59 126.27,217.87 120.75,212.59 C119.543727,211.420403 118.436595,210.15272 117.44,208.8 L117.44,208.8 C114.972809,205.438977 112.839372,201.845292 111.07,198.07 C111.07,198.07 106.21,199.14 99.44,195.82 C89.55,191 80.36,160.09 80.6,145.24 C80.84,130.39 97.5,121.8 97.5,121.8 C97.5,121.8 115.83,115.03 125.84,114.39 C135.85,113.75 152.27,107.84 160.79,104.39 C169.31,100.94 192.43,75.15 192.43,75.15 C192.43,75.15 196.5,75.73 200.7,79.92 C203.06341,82.4425718 204.643994,85.5967908 205.25,89 C205.25,89 168.45,121 162.25,126 C156.05,131 139.11,136.42 139.11,136.42 C140.617668,138.912523 141.999403,141.479079 143.25,144.11 C144.444948,146.359291 145.406622,148.724943 146.12,151.17 C146.12,151.17 150.6,153.56 159.23,158.42 Z" id="Path" fill="#3066B3"></path>
                            <path d="M116.62,136.9 C114.915915,136.772684 113.222879,137.262493 111.85,138.28 C109.85,139.94 108.03,144.17 108.03,144.17 C108.03,144.17 102.28,139.23 99.9,133.17 C98.465657,129.531689 97.6543102,125.677792 97.5,121.77 L104.5,123.51 L116.62,136.9 Z" id="Path" fill="#F2F1F0"></path>
                            <path d="M118.86,135.56 C118.86,135.56 119.27,134.46 121.43,133.74 C122.665372,133.302334 124.031133,133.434151 125.16,134.1 C125.16,134.1 124.65,127.31 123.09,123.6 C122.127517,121.333746 120.684243,119.303608 118.86,117.65 L116.32,121 L118.86,135.56 Z" id="Path" fill="#F2F1F0"></path>
                            <path d="M116.62,136.9 C116.395591,137.768671 116.559817,138.691988 117.07,139.43 C117.92,140.91 120.24,140.43 120.24,140.43 C121.106015,139.834336 121.645628,138.869686 121.7,137.82 C121.7,136.18 119.7,134.58 119.7,134.58 L116.27,134.94 L116.62,136.9 Z" id="Path" fill="#F2F1F0"></path>
                            <path d="M153.11,186.59 C153.09954,183.096867 152.818701,179.609785 152.27,176.16 C151.27,169.08 148.27,166.33 148.27,166.33 C148.27,166.33 144.56,167.41 139.48,168.71 C139.14,168.01 138.82,167.36 138.48,166.77 L138.48,166.77 C134.26,158.96 126.89,157.42 121.23,151.67 C115.57,145.92 117.82,140.18 117.82,140.18 L119.56,137.81 L121.64,137.81 C121.64,137.81 121.83,144.39 126.21,148.59 C130.59,152.79 137.59,154.82 146.1,161.29 C147.124729,162.091038 148.054143,163.00703 148.87,164.02 C151.145778,166.980804 152.969017,170.263309 154.28,173.76 C154.44,174.426667 154.57,175.126667 154.67,175.86 C155.134519,179.511971 154.595203,183.221493 153.11,186.59 L153.11,186.59 Z" id="Path" fill="#F2F1F0"></path>
                            <path d="M118.32,115.59 C118.32,115.59 118.9,118 120.03,121.59 C120.84,124.13 119.78,131.05 119.03,134.91 C118.906989,135.604863 118.486807,136.21142 117.879509,136.570802 C117.272211,136.930184 116.5383,137.006587 115.87,136.78 C112.8,135.78 107.74,133.78 104.34,130.97 C101.318152,128.532263 98.9503561,125.380929 97.45,121.8 C97.45,121.8 98.65,110.8 97.93,108.44 C97.21,106.08 97.45,106.1 97.45,106.1 L118.79,105.8 L122.68,108.74 L118.32,115.59 Z" id="Path" fill="#007EA7"></path>
                            <path d="M122.72,85 C123.849997,90.1923444 124.23386,95.5192867 123.86,100.82 C123.275291,106.027954 121.689546,111.073816 119.19,115.68 C111.742642,116.810867 104.234438,114.052829 99.29,108.37 C90.66,98.66 87.67,98.9 87.67,98.9 C87.67,98.9 87.91,91.95 89.1,90.63 C90.29,89.31 98.45,80.32 98.69,79.96 C98.93,79.6 104.21,75.53 104.21,75.53 L122.72,85 Z" id="Path" fill="#13293D"></path>
                            <path d="M128.72,85 C129.849997,90.1923444 130.23386,95.5192867 129.86,100.82 C129.275291,106.027954 127.689546,111.073816 125.19,115.68 C117.742642,116.810867 110.234438,114.052829 105.29,108.37 C96.66,98.66 93.67,98.9 93.67,98.9 C93.67,98.9 93.91,91.95 95.1,90.63 C96.29,89.31 104.45,80.32 104.69,79.96 C104.93,79.6 110.21,75.53 110.21,75.53 L128.72,85 Z" id="Path" fill="#007EA7"></path>
                            <path d="M133.61,191.14 C133.61,191.14 123.09,197.14 119.61,201.21 C116.13,205.28 117.39,208.6 117.45,208.79 L117.45,208.79 C114.982809,205.428977 112.849372,201.835292 111.08,198.06 C111.08,198.06 118.35,196.35 124.47,194.19 C130.59,192.03 133.61,191.14 133.61,191.14 Z" id="Path" fill="#052F5F"></path>
                            <path d="M215.39,87.74 L217.39,90.74 C217.45473,90.8582287 217.596739,90.9106082 217.722737,90.8627289 C217.848735,90.8148495 217.920121,90.6813799 217.89,90.55 L217.44,86.93 L215.39,87.74 Z" id="Path" fill="#3066B3"></path>
                            <path d="M179.63,149.19 C178.79,155.54 176.36,155.54 176.97,163.09 C177.44,169.15 178.97,171.97 178.97,171.97 L161.97,183.23 C161.97,183.23 161.54,181.59 161.14,178.93 C162.43786,179.104888 163.756919,179.037071 165.03,178.73 C168.39,177.83 173.21,173.82 173.03,168.24 C172.86178,164.783131 171.397986,161.516372 168.93,159.09 C168.674732,158.82701 168.318295,158.68712 167.952292,158.706282 C167.586289,158.725445 167.246409,158.901791 167.02,159.19 C166.012488,160.503108 164.916613,161.745991 163.74,162.91 C162.883617,163.662757 161.852173,164.188793 160.74,164.44 C160.8,164.02 160.87,163.62 160.94,163.22 C161.2,161.75 161.53,160.45 161.86,159.22 C162.68,156.22 163.53,153.84 163.53,150.97 C163.600691,147.909564 163.031899,144.868059 161.86,142.04 L177.32,137.79 C179.275087,141.250508 180.083764,145.241382 179.63,149.19 L179.63,149.19 Z" id="Path" fill="#F2F1F0"></path>
                            <path d="M173,168.24 C173.21,173.82 168.39,177.83 165,178.73 C163.726919,179.037071 162.40786,179.104888 161.11,178.93 C160.623412,175.813473 160.376023,172.664279 160.37,169.51 C160.365285,167.814149 160.478895,166.120036 160.71,164.44 C161.822173,164.188793 162.853617,163.662757 163.71,162.91 C164.886613,161.745991 165.982488,160.503108 166.99,159.19 C167.216409,158.901791 167.556289,158.725445 167.922292,158.706282 C168.288295,158.68712 168.644732,158.82701 168.9,159.09 C171.367986,161.516372 172.83178,164.783131 173,168.24 Z" id="Path" fill="#FFBC48"></path>
                            <path d="M131.72,67.63 C131.72,67.63 135.84,77.48 132.98,82.55 C130.64,86.68 126.06,87.67 121.83,85.96 C117.6,84.25 112.57,81.96 109.43,84.26 C106.29,86.56 105.43,89.26 106.19,91.81 C106.95,94.36 108.39,93.65 108.39,96.08 C108.39,98.51 107.72,99.08 107.72,99.08 C107.72,99.08 106.33,94.68 103.4,95.44 C100.47,96.2 98.46,101.44 103,102.77 C107.54,104.1 107.07,106.2 105.79,107.94 C103.67,110.81 91.07,112.94 87.04,99.22 C82.28,83.04 91.04,78.9 91.04,78.9 C93.3164166,71.046666 100.62765,65.7361418 108.8,66 C123.09,66 123.58,73.3 127.32,73.55 C130,73.74 131.72,67.63 131.72,67.63 Z" id="Path" fill="#133C55"></path>
                            <path d="M173,168.24 C173.21,173.82 168.39,177.83 165,178.73 C163.726919,179.037071 162.40786,179.104888 161.11,178.93 C159.33,178.73 157.83,178.34 156.97,178.73 C155.545757,179.47166 154.160595,180.286069 152.82,181.17 C152.88,180.95 154.15,177.11 153.82,176.93 C153.49,176.75 150.49,169.7 150.49,169.7 C151.793423,169.31679 153.023684,168.718559 154.13,167.93 C155.38,166.87 156.4,162.34 158.13,161.26 C159.32,160.5 160.87,159.69 161.67,159.26 C161.748209,159.236061 161.831791,159.236061 161.91,159.26 C161.58,160.47 161.25,161.77 160.99,163.26 C160.521081,163.695408 160.083337,164.163226 159.68,164.66 C160.054632,164.63326 160.426116,164.57302 160.79,164.48 C161.902173,164.228793 162.933617,163.702757 163.79,162.95 C164.966613,161.785991 166.062488,160.543108 167.07,159.23 C167.296409,158.941791 167.636289,158.765445 168.002292,158.746282 C168.368295,158.72712 168.724732,158.86701 168.98,159.13 C171.409482,161.558888 172.843312,164.808189 173,168.24 Z" id="Path" fill="#007EA7"></path>
                            <path d="M153.11,186.59 C153.09954,183.096867 152.818701,179.609785 152.27,176.16 C151.27,169.08 148.27,166.33 148.27,166.33 C148.27,166.33 144.56,167.41 139.48,168.71 C130.75,170.92 117.94,173.71 112.79,172.71 C105,171.05 101.21,147.5 101,146 C101.38,147.34 106.93,167.1 113.93,169.62 C118.15,171.14 129.67,168.89 138.55,166.74 C143.21,165.61 147.15,164.51 148.94,163.99 L149.94,163.69 C151.983632,166.736028 153.466913,170.122514 154.32,173.69 C154.48,174.356667 154.61,175.056667 154.71,175.79 C155.174989,179.468586 154.621559,183.204236 153.11,186.59 Z" id="Path" fill="#052F5F"></path>
                        </g>
                    </g>
                </g>
            </g>
        </g>
    </g>
</svg>