<?xml version="1.0" encoding="UTF-8"?>
<svg width="63px" height="63px" viewBox="0 0 63 63" version="1.1" xmlns="http://www.w3.org/2000/svg" xmlns:xlink="http://www.w3.org/1999/xlink">
    <!-- Generator: Sketch 53.2 (72643) - https://sketchapp.com -->
    <title>Icon</title>
    <desc>Created with Sketch.</desc>
    <g id="Symbols" stroke="none" stroke-width="1" fill="none" fill-rule="evenodd">
        <g id="Mobile/LandingPage/ProcessItem" transform="translate(-129.000000, 0.000000)" fill-rule="nonzero">
            <g id="Features">
                <g id="Icon" transform="translate(129.000000, 0.000000)">
                    <circle id="Oval" fill="#F8FAFD" cx="31.5" cy="31.5" r="31.5"></circle>
                    <path d="M38.8125,29.2875 C38.9625008,29.5375012 39.0937494,29.8124985 39.20625,30.1125 C39.3187506,30.4125015 39.4124996,30.7124985 39.4875,31.0125 C39.5625004,31.3125015 39.6187498,31.6187484 39.65625,31.93125 C39.6937502,32.2437516 39.7125,32.5624984 39.7125,32.8875 C39.7125,33.3625024 39.6687504,33.8312477 39.58125,34.29375 C39.4937496,34.7562523 39.3687508,35.1999979 39.20625,35.625 C39.0437492,36.0500021 38.8500011,36.462498 38.625,36.8625 C38.3999989,37.262502 38.1500014,37.6249984 37.875,37.95 L39.3,39.9 L38.4,40.575 L37.05,38.775 C36.6999983,39.1000016 36.325002,39.3874987 35.925,39.6375 C35.524998,39.8875012 35.1062522,40.0999991 34.66875,40.275 C34.2312478,40.4500009 33.7687524,40.5812496 33.28125,40.66875 C32.7937476,40.7562504 32.3000025,40.8 31.8,40.8 C31.2999975,40.8 30.8062524,40.7562504 30.31875,40.66875 C29.8312476,40.5812496 29.3687522,40.4500009 28.93125,40.275 C28.4937478,40.0999991 28.075002,39.8875012 27.675,39.6375 C27.274998,39.3874987 26.9000018,39.1000016 26.55,38.775 L25.2,40.575 L24.3,39.9 L25.725,37.95 C25.4499986,37.6249984 25.2000011,37.262502 24.975,36.8625 C24.7499989,36.462498 24.5562508,36.0500021 24.39375,35.625 C24.2312492,35.1999979 24.1062504,34.7562523 24.01875,34.29375 C23.9312496,33.8312477 23.8875,33.3625024 23.8875,32.8875 C23.8875,32.5624984 23.9062498,32.2437516 23.94375,31.93125 C23.9812502,31.6187484 24.0374996,31.3125015 24.1125,31.0125 C24.1875004,30.7124985 24.2812494,30.4125015 24.39375,30.1125 C24.5062506,29.8124985 24.6374992,29.5375012 24.7875,29.2875 C24.6374992,29.1374992 24.5062506,28.9812508 24.39375,28.81875 C24.2812494,28.6562492 24.1875004,28.4812509 24.1125,28.29375 C24.0374996,28.1062491 23.9812502,27.912501 23.94375,27.7125 C23.9062498,27.512499 23.8875,27.312501 23.8875,27.1125 C23.8875,26.6874979 23.9687492,26.2875019 24.13125,25.9125 C24.2937508,25.5374981 24.5124986,25.2125014 24.7875,24.9375 C25.0625014,24.6624986 25.3874981,24.4437508 25.7625,24.28125 C26.1375019,24.1187492 26.5374979,24.0375 26.9625,24.0375 C27.2125012,24.0375 27.4562488,24.0687497 27.69375,24.13125 C27.9312512,24.1937503 28.1562489,24.2812494 28.36875,24.39375 C28.5812511,24.5062506 28.7812491,24.6437492 28.96875,24.80625 C29.1562509,24.9687508 29.3249992,25.149999 29.475,25.35 C29.6000006,25.2999997 29.7374992,25.2562502 29.8875,25.21875 C30.0375007,25.1812498 30.1874992,25.1500001 30.3375,25.125 C30.4875007,25.0999999 30.6374992,25.0812501 30.7875,25.06875 C30.9375007,25.0562499 31.0874993,25.0375001 31.2375,25.0125 L31.2375,23.85 L30.1125,23.85 L30.1125,22.725 L33.4875,22.725 L33.4875,23.85 L32.3625,23.85 L32.3625,25.0125 C32.5125008,25.0375001 32.6624992,25.0562499 32.8125,25.06875 C32.9625007,25.0812501 33.1124992,25.0999999 33.2625,25.125 C33.4125007,25.1500001 33.5624993,25.1812498 33.7125,25.21875 C33.8625007,25.2562502 33.9999994,25.2999997 34.125,25.35 C34.2750008,25.149999 34.4437491,24.9687508 34.63125,24.80625 C34.8187509,24.6437492 35.0187489,24.5062506 35.23125,24.39375 C35.4437511,24.2812494 35.6687488,24.1937503 35.90625,24.13125 C36.1437512,24.0687497 36.3874987,24.0375 36.6375,24.0375 C37.0625021,24.0375 37.4624981,24.1187492 37.8375,24.28125 C38.2125019,24.4437508 38.5374986,24.6624986 38.8125,24.9375 C39.0875014,25.2125014 39.3062492,25.5374981 39.46875,25.9125 C39.6312508,26.2875019 39.7125,26.6874979 39.7125,27.1125 C39.7125,27.312501 39.6937502,27.512499 39.65625,27.7125 C39.6187498,27.912501 39.5625004,28.1062491 39.4875,28.29375 C39.4124996,28.4812509 39.3187506,28.6562492 39.20625,28.81875 C39.0937494,28.9812508 38.9625008,29.1374992 38.8125,29.2875 Z M36.6375,25.1625 C36.4874992,25.1625 36.3500006,25.1749999 36.225,25.2 C36.0999994,25.2250001 35.9812506,25.2687497 35.86875,25.33125 C35.7562494,25.3937503 35.6437506,25.4624996 35.53125,25.5375 C35.4187494,25.6125004 35.3125005,25.6999995 35.2125,25.8 C35.5125015,25.9250006 35.7999986,26.0749991 36.075,26.25 C36.3500014,26.4250009 36.6124988,26.6187489 36.8625,26.83125 C37.1125013,27.0437511 37.3499989,27.2687488 37.575,27.50625 C37.8000011,27.7437512 38.012499,27.9999986 38.2125,28.275 C38.2625003,28.1999996 38.3124998,28.1125005 38.3625,28.0125 C38.4125002,27.9124995 38.4499999,27.8187504 38.475,27.73125 C38.5000001,27.6437496 38.5249999,27.5437506 38.55,27.43125 C38.5750001,27.3187494 38.5875,27.2125005 38.5875,27.1125 C38.5875,26.8374986 38.5375005,26.5875011 38.4375,26.3625 C38.3374995,26.1374989 38.1937509,25.9312509 38.00625,25.74375 C37.8187491,25.5562491 37.6062512,25.4125005 37.36875,25.3125 C37.1312488,25.2124995 36.8875012,25.1625 36.6375,25.1625 Z M25.0125,27.1125 C25.0125,27.2125005 25.0249999,27.3187494 25.05,27.43125 C25.0750001,27.5437506 25.0999999,27.6437496 25.125,27.73125 C25.1500001,27.8187504 25.1874998,27.9124995 25.2375,28.0125 C25.2875003,28.1125005 25.3374997,28.1999996 25.3875,28.275 C25.587501,27.9999986 25.7999989,27.7437512 26.025,27.50625 C26.2500011,27.2687488 26.4874988,27.0437511 26.7375,26.83125 C26.9875013,26.6187489 27.2499986,26.4250009 27.525,26.25 C27.8000014,26.0749991 28.0874985,25.9125007 28.3875,25.7625 C28.2874995,25.6874996 28.1812506,25.6125004 28.06875,25.5375 C27.9562494,25.4624996 27.8437506,25.3937503 27.73125,25.33125 C27.6187494,25.2687497 27.5000006,25.2250001 27.375,25.2 C27.2499994,25.1749999 27.1125007,25.1625 26.9625,25.1625 C26.7124988,25.1625 26.4687512,25.2124995 26.23125,25.3125 C25.9937488,25.4125005 25.7812509,25.5562491 25.59375,25.74375 C25.4062491,25.9312509 25.2625005,26.1374989 25.1625,26.3625 C25.0624995,26.5875011 25.0125,26.8374986 25.0125,27.1125 Z M31.8,39.675 C32.7250046,39.675 33.5999959,39.4937518 34.425,39.13125 C35.2500041,38.7687482 35.9687469,38.2812531 36.58125,37.66875 C37.1937531,37.0562469 37.6812482,36.3437541 38.04375,35.53125 C38.4062518,34.7187459 38.5875,33.8375047 38.5875,32.8875 C38.5875,31.9624954 38.4062518,31.0875041 38.04375,30.2625 C37.6812482,29.4374959 37.1937531,28.7187531 36.58125,28.10625 C35.9687469,27.4937469 35.2500041,27.0062518 34.425,26.64375 C33.5999959,26.2812482 32.7250046,26.1 31.8,26.1 C30.8749954,26.1 30.0000041,26.2812482 29.175,26.64375 C28.3499959,27.0062518 27.6312531,27.4937469 27.01875,28.10625 C26.4062469,28.7187531 25.9187518,29.4374959 25.55625,30.2625 C25.1937482,31.0875041 25.0125,31.9624954 25.0125,32.8875 C25.0125,33.8375047 25.1937482,34.7187459 25.55625,35.53125 C25.9187518,36.3437541 26.4062469,37.0562469 27.01875,37.66875 C27.6312531,38.2812531 28.3499959,38.7687482 29.175,39.13125 C30.0000041,39.4937518 30.8749954,39.675 31.8,39.675 Z M32.3625,29.5125 L32.3625,32.8875 L36.9,32.8875 L36.9,34.0125 L31.2375,34.0125 L31.2375,29.5125 L32.3625,29.5125 Z" id="" fill="#0077FF"></path>
                </g>
            </g>
        </g>
    </g>
</svg>