<?xml version="1.0" encoding="UTF-8"?>
<svg width="22px" height="20px" viewBox="0 0 22 20" version="1.1" xmlns="http://www.w3.org/2000/svg" xmlns:xlink="http://www.w3.org/1999/xlink">
    <!-- Generator: Sketch 53.2 (72643) - https://sketchapp.com -->
    <title></title>
    <desc>Created with Sketch.</desc>
    <g id="Symbols" stroke="none" stroke-width="1" fill="none" fill-rule="evenodd">
        <g id="Desktop-HD/LandingPage/HelpFeature1" transform="translate(-142.000000, -7.000000)" fill="#0077FF" fill-rule="nonzero">
            <g id="Group-34" transform="translate(0.000000, 3.000000)">
                <g id="Group" transform="translate(139.000000, 0.000000)">
                    <path d="M23.6679688,14.484375 C23.8684906,14.541667 24.0475253,14.6276036 24.2050781,14.7421875 C24.362631,14.8567714 24.4986973,14.9928378 24.6132812,15.1503906 C24.7278652,15.3079435 24.8209632,15.4869782 24.8925781,15.6875 C24.9641931,15.8880218 25,16.0885407 25,16.2890625 L25,21.4882812 C25,21.746095 24.9498703,21.9895822 24.8496094,22.21875 C24.7493485,22.4479178 24.6132821,22.655598 24.4414062,22.8417969 C24.2695304,23.0279957 24.0618502,23.1712235 23.8183594,23.2714844 C23.5748686,23.3717453 23.32422,23.421875 23.0664062,23.421875 L21.1328125,23.421875 L21.1328125,22.1328125 L19.84375,22.1328125 L19.84375,15.6445312 L21.1328125,15.6445312 L21.1328125,14.3554688 L22.3789062,14.3554688 C22.3216143,13.0950458 22.056643,11.913417 21.5839844,10.8105469 C21.1113258,9.70767678 20.5026079,8.74805096 19.7578125,7.93164062 C19.0130171,7.11523029 18.1464893,6.47070549 17.1582031,5.99804688 C16.1699169,5.52538826 15.1171931,5.2890625 14,5.2890625 C12.8828069,5.2890625 11.8300831,5.52538826 10.8417969,5.99804688 C9.85351068,6.47070549 8.98698289,7.11523029 8.2421875,7.93164062 C7.49739211,8.74805096 6.88867424,9.70767678 6.41601562,10.8105469 C5.94335701,11.913417 5.6783857,13.0950458 5.62109375,14.3554688 L6.8671875,14.3554688 L6.8671875,15.6445312 L8.15625,15.6445312 L8.15625,22.1328125 L6.8671875,22.1328125 L6.8671875,23.421875 L4.93359375,23.421875 C4.67577996,23.421875 4.42513143,23.3717453 4.18164062,23.2714844 C3.93814982,23.1712235 3.73046961,23.0279957 3.55859375,22.8417969 C3.38671789,22.655598 3.25065154,22.4479178 3.15039062,22.21875 C3.05012971,21.9895822 3,21.746095 3,21.4882812 L3,16.2890625 C3,16.0885407 3.03580693,15.8880218 3.10742188,15.6875 C3.17903682,15.4869782 3.27213484,15.3079435 3.38671875,15.1503906 C3.50130266,14.9928378 3.637369,14.8567714 3.79492188,14.7421875 C3.95247475,14.6276036 4.13150941,14.541667 4.33203125,14.484375 C4.3893232,13.0234302 4.68294006,11.6556053 5.21289062,10.3808594 C5.74284119,9.10611342 6.44465709,7.99609848 7.31835938,7.05078125 C8.19206166,6.10546402 9.20181719,5.3606798 10.3476562,4.81640625 C11.4934953,4.2721327 12.7109311,4 14,4 C15.2890689,4 16.5065047,4.2721327 17.6523438,4.81640625 C18.7981828,5.3606798 19.8079383,6.10546402 20.6816406,7.05078125 C21.5553429,7.99609848 22.2571588,9.10611342 22.7871094,10.3808594 C23.3170599,11.6556053 23.6106768,13.0234302 23.6679688,14.484375 Z M5.578125,22.1328125 L5.578125,15.6445312 L4.93359375,15.6445312 C4.84765582,15.6445312 4.76888057,15.658854 4.69726562,15.6875 C4.62565068,15.716146 4.55403682,15.7662757 4.48242188,15.8378906 C4.41080693,15.9095056 4.36067723,15.9811194 4.33203125,16.0527344 C4.30338527,16.1243493 4.2890625,16.2031246 4.2890625,16.2890625 L4.2890625,21.4882812 C4.2890625,21.5742192 4.30338527,21.6529944 4.33203125,21.7246094 C4.36067723,21.7962243 4.41080693,21.8606768 4.48242188,21.9179688 C4.55403682,21.9752607 4.62565068,22.0253904 4.69726562,22.0683594 C4.76888057,22.1113283 4.84765582,22.1328125 4.93359375,22.1328125 L5.578125,22.1328125 Z M23.7109375,21.4882812 L23.7109375,16.2890625 C23.7109375,16.2031246 23.6966147,16.1243493 23.6679688,16.0527344 C23.6393228,15.9811194 23.5891931,15.9095056 23.5175781,15.8378906 C23.4459632,15.7662757 23.3743493,15.716146 23.3027344,15.6875 C23.2311194,15.658854 23.1523442,15.6445312 23.0664062,15.6445312 L22.421875,15.6445312 L22.421875,22.1328125 L23.0664062,22.1328125 C23.1523442,22.1328125 23.2311194,22.1113283 23.3027344,22.0683594 C23.3743493,22.0253904 23.4459632,21.9752607 23.5175781,21.9179688 C23.5891931,21.8606768 23.6393228,21.7962243 23.6679688,21.7246094 C23.6966147,21.6529944 23.7109375,21.5742192 23.7109375,21.4882812 Z" id=""></path>
                </g>
            </g>
        </g>
    </g>
</svg>